<?xml version="1.0" encoding="UTF-8" standalone="no"?>
<!-- Created with Inkscape (http://www.inkscape.org/) -->

<svg
   xmlns:dc="http://purl.org/dc/elements/1.1/"
   xmlns:cc="http://creativecommons.org/ns#"
   xmlns:rdf="http://www.w3.org/1999/02/22-rdf-syntax-ns#"
   xmlns:svg="http://www.w3.org/2000/svg"
   xmlns="http://www.w3.org/2000/svg"
   xmlns:xlink="http://www.w3.org/1999/xlink"
   xmlns:sodipodi="http://sodipodi.sourceforge.net/DTD/sodipodi-0.dtd"
   xmlns:inkscape="http://www.inkscape.org/namespaces/inkscape"
   width="744.09448819"
   height="1052.3622047"
   id="svg2"
   version="1.1"
   inkscape:version="0.48.3.1 r9886"
   sodipodi:docname="enso.svg"
   inkscape:export-filename="/Users/niranjan/Documents/C42/logo/logo_72dpi.png"
   inkscape:export-xdpi="72"
   inkscape:export-ydpi="72">
  <defs
     id="defs4">
    <linearGradient
       inkscape:collect="always"
       id="linearGradient8329">
      <stop
         style="stop-color:#000000;stop-opacity:1;"
         offset="0"
         id="stop8331" />
      <stop
         style="stop-color:#000000;stop-opacity:0;"
         offset="1"
         id="stop8333" />
    </linearGradient>
    <inkscape:perspective
       sodipodi:type="inkscape:persp3d"
       inkscape:vp_x="0 : 526.18109 : 1"
       inkscape:vp_y="0 : 1000 : 0"
       inkscape:vp_z="744.09448 : 526.18109 : 1"
       inkscape:persp3d-origin="372.04724 : 350.78739 : 1"
       id="perspective10" />
    <linearGradient
       inkscape:collect="always"
       xlink:href="#linearGradient8329"
       id="linearGradient8335"
       x1="76.518634"
       y1="359.19448"
       x2="435.28261"
       y2="359.19448"
       gradientUnits="userSpaceOnUse" />
    <clipPath
       clipPathUnits="userSpaceOnUse"
       id="clipPath8337">
      <path
         style="fill:url(#linearGradient8341);fill-opacity:1;stroke:#000000;stroke-width:1.42093349px;stroke-linecap:butt;stroke-linejoin:miter;stroke-opacity:1"
         d="m 643.09717,328.96031 133.27609,0.8942 -224.74006,-177.05173 -276.13409,176.15753 10.45302,257.5298 245.64611,177.94592 245.64611,-173.47492 -131.53391,0 -2.61327,-262.0008 z"
         id="path8339" />
    </clipPath>
    <linearGradient
       inkscape:collect="always"
       xlink:href="#linearGradient8329"
       id="linearGradient8341"
       gradientUnits="userSpaceOnUse"
       x1="76.518634"
       y1="359.19448"
       x2="435.28261"
       y2="359.19448"
       gradientTransform="matrix(1.4024476,0,0,1.4396631,167.4845,-58.499622)" />
    <inkscape:perspective
       id="perspective10-9"
       inkscape:persp3d-origin="372.04724 : 350.78739 : 1"
       sodipodi:type="inkscape:persp3d"
       inkscape:vp_y="0 : 1000 : 0"
       inkscape:vp_x="0 : 526.18109 : 1"
       inkscape:vp_z="744.09448 : 526.18109 : 1" />
    <inkscape:perspective
       id="perspective2824"
       inkscape:persp3d-origin="0.5 : 0.33333333 : 1"
       sodipodi:type="inkscape:persp3d"
       inkscape:vp_y="0 : 1000 : 0"
       inkscape:vp_x="0 : 0.5 : 1"
       inkscape:vp_z="1 : 0.5 : 1" />
    <inkscape:perspective
       id="perspective2840"
       inkscape:persp3d-origin="0.5 : 0.33333333 : 1"
       sodipodi:type="inkscape:persp3d"
       inkscape:vp_y="0 : 1000 : 0"
       inkscape:vp_x="0 : 0.5 : 1"
       inkscape:vp_z="1 : 0.5 : 1" />
    <inkscape:perspective
       id="perspective2856"
       inkscape:persp3d-origin="0.5 : 0.33333333 : 1"
       sodipodi:type="inkscape:persp3d"
       inkscape:vp_y="0 : 1000 : 0"
       inkscape:vp_x="0 : 0.5 : 1"
       inkscape:vp_z="1 : 0.5 : 1" />
    <inkscape:perspective
       id="perspective2872"
       inkscape:persp3d-origin="0.5 : 0.33333333 : 1"
       sodipodi:type="inkscape:persp3d"
       inkscape:vp_y="0 : 1000 : 0"
       inkscape:vp_x="0 : 0.5 : 1"
       inkscape:vp_z="1 : 0.5 : 1" />
    <inkscape:perspective
       id="perspective2888"
       inkscape:persp3d-origin="0.5 : 0.33333333 : 1"
       sodipodi:type="inkscape:persp3d"
       inkscape:vp_y="0 : 1000 : 0"
       inkscape:vp_x="0 : 0.5 : 1"
       inkscape:vp_z="1 : 0.5 : 1" />
    <inkscape:perspective
       id="perspective2904"
       inkscape:persp3d-origin="0.5 : 0.33333333 : 1"
       sodipodi:type="inkscape:persp3d"
       inkscape:vp_y="0 : 1000 : 0"
       inkscape:vp_x="0 : 0.5 : 1"
       inkscape:vp_z="1 : 0.5 : 1" />
    <inkscape:perspective
       id="perspective2920"
       inkscape:persp3d-origin="0.5 : 0.33333333 : 1"
       sodipodi:type="inkscape:persp3d"
       inkscape:vp_y="0 : 1000 : 0"
       inkscape:vp_x="0 : 0.5 : 1"
       inkscape:vp_z="1 : 0.5 : 1" />
    <inkscape:perspective
       id="perspective2936"
       inkscape:persp3d-origin="0.5 : 0.33333333 : 1"
       sodipodi:type="inkscape:persp3d"
       inkscape:vp_y="0 : 1000 : 0"
       inkscape:vp_x="0 : 0.5 : 1"
       inkscape:vp_z="1 : 0.5 : 1" />
    <inkscape:perspective
       id="perspective2952"
       inkscape:persp3d-origin="0.5 : 0.33333333 : 1"
       sodipodi:type="inkscape:persp3d"
       inkscape:vp_y="0 : 1000 : 0"
       inkscape:vp_x="0 : 0.5 : 1"
       inkscape:vp_z="1 : 0.5 : 1" />
    <inkscape:perspective
       id="perspective2968"
       inkscape:persp3d-origin="0.5 : 0.33333333 : 1"
       sodipodi:type="inkscape:persp3d"
       inkscape:vp_y="0 : 1000 : 0"
       inkscape:vp_x="0 : 0.5 : 1"
       inkscape:vp_z="1 : 0.5 : 1" />
    <inkscape:perspective
       id="perspective2984"
       inkscape:persp3d-origin="0.5 : 0.33333333 : 1"
       sodipodi:type="inkscape:persp3d"
       inkscape:vp_y="0 : 1000 : 0"
       inkscape:vp_x="0 : 0.5 : 1"
       inkscape:vp_z="1 : 0.5 : 1" />
    <inkscape:perspective
       id="perspective3000"
       inkscape:persp3d-origin="0.5 : 0.33333333 : 1"
       sodipodi:type="inkscape:persp3d"
       inkscape:vp_y="0 : 1000 : 0"
       inkscape:vp_x="0 : 0.5 : 1"
       inkscape:vp_z="1 : 0.5 : 1" />
    <inkscape:perspective
       id="perspective3016"
       inkscape:persp3d-origin="0.5 : 0.33333333 : 1"
       sodipodi:type="inkscape:persp3d"
       inkscape:vp_y="0 : 1000 : 0"
       inkscape:vp_x="0 : 0.5 : 1"
       inkscape:vp_z="1 : 0.5 : 1" />
    <inkscape:perspective
       id="perspective3032"
       inkscape:persp3d-origin="0.5 : 0.33333333 : 1"
       sodipodi:type="inkscape:persp3d"
       inkscape:vp_y="0 : 1000 : 0"
       inkscape:vp_x="0 : 0.5 : 1"
       inkscape:vp_z="1 : 0.5 : 1" />
    <inkscape:perspective
       id="perspective3048"
       inkscape:persp3d-origin="0.5 : 0.33333333 : 1"
       sodipodi:type="inkscape:persp3d"
       inkscape:vp_y="0 : 1000 : 0"
       inkscape:vp_x="0 : 0.5 : 1"
       inkscape:vp_z="1 : 0.5 : 1" />
    <inkscape:perspective
       id="perspective3062"
       inkscape:persp3d-origin="0.5 : 0.33333333 : 1"
       sodipodi:type="inkscape:persp3d"
       inkscape:vp_y="0 : 1000 : 0"
       inkscape:vp_x="0 : 0.5 : 1"
       inkscape:vp_z="1 : 0.5 : 1" />
    <inkscape:perspective
       id="perspective3078"
       inkscape:persp3d-origin="0.5 : 0.33333333 : 1"
       sodipodi:type="inkscape:persp3d"
       inkscape:vp_y="0 : 1000 : 0"
       inkscape:vp_x="0 : 0.5 : 1"
       inkscape:vp_z="1 : 0.5 : 1" />
    <inkscape:perspective
       id="perspective3094"
       inkscape:persp3d-origin="0.5 : 0.33333333 : 1"
       sodipodi:type="inkscape:persp3d"
       inkscape:vp_y="0 : 1000 : 0"
       inkscape:vp_x="0 : 0.5 : 1"
       inkscape:vp_z="1 : 0.5 : 1" />
    <inkscape:perspective
       id="perspective3110"
       inkscape:persp3d-origin="0.5 : 0.33333333 : 1"
       sodipodi:type="inkscape:persp3d"
       inkscape:vp_y="0 : 1000 : 0"
       inkscape:vp_x="0 : 0.5 : 1"
       inkscape:vp_z="1 : 0.5 : 1" />
    <inkscape:perspective
       id="perspective3126"
       inkscape:persp3d-origin="0.5 : 0.33333333 : 1"
       sodipodi:type="inkscape:persp3d"
       inkscape:vp_y="0 : 1000 : 0"
       inkscape:vp_x="0 : 0.5 : 1"
       inkscape:vp_z="1 : 0.5 : 1" />
    <inkscape:perspective
       id="perspective3142"
       inkscape:persp3d-origin="0.5 : 0.33333333 : 1"
       sodipodi:type="inkscape:persp3d"
       inkscape:vp_y="0 : 1000 : 0"
       inkscape:vp_x="0 : 0.5 : 1"
       inkscape:vp_z="1 : 0.5 : 1" />
    <inkscape:perspective
       id="perspective3158"
       inkscape:persp3d-origin="0.5 : 0.33333333 : 1"
       sodipodi:type="inkscape:persp3d"
       inkscape:vp_y="0 : 1000 : 0"
       inkscape:vp_x="0 : 0.5 : 1"
       inkscape:vp_z="1 : 0.5 : 1" />
    <inkscape:perspective
       id="perspective3174"
       inkscape:persp3d-origin="0.5 : 0.33333333 : 1"
       sodipodi:type="inkscape:persp3d"
       inkscape:vp_y="0 : 1000 : 0"
       inkscape:vp_x="0 : 0.5 : 1"
       inkscape:vp_z="1 : 0.5 : 1" />
    <inkscape:perspective
       id="perspective3190"
       inkscape:persp3d-origin="0.5 : 0.33333333 : 1"
       sodipodi:type="inkscape:persp3d"
       inkscape:vp_y="0 : 1000 : 0"
       inkscape:vp_x="0 : 0.5 : 1"
       inkscape:vp_z="1 : 0.5 : 1" />
  </defs>
  <sodipodi:namedview
     id="base"
     pagecolor="#ffffff"
     bordercolor="#666666"
     borderopacity="1.0"
     inkscape:pageopacity="0.0"
     inkscape:pageshadow="2"
     inkscape:zoom="0.78"
     inkscape:cx="394.28927"
     inkscape:cy="599.90045"
     inkscape:document-units="px"
     inkscape:current-layer="layer3"
     showgrid="true"
     inkscape:window-width="1690"
     inkscape:window-height="958"
     inkscape:window-x="95"
     inkscape:window-y="41"
     inkscape:window-maximized="0"
     inkscape:snap-bbox="true"
     inkscape:bbox-nodes="false"
     inkscape:snap-bbox-midpoints="true"
     inkscape:snap-to-guides="true"
     inkscape:snap-grids="true"
     showguides="true"
     inkscape:guide-bbox="true"
     inkscape:snap-global="true"
     inkscape:snap-nodes="false">
    <inkscape:grid
       type="xygrid"
       id="grid4233" />
  </sodipodi:namedview>
  <metadata
     id="metadata7">
    <rdf:RDF>
      <cc:Work
         rdf:about="">
        <dc:format>image/svg+xml</dc:format>
        <dc:type
           rdf:resource="http://purl.org/dc/dcmitype/StillImage" />
        <dc:title></dc:title>
      </cc:Work>
    </rdf:RDF>
  </metadata>
  <g
     inkscape:groupmode="layer"
     id="layer4"
     inkscape:label="Background" />
  <g
     inkscape:label="C"
     inkscape:groupmode="layer"
     id="layer1"
     style="display:inline" />
  <g
     inkscape:groupmode="layer"
     id="layer3"
     inkscape:label="42">
    <g
       id="g6534"
       transform="matrix(14.4,0,0,14.4,134.21359,146.96067)">
      <path
         id="path6536"
         d="M 5.56,11.46 C 5.565,11.412 5.569,11.364 5.577,11.296 5.607,11.335 5.63,11.36 5.675,11.415 5.821,11.143 5.963,10.884 6.099,10.623 6.203,10.421 6.302,10.217 6.404,10.014 6.419,9.984 6.441,9.955 6.454,9.925 6.57,9.675 6.669,9.417 6.807,9.18 6.906,9.009 7.058,8.868 7.18,8.709 7.41,8.411 7.638,8.109 7.866,7.808 7.873,7.797 7.86,7.771 7.858,7.755 7.62,7.976 7.383,8.197 7.146,8.418 7.136,8.41 7.125,8.402 7.115,8.395 7.385,8.054 7.655,7.711 7.94,7.351 8.018,7.509 8.08,7.435 8.163,7.36 8.663,6.907 9.148,6.435 9.681,6.022 9.965,5.802 10.327,5.673 10.664,5.532 11.474,5.193 12.292,4.874 13.106,4.538 13.359,4.434 13.6,4.304 13.837,4.154 13.742,4.171 13.649,4.187 13.555,4.204 13.548,4.187 13.543,4.172 13.536,4.156 13.61,4.126 13.684,4.098 13.758,4.067 13.879,4.017 14.054,4.033 14.044,3.82 14.042,3.793 14.124,3.745 14.172,3.737 14.343,3.71 14.515,3.698 14.686,3.674 14.729,3.668 14.767,3.63 14.81,3.615 14.913,3.581 15.018,3.532 15.123,3.528 15.721,3.507 16.319,3.479 16.918,3.49 c 0.685,0.012 1.352,0.168 2.012,0.351 0.268,0.074 0.546,0.11 0.815,0.179 0.211,0.053 0.423,0.112 0.622,0.198 0.614,0.272 1.234,0.539 1.832,0.847 0.485,0.25 0.944,0.552 1.406,0.845 0.229,0.146 0.434,0.33 0.653,0.493 0.604,0.447 1.096,1.011 1.615,1.545 0.061,0.063 0.106,0.141 0.16,0.213 0.016,0.021 0.027,0.06 0.048,0.065 0.364,0.085 0.377,0.457 0.567,0.685 0.024,0.031 0.042,0.071 0.065,0.102 0.013,0.014 0.033,0.021 0.104,0.061 C 26.767,8.958 26.745,8.884 26.706,8.821 26.285,8.162 25.864,7.503 25.434,6.85 25.35,6.722 25.227,6.616 25.11,6.515 25.022,6.439 24.881,6.409 24.963,6.243 24.97,6.229 24.93,6.186 24.905,6.163 24.675,5.935 24.385,5.789 24.175,5.517 23.983,5.268 23.639,5.134 23.354,4.959 23.106,4.805 22.84,4.676 22.601,4.511 22.459,4.413 22.351,4.265 22.225,4.134 22.233,4.13 22.287,4.086 22.304,4.097 c 0.128,0.089 0.247,0.188 0.37,0.284 0.015,0.013 0.027,0.03 0.044,0.038 0.244,0.099 0.492,0.186 0.73,0.296 0.17,0.079 0.323,0.195 0.487,0.283 0.212,0.113 0.431,0.211 0.645,0.321 0.059,0.032 0.117,0.078 0.159,0.13 0.104,0.127 0.283,0.151 0.429,0.04 0.049,0.041 0.099,0.083 0.148,0.124 -0.018,-0.321 -0.322,-0.409 -0.47,-0.632 0.096,0.057 0.189,0.113 0.322,0.194 -0.034,-0.089 -0.053,-0.133 -0.07,-0.178 0.012,-0.011 0.025,-0.022 0.037,-0.034 0.039,0.052 0.117,0.109 0.11,0.154 -0.03,0.203 0.117,0.26 0.246,0.324 0.176,0.087 0.358,0.156 0.569,0.246 -0.008,0.007 0.026,-0.021 0.093,-0.073 0.013,0.028 0.033,0.053 0.035,0.078 0.021,0.289 0.264,0.414 0.43,0.597 0.44,0.484 0.871,0.972 1.191,1.549 0.097,0.177 0.249,0.325 0.345,0.503 0.269,0.494 0.522,0.996 0.779,1.498 0.213,0.416 0.426,0.833 0.551,1.289 0.167,0.615 0.372,1.22 0.512,1.841 0.146,0.652 0.229,1.316 0.34,1.976 0.002,0.006 0.003,0.013 0.003,0.02 0.04,0.631 0.036,1.269 0.129,1.891 0.092,0.614 -0.051,1.198 -0.12,1.79 -0.051,0.431 -0.224,0.846 -0.326,1.271 -0.101,0.417 -0.178,0.841 -0.271,1.263 -0.023,0.107 -0.063,0.213 -0.097,0.318 0.018,0.008 0.035,0.014 0.053,0.021 0.019,-0.036 0.033,-0.073 0.055,-0.107 0.018,-0.032 0.039,-0.061 0.104,-0.073 -0.028,0.092 -0.051,0.187 -0.087,0.274 -0.202,0.483 -0.405,0.964 -0.616,1.442 -0.023,0.056 -0.097,0.089 -0.137,0.14 -0.05,0.063 -0.138,0.175 -0.119,0.198 0.186,0.254 -0.071,0.417 -0.143,0.589 -0.153,0.366 -0.371,0.71 -0.598,1.039 -0.461,0.674 -0.951,1.327 -1.545,1.896 -0.017,0.019 -0.027,0.042 -0.061,0.097 0.084,-0.02 0.135,-0.031 0.239,-0.056 -0.308,0.279 -0.576,0.521 -0.844,0.769 -0.048,0.042 -0.081,0.1 -0.119,0.151 -0.062,0.085 -0.097,0.168 -0.255,0.14 -0.12,-0.021 -0.312,0.013 -0.312,0.235 0,0.036 -0.038,0.084 -0.071,0.109 -0.169,0.129 -0.333,0.263 -0.515,0.371 -0.141,0.086 -0.306,0.13 -0.454,0.205 -0.055,0.029 -0.124,0.096 -0.126,0.145 -0.008,0.209 -0.17,0.227 -0.306,0.267 -0.161,0.049 -0.294,0.102 -0.377,0.275 -0.038,0.081 -0.182,0.125 -0.288,0.159 -0.247,0.083 -0.503,0.145 -0.749,0.231 -0.05,0.018 -0.071,0.107 -0.128,0.12 -0.133,0.06 -0.262,0.129 -0.397,0.18 -0.13,0.051 -0.271,0.073 -0.396,0.129 -0.429,0.189 -0.882,0.287 -1.338,0.383 -0.33,0.071 -0.658,0.146 -1.002,0.179 1.579,-0.495 3.16,-0.974 4.515,-1.966 -0.01,-0.02 -0.019,-0.04 -0.025,-0.06 -0.136,0.062 -0.271,0.127 -0.438,0.205 0.029,-0.069 0.048,-0.109 0.064,-0.149 -0.012,-0.013 -0.023,-0.024 -0.037,-0.036 -0.118,0.164 -0.386,0.133 -0.438,0.392 -0.008,0.04 -0.102,0.072 -0.162,0.093 -0.143,0.05 -0.298,0.073 -0.435,0.136 -0.488,0.223 -0.971,0.459 -1.459,0.685 -0.062,0.029 -0.139,0.027 -0.211,0.04 -0.007,-0.018 -0.013,-0.033 -0.02,-0.051 0.316,-0.165 0.64,-0.319 0.949,-0.496 0.223,-0.129 0.428,-0.284 0.641,-0.429 0.033,-0.023 0.062,-0.067 0.098,-0.073 0.536,-0.098 0.901,-0.498 1.33,-0.775 0.385,-0.25 0.705,-0.604 1.052,-0.913 0.025,-0.023 0.036,-0.063 0.027,-0.127 -0.219,0.161 -0.438,0.322 -0.657,0.483 -0.013,-0.015 -0.025,-0.027 -0.039,-0.042 1.127,-0.97 2.253,-1.942 3.038,-3.223 -0.022,-0.021 -0.048,-0.041 -0.071,-0.062 -0.111,0.146 -0.223,0.292 -0.333,0.438 -0.22,0.293 -0.421,0.604 -0.664,0.878 -0.153,0.175 -0.365,0.298 -0.551,0.443 -0.148,0.117 -0.242,0.283 -0.451,0.352 -0.146,0.048 -0.242,0.249 -0.363,0.379 -0.129,0.138 -0.278,0.238 -0.463,0.265 -0.018,-0.021 -0.035,-0.042 -0.054,-0.062 0.123,-0.085 0.245,-0.168 0.368,-0.252 -0.025,-0.029 -0.052,-0.06 -0.076,-0.091 -1.119,0.923 -2.316,1.72 -3.644,2.302 -0.011,-0.018 -0.02,-0.032 -0.028,-0.049 0.251,-0.142 0.502,-0.28 0.754,-0.424 0.268,-0.151 0.544,-0.291 0.795,-0.467 0.234,-0.165 0.544,-0.253 0.648,-0.575 -0.92,0.541 -1.864,1.027 -2.876,1.381 0.356,-0.188 0.711,-0.375 1.068,-0.565 -0.004,-0.013 -0.005,-0.025 -0.007,-0.038 -0.059,0 -0.126,-0.021 -0.175,0.002 -0.26,0.119 -0.511,0.263 -0.773,0.371 -0.401,0.167 -0.812,0.311 -1.223,0.461 -0.032,0.012 -0.078,-0.008 -0.177,-0.018 0.391,-0.183 0.723,-0.338 1.058,-0.493 -0.006,-0.02 -0.013,-0.04 -0.02,-0.059 -0.059,0.006 -0.119,0.014 -0.221,0.024 0.062,-0.045 0.093,-0.073 0.127,-0.092 0.067,-0.034 0.151,-0.048 0.201,-0.097 0.495,-0.476 1.152,-0.698 1.696,-1.096 0.412,-0.302 0.833,-0.596 1.243,-0.9 0.077,-0.057 0.128,-0.146 0.188,-0.224 -0.016,-0.019 -0.029,-0.037 -0.045,-0.055 -0.064,0.034 -0.132,0.063 -0.191,0.105 -0.105,0.073 -0.22,0.144 -0.306,0.237 -0.283,0.315 -0.672,0.463 -1.025,0.665 -0.133,0.076 -0.286,0.114 -0.43,0.172 -0.15,0.061 -0.312,0.107 -0.449,0.19 -0.196,0.119 -0.417,0.035 -0.615,0.109 -0.08,0.029 -0.166,0.047 -0.27,0.035 0.037,-0.031 0.069,-0.071 0.11,-0.096 0.467,-0.281 0.977,-0.509 1.39,-0.854 0.45,-0.374 0.949,-0.675 1.403,-1.034 0.051,-0.04 0.088,-0.096 0.115,-0.161 -1.098,0.621 -2.126,1.358 -3.305,1.835 0.032,-0.029 0.062,-0.069 0.1,-0.087 0.227,-0.105 0.374,-0.31 0.609,-0.43 0.487,-0.251 0.918,-0.617 1.363,-0.951 0.116,-0.087 0.3,-0.146 0.281,-0.384 -0.06,0.042 -0.101,0.063 -0.133,0.096 -0.303,0.296 -0.66,0.457 -1.081,0.534 -0.172,0.031 -0.32,0.203 -0.475,0.319 -0.166,0.125 -0.323,0.259 -0.486,0.391 -0.014,-0.013 -0.027,-0.024 -0.042,-0.036 0.082,-0.09 0.164,-0.181 0.278,-0.304 -0.297,0.145 -0.556,0.271 -0.813,0.396 -0.017,-0.021 -0.03,-0.046 -0.046,-0.069 0.966,-0.495 1.839,-1.117 2.633,-1.846 -0.014,-0.02 -0.026,-0.039 -0.04,-0.058 -0.184,0.11 -0.367,0.225 -0.552,0.336 -0.007,-0.01 -0.014,-0.02 -0.021,-0.029 0.176,-0.125 0.349,-0.249 0.521,-0.375 0.067,-0.054 0.135,-0.109 0.196,-0.169 0.449,-0.429 0.923,-0.835 1.337,-1.297 0.536,-0.597 1.021,-1.235 1.42,-1.942 0.334,-0.592 0.64,-1.193 0.855,-1.832 0.147,-0.441 0.219,-0.91 0.302,-1.371 0.079,-0.441 0.161,-0.887 0.181,-1.333 0.024,-0.62 0.002,-1.245 -0.019,-1.866 -0.011,-0.334 -0.037,-0.669 -0.096,-0.998 -0.073,-0.414 -0.159,-0.831 -0.289,-1.23 -0.247,-0.756 -0.527,-1.5 -0.8,-2.248 -0.037,-0.099 -0.117,-0.183 -0.163,-0.28 C 24.249,10.428 24.232,10.324 24.185,10.236 24.08,10.04 23.976,9.84 23.848,9.659 23.634,9.361 23.416,9.065 23.174,8.791 22.939,8.524 22.672,8.287 22.416,8.04 22.353,7.978 22.285,7.917 22.211,7.87 22.15,7.831 22.107,7.697 21.998,7.814 21.991,7.822 21.938,7.798 21.912,7.779 21.764,7.675 21.611,7.572 21.469,7.457 20.693,6.818 19.758,6.556 18.8,6.36 18.326,6.263 17.843,6.163 17.363,6.167 16.725,6.172 16.087,6.263 15.452,6.347 15.117,6.391 14.785,6.483 14.46,6.581 14.229,6.65 14.012,6.769 13.789,6.864 13.645,6.924 13.497,6.975 13.357,7.045 12.923,7.264 12.496,7.49 12.062,7.704 11.979,7.745 11.879,7.753 11.788,7.778 11.764,7.784 11.736,7.794 11.717,7.81 11.522,7.971 11.328,8.135 11.114,8.313 11.078,8.228 11.056,8.171 11.031,8.115 11.012,8.104 10.994,8.093 10.976,8.082 c 0.006,0.386 -0.307,0.496 -0.521,0.692 -0.141,0.13 -0.283,0.26 -0.413,0.402 -0.306,0.333 -0.605,0.674 -0.91,1.013 0,0 -0.028,-0.046 -0.086,-0.137 -0.083,0.182 -0.146,0.334 -0.221,0.48 -0.03,0.057 -0.096,0.096 -0.13,0.152 -0.091,0.154 -0.185,0.308 -0.255,0.47 -0.081,0.188 -0.137,0.386 -0.205,0.579 -0.07,0.202 -0.134,0.406 -0.216,0.603 -0.045,0.108 -0.143,0.197 -0.18,0.307 -0.072,0.225 -0.108,0.461 -0.18,0.685 C 7.601,13.507 7.512,13.675 7.414,13.899 7.383,13.779 7.363,13.7 7.343,13.621 7.364,13.627 7.387,13.633 7.408,13.639 7.455,13.53 7.514,13.423 7.545,13.309 7.661,12.885 7.624,12.43 7.872,12.025 8.059,11.719 8.096,11.322 8.28,11.015 8.589,10.497 8.934,9.995 9.312,9.524 9.811,8.904 10.402,8.372 11.071,7.933 11.214,7.839 11.361,7.751 11.5,7.652 11.598,7.582 11.687,7.493 11.734,7.674 12.245,7.396 12.737,7.129 13.23,6.861 13.68,6.617 14.123,6.351 14.586,6.133 14.85,6.01 15.15,5.963 15.434,5.889 15.565,5.855 15.701,5.84 15.834,5.812 15.902,5.797 15.97,5.773 16.069,5.743 16.015,5.701 15.994,5.67 15.975,5.671 c -0.23,0.017 -0.463,0.021 -0.689,0.063 -0.237,0.044 -0.464,0.131 -0.698,0.191 -0.097,0.024 -0.197,0.026 -0.295,0.04 -0.02,0.003 -0.05,0.004 -0.058,0.017 -0.107,0.174 -0.303,0.155 -0.462,0.204 -0.099,0.03 -0.215,0.005 -0.366,0.005 C 13.3,5.995 13.57,5.893 13.605,5.648 13.266,5.771 12.968,5.94 12.656,5.975 12.287,6.014 12.117,6.362 11.796,6.442 11.782,6.42 11.769,6.396 11.754,6.374 12.018,6.216 12.281,6.058 12.546,5.902 12.592,5.875 12.669,5.87 12.688,5.833 12.853,5.537 13.171,5.568 13.428,5.471 13.684,5.373 13.941,5.273 14.186,5.143 13.887,5.028 13.68,5.291 13.397,5.283 13.486,5.221 13.575,5.158 13.664,5.096 13.656,5.082 13.648,5.069 13.64,5.055 13.535,5.09 13.43,5.124 13.326,5.159 13.315,5.139 13.305,5.118 13.293,5.098 13.401,5.035 13.507,4.967 13.617,4.908 13.723,4.85 13.835,4.801 13.945,4.746 13.935,4.722 13.925,4.697 13.916,4.673 13.779,4.711 13.637,4.737 13.504,4.788 13.189,4.907 12.87,5.018 12.569,5.169 12.133,5.386 11.714,5.635 11.286,5.871 11.083,5.983 10.878,6.09 10.677,6.204 10.287,6.419 10,6.741 9.721,7.085 9.458,7.409 9.144,7.688 8.866,7.997 8.634,8.254 8.419,8.527 8.193,8.789 8.059,8.943 7.915,9.089 7.78,9.244 7.731,9.3 7.698,9.373 7.658,9.437 7.674,9.449 7.689,9.459 7.704,9.472 7.801,9.361 7.897,9.252 7.996,9.141 7.703,9.679 7.259,10.118 7.052,10.702 7.077,10.725 7.103,10.749 7.127,10.773 7.151,10.719 7.169,10.661 7.2,10.613 7.407,10.29 7.619,9.97 7.822,9.646 7.947,9.445 8.046,9.229 8.176,9.032 8.303,8.841 8.446,8.66 8.598,8.487 8.817,8.236 9.043,7.99 9.278,7.754 9.466,7.565 9.674,7.393 9.889,7.198 9.877,7.277 9.869,7.339 9.86,7.401 9.881,7.414 9.903,7.425 9.924,7.439 10.009,7.311 10.095,7.183 10.18,7.055 10.139,7.469 9.858,7.738 9.593,8.017 9.604,8.039 9.613,8.06 9.623,8.082 9.679,8.062 9.773,8.054 9.784,8.019 9.859,7.78 10.055,7.733 10.326,7.679 10.264,7.778 10.24,7.851 10.189,7.894 9.987,8.072 9.795,8.252 9.743,8.535 9.735,8.571 9.685,8.624 9.654,8.625 9.29,8.634 9.23,8.909 9.156,9.177 8.951,9.138 8.92,9.176 8.926,9.484 8.883,9.453 8.851,9.431 8.818,9.407 8.478,10.032 8.137,10.656 7.776,11.319 7.719,11.203 7.683,11.13 7.63,11.019 7.534,11.253 7.348,11.402 7.38,11.666 7.394,11.773 7.3,11.892 7.248,12.023 7.222,12.004 7.193,11.984 7.147,11.952 7.113,12.056 7.081,12.156 7.049,12.258 7.041,12.249 7.034,12.242 7.027,12.233 6.972,12.285 6.883,12.328 6.869,12.389 6.792,12.72 6.731,13.055 6.669,13.39 6.624,13.643 6.577,13.898 6.545,14.153 6.528,14.297 6.543,14.445 6.543,14.591 6.516,14.593 6.488,14.594 6.462,14.595 6.455,14.496 6.448,14.396 6.442,14.296 6.43,14.295 6.418,14.295 6.404,14.294 c -0.038,0.141 -0.076,0.281 -0.112,0.418 0.081,0.039 0.146,0.07 0.23,0.109 0.037,-0.09 0.073,-0.18 0.108,-0.267 0.186,0.007 -0.092,0.334 0.208,0.252 -0.014,0.098 -0.04,0.192 -0.04,0.285 0.011,0.585 0.052,1.169 0.11,1.753 0.021,0.216 0.046,0.433 0.088,0.645 0.023,0.117 0.099,0.222 0.129,0.339 0.026,0.107 0.022,0.224 0.032,0.337 -0.026,0.003 -0.053,0.007 -0.08,0.012 C 6.934,17.594 6.79,17.014 6.646,16.432 6.626,16.431 6.607,16.431 6.587,16.431 c 0,0.174 -0.022,0.353 0.005,0.523 0.073,0.446 0.133,0.899 0.263,1.329 0.248,0.812 0.558,1.598 1.195,2.202 0.052,0.048 0.207,0.123 0.049,0.238 -0.005,0.004 0.04,0.093 0.074,0.128 0.115,0.115 0.235,0.224 0.354,0.334 -0.02,0.021 -0.038,0.042 -0.057,0.062 -0.072,-0.065 -0.144,-0.131 -0.208,-0.188 -0.35,0.065 -0.477,-0.198 -0.625,-0.43 -0.015,0.01 -0.029,0.019 -0.044,0.028 0.05,0.099 0.089,0.205 0.15,0.295 0.312,0.46 0.711,0.844 1.12,1.216 0.044,0.04 0.108,0.059 0.157,0.097 0.223,0.171 0.444,0.343 0.666,0.514 -0.013,0.02 -0.024,0.038 -0.038,0.056 C 9.416,22.722 9.184,22.605 8.948,22.497 8.857,22.456 8.756,22.439 8.659,22.412 8.246,22.295 8.006,21.973 7.768,21.651 7.498,21.29 7.242,20.922 6.966,20.535 6.722,20.792 7.103,20.876 7.094,21.07 7.045,21.057 7,21.042 6.922,21.018 7.126,21.472 7.424,21.821 7.746,22.155 7.726,22.173 7.708,22.187 7.688,22.204 7.538,22.046 7.367,21.901 7.243,21.725 7.024,21.414 6.839,21.079 6.628,20.763 6.571,20.677 6.471,20.619 6.393,20.546 6.367,20.523 6.337,20.493 6.326,20.461 6.27,20.306 6.22,20.146 6.158,19.963 6.012,20.268 6.665,21.824 7.013,22.015 6.99,21.907 6.971,21.822 6.953,21.737 c 0.014,-0.01 0.028,-0.019 0.042,-0.027 0.334,0.682 0.63,1.391 1.274,1.864 0.022,-0.019 0.062,-0.049 0.112,-0.087 0.076,0.149 0.146,0.285 0.216,0.421 0.481,-0.076 0.816,0.233 1.189,0.444 0.198,0.112 0.397,0.224 0.595,0.335 0.015,-0.02 0.028,-0.04 0.042,-0.059 -0.168,-0.148 -0.338,-0.295 -0.507,-0.44 0.011,-0.01 0.02,-0.019 0.029,-0.03 0.244,0.111 0.491,0.216 0.73,0.337 0.164,0.082 0.288,0.199 0.515,0.175 0.195,-0.023 0.408,0.108 0.673,0.192 -0.059,-0.129 -0.098,-0.212 -0.161,-0.349 0.232,0.134 0.423,0.242 0.614,0.352 0.088,0.05 0.18,0.106 0.195,-0.034 0.187,0.044 0.409,0.048 0.58,0.143 0.265,0.148 0.512,0.341 0.739,0.545 0.391,0.352 0.677,0.784 0.883,1.268 0.013,0.029 0.034,0.058 0.058,0.098 0.041,-0.036 0.071,-0.062 0.109,-0.098 0.058,0.398 0.164,0.777 0.021,1.165 -0.104,0.286 -0.219,0.555 -0.451,0.762 -0.04,0.035 -0.093,0.078 -0.101,0.124 -0.058,0.319 -0.34,0.426 -0.536,0.622 -0.238,0.241 -0.539,0.256 -0.813,0.369 -0.057,0.024 -0.147,-0.019 -0.217,-0.044 -0.055,-0.019 -0.418,0.033 -0.468,0.068 -0.076,0.055 -0.156,0.126 -0.242,0.137 -0.498,0.059 -1.003,0.159 -1.494,-0.013 C 10.281,29.873 9.986,29.735 9.716,29.571 9.278,29.305 8.839,29.033 8.443,28.713 8.09,28.427 7.647,28.257 7.371,27.875 6.852,27.158 6.104,26.68 5.493,26.058 4.97,25.528 4.416,25.026 4.008,24.393 3.734,23.969 3.42,23.569 3.167,23.132 2.925,22.717 2.736,22.268 2.53,21.831 2.415,21.58 2.303,21.33 2.21,21.072 2.054,20.638 1.915,20.198 1.752,19.714 1.848,19.789 1.896,19.827 1.946,19.866 1.961,19.856 1.974,19.848 1.988,19.84 1.905,19.674 1.822,19.507 1.74,19.34 1.718,19.292 1.683,19.243 1.675,19.194 1.495,18.211 1.498,17.217 1.503,16.223 c 0,-0.012 0.011,-0.023 0.036,-0.074 0.03,0.069 0.062,0.115 0.069,0.166 0.086,0.589 0.032,1.189 0.181,1.773 0.069,0.273 0.058,0.567 0.116,0.846 0.081,0.392 0.177,0.784 0.298,1.165 0.067,0.211 0.212,0.397 0.3,0.604 0.068,0.158 0.104,0.33 0.155,0.497 C 2.676,21.198 2.693,21.196 2.71,21.194 2.72,21.161 2.743,21.123 2.736,21.095 2.601,20.603 2.469,20.108 2.325,19.618 2.214,19.241 2.067,18.875 1.975,18.496 1.903,18.192 1.859,17.877 1.858,17.565 c -0.006,-0.875 0,-1.751 0.036,-2.625 0.018,-0.407 0.107,-0.812 0.18,-1.214 0.02,-0.11 0.109,-0.205 0.139,-0.314 0.08,-0.294 0.144,-0.594 0.216,-0.891 0.023,-0.097 0.087,-0.169 0.14,-0.248 C 2.703,12.072 2.855,11.851 2.778,11.565 2.754,11.474 2.804,11.351 2.844,11.253 3.082,10.657 3.324,10.063 3.562,9.47 3.605,9.363 3.64,9.253 3.678,9.144 3.703,9.151 3.73,9.157 3.754,9.164 3.734,9.283 3.73,9.407 3.689,9.517 3.629,9.675 3.54,9.824 3.464,9.978 3.404,10.099 3.333,10.217 3.289,10.344 3.273,10.391 3.317,10.461 3.333,10.521 3.35,10.515 3.365,10.509 3.382,10.503 3.601,10.01 3.822,9.517 4.04,9.025 4.068,9.034 4.098,9.045 4.124,9.054 4.08,9.234 4.047,9.417 3.986,9.592 3.919,9.783 3.796,9.959 3.752,10.153 3.716,10.308 3.763,10.483 3.823,10.669 3.95,10.403 4.079,10.137 4.208,9.87 4.225,9.874 4.244,9.879 4.26,9.882 4.234,9.98 4.208,10.077 4.181,10.175 c -0.03,0.107 -0.06,0.215 -0.105,0.378 0.218,-0.254 0.396,-0.46 0.572,-0.666 0.018,0.013 0.036,0.026 0.053,0.04 -0.37,1.207 -1.014,2.336 -1.043,3.639 0.38,-0.791 0.516,-1.672 0.95,-2.442 -0.024,0.115 -0.051,0.232 -0.076,0.347 0.017,0.005 0.033,0.01 0.05,0.015 0.101,-0.223 0.201,-0.446 0.3,-0.668 0.024,0.005 0.049,0.012 0.073,0.018 -0.027,0.137 -0.046,0.273 -0.081,0.409 -0.092,0.348 -0.189,0.693 -0.282,1.042 -0.003,0.013 0.017,0.032 0.023,0.044 0.169,-0.408 0.336,-0.813 0.505,-1.221 0.019,0.005 0.037,0.013 0.056,0.019 -0.013,0.064 -0.024,0.129 -0.038,0.195 0.019,0.006 0.037,0.012 0.055,0.019 C 5.374,10.989 5.543,10.629 5.74,10.285 5.954,9.912 6.188,9.55 6.422,9.19 6.455,9.137 6.544,9.118 6.607,9.083 6.59,9.143 6.586,9.213 6.554,9.267 6.391,9.54 6.235,9.821 6.048,10.077 c -0.254,0.345 -0.407,0.732 -0.541,1.131 -0.029,0.087 -0.11,0.2 0.059,0.247 -0.096,0.297 -0.191,0.594 -0.287,0.891 0.077,0.009 0.104,0.003 0.109,-0.01 0.088,-0.259 0.175,-0.518 0.254,-0.78 C 5.647,11.533 5.589,11.491 5.56,11.46 z M 23.668,6.984 C 23.683,6.969 23.697,6.955 23.712,6.941 23.66,6.867 23.621,6.78 23.556,6.723 23.357,6.553 23.135,6.407 22.947,6.227 22.506,5.811 22.011,5.476 21.463,5.224 21.35,5.172 21.192,5.097 21.105,5.138 20.981,5.197 20.902,5.166 20.806,5.123 20.475,4.976 20.157,4.805 19.816,4.686 19.426,4.549 19.019,4.46 18.623,4.345 18.121,4.199 17.609,4.145 17.088,4.171 16.896,4.18 16.705,4.2 16.514,4.215 c 0.025,0.051 0.053,0.073 0.08,0.075 0.307,0.022 0.616,0.025 0.921,0.065 0.19,0.025 0.411,0.056 0.555,0.168 0.188,0.145 0.378,0.199 0.597,0.219 0.282,0.027 0.583,0.014 0.844,0.106 0.58,0.206 1.211,0.265 1.739,0.624 0.381,0.258 0.789,0.476 1.183,0.714 0.245,0.147 0.489,0.295 0.729,0.449 0.169,0.111 0.336,0.232 0.506,0.349 z M 11.422,5.49 c 0.009,0.024 0.02,0.05 0.028,0.074 0.469,-0.243 0.937,-0.485 1.405,-0.728 -0.553,0.059 -0.991,0.362 -1.433,0.654 z m 10.315,20.133 c 0.231,-0.057 0.981,-0.842 1.015,-1.04 -0.475,0.23 -0.606,0.771 -1.015,1.04 z M 6.487,11.151 c 0.028,0.016 0.056,0.031 0.084,0.046 C 6.778,10.791 7.089,10.444 7.23,10.002 7.21,9.991 7.19,9.981 7.172,9.969 6.943,10.364 6.716,10.757 6.487,11.151 z M 22.614,7.65 c -0.02,0.022 -0.042,0.044 -0.062,0.067 0.297,0.286 0.594,0.571 0.892,0.857 C 23.46,8.557 23.475,8.541 23.49,8.524 23.223,8.208 22.947,7.9 22.614,7.65 z M 3.851,11.3 C 3.863,11.299 3.872,11.296 3.883,11.293 3.952,11.158 3.994,10.996 4.098,10.895 4.229,10.766 4.245,10.716 4.033,10.59 3.97,10.835 3.91,11.068 3.851,11.3 z m 3.126,7.703 C 6.949,19.016 6.919,19.027 6.89,19.04 6.974,19.241 7.057,19.443 7.141,19.645 7.172,19.631 7.203,19.619 7.234,19.606 7.149,19.405 7.063,19.203 6.977,19.003 z M 8.095,10.387 C 8.113,10.393 8.13,10.401 8.148,10.408 8.25,10.209 8.353,10.009 8.455,9.81 8.292,9.981 8.098,10.134 8.095,10.387 z M 23.25,25.142 c 0.021,0.021 0.042,0.042 0.062,0.063 0.156,-0.151 0.314,-0.303 0.471,-0.455 -0.02,-0.02 -0.036,-0.038 -0.055,-0.057 -0.159,0.151 -0.319,0.299 -0.478,0.449 z m 1.186,-1.165 c -0.021,-0.016 -0.039,-0.029 -0.06,-0.045 -0.161,0.212 -0.323,0.425 -0.486,0.636 0.017,0.014 0.031,0.025 0.047,0.038 0.167,-0.21 0.332,-0.42 0.499,-0.629 z M 4.449,13.035 C 4.423,13.023 4.397,13.011 4.371,13 4.323,13.161 4.275,13.323 4.228,13.484 4.253,13.492 4.28,13.5 4.305,13.508 4.353,13.35 4.4,13.192 4.449,13.035 z m 18.302,12.522 c 0.02,0.022 0.036,0.045 0.054,0.066 0.129,-0.115 0.255,-0.23 0.384,-0.346 -0.014,-0.015 -0.026,-0.03 -0.039,-0.045 -0.134,0.108 -0.266,0.217 -0.399,0.325 z M 24.407,7.479 c -0.032,0.032 -0.063,0.063 -0.097,0.097 0.111,0.089 0.224,0.18 0.335,0.271 C 24.662,7.83 24.68,7.813 24.699,7.797 24.602,7.69 24.505,7.584 24.407,7.479 z m -0.419,1.687 c 0.028,-0.02 0.058,-0.04 0.086,-0.058 -0.09,-0.118 -0.177,-0.237 -0.266,-0.355 -0.02,0.014 -0.042,0.029 -0.062,0.042 0.081,0.124 0.161,0.247 0.242,0.371 z"
         inkscape:connector-curvature="0" />
      <path
         id="path6538"
         d="m 22.806,23.433 c -0.035,-0.032 -0.062,-0.058 -0.123,-0.11 -0.076,0.081 -0.15,0.16 -0.224,0.239 -0.006,-0.006 -0.011,-0.01 -0.016,-0.016 0.098,-0.14 0.185,-0.29 0.298,-0.417 0.643,-0.721 1.106,-1.555 1.513,-2.421 0.165,-0.351 0.332,-0.707 0.426,-1.08 0.327,-1.291 0.504,-2.604 0.352,-3.938 -0.078,-0.677 -0.193,-1.351 -0.29,-2.025 -0.01,-0.067 -0.008,-0.135 -0.012,-0.202 0.018,-0.003 0.033,-0.005 0.05,-0.008 0.033,0.176 0.058,0.354 0.097,0.529 0.043,0.185 0.096,0.368 0.148,0.566 0.042,0.004 0.1,0.011 0.213,0.023 -0.057,0.125 -0.101,0.227 -0.146,0.327 -0.021,-0.007 -0.044,-0.014 -0.065,-0.021 0.056,0.275 0.111,0.552 0.164,0.829 0.009,0.047 0,0.096 0.006,0.143 0.02,0.181 0.053,0.358 0.06,0.54 0.005,0.137 -0.025,0.276 -0.032,0.415 -0.021,0.351 -0.038,0.701 -0.055,1.052 0,0.02 0.018,0.041 0.015,0.059 -0.068,0.338 -0.138,0.678 -0.213,1.016 -0.08,0.364 -0.143,0.732 -0.255,1.086 -0.103,0.328 -0.252,0.643 -0.394,0.956 -0.134,0.295 -0.277,0.586 -0.432,0.87 -0.094,0.172 -0.218,0.326 -0.33,0.489 -0.207,0.304 -0.411,0.608 -0.619,0.914 -0.042,0.059 -0.088,0.118 -0.136,0.185 z"
         inkscape:connector-curvature="0" />
      <path
         id="path6540"
         d="m 15.403,2.142 c 0.345,-0.281 0.731,-0.432 1.163,-0.488 0.188,-0.024 0.36,-0.14 0.567,-0.099 0.242,0.047 0.489,0.072 0.786,0.114 -0.07,0.11 -0.104,0.163 -0.149,0.234 0.088,0.032 0.179,0.064 0.307,0.11 -0.242,0 -0.447,-0.007 -0.652,10e-4 -0.37,0.018 -0.74,0.05 -1.111,0.066 C 16.249,2.083 16.119,2.12 16.149,1.961 16.151,1.946 16.114,1.907 16.111,1.909 16.081,1.925 16.049,1.944 16.026,1.969 16,2 15.985,2.064 15.958,2.068 15.775,2.101 15.589,2.119 15.403,2.142 z"
         inkscape:connector-curvature="0" />
      <path
         id="path6542"
         d="M 6.619,7.067 C 6.678,6.982 6.737,6.897 6.795,6.812 6.781,6.799 6.766,6.788 6.752,6.775 6.571,6.975 6.391,7.175 6.211,7.376 6.201,7.37 6.19,7.363 6.179,7.357 6.201,7.312 6.213,7.26 6.245,7.225 6.442,7.004 6.642,6.786 6.842,6.57 7.059,6.338 7.275,6.108 7.5,5.884 7.647,5.738 7.812,5.608 7.963,5.465 8.055,5.38 8.132,5.277 8.227,5.195 8.364,5.075 8.504,4.956 8.657,4.856 9.068,4.584 9.485,4.317 9.907,4.06 10.011,3.996 10.143,3.978 10.281,3.97 10.04,4.12 9.794,4.263 9.559,4.421 9.21,4.656 8.853,4.883 8.526,5.15 8.284,5.349 8.086,5.605 7.868,5.836 7.518,6.205 7.169,6.572 6.818,6.939 6.766,6.993 6.705,7.036 6.646,7.083 6.638,7.077 6.628,7.071 6.619,7.067 z"
         inkscape:connector-curvature="0" />
      <path
         id="path6544"
         d="m 15.916,2.56 c 0.021,0.027 0.042,0.056 0.091,0.123 C 15.799,2.633 15.63,2.592 15.403,2.536 16.113,2.42 16.772,2.297 17.448,2.371 17.119,2.704 16.702,2.54 16.329,2.609 16.231,2.279 16.053,2.619 15.916,2.56 z"
         inkscape:connector-curvature="0" />
      <path
         id="path6546"
         d="M 6.142,6.528 C 6.147,6.465 6.153,6.401 6.16,6.326 6.105,6.311 6.058,6.298 5.957,6.271 6.108,6.068 6.243,5.887 6.376,5.706 6.397,5.717 6.417,5.727 6.437,5.739 6.444,5.795 6.451,5.852 6.463,5.962 6.606,5.774 6.725,5.617 6.843,5.462 6.857,5.472 6.869,5.482 6.883,5.492 6.63,5.827 6.64,6.344 6.142,6.528 z"
         inkscape:connector-curvature="0" />
      <path
         id="path6548"
         d="m 13.744,3.339 c 0.786,-0.313 1.584,-0.549 2.33,-0.521 -0.71,0.158 -1.52,0.34 -2.33,0.521 z"
         inkscape:connector-curvature="0" />
      <path
         id="path6550"
         d="m 25.494,14.793 c 0.037,0.515 0.072,1.028 0.109,1.543 -0.033,0.003 -0.066,0.006 -0.099,0.009 -0.039,-0.513 -0.079,-1.026 -0.117,-1.539 0.036,-0.005 0.072,-0.009 0.107,-0.013 z"
         inkscape:connector-curvature="0" />
      <path
         id="path6552"
         d="M 14.217,2.338 C 13.785,2.466 13.353,2.596 12.921,2.725 13.31,2.446 13.755,2.363 14.217,2.338 z"
         inkscape:connector-curvature="0" />
      <path
         id="path6554"
         d="m 24.258,11.893 c 0.162,0.434 0.324,0.869 0.485,1.303 -0.024,0.009 -0.05,0.019 -0.074,0.028 -0.158,-0.436 -0.315,-0.872 -0.473,-1.308 0.021,-0.008 0.041,-0.016 0.062,-0.023 z"
         inkscape:connector-curvature="0" />
      <path
         id="path6556"
         d="m 14.356,2.373 c 0.021,-0.15 0.063,-0.217 0.203,-0.206 0.107,0.008 0.216,-0.029 0.326,-0.035 0.04,-0.001 0.08,0.03 0.12,0.047 -0.021,0.038 -0.042,0.076 -0.065,0.111 -0.007,0.009 -0.024,0.015 -0.037,0.017 -0.175,0.021 -0.351,0.042 -0.547,0.066 z"
         inkscape:connector-curvature="0" />
      <path
         id="path6558"
         d="M 16.923,1.403 C 16.703,1.436 16.482,1.467 16.262,1.5 16.258,1.478 16.254,1.455 16.249,1.433 16.44,1.258 16.689,1.365 16.904,1.3 c 0.008,0.034 0.014,0.068 0.019,0.103 z"
         inkscape:connector-curvature="0" />
      <path
         id="path6560"
         d="M 5.93,7.904 C 5.757,8.161 5.585,8.418 5.413,8.675 5.392,8.661 5.37,8.647 5.351,8.634 5.523,8.376 5.693,8.118 5.866,7.859 5.886,7.874 5.907,7.89 5.93,7.904 z"
         inkscape:connector-curvature="0" />
      <path
         id="path6562"
         d="m 22.547,23.704 c -0.222,0.194 -0.444,0.389 -0.665,0.583 -0.02,-0.022 -0.038,-0.044 -0.058,-0.066 0.224,-0.194 0.448,-0.389 0.672,-0.582 0.016,0.021 0.033,0.044 0.051,0.065 z"
         inkscape:connector-curvature="0" />
      <path
         id="path6564"
         d="m 20.591,25.704 c -0.236,0.153 -0.474,0.305 -0.71,0.456 -0.015,-0.021 -0.029,-0.044 -0.045,-0.066 0.234,-0.157 0.468,-0.314 0.702,-0.472 0.017,0.027 0.035,0.055 0.053,0.082 z"
         inkscape:connector-curvature="0" />
      <path
         id="path6566"
         d="M 6.936,7.638 C 7.132,7.408 7.328,7.177 7.524,6.946 7.544,6.963 7.565,6.98 7.585,6.998 7.39,7.23 7.194,7.461 6.999,7.693 6.978,7.675 6.957,7.657 6.936,7.638 z"
         inkscape:connector-curvature="0" />
      <path
         id="path6568"
         d="m 21.979,24.44 c -0.19,0.128 -0.381,0.255 -0.577,0.387 0.055,-0.192 0.153,-0.273 0.537,-0.435 0.015,0.016 0.026,0.033 0.04,0.048 z"
         inkscape:connector-curvature="0" />
      <path
         id="path6570"
         d="M 12.625,6.624 C 12.462,6.726 12.3,6.828 12.137,6.93 12.123,6.921 12.111,6.913 12.097,6.905 c 0.024,-0.082 0.05,-0.164 0.083,-0.276 0.056,0.062 0.081,0.09 0.105,0.117 0.096,-0.066 0.19,-0.133 0.286,-0.2 0.018,0.026 0.036,0.052 0.054,0.078 z"
         inkscape:connector-curvature="0" />
      <path
         id="path6572"
         d="m 15.304,3.227 c 0.252,-0.031 0.503,-0.062 0.756,-0.093 0.003,0.018 0.004,0.037 0.007,0.054 -0.253,0.03 -0.505,0.061 -0.758,0.091 C 15.308,3.262 15.306,3.244 15.304,3.227 z"
         inkscape:connector-curvature="0" />
      <path
         id="path6574"
         d="m 18.36,28.581 c -0.18,0.067 -0.358,0.137 -0.536,0.204 -0.011,-0.026 -0.021,-0.054 -0.03,-0.08 0.177,-0.064 0.355,-0.13 0.532,-0.193 0.011,0.023 0.022,0.046 0.034,0.069 z"
         inkscape:connector-curvature="0" />
      <path
         id="path6576"
         d="M 8.877,5.714 C 8.732,5.904 8.588,6.095 8.443,6.288 8.418,6.267 8.395,6.248 8.37,6.227 8.506,6.029 8.725,5.902 8.88,5.719 L 8.877,5.714 z"
         inkscape:connector-curvature="0" />
      <path
         id="path6578"
         d="m 23.923,11.105 c 0.088,0.191 0.177,0.381 0.263,0.572 -0.018,0.008 -0.036,0.018 -0.054,0.026 -0.093,-0.186 -0.184,-0.373 -0.275,-0.56 0.021,-0.013 0.044,-0.026 0.066,-0.038 z"
         inkscape:connector-curvature="0" />
      <path
         id="path6580"
         d="m 24.34,4.621 c 0.144,0.097 0.289,0.192 0.433,0.288 -0.015,0.022 -0.029,0.046 -0.044,0.07 C 24.583,4.883 24.437,4.789 24.291,4.693 24.307,4.668 24.323,4.645 24.34,4.621 z"
         inkscape:connector-curvature="0" />
      <path
         id="path6582"
         d="M 6.712,9.038 C 6.712,8.782 6.766,8.711 6.998,8.631 6.896,8.775 6.803,8.906 6.712,9.038 z"
         inkscape:connector-curvature="0" />
      <path
         id="path6584"
         d="M 8.88,5.72 C 9,5.634 9.12,5.55 9.239,5.465 9.11,5.77 9.05,5.802 8.877,5.715 8.877,5.714 8.88,5.72 8.88,5.72 z"
         inkscape:connector-curvature="0" />
      <path
         id="path6586"
         d="M 5.631,10.276 C 5.549,10.433 5.468,10.591 5.386,10.748 5.362,10.737 5.34,10.726 5.317,10.715 5.398,10.557 5.48,10.399 5.562,10.241 c 0.023,0.013 0.045,0.024 0.069,0.035 z"
         inkscape:connector-curvature="0" />
      <path
         id="path6588"
         d="M 16.861,1.079 C 17.014,1.053 17.167,1.027 17.318,1 17.322,1.022 17.325,1.046 17.329,1.068 17.177,1.091 17.023,1.114 16.872,1.137 16.868,1.118 16.865,1.099 16.861,1.079 z"
         inkscape:connector-curvature="0" />
      <path
         id="path6590"
         d="m 8.011,20.04 c 0.081,0.127 0.163,0.254 0.245,0.382 -0.021,0.014 -0.043,0.026 -0.064,0.04 C 8.109,20.333 8.027,20.205 7.945,20.076 7.966,20.063 7.988,20.053 8.011,20.04 z"
         inkscape:connector-curvature="0" />
      <path
         id="path6592"
         d="M 4.845,10.445 C 4.931,10.29 5.017,10.135 5.104,9.982 5.118,9.99 5.132,9.997 5.146,10.003 5.068,10.161 4.99,10.318 4.912,10.476 4.889,10.467 4.867,10.455 4.845,10.445 z"
         inkscape:connector-curvature="0" />
      <path
         id="path6594"
         d="m 20.43,25.532 c 0.142,-0.103 0.284,-0.207 0.425,-0.31 0.017,0.021 0.03,0.044 0.046,0.063 -0.145,0.099 -0.291,0.194 -0.436,0.293 -0.013,-0.015 -0.024,-0.03 -0.035,-0.046 z"
         inkscape:connector-curvature="0" />
    </g>
  </g>
</svg>
