<?xml version="1.0" encoding="UTF-8" standalone="no"?>
<!-- Created with Inkscape (http://www.inkscape.org/) -->

<svg
   xmlns:dc="http://purl.org/dc/elements/1.1/"
   xmlns:cc="http://creativecommons.org/ns#"
   xmlns:rdf="http://www.w3.org/1999/02/22-rdf-syntax-ns#"
   xmlns:svg="http://www.w3.org/2000/svg"
   xmlns="http://www.w3.org/2000/svg"
   xmlns:xlink="http://www.w3.org/1999/xlink"
   xmlns:sodipodi="http://sodipodi.sourceforge.net/DTD/sodipodi-0.dtd"
   xmlns:inkscape="http://www.inkscape.org/namespaces/inkscape"
   width="744.09448819"
   height="1052.3622047"
   id="svg2"
   version="1.1"
   inkscape:version="0.48.3.1 r9886"
   sodipodi:docname="logo.svg"
   inkscape:export-filename="/Users/niranjan/Documents/C42/logo/logo_72dpi.png"
   inkscape:export-xdpi="72"
   inkscape:export-ydpi="72">
  <defs
     id="defs4">
    <linearGradient
       inkscape:collect="always"
       id="linearGradient8329">
      <stop
         style="stop-color:#000000;stop-opacity:1;"
         offset="0"
         id="stop8331" />
      <stop
         style="stop-color:#000000;stop-opacity:0;"
         offset="1"
         id="stop8333" />
    </linearGradient>
    <inkscape:perspective
       sodipodi:type="inkscape:persp3d"
       inkscape:vp_x="0 : 526.18109 : 1"
       inkscape:vp_y="0 : 1000 : 0"
       inkscape:vp_z="744.09448 : 526.18109 : 1"
       inkscape:persp3d-origin="372.04724 : 350.78739 : 1"
       id="perspective10" />
    <linearGradient
       inkscape:collect="always"
       xlink:href="#linearGradient8329"
       id="linearGradient8335"
       x1="76.518634"
       y1="359.19448"
       x2="435.28261"
       y2="359.19448"
       gradientUnits="userSpaceOnUse" />
    <clipPath
       clipPathUnits="userSpaceOnUse"
       id="clipPath8337">
      <path
         style="fill:url(#linearGradient8341);fill-opacity:1;stroke:#000000;stroke-width:1.42093349px;stroke-linecap:butt;stroke-linejoin:miter;stroke-opacity:1"
         d="m 643.09717,328.96031 133.27609,0.8942 -224.74006,-177.05173 -276.13409,176.15753 10.45302,257.5298 245.64611,177.94592 245.64611,-173.47492 -131.53391,0 -2.61327,-262.0008 z"
         id="path8339" />
    </clipPath>
    <linearGradient
       inkscape:collect="always"
       xlink:href="#linearGradient8329"
       id="linearGradient8341"
       gradientUnits="userSpaceOnUse"
       x1="76.518634"
       y1="359.19448"
       x2="435.28261"
       y2="359.19448"
       gradientTransform="matrix(1.4024476,0,0,1.4396631,167.4845,-58.499622)" />
    <inkscape:perspective
       id="perspective10-9"
       inkscape:persp3d-origin="372.04724 : 350.78739 : 1"
       sodipodi:type="inkscape:persp3d"
       inkscape:vp_y="0 : 1000 : 0"
       inkscape:vp_x="0 : 526.18109 : 1"
       inkscape:vp_z="744.09448 : 526.18109 : 1" />
    <inkscape:perspective
       id="perspective2824"
       inkscape:persp3d-origin="0.5 : 0.33333333 : 1"
       sodipodi:type="inkscape:persp3d"
       inkscape:vp_y="0 : 1000 : 0"
       inkscape:vp_x="0 : 0.5 : 1"
       inkscape:vp_z="1 : 0.5 : 1" />
    <inkscape:perspective
       id="perspective2840"
       inkscape:persp3d-origin="0.5 : 0.33333333 : 1"
       sodipodi:type="inkscape:persp3d"
       inkscape:vp_y="0 : 1000 : 0"
       inkscape:vp_x="0 : 0.5 : 1"
       inkscape:vp_z="1 : 0.5 : 1" />
    <inkscape:perspective
       id="perspective2856"
       inkscape:persp3d-origin="0.5 : 0.33333333 : 1"
       sodipodi:type="inkscape:persp3d"
       inkscape:vp_y="0 : 1000 : 0"
       inkscape:vp_x="0 : 0.5 : 1"
       inkscape:vp_z="1 : 0.5 : 1" />
    <inkscape:perspective
       id="perspective2872"
       inkscape:persp3d-origin="0.5 : 0.33333333 : 1"
       sodipodi:type="inkscape:persp3d"
       inkscape:vp_y="0 : 1000 : 0"
       inkscape:vp_x="0 : 0.5 : 1"
       inkscape:vp_z="1 : 0.5 : 1" />
    <inkscape:perspective
       id="perspective2888"
       inkscape:persp3d-origin="0.5 : 0.33333333 : 1"
       sodipodi:type="inkscape:persp3d"
       inkscape:vp_y="0 : 1000 : 0"
       inkscape:vp_x="0 : 0.5 : 1"
       inkscape:vp_z="1 : 0.5 : 1" />
    <inkscape:perspective
       id="perspective2904"
       inkscape:persp3d-origin="0.5 : 0.33333333 : 1"
       sodipodi:type="inkscape:persp3d"
       inkscape:vp_y="0 : 1000 : 0"
       inkscape:vp_x="0 : 0.5 : 1"
       inkscape:vp_z="1 : 0.5 : 1" />
    <inkscape:perspective
       id="perspective2920"
       inkscape:persp3d-origin="0.5 : 0.33333333 : 1"
       sodipodi:type="inkscape:persp3d"
       inkscape:vp_y="0 : 1000 : 0"
       inkscape:vp_x="0 : 0.5 : 1"
       inkscape:vp_z="1 : 0.5 : 1" />
    <inkscape:perspective
       id="perspective2936"
       inkscape:persp3d-origin="0.5 : 0.33333333 : 1"
       sodipodi:type="inkscape:persp3d"
       inkscape:vp_y="0 : 1000 : 0"
       inkscape:vp_x="0 : 0.5 : 1"
       inkscape:vp_z="1 : 0.5 : 1" />
    <inkscape:perspective
       id="perspective2952"
       inkscape:persp3d-origin="0.5 : 0.33333333 : 1"
       sodipodi:type="inkscape:persp3d"
       inkscape:vp_y="0 : 1000 : 0"
       inkscape:vp_x="0 : 0.5 : 1"
       inkscape:vp_z="1 : 0.5 : 1" />
    <inkscape:perspective
       id="perspective2968"
       inkscape:persp3d-origin="0.5 : 0.33333333 : 1"
       sodipodi:type="inkscape:persp3d"
       inkscape:vp_y="0 : 1000 : 0"
       inkscape:vp_x="0 : 0.5 : 1"
       inkscape:vp_z="1 : 0.5 : 1" />
    <inkscape:perspective
       id="perspective2984"
       inkscape:persp3d-origin="0.5 : 0.33333333 : 1"
       sodipodi:type="inkscape:persp3d"
       inkscape:vp_y="0 : 1000 : 0"
       inkscape:vp_x="0 : 0.5 : 1"
       inkscape:vp_z="1 : 0.5 : 1" />
    <inkscape:perspective
       id="perspective3000"
       inkscape:persp3d-origin="0.5 : 0.33333333 : 1"
       sodipodi:type="inkscape:persp3d"
       inkscape:vp_y="0 : 1000 : 0"
       inkscape:vp_x="0 : 0.5 : 1"
       inkscape:vp_z="1 : 0.5 : 1" />
    <inkscape:perspective
       id="perspective3016"
       inkscape:persp3d-origin="0.5 : 0.33333333 : 1"
       sodipodi:type="inkscape:persp3d"
       inkscape:vp_y="0 : 1000 : 0"
       inkscape:vp_x="0 : 0.5 : 1"
       inkscape:vp_z="1 : 0.5 : 1" />
    <inkscape:perspective
       id="perspective3032"
       inkscape:persp3d-origin="0.5 : 0.33333333 : 1"
       sodipodi:type="inkscape:persp3d"
       inkscape:vp_y="0 : 1000 : 0"
       inkscape:vp_x="0 : 0.5 : 1"
       inkscape:vp_z="1 : 0.5 : 1" />
    <inkscape:perspective
       id="perspective3048"
       inkscape:persp3d-origin="0.5 : 0.33333333 : 1"
       sodipodi:type="inkscape:persp3d"
       inkscape:vp_y="0 : 1000 : 0"
       inkscape:vp_x="0 : 0.5 : 1"
       inkscape:vp_z="1 : 0.5 : 1" />
    <inkscape:perspective
       id="perspective3062"
       inkscape:persp3d-origin="0.5 : 0.33333333 : 1"
       sodipodi:type="inkscape:persp3d"
       inkscape:vp_y="0 : 1000 : 0"
       inkscape:vp_x="0 : 0.5 : 1"
       inkscape:vp_z="1 : 0.5 : 1" />
    <inkscape:perspective
       id="perspective3078"
       inkscape:persp3d-origin="0.5 : 0.33333333 : 1"
       sodipodi:type="inkscape:persp3d"
       inkscape:vp_y="0 : 1000 : 0"
       inkscape:vp_x="0 : 0.5 : 1"
       inkscape:vp_z="1 : 0.5 : 1" />
    <inkscape:perspective
       id="perspective3094"
       inkscape:persp3d-origin="0.5 : 0.33333333 : 1"
       sodipodi:type="inkscape:persp3d"
       inkscape:vp_y="0 : 1000 : 0"
       inkscape:vp_x="0 : 0.5 : 1"
       inkscape:vp_z="1 : 0.5 : 1" />
    <inkscape:perspective
       id="perspective3110"
       inkscape:persp3d-origin="0.5 : 0.33333333 : 1"
       sodipodi:type="inkscape:persp3d"
       inkscape:vp_y="0 : 1000 : 0"
       inkscape:vp_x="0 : 0.5 : 1"
       inkscape:vp_z="1 : 0.5 : 1" />
    <inkscape:perspective
       id="perspective3126"
       inkscape:persp3d-origin="0.5 : 0.33333333 : 1"
       sodipodi:type="inkscape:persp3d"
       inkscape:vp_y="0 : 1000 : 0"
       inkscape:vp_x="0 : 0.5 : 1"
       inkscape:vp_z="1 : 0.5 : 1" />
    <inkscape:perspective
       id="perspective3142"
       inkscape:persp3d-origin="0.5 : 0.33333333 : 1"
       sodipodi:type="inkscape:persp3d"
       inkscape:vp_y="0 : 1000 : 0"
       inkscape:vp_x="0 : 0.5 : 1"
       inkscape:vp_z="1 : 0.5 : 1" />
    <inkscape:perspective
       id="perspective3158"
       inkscape:persp3d-origin="0.5 : 0.33333333 : 1"
       sodipodi:type="inkscape:persp3d"
       inkscape:vp_y="0 : 1000 : 0"
       inkscape:vp_x="0 : 0.5 : 1"
       inkscape:vp_z="1 : 0.5 : 1" />
    <inkscape:perspective
       id="perspective3174"
       inkscape:persp3d-origin="0.5 : 0.33333333 : 1"
       sodipodi:type="inkscape:persp3d"
       inkscape:vp_y="0 : 1000 : 0"
       inkscape:vp_x="0 : 0.5 : 1"
       inkscape:vp_z="1 : 0.5 : 1" />
    <inkscape:perspective
       id="perspective3190"
       inkscape:persp3d-origin="0.5 : 0.33333333 : 1"
       sodipodi:type="inkscape:persp3d"
       inkscape:vp_y="0 : 1000 : 0"
       inkscape:vp_x="0 : 0.5 : 1"
       inkscape:vp_z="1 : 0.5 : 1" />
  </defs>
  <sodipodi:namedview
     id="base"
     pagecolor="#ffffff"
     bordercolor="#666666"
     borderopacity="1.0"
     inkscape:pageopacity="0.0"
     inkscape:pageshadow="2"
     inkscape:zoom="0.78"
     inkscape:cx="394.28927"
     inkscape:cy="599.90045"
     inkscape:document-units="px"
     inkscape:current-layer="layer3"
     showgrid="true"
     inkscape:window-width="1690"
     inkscape:window-height="958"
     inkscape:window-x="95"
     inkscape:window-y="41"
     inkscape:window-maximized="0"
     inkscape:snap-bbox="true"
     inkscape:bbox-nodes="false"
     inkscape:snap-bbox-midpoints="true"
     inkscape:snap-to-guides="true"
     inkscape:snap-grids="true"
     showguides="true"
     inkscape:guide-bbox="true"
     inkscape:snap-global="true"
     inkscape:snap-nodes="false">
    <inkscape:grid
       type="xygrid"
       id="grid4233" />
  </sodipodi:namedview>
  <metadata
     id="metadata7">
    <rdf:RDF>
      <cc:Work
         rdf:about="">
        <dc:format>image/svg+xml</dc:format>
        <dc:type
           rdf:resource="http://purl.org/dc/dcmitype/StillImage" />
        <dc:title></dc:title>
      </cc:Work>
    </rdf:RDF>
  </metadata>
  <g
     inkscape:groupmode="layer"
     id="layer4"
     inkscape:label="Background" />
  <g
     inkscape:label="C"
     inkscape:groupmode="layer"
     id="layer1"
     style="display:inline" />
  <g
     inkscape:groupmode="layer"
     id="layer3"
     inkscape:label="42">
    <g
       inkscape:label="Layer 1"
       id="layer1-4"
       transform="matrix(0.8056608,-0.75788352,0.8056608,0.75788352,-398.46349,262.70737)">
      <path
         d="m 585.632,594.499 c -0.136,-0.135 -8.444,-0.384 -18.466,-0.553 -10.021,-0.17 -18.668,-0.479 -19.217,-0.686 -0.547,-0.207 -4.729,-0.503 -9.293,-0.657 -31.843,-1.075 -50.995,-1.777 -56.427,-2.069 -7.825,-0.42 -7.791,-0.42 -10.645,0.068 -1.567,0.27 -3.652,-0.056 -6.283,-0.979 -2.165,-0.762 -4.693,-1.424 -5.619,-1.474 -4.163,-0.219 5.839,-1.137 13.917,-1.276 7.811,-0.137 8.366,-0.213 4.315,-0.602 -2.556,-0.244 -5.692,-0.778 -6.971,-1.187 -4.295,-1.373 -15.877,-2.156 -31.724,-2.146 -14.842,0.01 -20.239,0.58 -15.871,1.676 0.985,0.247 1.79,0.682 1.79,0.965 0,0.283 1.718,0.729 3.817,0.987 6.029,0.747 7.256,2.464 2.655,3.718 -2.698,0.736 -85.505,0.493 -129.945,-0.379 -46.414,-0.911 -59.47,-0.993 -62.953,-0.395 -5.808,0.997 -24.263,1.416 -31.112,0.706 -4.956,-0.514 -7.083,-0.434 -10.974,0.417 -6.968,1.523 -61.367,1.546 -73.533,0.028 -4.564,-0.567 -10.837,-1.225 -13.94,-1.458 -3.104,-0.235 -7.734,-1.132 -10.29,-1.994 -2.556,-0.862 -6.656,-1.886 -9.111,-2.271 -2.456,-0.387 -5.293,-1.019 -6.307,-1.404 -1.829,-0.698 -16.919,-4.415 -20.098,-4.952 -0.913,-0.154 -2.706,-0.552 -3.983,-0.887 -4.594,-1.197 0.5,-0.694 9.293,0.918 10.487,1.925 13.641,2.072 14.181,0.664 0.21,-0.547 0.964,-0.996 1.676,-0.996 0.712,0 1.78,-0.187 2.374,-0.414 0.938,-0.359 0.893,-0.545 -0.338,-1.407 -1.185,-0.83 -1.681,-0.854 -3.02,-0.136 -1.347,0.721 -2.447,0.655 -6.91,-0.407 -5.734,-1.367 -7.174,-2.513 -2.321,-1.848 1.761,0.242 2.987,0.146 2.987,-0.231 0,-0.607 -7.72,-2.32 -14.937,-3.313 -2.792,-0.385 -3.056,-0.533 -1.659,-0.931 0.913,-0.261 2.705,-0.529 3.983,-0.597 2.167,-0.115 2.209,-0.158 0.632,-0.637 -0.931,-0.282 -6.606,-1.022 -12.613,-1.644 -17.24,-1.784 -18.293,-1.921 -17.054,-2.206 0.644,-0.149 0.999,-0.547 0.791,-0.884 -0.209,-0.338 0.227,-0.613 0.967,-0.613 0.923,0 1.226,-0.313 0.964,-0.996 -0.438,-1.14 1.417,-1.409 2.1,-0.306 0.273,0.442 2.966,0.577 7.458,0.373 5.575,-0.251 7.156,-0.54 7.635,-1.396 0.332,-0.594 1.25,-1.325 2.041,-1.626 1.246,-0.475 1.083,-0.607 -1.218,-1.005 -3.814,-0.658 -4.451,-0.927 -3.986,-1.678 0.227,-0.368 -0.071,-0.669 -0.661,-0.669 -0.591,0 -0.89,0.299 -0.664,0.664 0.226,0.364 -0.023,0.664 -0.554,0.664 -0.531,0 -1.136,-0.449 -1.346,-0.996 -0.22,-0.571 -1.311,-1.038 -2.561,-1.096 -1.902,-0.088 0.366,-0.39 10.957,-1.464 3.681,-0.373 3.696,-0.935 0.037,-1.41 -1.768,-0.229 -3.96,-0.594 -4.874,-0.811 -1.565,-0.369 -1.528,-0.424 0.664,-0.937 1.278,-0.299 2.712,-0.408 3.188,-0.243 0.476,0.166 0.682,0.008 0.458,-0.354 -0.223,-0.36 -1.358,-0.675 -2.523,-0.698 -2.025,-0.04 -2.048,-0.07 -0.529,-0.679 0.875,-0.349 2.07,-0.486 2.655,-0.303 0.586,0.182 2.41,-0.091 4.053,-0.605 l 2.987,-0.938 -2.49,-0.044 c -2.571,-0.046 -3.375,-1.027 -1.328,-1.618 0.639,-0.186 3.253,-0.521 5.809,-0.743 6.021,-0.526 7.634,-0.882 7.634,-1.679 0,-0.358 -0.709,-0.651 -1.577,-0.651 -3.034,0 -5.891,-0.814 -4.95,-1.412 0.486,-0.307 1.556,-0.563 2.377,-0.569 0.821,-0.005 1.494,-0.274 1.494,-0.599 0,-0.823 -3.67,-1.48 -7.8,-1.397 -5.784,0.116 -3.92,-1.115 2.987,-1.975 3.56,-0.442 7.368,-1.209 8.464,-1.702 1.095,-0.494 3.187,-1.209 4.647,-1.59 3.175,-0.827 5.082,-3.677 2.851,-4.261 -0.708,-0.186 -2.386,-0.183 -3.729,0.005 l -2.441,0.342 1.901,-1.056 c 1.046,-0.58 2.838,-1.059 3.983,-1.063 2.935,-0.013 5.124,-0.692 4.659,-1.445 -0.246,-0.398 0.821,-0.478 2.829,-0.209 1.842,0.246 2.88,0.187 2.421,-0.138 -0.839,-0.594 15.225,-3.818 22.848,-4.587 4.068,-0.409 5.494,-1.235 6.358,-3.68 0.586,-1.66 -0.981,-1.979 -9.814,-1.987 -4.381,-0.005 -9.311,-0.217 -10.954,-0.47 l -2.987,-0.462 5.311,-0.847 c 2.92,-0.467 6.356,-1.12 7.634,-1.452 3.857,-1.004 15.634,-1.651 26.886,-1.479 30.769,0.474 53.567,1.467 71.031,3.095 4.988,0.465 9.75,0.578 11.285,0.268 4.42,-0.894 62.696,-1.395 63.717,-0.548 0.483,0.401 3.521,0.912 6.751,1.136 3.229,0.225 6.471,0.779 7.2,1.232 4.14,2.569 11.227,3.403 25.151,2.955 6.24,-0.199 7.343,-0.075 8.063,0.912 0.889,1.215 1.618,1.27 27.526,2.067 6.024,0.186 15.136,0.581 20.247,0.88 8.44,0.492 20.157,0.552 32.527,0.166 5.011,-0.157 9.631,0.386 12.281,1.441 0.913,0.363 9.258,0.771 18.544,0.906 10.005,0.146 17.047,0.51 17.284,0.895 0.468,0.756 8.781,1.831 20.737,2.68 4.64,0.331 10.765,0.896 13.608,1.26 9.45,1.204 26.877,1.615 29.917,0.705 1.518,-0.455 2.625,-1.047 2.46,-1.313 -0.165,-0.269 -2.321,-0.731 -4.791,-1.028 -4.253,-0.511 -4.351,-0.561 -1.835,-0.925 l 2.655,-0.386 -3.484,-0.878 c -1.915,-0.483 -3.325,-1.132 -3.134,-1.443 0.48,-0.776 -4.053,-1.557 -5.492,-0.945 -1.014,0.432 -0.95,0.57 0.493,1.06 0.993,0.337 -1.539,0.432 -6.307,0.234 -5.877,-0.242 -8.152,-0.579 -8.681,-1.287 -0.441,-0.594 -2.468,-1.111 -5.311,-1.356 -6.734,-0.579 -8.987,-0.994 -8.623,-1.583 0.551,-0.892 8.037,-0.818 23.846,0.236 8.345,0.556 15.441,0.845 15.771,0.642 1.097,-0.678 5.896,-0.454 6.827,0.32 0.509,0.421 3.991,0.88 7.797,1.025 3.782,0.144 8.37,0.565 10.196,0.935 1.825,0.371 5.858,0.704 8.961,0.743 6.971,0.086 23.04,1.584 23.662,2.207 0.252,0.251 -1.907,0.483 -4.797,0.516 -2.892,0.032 -6.797,0.107 -8.678,0.168 -1.883,0.06 -3.3,-0.091 -3.149,-0.335 0.554,-0.895 -6.384,-1.832 -10.627,-1.436 -3.809,0.355 -4.22,0.521 -3.211,1.288 1.719,1.304 0.08,1.133 -4.672,-0.488 -4.593,-1.565 -7.388,-1.734 -8.837,-0.531 -0.644,0.534 -2.455,0.688 -5.431,0.459 l -4.465,-0.342 3.319,0.782 c 3.021,0.714 3.199,0.857 1.991,1.603 -1.068,0.659 1.717,0.764 14.272,0.536 8.581,-0.156 20.081,-0.465 25.558,-0.688 26.737,-1.085 56.57,-0.906 54.722,0.329 -0.613,0.41 5.157,0.573 16.309,0.461 14.269,-0.145 17.52,-0.007 18.754,0.8 2.153,1.404 1.857,2.629 -0.664,2.749 -1.187,0.056 -10.97,0.183 -21.74,0.283 -10.771,0.1 -20.777,0.345 -22.239,0.545 -1.46,0.201 -6.538,0.522 -11.285,0.716 -17.862,0.729 -23.553,1.155 -23.193,1.738 0.203,0.328 1.099,0.598 1.99,0.598 0.891,0 1.62,0.239 1.62,0.53 0,0.292 -1.12,0.428 -2.489,0.301 -2.113,-0.195 -2.303,-0.114 -1.249,0.542 0.901,0.562 4.261,0.636 12.281,0.271 13.717,-0.625 20.358,-0.589 21.469,0.115 0.472,0.298 5.786,0.49 11.811,0.425 9.646,-0.104 10.801,-0.005 9.675,0.833 -1.262,0.938 -1.032,1.875 0.495,2.019 0.431,0.04 2.053,0.118 3.604,0.174 1.863,0.067 2.766,0.384 2.655,0.931 -0.098,0.487 0.383,0.753 1.162,0.645 0.729,-0.103 3.567,-0.229 6.305,-0.282 3.126,-0.063 5.305,-0.426 5.856,-0.977 0.729,-0.729 0.672,-0.889 -0.331,-0.932 -0.703,-0.03 -0.86,-0.192 -0.375,-0.389 1.215,-0.49 0.323,-1.539 -1.371,-1.616 -1.354,-0.062 -1.339,-0.103 0.205,-0.599 4.438,-1.421 10.333,-0.046 8.44,1.969 -0.656,0.699 -0.135,0.784 2.794,0.459 3.685,-0.41 6.344,-1.764 3.463,-1.764 -2.535,0 -0.967,-1.117 2.175,-1.549 1.927,-0.264 3.764,-0.073 5.238,0.543 1.743,0.729 2.853,0.788 4.765,0.261 2.449,-0.676 6.047,-0.53 15.278,0.621 2.556,0.318 3.751,0.635 2.655,0.704 -1.65,0.104 -1.798,0.237 -0.867,0.78 0.74,0.432 2.101,0.431 3.983,-0.004 2.96,-0.684 18.896,-0.879 17.131,-0.21 -0.547,0.206 -1.234,0.78 -1.526,1.274 -0.291,0.494 -1.188,0.903 -1.991,0.909 -0.804,0.005 -1.9,0.287 -2.438,0.627 -1.754,1.11 0.835,1.507 4.721,0.725 1.958,-0.394 4.454,-0.829 5.55,-0.97 8.955,-1.14 14.242,-1.691 15.932,-1.663 1.685,0.027 1.787,0.117 0.664,0.576 -7.617,3.116 -21.704,5.723 -24.771,4.584 -1.915,-0.71 -7.363,-0.673 -11.74,0.08 -2.075,0.358 -4.212,0.315 -5.701,-0.112 -1.89,-0.542 -2.809,-0.463 -4.45,0.387 -1.645,0.851 -3.387,0.998 -8.525,0.726 -3.553,-0.189 -6.602,-0.484 -6.775,-0.658 -0.173,-0.174 -0.642,-0.047 -1.041,0.282 -0.397,0.329 -1.824,0.804 -3.168,1.056 -2.253,0.42 -2.416,0.346 -2.08,-0.937 0.35,-1.339 0.119,-1.396 -5.854,-1.464 -3.42,-0.039 -9.503,-0.188 -13.521,-0.329 -13.061,-0.463 -18.05,-0.47 -18.771,-0.023 -0.39,0.241 -5.512,0.464 -11.381,0.498 -5.869,0.032 -10.673,0.3 -10.673,0.594 0,1.136 16.787,1.59 43.149,1.167 6.024,-0.098 11.999,0.013 13.276,0.245 2.213,0.401 2.231,0.425 0.365,0.498 -1.384,0.054 -1.751,0.284 -1.251,0.783 0.389,0.389 4.044,0.798 8.123,0.91 4.08,0.111 7.605,0.392 7.835,0.621 0.23,0.229 -0.305,0.42 -1.187,0.421 -1.536,0.004 -1.521,0.05 0.387,1.067 1.599,0.853 3.272,0.987 8.487,0.686 4.079,-0.235 6.35,-0.139 6.102,0.261 -0.217,0.352 -1.944,0.643 -3.841,0.648 -3.918,0.012 -6.206,0.936 -4.212,1.702 0.653,0.25 2.775,0.292 4.718,0.091 2.152,-0.222 3.813,-0.082 4.254,0.361 0.517,0.517 1.641,0.526 3.896,0.038 1.742,-0.379 5.382,-0.545 8.088,-0.368 l 4.921,0.318 -2.264,0.952 c -1.244,0.523 -4.746,1.021 -7.783,1.108 -3.035,0.086 -5.726,0.467 -5.976,0.848 -0.642,0.971 -10.149,2.439 -10.905,1.685 -0.363,-0.364 0.349,-0.783 1.787,-1.054 1.315,-0.247 2.26,-0.661 2.099,-0.921 -0.462,-0.748 -11.313,-0.271 -11.573,0.509 -0.127,0.382 0.392,0.694 1.153,0.694 0.76,0 1.382,0.261 1.382,0.58 0,0.317 -5.784,0.583 -12.853,0.59 -12.888,0.01 -18.348,0.456 -18.348,1.496 0,0.749 6.344,1.499 12.548,1.481 12.278,-0.035 23.857,-0.483 23.186,-0.898 -1.07,-0.661 5.917,-1.042 9.407,-0.512 2.596,0.394 11.573,-0.297 23.821,-1.831 2.746,-0.345 3.51,-0.253 3.295,0.395 -0.381,1.142 -6.32,3.335 -9.192,3.393 -1.277,0.026 -2.921,0.304 -3.651,0.617 -1.948,0.838 3.725,0.856 5.926,0.019 0.934,-0.354 2.163,-0.466 2.735,-0.246 0.814,0.313 0.625,0.647 -0.88,1.563 -1.055,0.642 -2.788,1.361 -3.853,1.6 -1.065,0.238 -2.684,1.044 -3.597,1.789 l -1.66,1.356 3.983,-0.379 c 2.191,-0.207 5.179,-0.53 6.639,-0.717 1.618,-0.206 0.926,0.115 -1.771,0.823 -7.72,2.026 -7.041,2.347 4.917,2.323 10.475,-0.021 6.815,0.926 -5.575,1.441 -6.29,0.262 -12.049,0.805 -12.801,1.207 -0.751,0.401 -2.859,0.839 -4.685,0.971 -3.986,0.29 -5.184,0.656 -4.701,1.439 0.547,0.884 -4.391,1.957 -12.839,2.791 -4.171,0.411 -8.054,0.993 -8.63,1.294 -0.576,0.301 -4.31,0.869 -8.297,1.262 -4.775,0.471 -7.638,1.064 -8.386,1.742 -0.755,0.684 -1.725,0.881 -2.888,0.589 -1.659,-0.416 -3.381,0.03 -8.102,2.1 -1.137,0.498 -5.008,1.232 -8.604,1.633 -5.313,0.593 -6.718,0.982 -7.483,2.076 -0.914,1.306 -1.476,1.34 -18.115,1.108 -9.446,-0.131 -17.174,-0.014 -17.174,0.261 0,0.275 0.359,0.499 0.798,0.499 0.493,0 0.557,0.222 0.166,0.582 -0.626,0.585 -8.62,1.493 -9.079,1.034 l 0,0 z M 58.828,561.232 c -0.479,-0.192 -1.052,-0.169 -1.272,0.052 -0.221,0.222 0.171,0.378 0.871,0.349 0.773,-0.032 0.93,-0.19 0.401,-0.401 l 0,0 z m 561.7,-2.166 c 2.938,-0.969 10.957,-1.414 11.439,-0.634 0.409,0.663 10.132,0.68 13.197,0.021 2.404,-0.516 2.612,-1.654 0.369,-2.011 -3.008,-0.479 7.346,-1.951 14.107,-2.007 3.837,-0.031 6.472,-0.323 6.472,-0.716 0,-0.852 -55.036,-0.894 -56.379,-0.043 -0.695,0.439 -0.251,0.72 1.659,1.04 5.295,0.891 4.705,0.946 -13.101,1.242 -5.077,0.084 -6.931,0.676 -5.292,1.687 0.665,0.412 0.588,0.644 -0.332,0.996 -2.687,1.03 0.84,1.379 12.936,1.282 7.357,-0.059 13.596,-0.418 14.925,-0.857 l 0,0 z m -24.131,-1.374 c 1.271,-0.301 2.714,-0.323 3.207,-0.047 0.508,0.284 -0.493,0.522 -2.311,0.549 -3.074,0.047 -3.11,0.025 -0.896,-0.502 l 0,0 z m 30.55,-1.994 c -1.031,-0.337 -0.15,-0.403 2.323,-0.174 2.191,0.204 4.107,0.479 4.261,0.61 0.535,0.465 -4.945,0.102 -6.584,-0.436 z m 44.717,1.673 c 0.319,-0.83 -0.436,-0.996 -4.521,-0.996 -2.696,0 -5.401,0.19 -6.009,0.424 -2.098,0.806 0.477,1.547 5.406,1.558 3.609,0.007 4.834,-0.23 5.124,-0.986 z m -72.143,-13.62 c 5.193,-0.012 7.816,-0.998 4.146,-1.562 -7.044,-1.078 -8.73,-1.096 -8.343,-0.085 0.352,0.914 -0.356,1.314 -1.833,1.038 -0.328,-0.061 -1.067,0.069 -1.642,0.289 -0.883,0.339 -0.898,0.49 -0.103,0.983 0.546,0.337 1.425,0.322 2.096,-0.037 0.634,-0.337 3.19,-0.621 5.679,-0.626 z m 35.724,-0.549 1.991,-0.59 -2.548,-0.506 c -2.792,-0.555 -11.089,-0.143 -12.308,0.61 -0.422,0.26 -0.603,0.736 -0.403,1.06 0.433,0.7 10.426,0.267 13.268,-0.574 l 0,0 z m 4.978,-0.768 c 0,-0.366 -0.43,-0.664 -0.957,-0.664 -0.524,0 -1.141,0.298 -1.366,0.664 -0.226,0.364 0.205,0.664 0.957,0.664 0.752,0 1.366,-0.3 1.366,-0.664 z m -48.46,-0.703 c 0,-0.388 -0.298,-0.519 -0.664,-0.293 -0.364,0.226 -0.663,0.542 -0.663,0.703 0,0.161 0.299,0.293 0.663,0.293 0.366,0 0.664,-0.316 0.664,-0.703 z m 33.41,-1.059 c 1.728,-0.287 2.259,-0.6 1.659,-0.979 -1.764,-1.117 -12.188,-0.359 -11.45,0.834 0.415,0.672 6.093,0.756 9.791,0.145 z m -94.325,-15.967 c -0.825,-0.159 -2.02,-0.152 -2.655,0.014 -0.634,0.166 0.042,0.295 1.502,0.289 1.461,-0.008 1.979,-0.145 1.153,-0.303 z m -24.388,-1.522 c -0.226,-0.366 -1.362,-0.635 -2.528,-0.598 -2.022,0.063 -2.043,0.089 -0.459,0.598 2.385,0.764 3.459,0.764 2.987,0 z M 50.073,577.638 c -1.842,-0.371 -1.367,-0.482 2.295,-0.535 3.054,-0.045 4.291,0.141 3.651,0.545 -1.08,0.684 -2.516,0.682 -5.946,-0.01 z m -25.34,-15.224 c -2.071,-0.223 -3.989,-0.627 -4.262,-0.9 -0.273,-0.273 0.824,-0.354 2.438,-0.18 1.614,0.177 4.844,0.47 7.179,0.651 2.334,0.183 4.4,0.488 4.591,0.681 0.427,0.426 -4.868,0.292 -9.946,-0.252 z m 684.197,-3.46 c 5.556,-1.229 15.51,-2.315 14.844,-1.62 -0.576,0.601 -12.273,2.353 -15.176,2.272 l -2.323,-0.065 2.655,-0.587 0,0 z m 4.495,-6.299 c 0.221,-0.222 0.794,-0.245 1.272,-0.054 0.53,0.213 0.372,0.37 -0.4,0.401 -0.7,0.03 -1.091,-0.127 -0.872,-0.347 l 0,0 z m 4.15,-0.285 c 0.218,-0.354 2.221,-0.642 4.451,-0.642 5.066,0 4.783,0.374 -0.673,0.889 -2.616,0.247 -4.027,0.153 -3.778,-0.247 z m 9.943,-0.642 c 0.226,-0.366 0.915,-0.66 1.532,-0.654 0.969,0.008 0.985,0.099 0.127,0.654 -1.299,0.84 -2.177,0.84 -1.659,0 z m -83.131,-11.022 c 0.22,-0.222 0.793,-0.245 1.271,-0.053 0.53,0.212 0.372,0.369 -0.4,0.4 -0.7,0.03 -1.091,-0.127 -0.871,-0.347 l 0,0 z m -5.159,-2.312 c -1.82,-0.411 -1.85,-0.458 -0.332,-0.534 0.912,-0.047 3.229,-0.272 5.145,-0.503 2.993,-0.359 3.485,-0.261 3.485,0.702 0,0.918 -0.57,1.091 -3.153,0.953 -1.734,-0.092 -4.05,-0.371 -5.145,-0.618 z m 66.896,-0.344 c 0.221,-0.222 0.793,-0.245 1.271,-0.053 0.53,0.212 0.372,0.369 -0.4,0.4 -0.701,0.03 -1.092,-0.126 -0.871,-0.347 l 0,0 z m -24.563,-5.31 c 0.221,-0.222 0.794,-0.245 1.272,-0.054 0.53,0.213 0.372,0.37 -0.4,0.401 -0.7,0.03 -1.092,-0.127 -0.872,-0.347 l 0,0 z m -8.583,-2.746 c -3.459,-0.166 -4.856,-0.499 -5.136,-1.224 -0.313,-0.818 0.045,-0.917 1.989,-0.553 1.36,0.255 5.669,-0.078 10.113,-0.782 5.655,-0.896 7.206,-1.33 5.751,-1.608 -1.51,-0.291 -0.871,-0.494 2.656,-0.845 2.555,-0.254 5.692,-0.455 6.97,-0.445 2.225,0.016 2.268,0.06 0.996,1.038 -0.833,0.641 -2.111,0.9 -3.43,0.694 -1.378,-0.217 -4.352,0.448 -8.63,1.929 -3.59,1.243 -6.528,2.207 -6.528,2.142 0,-0.065 -2.137,-0.222 -4.751,-0.346 l 0,0 z m -185.257,-5.22 c 0.221,-0.222 0.794,-0.245 1.271,-0.054 0.531,0.213 0.373,0.37 -0.4,0.4 -0.7,0.031 -1.092,-0.126 -0.871,-0.346 l 0,0 z m 104.54,-0.732 c 0.822,-0.159 2.167,-0.159 2.987,0 0.822,0.158 0.149,0.286 -1.494,0.286 -1.642,10e-4 -2.313,-0.127 -1.493,-0.286 z m -110.694,-0.806 -2.987,-0.412 3.319,-0.427 c 1.825,-0.236 3.4,-0.207 3.502,0.061 0.1,0.271 1.113,0.354 2.25,0.188 1.434,-0.212 1.927,-0.073 1.605,0.448 -0.488,0.789 -2.694,0.829 -7.689,0.142 l 0,0 z m -45.307,-1.185 c 0.821,-0.16 2.166,-0.16 2.986,0 0.822,0.158 0.149,0.286 -1.493,0.286 -1.642,0 -2.314,-0.128 -1.493,-0.286 z m 122.975,-0.196 c -1.272,-0.823 9.704,-0.823 11.617,0 0.878,0.377 -0.698,0.582 -4.646,0.606 -3.286,0.022 -6.422,-0.252 -6.971,-0.606 z m 86.998,0.035 c -0.759,-0.479 -0.618,-0.674 0.664,-0.925 0.894,-0.174 2.671,-0.245 3.948,-0.16 1.278,0.085 3.219,0.211 4.314,0.281 1.55,0.097 1.771,0.269 0.996,0.769 -1.262,0.815 -8.647,0.843 -9.922,0.035 z m -41.857,-1.108 -4.979,-0.775 6.473,0.008 c 3.561,0.005 6.473,0.237 6.473,0.516 -10e-4,0.937 -2.958,1.031 -7.967,0.251 z m 27.095,-0.355 c -1.069,-0.301 -0.628,-0.438 1.45,-0.451 1.643,-0.01 3.585,0.236 4.314,0.55 1.594,0.682 -3.277,0.599 -5.764,-0.099 z M 440.89,518.5 c 0.667,-2.553 2.521,-3.424 6.609,-3.107 3.972,0.307 8.29,1.662 9.659,3.031 0.928,0.927 0.953,0.923 -9.199,1.132 -6.853,0.142 -7.363,0.065 -7.069,-1.056 z m 79.36,0.963 c 0.22,-0.222 0.793,-0.245 1.271,-0.054 0.53,0.213 0.372,0.369 -0.4,0.4 -0.701,0.031 -1.092,-0.126 -0.871,-0.346 l 0,0 z m 7.62,-0.067 c 0.821,-0.16 2.166,-0.16 2.986,0 0.822,0.158 0.149,0.286 -1.493,0.286 -1.642,0 -2.315,-0.128 -1.493,-0.286 z m -67.546,-0.86 c 0,-0.365 0.765,-0.663 1.698,-0.663 0.965,0 1.522,0.286 1.289,0.663 -0.226,0.364 -0.989,0.664 -1.698,0.664 -0.71,0 -1.289,-0.3 -1.289,-0.664 z m 17.482,-1.003 c -1.133,-0.839 -1.051,-0.973 1.175,-1.909 1.673,-0.705 2.971,-0.835 4.315,-0.433 1.383,0.414 1.551,0.594 0.594,0.643 -1.083,0.055 -1.147,0.181 -0.352,0.685 1.267,0.801 0.883,1.084 -2.081,1.541 -1.544,0.237 -2.875,0.045 -3.651,-0.527 z"
         id="path3196"
         inkscape:connector-curvature="0" />
    </g>
  </g>
</svg>
