<?xml version="1.0" encoding="utf-8"?>
<!-- Generator: Adobe Illustrator 19.2.1, SVG Export Plug-In . SVG Version: 6.00 Build 0)  -->
<svg version="1.1" id="Layer_1" xmlns="http://www.w3.org/2000/svg" xmlns:xlink="http://www.w3.org/1999/xlink" x="0px" y="0px"
	 viewBox="0 0 612 792" style="enable-background:new 0 0 612 792;" xml:space="preserve">
<style type="text/css">
	.st0{fill:none;stroke:#006699;stroke-width:10;}
	.st1{fill:#006699;stroke:#006699;stroke-width:10.0397;}
	.st2{fill:#FFFFFF;}
	.st3{font-family:'NotoSans';}
	.st4{font-size:54px;}
	.st5{font-family:'NotoSansKannada';}
	.st6{fill:none;}
	.st7{font-size:18px;}
	.st8{opacity:0.3;fill:none;stroke:#006699;}
	.st9{font-size:12px;}
</style>
<path id="rect4155_1_" class="st0" d="M100.1,33.3h412c35.3,0,64,28.7,64,64v412c0,35.3-28.7,64-64,64h-412c-35.3,0-64-28.7-64-64
	v-412C36.1,62,64.8,33.3,100.1,33.3z"/>
<path id="rect4262_1_" class="st1" d="M95.3,42.6h416.8c29.8,0,53.9,24.1,53.9,53.9V184H45V93C45,65.1,67.5,42.6,95.3,42.6z"/>
<g>
	<text transform="matrix(1 0 0 1 222.9463 99.3267)" class="st2 st3 st4">Dry Waste</text>
	<text transform="matrix(1 0 0 1 222.9463 156.9541)" class="st2 st5 st4">ಒಣ ಕಸ</text>
</g>
<path class="st6" d="M44.2,185.7c0-48.8,0-97.6,0-146.6c50.8,0,101.5,0,152.3,0c0,1.4-0.1,2.8-0.1,4.2c0,46.1,0,92.2,0,138.2
	c0,1.3,0,2.5,0,4.1c-1.6,0-2.8,0-4.1,0c-48,0-96,0-144,0C47,185.6,45.6,185.7,44.2,185.7z M186.6,110.4
	c0.1-34.9-27.2-64.6-63.5-65.4c-36.4-0.8-66.3,27.4-66.6,64.9c-0.2,37.2,28.6,63.7,61,65.6C157,177.8,186.8,145.9,186.6,110.4z"/>
<path class="st6" d="M47.2,185.7c1.4,0,2.8-0.1,4.2-0.1c48,0,96,0,144,0c1.3,0,2.5,0,4.1,0c0-1.6,0-2.8,0-4.1c0-46.1,0-92.2,0-138.2
	c0-1.4,0.1-2.8,0.1-4.2c0.2,1,0.6,1.9,0.6,2.9c0,48.1,0,96.1,0,144.3c-1.7,0-3.3,0-5,0c-48.4,0-96.8,0-145.1,0
	C49.1,186.3,48.1,185.9,47.2,185.7z"/>
<path class="st2" d="M186.6,110.4c0.2,35.6-29.6,67.4-69.1,65.1c-32.4-1.9-61.2-28.3-61-65.6c0.2-37.5,30.2-65.7,66.6-64.9
	C159.4,45.8,186.7,75.4,186.6,110.4z M60.4,110.2c0,34,27.5,61.7,61.2,61.6c33.9-0.1,61.3-27.6,61.3-61.6s-27.4-61.4-61.4-61.3
	C87.6,49,60.4,76.3,60.4,110.2z"/>
<rect x="71" y="491" class="st6" width="504.2" height="60.5"/>
<text transform="matrix(1 0 0 1 68.4746 529.6738)" class="st5 st7">ಇದು ಮೊದಲಾದ ದಯವಿಟ್ಟು ಕಂಟೈನರ್ ಜಾಲಾಡುವಿಕೆಯ.</text>
<text transform="matrix(0.9938 0 0 1 68.4745 501.8506)" class="st3 st7">Please rinse the containers if it is soiled. </text>
<line class="st8" x1="40.6" y1="470.3" x2="571.7" y2="470.3"/>
<text transform="matrix(1 0 0 1 118.0998 264.3165)" class="st3 st9">Glass bottles</text>
<text transform="matrix(1 0 0 1 489.9998 264.3166)" class="st3 st9">Paper cups</text>
<text transform="matrix(1 0 0 1 489.9996 397.1387)" class="st3 st9">Tetrapacks</text>
<text transform="matrix(1 0 0 1 309.4467 397.1387)" class="st3 st9">Carton boxes</text>
<rect x="118.1" y="388.9" class="st6" width="103.6" height="30.4"/>
<text transform="matrix(1 0 0 1 118.0994 397.9756)" class="st3 st9">Metal cans</text>
<rect x="309.4" y="254.3" class="st6" width="81.7" height="27.6"/>
<text transform="matrix(1 0 0 1 309.4462 263.3896)"><tspan x="0" y="0" class="st3 st9">Plastic bags </tspan><tspan x="0" y="14.4" class="st3 st9">and bottles</tspan></text>
<path d="M99.1,288.7c-0.9,1.2-3.4,2.6-10.1,2.6s-9.1-1.4-10.1-2.6c-0.7-0.9-0.6-1.7-0.5-1.9v-34c0-3.7,3.9-7.3,4.6-7.9
	c-0.6-5.2,1.8-12.6,2-13.2v-0.5c-0.4,0-0.6-0.3-0.6-0.7c0-0.4,0.3-0.7,0.6-0.7v-0.2c0-0.5,0.1-0.8,0.2-1c-0.1-0.1-0.2-0.2-0.2-0.4
	c0-0.3,0.2-0.5,0.5-0.5h7.1c0.3,0,0.5,0.2,0.5,0.5c0,0.2-0.1,0.3-0.2,0.4c0.1,0.2,0.2,0.6,0.2,1v0.2c0.4,0,0.7,0.3,0.7,0.7
	c0,0.4-0.3,0.7-0.7,0.7v0.5c0.2,0.6,2.6,8,2,13.2c0.7,0.6,4.6,4.2,4.6,7.9v34C99.6,287,99.8,287.8,99.1,288.7z M101.9,286.6v-33.9
	c0-3.8-2.8-7.2-4.5-8.8c0.2-4.4-1.2-9.7-1.8-11.9c0.3-0.5,0.4-1,0.4-1.6c0-0.7-0.3-1.4-0.7-1.9c0-0.1,0-0.2,0-0.4
	c0-1.5-1.2-2.8-2.8-2.8h-7.1c-1.5,0-2.8,1.2-2.8,2.8c0,0.1,0,0.2,0,0.4c-0.4,0.5-0.7,1.2-0.7,1.9c0,0.6,0.2,1.1,0.4,1.6
	c-0.7,2.3-2,7.5-1.8,11.9c-1.7,1.7-4.5,5.1-4.5,8.8v33.9c-0.1,0.7-0.1,2.1,1,3.5c1.8,2.4,5.7,3.5,11.9,3.5c6.2,0,10.1-1.2,11.9-3.5
	C102,288.7,102,287.3,101.9,286.6z"/>
<path d="M81.6,258.1c-0.6,0-1.2,0.5-1.2,1.2v28c0,0.6,0.5,1.2,1.2,1.2c0.6,0,1.2-0.5,1.2-1.2v-28C82.8,258.6,82.3,258.1,81.6,258.1z
	"/>
<path d="M81.6,252.6c-0.6,0-1.2,0.5-1.2,1.2v1.8c0,0.6,0.5,1.2,1.2,1.2c0.6,0,1.2-0.5,1.2-1.2v-1.8
	C82.8,253.1,82.3,252.6,81.6,252.6z"/>
<path d="M86.5,232.5c-0.5-0.1-1,0.3-1,0.8l-1.4,9c-0.1,0.5,0.3,1,0.8,1c0,0,0.1,0,0.1,0c0.4,0,0.8-0.3,0.9-0.8l1.4-9
	C87.4,233,87.1,232.6,86.5,232.5z"/>
<path d="M281.6,226.8l-5.3,0l0-0.6l5.3,0L281.6,226.8z M281.6,230.9l-5.3,0l0-2.9l5.3,0L281.6,230.9z M290.2,242.5l0,2.3L268,245
	l0-2.3c0-2.9,1.1-5.7,3.2-7.9c1.2-1.2,2.7-2.2,4.3-2.7l0,0l7-0.1l0,0C287,233.6,290.1,237.8,290.2,242.5z M290.5,281.7
	c0,2.9-1.1,5.7-3.2,7.8c-0.3,0.3-0.7,0.7-1.1,1l-13.5,0.1c-2.7-2.1-4.4-5.3-4.4-8.7l0-4.1l22.2-0.2L290.5,281.7z M268,246.2
	l22.2-0.2l0.2,30.4l-22.2,0.2L268,246.2z M275.1,225.1l0-2.3l0.6,0l0,2.3L275.1,225.1L275.1,225.1L275.1,225.1z M277.5,225.1l-0.6,0
	l0-2.3l0.6,0L277.5,225.1z M279.2,225.1l-0.6,0l0-2.3l0.6,0L279.2,225.1z M280.4,225.1l0-2.3l0.6,0l0,2.3L280.4,225.1z M282.7,225.1
	L282.7,225.1L282.7,225.1l-0.6,0l0-2.3l0.6,0L282.7,225.1z M283.9,226.2l0-4.7l-9.9,0.1l0,4.7l1.2,0l0,0.6l-0.9,0l0,1.2l0.9,0l0,3
	c-1.9,0.6-3.5,1.7-4.8,3c-2.2,2.2-3.6,5.3-3.5,8.7l0.3,39.1c0,4.1,2.1,7.7,5.2,9.9l14.3-0.1c0.5-0.4,1-0.8,1.5-1.3
	c2.2-2.2,3.6-5.3,3.5-8.7l-0.3-39.2c0-5.4-3.6-10-8.6-11.6l0-3l0.9,0l0-1.2l-0.9,0l0-0.6L283.9,226.2z"/>
<path d="M105.8,423.4H78c-1.3,0-1.3,2,0,2h27.8C107.1,425.4,107.1,423.4,105.8,423.4z"/>
<path d="M104.1,420.9H79.7c-1.9,0-2.2-1.7-2.1-3.2c0-1.4,0-2.9,0-4.3c0-5.1,0-10.1,0-15.2c0-5.3,0-10.6,0-15.8c0-1.7,0-3.4,0-5.1
	c0-0.4,0-0.9,0-1.3c-0.1-1.7,0.9-3,2.3-4c0.4-0.3,0.9-0.6,1.3-0.8c0.7-0.4,1.1-1.2,1.3-2h19c0.3,0.9,0.7,1.6,1.4,2.1
	c0.6,0.4,1.2,0.7,1.7,1.2c1.1,1,1.8,2.2,1.7,3.7c0,1.3,0,2.5,0,3.8c0,4.9,0,9.8,0,14.7c0,5.4,0,10.8,0,16.2c0,1.8,0,3.7,0,5.5
	c0,0.8,0.1,1.7,0,2.5C106.1,420,105.3,420.9,104.1,420.9z M108.2,376c0.1-1.7-0.6-3.2-1.7-4.5c-0.8-0.9-1.8-1.4-2.8-2.1
	c-0.7-0.6-0.2-2.3-1.5-2.3H80.8l-0.1,0.8c-0.1,0.6-0.4,1.3-0.6,1.5c-1,0.7-2.1,1.3-2.9,2.3c-1.1,1.2-1.7,2.7-1.6,4.4
	c0,1.2,0,2.3,0,3.5c0,4.8,0,9.5,0,14.2c0,8.2,0,16.4-0.1,24.6c0,2.4,1.7,4.5,4.2,4.5h24.4c2.6,0,4.2-2.2,4.2-4.6c0-1,0-2.1,0-3.1
	c0-4.6,0-9.2,0-13.9c0-5.3,0-10.7,0-16C108.2,382.3,108.1,379.2,108.2,376C108.4,372.3,108.1,379.6,108.2,376z"/>
<path d="M96.2,393.3c2.6,0,2.3,4.1-0.2,3.8C93.7,396.9,93.9,393.3,96.2,393.3z M99.3,401c0,1.9-3,1.9-3,0
	C96.2,399.1,99.3,399.1,99.3,401z M100.3,389.2c1.4,0,1.4,2.1,0,2.1C98.9,391.4,98.9,389.2,100.3,389.2z M103.6,396
	c0,2.2-2.8,3.3-4.3,1.7c0.8-1.1,1.1-2.5,0.6-3.8C101.4,392.8,103.6,394,103.6,396z M78.2,405.4l16.3-5.6c-0.8,2.1,0.7,4.5,3,4.7
	c2.2,0.1,4-1.9,3.6-4.1c2.4,0,4.3-2,4.4-4.3h0v-13.7l-27.3,9.3V405.4z"/>
<path d="M81.6,366.7h20.6c1.3,0,1.3-2,0-2H81.6C80.3,364.7,80.3,366.7,81.6,366.7z"/>
<path d="M95.8,359.7c0.4-1,3.3,0.2,2.9,1.2l-0.5,1.1c-1,0-2.2-0.5-2.9-1.2L95.8,359.7z M94,364c0.5-1.1,2.2-0.6,2.7,0.2h2.8l1.1-2.5
	c1.5-3.4-5.1-6.3-6.6-2.8l-2.3,5.3h2.2L94,364z"/>
<path d="M461.2,385.7l-17.8,14.6v-18.6h17.8V385.7z M461.2,399.6l-17.8,14.8v-11.7l17.8-14.6V399.6z M461.2,422.8h-17.8v-6
	l17.8-14.8V422.8z M430.2,379.9l8.9-9.9h11.8l-8.8,9.9H430.2z M441.6,401.3h-12.1v-19.6h12.1V401.3z M441.6,415.4h-12.1v-12.3h12.1
	V415.4z M441.6,422.8h-12.1v-5.5h12.1V422.8z M441.3,363.7h9c0.3,0,1.3,1.5,1.5,4.4h-12C440,365.3,440.9,363.7,441.3,363.7z
	 M452.9,370.6l7.7,9.3h-16L452.9,370.6z M463,379.9l-9.4-11.3c-0.1-3.4-1.2-6.7-3.4-6.7h-9c-2.2,0-3.2,3.4-3.4,6.7l-10.2,11.3h0
	v44.8H463L463,379.9L463,379.9z"/>
<g>
	<path class="st2" d="M90.2,143.4h16.7v-34.5c0-0.3,0.1-0.5,0.3-0.7l6-6v-4.8H96.5v5.2c0,0.3-0.1,0.5-0.3,0.7l-6,6V143.4z
		 M108,145.4H89.1c-0.6,0-1-0.5-1-1v-35.5c0-0.3,0.1-0.5,0.3-0.7l6-6v-5.8c0-0.6,0.5-1,1-1h18.8c0.6,0,1,0.5,1,1v6.3
		c0,0.3-0.1,0.5-0.3,0.7l-6,6v35.1C109,145,108.5,145.4,108,145.4z"/>
	<path class="st2" d="M120.5,109.9H89.1c-0.6,0-1-0.5-1-1c0-0.6,0.5-1,1-1h31.4c0.6,0,1,0.5,1,1
		C121.5,109.4,121.1,109.9,120.5,109.9z"/>
	<path class="st2" d="M120.5,145.4H108c-0.6,0-1-0.5-1-1c0-0.6,0.5-1,1-1h11.5v-34.1l-5.7-5.7H95.4c-0.6,0-1-0.5-1-1
		c0-0.6,0.5-1,1-1h18.8c0.3,0,0.5,0.1,0.7,0.3l6.3,6.3c0.2,0.2,0.3,0.5,0.3,0.7v35.5C121.5,145,121.1,145.4,120.5,145.4z"/>
</g>
<g>
	<path class="st2" d="M148.8,142.4c-0.9,1.2-3.4,2.6-10,2.6c-6.6,0-9.1-1.4-10-2.6c-0.7-0.9-0.6-1.7-0.5-1.9v-34
		c0-3.7,3.9-7.3,4.6-7.9c-0.6-5.2,1.8-12.6,2-13.2V85c-0.4,0-0.6-0.3-0.6-0.7c0-0.4,0.3-0.7,0.6-0.7v-0.2c0-0.5,0.1-0.8,0.2-1
		c-0.1-0.1-0.2-0.2-0.2-0.4c0-0.3,0.2-0.5,0.5-0.5h7c0.3,0,0.5,0.2,0.5,0.5c0,0.2-0.1,0.3-0.2,0.4c0.1,0.2,0.2,0.6,0.2,1v0.2
		c0.4,0,0.7,0.3,0.7,0.7c0,0.4-0.3,0.7-0.7,0.7v0.5c0.2,0.6,2.6,8,2,13.2c0.7,0.6,4.6,4.2,4.6,7.9v34
		C149.3,140.7,149.5,141.5,148.8,142.4z M151.6,140.4v-33.8c0-3.8-2.8-7.1-4.5-8.8c0.2-4.4-1.2-9.7-1.8-11.9c0.3-0.5,0.4-1,0.4-1.6
		c0-0.7-0.3-1.4-0.7-1.9c0-0.1,0-0.2,0-0.4c0-1.5-1.2-2.8-2.8-2.8h-7.1c-1.5,0-2.8,1.2-2.8,2.8c0,0.1,0,0.2,0,0.4
		c-0.4,0.5-0.7,1.2-0.7,1.9c0,0.6,0.2,1.1,0.4,1.6c-0.7,2.3-2,7.5-1.8,11.9c-1.7,1.7-4.5,5.1-4.5,8.8v33.8c-0.1,0.7-0.1,2.1,1,3.5
		c1.8,2.4,5.7,3.5,11.9,3.5c6.2,0,10-1.2,11.9-3.5C151.7,142.4,151.7,141.1,151.6,140.4z"/>
	<path class="st2" d="M132.3,111.9c-0.6,0-1.1,0.5-1.1,1.1v27.9c0,0.6,0.5,1.1,1.1,1.1c0.6,0,1.1-0.5,1.1-1.1V113
		C133.4,112.4,132.9,111.9,132.3,111.9z"/>
	<path class="st2" d="M132.3,106.4c-0.6,0-1.1,0.5-1.1,1.1v1.8c0,0.6,0.5,1.1,1.1,1.1c0.6,0,1.1-0.5,1.1-1.1v-1.8
		C133.4,106.9,132.9,106.4,132.3,106.4z"/>
	<path class="st2" d="M137.2,86.3c-0.5-0.1-1,0.3-1,0.8l-1.4,9c-0.1,0.5,0.3,1,0.8,1c0,0,0.1,0,0.1,0c0.4,0,0.8-0.3,0.9-0.8l1.4-9
		C138.1,86.9,137.7,86.4,137.2,86.3z"/>
</g>
<path d="M285.7,407.2l-40.6,17.3v-0.1l-1.4-0.1l-19.4-18.9l-0.5-7.2l20,19.5v0.8h1.5v-0.6l40.9-16.1L285.7,407.2z M233.9,378.3
	l5.4,8.1l0.1-0.1l0.1,0.3l26.6-8.6l-2.9,4.6l-2.1,0.7l0.4,1.4l1.2-0.4l-0.1,0.5l1.5,0.1v-0.3l21.1,15.1l-6.5,2.6L278,402l-0.9,1.2
	l-32.2,12.7l-13.3-12.9l0.9-0.3l-0.4-1.4l-1.6,0.5l-5.6-5.4l0.4-0.1l-0.4-1.4l-1,0.3L233.9,378.3z M278.3,364.3l4.4,6.1l-42.4,13.7
	l-4.6-6.9L278.3,364.3z M284.8,369.8l-5.1-7.1v-0.1l-0.5-0.7l-46.2,14h-0.1l-0.1,0.1v0.1l-11,18.5l-0.1,0.3l-0.1,0.2v0.4l0.8,10.8
	l0.1,0.1l0.3,0.3l21.1,20.6l0.3,0.1l0.3-0.1l43.1-18.4l0.3-0.1l0.1-0.1v-0.1l0.8-8.1l-0.1-0.7l-23-16.6l3.7-6l17-5.6L284.8,369.8z"
	/>
<polygon points="250.9,388.2 250.4,386.7 248.3,387.4 248.8,388.8 "/>
<polygon points="256,386.6 255.5,385.2 253.4,385.8 253.9,387.3 "/>
<rect x="251.1" y="386.3" transform="matrix(0.9541 -0.2996 0.2996 0.9541 -104.3531 93.312)" width="2.2" height="1.5"/>
<polygon points="245.8,389.8 245.3,388.4 243.2,389 243.7,390.4 "/>
<polygon points="248.3,389 247.9,387.6 245.8,388.2 246.2,389.7 "/>
<polygon points="261.1,385 260.6,383.5 258.5,384.2 259,385.6 "/>
<polygon points="258.5,385.8 258.1,384.3 256,385 256.5,386.4 "/>
<polygon points="243.2,390.6 242.7,389.1 240.7,389.8 241.1,391.2 "/>
<polygon points="240.6,391.4 240.2,390 238.1,390.6 238.6,392.1 "/>
<polygon points="238.1,392.2 237.6,390.8 235.6,391.4 236,392.9 "/>
<rect x="233.2" y="391.8" transform="matrix(0.9539 -0.3002 0.3002 0.9539 -107.0382 88.4244)" width="2.2" height="1.5"/>
<polygon points="230.4,394.6 230,393.2 227.9,393.9 228.4,395.3 "/>
<polygon points="233,393.8 232.5,392.4 230.5,393 230.9,394.5 "/>
<rect x="225.5" y="394.2" transform="matrix(0.9541 -0.2996 0.2996 0.9541 -107.9189 86.0268)" width="2.2" height="1.5"/>
<rect x="262.2" y="385.9" transform="matrix(9.937298e-02 -0.9951 0.9951 9.937298e-02 -147.6689 610.2271)" width="2.2" height="1.5"/>
<rect x="261.9" y="388.6" transform="matrix(0.1015 -0.9948 0.9948 0.1015 -150.9856 611.4638)" width="2.2" height="1.5"/>
<polygon points="270.2,398.1 271.1,396.9 269.4,395.7 268.5,396.9 "/>
<polygon points="268.1,396.6 269,395.4 267.2,394.1 266.3,395.3 "/>
<polygon points="265.9,395 266.8,393.8 265.1,392.5 264.2,393.7 "/>
<rect x="271.3" y="397.4" transform="matrix(0.5865 -0.81 0.81 0.5865 -210.2434 385.0859)" width="1.5" height="2.2"/>
<polygon points="276.8,402.9 277.7,401.7 275.9,400.4 275,401.6 "/>
<rect x="273.4" y="398.9" transform="matrix(0.5861 -0.8102 0.8102 0.5861 -210.6272 387.6713)" width="1.5" height="2.2"/>
<polygon points="243.2,399 242.7,397.6 244.8,396.9 245.2,398.3 "/>
<polygon points="250.3,395.1 250.8,396.5 252.8,395.8 252.4,394.4 "/>
<polygon points="255.9,394.7 255.4,393.3 257.5,392.6 257.9,394 "/>
<rect x="240.3" y="398.1" transform="matrix(0.9473 -0.3204 0.3204 0.9473 -115.0706 98.3798)" width="2.2" height="1.5"/>
<polygon points="253.3,395.6 252.8,394.2 254.9,393.5 255.4,394.9 "/>
<rect x="248" y="395.5" transform="matrix(0.9475 -0.3198 0.3198 0.9475 -113.6647 100.465)" width="2.2" height="1.5"/>
<polygon points="238.1,400.8 237.6,399.3 239.7,398.6 240.2,400.1 "/>
<polygon points="258.4,394 257.9,392.5 260,391.8 260.4,393.3 "/>
<polygon points="261,393 262.5,392.5 263.7,393.4 264.6,392.2 263.6,391.5 263.6,391 262.1,390.9 262.1,391.1 260.4,391.6 "/>
<polygon points="245.7,398.2 245.2,396.8 247.3,396.1 247.8,397.5 "/>
<rect x="232.8" y="400.7" transform="matrix(0.9465 -0.3228 0.3228 0.9465 -117.0665 96.9826)" width="2.2" height="1.5"/>
<rect x="235.3" y="399.8" transform="matrix(0.9473 -0.3204 0.3204 0.9473 -115.893 96.8531)" width="2.2" height="1.5"/>
<polygon points="245.2,421.2 243.7,421.2 243.7,419 245.2,419.1 "/>
<rect x="243.3" y="422" transform="matrix(2.599156e-02 -0.9997 0.9997 2.599156e-02 -184.584 656.1082)" width="2.2" height="1.5"/>
<path d="M257.8,290.9c-0.6,0.4-1.4,0.5-2.6,0.5c-0.8,0-1.7-0.1-2.5-0.1c-0.7-0.1-1.4-0.1-2-0.1c0,0-0.1,0-0.1,0c-0.2,0-0.4,0-0.5,0
	c-1.8,0-3.7,0.1-5.4,0.1c-1.9,0.1-3.9,0.1-5.9,0.1c-3.6,0-6.6-0.3-9.2-0.8c-0.3-0.1-0.4-0.2-0.5-0.4c-1.8-4-1.8-9.9-1.8-15
	c0-1.1,0-2.2,0-3.3c-0.1-7.9,0.6-14.5,2.3-20.7c0.2-0.3,0.5-0.5,0.7-0.8c0,0,0-0.1,0.1-0.1c0.1-0.3,0.3-0.5,0.4-0.8
	c0.3-0.6,0.6-1.1,0.8-1.7c0.4-0.8,0.5-1.7,0.7-2.5c0.3-1.3,0.5-2.6,1.5-3.6c0.6,0,2.7,0.9,2.9,1c0,0,0,0,0,0c0,0,0,0,0,0.1
	c-0.2,0.7-0.6,1.5-0.9,2.4c-0.9,2-1.9,4.3-1.2,6.3c0,0.2,0.2,0.3,0.3,0.3c2.5,1.2,6.6,2,10.4,2c1.2,0,2.3-0.1,3.2-0.2
	c0.6-0.1,1-0.5,1.5-0.9c0.3-0.3,0.7-0.6,0.8-1.1c0.2-0.6,0.4-1.3,0.5-2.1c0-0.1,0-0.3,0-0.4c0.1-2.4,0.1-4.2-0.3-4.7l-0.2-0.2
	c-0.1-0.1-0.2-0.3-0.3-0.4c0.2-0.1,0.5-0.2,0.9-0.3c1.5-0.5,2.7-0.9,3.1-1.4c0,0,0,0,0.1,0c0.1,0,0.3,0.1,0.3,0.3
	c1.2,4.8,1.7,9.7,2.2,14.5c0.3,3.1,0.7,6.4,1.2,9.6c0.6,3.8,1.3,9.4-0.1,13.6c-0.4,1.3,0,2.9,0.4,4.7
	C259.2,287.3,259.8,289.7,257.8,290.9z M248.7,252.9c-0.1,0.1-0.2,0.1-0.3,0.1c-0.9,0.2-1.9,0.2-3.1,0.2c-3.6,0-7.7-0.8-10.1-1.9
	c-0.5-1.7,0.4-3.9,1.2-5.7c0.1-0.3,0.2-0.5,0.3-0.7l0.1,5.9c0,0,0,0,0,0C236.8,252.5,245.7,252.8,248.7,252.9z M259.2,284.6
	c-0.4-1.6-0.8-3.2-0.4-4.3c1.4-4.4,0.7-10.1,0.1-13.9c-0.5-3.2-0.8-6.4-1.2-9.5c-0.5-4.8-1-9.8-2.2-14.6c-0.1-0.4-0.5-0.8-1-0.8
	c-0.2,0-0.5,0.1-0.6,0.3c-0.3,0.4-1.9,0.9-2.8,1.2c-0.4,0.1-0.8,0.3-1.1,0.4c-0.1,0-0.3,0.1-0.4,0.4c-0.1,0.2,0.1,0.4,0.2,0.5
	c0.1,0.2,0.2,0.3,0.4,0.5l0.2,0.2c0.1,0.2,0.3,1.1,0.2,4.2c0,0.2,0,0.3,0,0.4c0,0.7-0.2,1.3-0.4,1.8c-0.1,0.3-0.3,0.6-0.6,0.8
	c-7.7,0-11.9-1-12.1-1.5l-0.1-7.6c0.1-0.2,0.1-0.6-0.4-0.8c0,0-2.4-1.1-3.3-1.1c-0.2,0-0.3,0-0.4,0.1c-1.2,1.2-1.5,2.6-1.8,4
	c-0.2,0.8-0.3,1.6-0.7,2.3c-0.3,0.6-0.5,1.1-0.8,1.7c-0.1,0.2-0.2,0.5-0.4,0.7c-0.3,0.3-0.5,0.5-0.8,0.8c0,0-0.1,0.1-0.1,0.1
	c-1.7,6.2-2.4,12.9-2.3,20.9c0,1,0,2.1,0,3.2c0,5.2-0.1,11.1,1.8,15.3c0.2,0.4,0.5,0.7,1,0.8c2.7,0.6,5.6,0.9,9.3,0.9
	c2,0,4-0.1,5.9-0.1c1.9-0.1,3.9-0.1,5.8-0.1c0,0,0,0,0,0c0,0,0,0,0,0c0.6,0,1.4,0,2.3,0.1c0.8,0.1,1.7,0.1,2.5,0.1
	c1.4,0,2.3-0.2,3-0.6C260.6,290,259.8,287.1,259.2,284.6z"/>
<path d="M459.1,246.6h-29c-0.1,0-0.1-0.1-0.1-0.2s0.1-0.2,0.1-0.2h29c0.1,0,0.1,0.1,0.1,0.2S459.2,246.6,459.1,246.6z M454.2,282.7
	c-0.5,0.1-0.9,0.2-1.4,0.2c-0.8,0.1-1.6,0.2-2.4,0.3c-6.1,0.6-11.4,0.2-14-0.3c0,0,0,0,0,0c-0.7-0.1-1.2-0.2-1.4-0.2l-4.6-35.7h28.4
	L454.2,282.7z M459.1,245.9h-29c-0.3,0-0.6,0.3-0.6,0.6c0,0.3,0.2,0.5,0.4,0.6l4.6,35.8c0,0,0,0.1,0,0.1c0,0.1,0.1,0.2,0.2,0.2
	c0.1,0,4.3,0.8,10,0.8c2.9,0,6.2-0.2,9.6-0.8c0.1,0,0.2-0.1,0.2-0.2c0,0,0-0.1,0-0.1l4.6-35.8c0.3-0.1,0.5-0.3,0.5-0.6
	C459.7,246.2,459.4,245.9,459.1,245.9z"/>
</svg>
