<?xml version="1.0" encoding="UTF-8" standalone="no"?>
<!-- Created with Inkscape (http://www.inkscape.org/) -->

<svg
   xmlns:sketch="http://www.bohemiancoding.com/sketch/ns"
   xmlns:dc="http://purl.org/dc/elements/1.1/"
   xmlns:cc="http://creativecommons.org/ns#"
   xmlns:rdf="http://www.w3.org/1999/02/22-rdf-syntax-ns#"
   xmlns:svg="http://www.w3.org/2000/svg"
   xmlns="http://www.w3.org/2000/svg"
   xmlns:sodipodi="http://sodipodi.sourceforge.net/DTD/sodipodi-0.dtd"
   xmlns:inkscape="http://www.inkscape.org/namespaces/inkscape"
   width="1052.3622"
   height="744.09448"
   id="svg2"
   version="1.1"
   inkscape:version="0.48.3.1 r9886"
   sodipodi:docname="leaves_only_en_hi_kn_ta.svg">
  <defs
     id="defs4" />
  <sodipodi:namedview
     id="base"
     pagecolor="#ffffff"
     bordercolor="#666666"
     borderopacity="1.0"
     inkscape:pageopacity="0.0"
     inkscape:pageshadow="2"
     inkscape:zoom="1.087234"
     inkscape:cx="535.53242"
     inkscape:cy="368.57143"
     inkscape:document-units="px"
     inkscape:current-layer="layer1"
     showgrid="false"
     inkscape:window-width="1827"
     inkscape:window-height="1023"
     inkscape:window-x="73"
     inkscape:window-y="24"
     inkscape:window-maximized="0" />
  <metadata
     id="metadata7">
    <rdf:RDF>
      <cc:Work
         rdf:about="">
        <dc:format>image/svg+xml</dc:format>
        <dc:type
           rdf:resource="http://purl.org/dc/dcmitype/StillImage" />
        <dc:title />
      </cc:Work>
    </rdf:RDF>
  </metadata>
  <g
     inkscape:label="Layer 1"
     inkscape:groupmode="layer"
     id="layer1"
     transform="translate(0,-308.2677)">
    <g
       id="g3106"
       transform="matrix(3.3,0,0,3.3,33.700825,340.22706)"
       style="fill:#668000">
      <g
         id="g3092"
         style="fill:#668000">
        <path
           id="path3094"
           d="M 74.488,72.223 C 89.962,56.755 93.59,5.872 93.59,5.872 c 0,0 -10.505,5.477 -27.287,6.917 C 50.478,14.148 35.822,16.38 27.234,24.968 13.98,38.225 10.663,57.093 18.207,70.427 26.511,57.397 60.655,38.805 60.655,38.805 36.148,56.331 23.661,69.922 6.847,93.874 l 8.245,2.207 c 0,0 6.138,-11.085 11.474,-16.44 13.392,9.502 33.82,6.689 47.922,-7.418 z"
           inkscape:connector-curvature="0"
           style="fill:#668000" />
      </g>
    </g>
    <g
       id="g3194"
       transform="matrix(-4.5,0,0,4.5,343.48487,699.44058)"
       style="fill:#668000">
      <g
         id="g3178"
         sketch:type="MSPage"
         style="fill:#668000;stroke:none">
        <g
           id="g3180"
           transform="translate(-495,-695)"
           sketch:type="MSArtboardGroup"
           style="fill:#668000">
          <path
             id="path3182"
             sketch:type="MSShapeGroup"
             d="m 542.99653,707.16722 c -1.11313,0.80214 -2.18694,1.63465 -3.22304,2.49368 2.7472,-0.80356 9.77565,-2.13383 15.49262,2.9724 -1.89719,2.98389 -12.63134,5.85364 -17.62649,-1.11898 -1.37923,1.25407 -2.68653,2.55495 -3.92631,3.89203 2.96358,-0.62529 10.43217,-1.45117 15.48591,4.49502 -3.30452,3.26342 -11.67003,3.93043 -17.19405,-2.5818 -1.51762,1.76482 -2.92645,3.58151 -4.23594,5.42738 3.05925,-0.43114 9.9621,-0.70718 15.45001,4.19446 -3.26103,3.22046 -11.51864,4.16609 -17.02773,-1.88586 -1.39629,2.12059 -2.66936,4.2667 -3.83306,6.405 2.74849,-0.87024 10.72652,-2.73295 16.65522,2.5624 -3.28496,3.2441 -12.18617,5.58061 -17.72623,-0.53838 -1.17086,2.27563 -2.22187,4.53033 -3.16995,6.72347 3.13405,-1.19984 10.80602,-3.26313 15.90839,2.71286 -3.14907,3.1099 -11.5922,5.51128 -17.1733,0.32101 -0.99527,2.47425 -1.8619,4.83944 -2.62649,7.03159 3.50216,-1.29317 10.94216,-3.15747 16.32664,1.65179 -3.09053,3.0521 -11.75495,6.22584 -17.41602,1.54564 -1.26043,3.77456 -2.20551,6.81694 -3.01414,8.69693 -1.59694,3.79618 -2.37262,1.29591 -2.37262,1.29591 0,0 1.00733,-4.73293 3.38033,-11.62173 -6.80776,-1.31704 -10.77791,-8.67732 -9.6376,-16.9939 6.95213,1.33317 9.65101,10.82426 10.46548,14.66019 0.87347,-2.39245 1.89662,-4.98458 3.08193,-7.68677 -5.975,-1.55697 -9.07817,-9.64522 -7.90679,-15.79763 6.04341,1.25288 8.43439,9.1716 9.23156,12.88101 0.96957,-2.06198 2.0315,-4.16734 3.19096,-6.27907 -6.18859,-1.97895 -8.57744,-11.26375 -5.98941,-16.54628 6.42065,2.86276 7.65397,9.67527 7.83577,13.3226 1.03436,-1.73099 2.1362,-3.45358 3.30837,-5.14729 -4.93692,-1.06031 -7.52672,-10.96793 -4.567,-17.16555 7.28509,3.24818 6.72457,11.73264 6.25468,14.81474 1.35752,-1.82214 2.80114,-3.59811 4.33461,-5.30094 -3.16799,-1.63424 -7.16413,-11.22103 -2.76653,-17.78625 5.80277,3.57612 5.11055,12.57805 4.65921,15.77035 1.32319,-1.35069 2.70836,-2.64439 4.15762,-3.86604 -4.02574,-2.21838 -3.46269,-12.21173 1.81141,-16.58742 3.97997,5.72582 1.91173,11.94498 0.68871,14.602 l 0,0 c 1.03122,-0.76981 2.09241,-1.50265 3.18422,-2.19383 0.01,-2.14931 1.26884,-8.53422 15.41021,-11.01126 -2.4695,10.49915 -11.03745,10.94652 -14.88116,11.63652 z"
             inkscape:connector-curvature="0"
             style="fill:#668000" />
        </g>
      </g>
    </g>
    <text
       xml:space="preserve"
       style="font-size:40px;font-style:normal;font-weight:normal;line-height:125%;letter-spacing:0px;word-spacing:0px;fill:#000000;fill-opacity:1;stroke:none;font-family:Sans"
       x="390.77603"
       y="635.73938"
       id="text3201"
       sodipodi:linespacing="125%"><tspan
         sodipodi:role="line"
         id="tspan3203"
         x="390.77603"
         y="635.73938"
         style="font-size:96px;font-style:normal;font-variant:normal;font-weight:normal;font-stretch:normal;font-family:Junction;-inkscape-font-specification:Junction">leaves only</tspan></text>
    <text
       xml:space="preserve"
       style="font-size:40px;font-style:normal;font-weight:normal;line-height:125%;letter-spacing:0px;word-spacing:0px;fill:#000000;fill-opacity:1;stroke:none;font-family:Sans"
       x="473.67905"
       y="279.61307"
       id="text3205"
       sodipodi:linespacing="125%"
       transform="translate(0,308.2677)"><tspan
         sodipodi:role="line"
         id="tspan3207"
         x="473.67905"
         y="279.61307" /></text>
    <text
       xml:space="preserve"
       style="font-size:40px;font-style:normal;font-weight:normal;line-height:125%;letter-spacing:0px;word-spacing:0px;fill:#000000;fill-opacity:1;stroke:none;font-family:Sans"
       x="396.29459"
       y="811.51221"
       id="text3209"
       sodipodi:linespacing="125%"><tspan
         sodipodi:role="line"
         id="tspan3211"
         x="396.29459"
         y="811.51221"
         style="font-size:110px;font-style:normal;font-variant:normal;font-weight:normal;font-stretch:normal;font-family:Nakula;-inkscape-font-specification:Nakula">सिर्फ पत्ते</tspan></text>
    <text
       xml:space="preserve"
       style="font-size:40px;font-style:normal;font-weight:normal;line-height:125%;letter-spacing:0px;word-spacing:0px;fill:#000000;fill-opacity:1;stroke:none;font-family:Sans"
       x="380.65866"
       y="480.33115"
       id="text3056"
       sodipodi:linespacing="125%"><tspan
         sodipodi:role="line"
         id="tspan3058"
         x="380.65866"
         y="480.33115"
         style="font-size:96px;font-style:normal;font-variant:normal;font-weight:normal;font-stretch:normal;font-family:Lohit Kannada;-inkscape-font-specification:Lohit Kannada">ಎಲೆಗಳು ಮಾತ್ರ</tspan></text>
    <text
       xml:space="preserve"
       style="font-size:40px;font-style:normal;font-weight:normal;line-height:125%;letter-spacing:0px;word-spacing:0px;fill:#000000;fill-opacity:1;stroke:none;font-family:Sans"
       x="396.29465"
       y="930.03345"
       id="text3060"
       sodipodi:linespacing="125%"><tspan
         sodipodi:role="line"
         id="tspan3062"
         x="396.29465"
         y="930.03345"
         style="font-size:84px;font-style:normal;font-variant:normal;font-weight:normal;font-stretch:normal;font-family:TSCu_Paranar;-inkscape-font-specification:TSCu_Paranar">இலைகள் மட்டும்</tspan></text>
  </g>
</svg>
