<?xml version="1.0" encoding="UTF-8" standalone="no"?>
<!-- Created with Inkscape (http://www.inkscape.org/) -->

<svg
   xmlns:dc="http://purl.org/dc/elements/1.1/"
   xmlns:cc="http://creativecommons.org/ns#"
   xmlns:rdf="http://www.w3.org/1999/02/22-rdf-syntax-ns#"
   xmlns:svg="http://www.w3.org/2000/svg"
   xmlns="http://www.w3.org/2000/svg"
   xmlns:sodipodi="http://sodipodi.sourceforge.net/DTD/sodipodi-0.dtd"
   xmlns:inkscape="http://www.inkscape.org/namespaces/inkscape"
   width="210mm"
   height="297mm"
   viewBox="0 0 744.09448819 1052.3622047"
   id="svg2"
   version="1.1"
   inkscape:version="0.91 r13725"
   sodipodi:docname="no-fires.svg">
  <defs
     id="defs4" />
  <sodipodi:namedview
     id="base"
     pagecolor="#ffffff"
     bordercolor="#666666"
     borderopacity="1.0"
     inkscape:pageopacity="0.0"
     inkscape:pageshadow="2"
     inkscape:zoom="0.71838384"
     inkscape:cx="372.04724"
     inkscape:cy="526.1811"
     inkscape:document-units="px"
     inkscape:current-layer="layer1"
     showgrid="false"
     inkscape:window-width="1920"
     inkscape:window-height="922"
     inkscape:window-x="0"
     inkscape:window-y="0"
     inkscape:window-maximized="1" />
  <metadata
     id="metadata7">
    <rdf:RDF>
      <cc:Work
         rdf:about="">
        <dc:format>image/svg+xml</dc:format>
        <dc:type
           rdf:resource="http://purl.org/dc/dcmitype/StillImage" />
        <dc:title></dc:title>
      </cc:Work>
    </rdf:RDF>
  </metadata>
  <g
     inkscape:label="Layer 1"
     inkscape:groupmode="layer"
     id="layer1">
    <g
       id="g3474"
       transform="translate(-4.1760405,-51.504499)">
      <g
         style="fill:#d40000"
         transform="matrix(4.5419528,0,0,4.5419528,199.42284,141.79011)"
         id="g3424">
        <path
           id="path3426"
           d="M 62.078125,44.167969 C 54,26.671875 59.210938,21.0625 59.265625,21.007812 c 0.08594,-0.09375 0.101563,-0.238281 0.03125,-0.347656 -0.07813,-0.105468 -0.214844,-0.152344 -0.335937,-0.101562 -0.117188,0.04687 -11.355469,4.730468 -9.941407,15.113281 C 45.933594,32.898438 31.535156,18.679688 40.34375,1.960938 40.398438,1.859375 40.382812,1.726562 40.304688,1.644531 40.222656,1.554688 40.09375,1.53125 39.992188,1.578125 39.804688,1.65625 35.3125,3.574219 31.730469,8.429688 c -3.304688,4.46875 -6.378907,12.371093 -2.238281,24.605468 1.503906,5.753906 -1.335938,10.417969 -2.855469,12.398438 0.371093,-1.363282 0.84375,-3.675782 0.765625,-6.332032 C 27.28125,35.210938 25.878906,29.84375 19.890625,26.375 c -0.09375,-0.05469 -0.214844,-0.05078 -0.300781,0.01563 -0.08984,0.07031 -0.128906,0.179687 -0.105469,0.289063 0.02344,0.101562 2.261719,10.324218 -1.667969,15.054687 -3.390625,4.078125 -6.714844,11.179687 -4.917968,17.757813 1.507812,5.5 6.21875,9.699218 14.003906,12.476562 1.996094,0.613281 3.902344,1.078125 6.015625,1.472656 0.136719,0.03125 0.269531,-0.05469 0.3125,-0.1875 0.04297,-0.136718 -0.02734,-0.285156 -0.152344,-0.34375 -3.996094,-1.730468 -8.117187,-5.339844 -5.054687,-12.671875 2.917968,-6.320312 2.394531,-9.582031 1.8125,-10.972656 1.507812,0.851563 4.503906,3.054687 3.753906,6.929687 -0.01953,0.113282 0.03125,0.230469 0.132812,0.289063 0.101563,0.05859 0.222656,0.05078 0.316406,-0.02344 0.09375,-0.07031 9.097657,-7.484376 5.007813,-16.5625 2.015625,1.164062 7.363281,5.234374 4.210937,14.574218 -1.050781,4.011719 1.804688,6.902344 1.929688,7.019532 0.09375,0.09375 0.238281,0.109374 0.347656,0.03516 0.105469,-0.06641 0.152344,-0.207032 0.105469,-0.332032 -0.09375,-0.25 -2.230469,-5.996093 2.398437,-9.167968 -0.242187,1.472656 -0.628906,5.121094 1.027344,7.113281 1.488282,1.789063 2.925782,4.726563 2.484375,7.597656 -0.308593,2.019531 -1.5,3.722657 -3.558593,5.050781 -0.117188,0.08203 -0.160157,0.226563 -0.101563,0.351563 0.0625,0.128906 0.207031,0.1875 0.34375,0.144531 5.078125,-1.679687 11.742187,-5.015625 14.648437,-11.386718 2.140626,-4.695313 1.871094,-10.324219 -0.804687,-16.730469 z m 0,0"
           style="fill:#d40000;fill-opacity:1;fill-rule:nonzero;stroke:none"
           inkscape:connector-curvature="0" />
      </g>
      <g
         transform="matrix(5.639205,0,0,5.639205,91.653398,24.524925)"
         id="g3446">
        <path
           id="path3448"
           d="M 69.162,26.365 68.903,26.605 26.6,68.907 c -0.497,0.498 -0.855,0.955 -1.095,1.375 -4.079,-5.275 -6.466,-12 -6.466,-19.4 0,-17.594 13.252,-30.964 30.842,-30.964 7.382,0 14.028,2.369 19.281,6.447 z M 31.874,76.406 c 0.378,-0.234 0.776,-0.574 1.213,-1.014 L 75.39,33.09 75.47,33.01 c 3.482,5.035 5.492,11.203 5.492,17.988 C 80.961,68.569 67.57,82.08 50,82.08 43.135,82.08 36.908,80.01 31.874,76.406 Z M 11,50.999 c 0,21.55 17.469,38.999 39,38.999 21.53,0 39,-17.449 39,-38.999 C 89,29.449 71.53,12 50,12 28.469,12 11,29.449 11,50.999 Z"
           inkscape:connector-curvature="0"
           style="fill:#000000;fill-rule:evenodd" />
      </g>
    </g>
    <text
       xml:space="preserve"
       style="font-style:normal;font-weight:normal;font-size:40px;line-height:125%;font-family:sans-serif;letter-spacing:0px;word-spacing:0px;fill:#000000;fill-opacity:1;stroke:none;stroke-width:1px;stroke-linecap:butt;stroke-linejoin:miter;stroke-opacity:1"
       x="140"
       y="750.1687"
       id="text3480"
       sodipodi:linespacing="125%"><tspan
         sodipodi:role="line"
         id="tspan3482"
         x="140"
         y="750.1687"
         style="font-style:normal;font-variant:normal;font-weight:normal;font-stretch:normal;font-size:120px;font-family:'Noto Sans';-inkscape-font-specification:'Noto Sans'">no fires</tspan></text>
    <text
       xml:space="preserve"
       style="font-style:normal;font-weight:normal;font-size:40px;line-height:125%;font-family:sans-serif;letter-spacing:0px;word-spacing:0px;fill:#000000;fill-opacity:1;stroke:none;stroke-width:1px;stroke-linecap:butt;stroke-linejoin:miter;stroke-opacity:1"
       x="94.575363"
       y="977.35651"
       id="text3484"
       sodipodi:linespacing="125%"><tspan
         sodipodi:role="line"
         id="tspan3486"
         x="94.575363"
         y="977.35651"
         style="font-style:normal;font-variant:normal;font-weight:normal;font-stretch:normal;font-size:90px;font-family:'Noto Sans Tamil';-inkscape-font-specification:'Noto Sans Tamil'">இல்லை தீ</tspan></text>
    <text
       xml:space="preserve"
       style="font-style:normal;font-weight:normal;font-size:40px;line-height:125%;font-family:sans-serif;letter-spacing:0px;word-spacing:0px;fill:#000000;fill-opacity:1;stroke:none;stroke-width:1px;stroke-linecap:butt;stroke-linejoin:miter;stroke-opacity:1"
       x="141.98538"
       y="555.41339"
       id="text3488"
       sodipodi:linespacing="125%"><tspan
         sodipodi:role="line"
         id="tspan3490"
         x="141.98538"
         y="555.41339"
         style="-inkscape-font-specification:'Noto Sans Kannada';font-family:'Noto Sans Kannada';font-weight:normal;font-style:normal;font-stretch:normal;font-variant:normal;font-size:90px">ಬೆಂಕಿ ಇಲ್ಲ</tspan></text>
  </g>
</svg>
