<?xml version="1.0" encoding="UTF-8" standalone="no"?>
<!-- Generator: Adobe Illustrator 19.2.1, SVG Export Plug-In . SVG Version: 6.00 Build 0)  -->

<svg
   xmlns:dc="http://purl.org/dc/elements/1.1/"
   xmlns:cc="http://creativecommons.org/ns#"
   xmlns:rdf="http://www.w3.org/1999/02/22-rdf-syntax-ns#"
   xmlns:svg="http://www.w3.org/2000/svg"
   xmlns="http://www.w3.org/2000/svg"
   xmlns:sodipodi="http://sodipodi.sourceforge.net/DTD/sodipodi-0.dtd"
   xmlns:inkscape="http://www.inkscape.org/namespaces/inkscape"
   version="1.1"
   x="0px"
   y="0px"
   viewBox="0 0 595.3 841.9"
   style="enable-background:new 0 0 595.3 841.9;"
   xml:space="preserve"
   id="svg11201"
   inkscape:version="0.91 r13725"
   sodipodi:docname="wet_waste.svg"><metadata
     id="metadata11328"><rdf:RDF><cc:Work
         rdf:about=""><dc:format>image/svg+xml</dc:format><dc:type
           rdf:resource="http://purl.org/dc/dcmitype/StillImage" /></cc:Work></rdf:RDF></metadata><defs
     id="defs11326" /><sodipodi:namedview
     pagecolor="#ffffff"
     bordercolor="#666666"
     borderopacity="1"
     objecttolerance="10"
     gridtolerance="10"
     guidetolerance="10"
     inkscape:pageopacity="0"
     inkscape:pageshadow="2"
     inkscape:window-width="1636"
     inkscape:window-height="1021"
     id="namedview11324"
     showgrid="false"
     inkscape:zoom="0.87626223"
     inkscape:cx="303.2267"
     inkscape:cy="410.24789"
     inkscape:window-x="0"
     inkscape:window-y="0"
     inkscape:window-maximized="0"
     inkscape:current-layer="g11209" /><style
     type="text/css"
     id="style11203">
	.st0{fill:none;stroke:#008000;stroke-width:10;}
	.st1{fill:#008000;stroke:#008000;stroke-width:10.0397;}
	.st2{fill:#FFFFFF;}
	.st3{font-family:'NotoSans';}
	.st4{font-size:54px;}
	.st5{font-family:'NotoSansKannada';}
	.st6{fill:none;}
	.st7{fill:#008000;}
	.st8{fill:#008000;stroke:#FFFFFF;stroke-width:5;}
	.st9{fill:#161616;}
	.st10{font-size:18px;}
	.st11{opacity:0.16;fill:none;stroke:#008000;enable-background:new    ;}
	.st12{fill:none;stroke:#000000;stroke-width:1.4784;stroke-linecap:round;stroke-linejoin:round;}
	.st13{font-size:12px;}
</style><g
     id="svg2"
     inkscape:version="0.91 r13725"
     sodipodi:docname="wet_waste.svg"><sodipodi:namedview
       bordercolor="#666666"
       borderopacity="1.0"
       id="base"
       inkscape:current-layer="layer1"
       inkscape:cx="341.64672"
       inkscape:cy="694.64123"
       inkscape:document-units="px"
       inkscape:pageopacity="0.0"
       inkscape:pageshadow="2"
       inkscape:window-height="1018"
       inkscape:window-maximized="0"
       inkscape:window-width="1495"
       inkscape:window-x="78"
       inkscape:window-y="36"
       inkscape:zoom="1"
       pagecolor="#ffffff"
       showgrid="false" /><path
       id="rect4155_1_"
       class="st0"
       d="M91.1,23.3h412c35.3,0,64,28.7,64,64v412c0,35.3-28.7,64-64,64h-412c-35.3,0-64-28.7-64-64   v-412C27.1,52,55.8,23.3,91.1,23.3z" /><path
       id="rect4262_1_"
       class="st1"
       d="M87.3,32.6h416.8c29.8,0,53.9,24.1,53.9,53.9V174H37V83C37,55.1,59.5,32.6,87.3,32.6z" /><g
       id="g11209"><text
         transform="matrix(1 0 0 1 213.9463 89.3267)"
         class="st2 st3 st4"
         id="text11211"><tspan
           style="-inkscape-font-specification:'Noto Sans';font-family:'Noto Sans';font-weight:normal;font-style:normal;font-stretch:normal;font-variant:normal"
           id="tspan11888">Wet Waste</tspan></text>
<text
         transform="matrix(1 0 0 1 213.9463 146.9541)"
         class="st2 st5 st4"
         id="text11213">ಹಸಿ ಕಸ</text>
</g><g
       id="g11215"><path
         class="st6"
         d="M35.2,175.7c0-48.8,0-97.6,0-146.6c50.8,0,101.5,0,152.3,0c0,1.4-0.1,2.8-0.1,4.2c0,46.1,0,92.2,0,138.2    c0,1.3,0,2.5,0,4.1c-1.6,0-2.8,0-4.1,0c-48,0-96,0-144,0C38,175.6,36.6,175.7,35.2,175.7z M177.6,100.4    c0.1-34.9-27.2-64.6-63.5-65.4c-36.4-0.8-66.3,27.4-66.6,64.9c-0.2,37.2,28.6,63.7,61,65.6C148,167.8,177.8,135.9,177.6,100.4z"
         id="path11217" /><path
         class="st6"
         d="M38.2,175.7c1.4,0,2.8-0.1,4.2-0.1c48,0,96,0,144,0c1.3,0,2.5,0,4.1,0c0-1.6,0-2.8,0-4.1    c0-46.1,0-92.2,0-138.2c0-1.4,0.1-2.8,0.1-4.2c0.2,1,0.6,1.9,0.6,2.9c0,48.1,0,96.1,0,144.3c-1.7,0-3.3,0-5,0    c-48.4,0-96.8,0-145.1,0C40.1,176.3,39.1,175.9,38.2,175.7z"
         id="path11219" /><path
         class="st2"
         d="M177.6,100.4c0.2,35.6-29.6,67.4-69.1,65.1c-32.4-1.9-61.2-28.3-61-65.6c0.2-37.5,30.2-65.7,66.6-64.9    C150.4,35.8,177.7,65.4,177.6,100.4z M51.4,100.2c0,34,27.5,61.7,61.2,61.6c33.9-0.1,61.3-27.6,61.3-61.6s-27.4-61.4-61.4-61.3    C78.6,39,51.4,66.3,51.4,100.2z"
         id="path11221" /><path
         class="st7"
         d="M51.8,100.2c0-34,27.2-61.3,61.1-61.3c34,0,61.4,27.3,61.4,61.3s-27.4,61.5-61.3,61.6    C79.3,162,51.8,134.3,51.8,100.2z M104.2,119.3c-0.3-7.5-3.9-13.1-9.5-17.5c-6.1-4.8-13.3-7-20.9-8c-4.2-0.5-4.9,0-3.9,4.1    C73,111,90,121.7,104.2,119.3z M112.9,122.7L112.9,122.7c0-3.5,0.2-7-0.1-10.5c0-0.5-0.5-1-1-1.5c-0.6-0.6-1.5-0.6-2.1,0    c-0.5,0.5-1,1-1,1.6c-0.2,6.9-0.2,13.8,0,20.7c0,0.2,0.1,0.4,0.2,0.6c0.8,1.4,3,1.4,3.7,0c0.1-0.2,0.2-0.4,0.2-0.6    C113.1,129.5,112.9,126.1,112.9,122.7z"
         id="path11223" /><path
         class="st2"
         d="M106.3,119.3C92.1,121.7,75.1,111,72,98c-0.4-1.8-0.8-4.3-0.8-4.3s2.3-0.1,4.7,0.2c7.6,1,14.8,3.1,20.9,8    C102.3,106.2,106,111.7,106.3,119.3z"
         id="path11225" /><path
         class="st2"
         d="M112.6,106.4c-11.5-8.6-15.5-28.3-8.3-39.5c1-1.5,2.5-3.5,2.5-3.5s1.7,1.6,3.1,3.5c4.6,6.2,8,12.8,8.7,20.6    C119.3,94.5,117.8,101,112.6,106.4z"
         id="path11227" /><path
         class="st2"
         d="M155,89.7c-3.3,14-19.8,25.5-33,23.3c-1.8-0.3-4.2-0.9-4.2-0.9s0.8-2.2,2-4.3c3.9-6.7,8.6-12.4,15.5-16.2    C141.4,88.2,147.9,87,155,89.7z"
         id="path11229" /><path
         class="st2"
         d="M115,122.7c0,3.4,0.1,6.8-0.1,10.2c0,0.2-0.1,0.4-0.2,0.6c-0.7,1.5-2.9,1.5-3.7,0c-0.1-0.2-0.2-0.4-0.2-0.6    c-0.2-6.9-0.2-13.8,0-20.7c0-0.2,0.1-0.4,0.2-0.6c0.8-1.4,3-1.4,3.7,0c0.1,0.2,0.2,0.4,0.2,0.5C115.2,115.7,115,119.2,115,122.7    L115,122.7z"
         id="path11231" /></g><g
       id="g11233"><rect
         id="rect4337_1_"
         x="518.5"
         y="125.1"
         class="st8"
         width="27.6"
         height="27.6" /><rect
         id="rect4339_1_"
         x="521.5"
         y="128.2"
         class="st2"
         width="21.6"
         height="21.4" /><circle
         id="path4341_1_"
         class="st7"
         cx="532.3"
         cy="138.9"
         r="8.3" /></g><path
       id="path4473_1_"
       inkscape:connector-curvature="0"
       class="st9"
       d="M186.2,228.6c-0.4-1.3-1-2-1.8-2.2   c-0.7-0.2-1.5,0.2-2.3,0.6c-0.1-0.8-0.3-1.8-0.4-2.5c0.2-0.3,0.3-0.7,0.1-1.1c-1.1-3.7-16.6-9.7-18.4-10.3   c-0.8-0.3-18.9-7.2-21.9-7.3h-0.1c-1.9,0-16.5,3.8-30.1,7.6c-6.4,1.8-27.5,7.7-28.2,8.6c-0.6,0.8-0.8,1.6-0.9,2.2   c-0.1,0.2-0.1,0.4-0.2,0.5c-0.3-0.1-0.6-0.1-0.9-0.1c-2.3,0-7.8,2.1-9.3,6.3c-0.3,0.8-0.4,1.8-0.3,3.3c0,0-0.3,1.7-0.4,2.8   c-0.2,1.8-0.3,3.6,0.3,5.3c0,0.1,0,0,0,0.1c-2-1.1-4.5-2-6.3-1.6c-1.2,0.3-1.9,1.1-2.3,2.3c-0.5,2.3,0.3,4.3,2.4,5.6   c1.8,1.2,4.2,1.5,6.2,1.1c0,2.3,0.2,6.3,1.2,7.5c9.1,10.9,20.8,14.2,29,14.9c1.6,0.2,3.2,0.3,4.7,0.3c8,0,14.4-1.9,16-3.2   c0.2-0.1,0.3-0.2,0.4-0.3l0,0c0,0,0,0,0.1,0c0.5-0.1,1.2-0.1,1.8-0.1c2.4-0.1,5.4-0.3,7-1.7c1.5-1.3,1-4.6,0.7-5.9   c0.9-0.2,1.8-0.6,2.3-1.2c1-1,1-2.3,0-3.8c-0.8-1.2-2-1.8-3.4-1.6c0,0,0,0-0.1,0c-0.1-1.6-1.3-5-2.1-5.2c-0.3-0.1-2.3-0.5-4.1-1.4   c0-0.1,0-0.2,0-0.3c-0.3-0.9-0.3-1.9-0.3-2.9c0.6-1,2.8-1.9,3.7-2c0.3,0,0.3-0.3,0.3-0.4c-0.1-1.3,0.6-2.3,1.7-2.7c0,0,0,0,0.1,0   c0.2-0.1,0.6-0.1,0.9,0c0.5,0,0.9,0.1,1.2-0.2c0.5-0.4,0.4-1.1,0.3-1.5c-0.1-0.3-0.2-0.6-0.1-0.8c0.3-1,1.3-1.8,2.7-2.2   c2-0.5,4.4-0.1,5.6,1c0.1,0.1,0.3,0.1,0.3,0.1c0.2,0,0.3-0.2,0.3-0.3c0.3-1,1.5-1.9,2.8-2.1c0.6-0.1,1.4,0,1.8,0.8   c0.1,0.1,0.2,0.2,0.3,0.2s0.3,0,0.3-0.1c1-0.9,2.4-1.3,3.4-1c0.8,0.3,1.2,0.9,1.3,1.8c0,0.1,0.1,0.3,0.2,0.3c0.1,0.1,0.3,0.1,0.3,0   c0.8-0.3,2.1-0.3,3,0.3c0.7,0.3,1.1,0.8,1.2,1.4c0,0.2,0.1,0.3,0.3,0.3c0.1,0.1,0.3,0,0.3-0.1c1-0.8,1.9-0.4,2.4,0   c0.6,0.6,0.9,1.7,0.3,2.7c-0.1,0.1-0.1,0.3,0,0.3c0.1,0.1,0.2,0.2,0.3,0.3c0.3,0.1,0.8,0.1,1.2,0.1c0.9,0.1,2,0.1,2.4,0.6   c0.2,0.3,0.3,0.6,0.2,1c0,0.1,0,0.3,0.1,0.3c0.1,0.1,0.2,0.2,0.3,0.2c2.6-0.1,5.2,1.2,6.7,3.3c0,0.2,0.3,0.3,0.3,0.5   c0.5,0.5,2.1-0.8,2.8-1.2c0.4-0.2,0.8-0.3,1.3-0.6c1.7-1,3.3-2.1,5.1-2.8c0.3-0.1,0.4-0.2,0.6-0.3c1.4-0.6,2.1-0.8,2.3-2.9   c0.3-2,0-4.4-0.3-6.7c0-0.1-0.1-0.2-0.1-0.2c1.1,0,2.2-0.3,2.8-0.8C186.1,231.3,186.8,230.3,186.2,228.6L186.2,228.6z M72.1,241.9   c-0.8-1.5-0.4-3.4-0.3-5.2c0-0.5,0.1-1.1,0.1-1.6c1.3,3.9,5.3,8.5,11.9,13.7c3,2.3,15.9,8.7,29.2,8.7c3.1,0,6.1-0.3,8.8-1.1   c0.8-0.3,1.6-0.7,2-1.3c0.5,1.8,0.4,2.9,0.3,4.3c0,0,0,0,0,0.1c-0.1,0.1,0.3,0.3,0.2,0.3c-0.5,0.9-0.3,2.2-0.3,2.2   c-1,0.2-2,0.8-2.9,1.3c-0.9,0.6-1.8,1.2-2.8,1.3c-1,0.3-4.3,1-6.2,0c-0.1,0-0.2,0-0.3,0c0-0.2,0-0.3,0-0.6   c-0.2-2.3-2.6-4.6-4.8-4.6c-1.2,0-2,0.8-2.8,1.5c-0.6,0.5-1.1,1-1.5,0.8c-0.1,0-0.3,0-0.3,0.1c-0.8-0.5-2.2-1-3.3-0.7   c-0.6,0.2-0.9,0.6-1.1,1.2c-4.5-0.8-7.7-2.3-12.2-4.8c-0.1,0-0.1,0-0.2-0.1c0,0,0,0,0-0.1c0.4-0.7,0.4-1.4,0.2-2.2   c-0.6-1.4-2.4-2.4-3.7-2.8c0.3-0.9,0.1-1.5-0.2-1.8c-0.4-0.7-1.4-1-2.3-0.9c-0.3,0-0.6,0.1-0.8,0.3c0-0.6-0.2-1.2-0.6-1.6   c-0.4-0.5-1-0.7-1.7-0.6c0-0.7-0.3-1.3-0.6-1.9c-0.4-0.5-1-0.8-1.7-1c0,0,0,0,0.1-0.1c0.2-0.2,0-0.6-0.1-0.8l0.1,0.2   C74.5,244.2,72.7,243,72.1,241.9z M121.8,268.6c-1.4,1.2-9.7,3.8-20.1,2.8c-8.1-0.8-19.5-3.9-28.5-14.6c-0.6-0.8-1-3.4-1-7.1v-0.1   c0.1,0,0.2-0.1,0.3-0.1c-0.1,0.5,0,0.9,0.3,1.3c0.3,0.6,1.1,1,1.7,0.9l0,0c0,1.3,0.5,2.4,1.6,3.4c1.3,1.2,2.9,1.7,3.8,1.3   c0.1-0.1,0.2-0.1,0.3-0.2c0.8,1.2,2.3,2.4,3.7,2.6c0.1,0,0.1,0,0.2,0c0.4,0,1-0.2,1.5-0.7c0,0.1,0.1,0.2,0.2,0.3   c4.7,2.5,7.8,4.1,12.6,4.8c0.3,0.8,0.9,1.3,1.7,1.5c0.7,0.3,1.3,0.3,1.9,0c0.1,0.6,0.4,1.2,1,1.7c1.2,1,2.9,1.5,4.6,1.5   c0.9,0,1.8-0.2,2.5-0.5c0.7-0.3,1.4-0.9,1.8-2c0.8,0.4,1.8,0.6,2.8,0.6c1.5,0,3.1-0.3,3.8-0.6c1.1-0.3,2.1-0.8,3-1.5   c0.8-0.6,1.7-1.1,2.5-1.3c0.1,0,0.2-0.1,0.2-0.1C124.2,265.6,124,266.8,121.8,268.6z M131.4,261.3c0.4,1.7,0.8,4.3-0.3,5.3   c-1.4,1.2-4.3,1.3-6.5,1.4c-0.3,0-0.7,0-1,0.1c1.3-1.4,1.4-2.8,1.3-5.1c0.3,0.2,0.6,0.3,0.9,0.3c0.3,0,0.5-0.1,0.8-0.2   c0.8-0.3,1.6-1,1.9-2.3C129.4,261.2,130.4,261.4,131.4,261.3z M128.2,250.4c1,1.2,1.8,2.9,2.1,4.6c-1.3,0.4-2.7,1.5-3.3,2.8   c-0.4-0.3-0.8-0.3-1.1-0.2c-0.3,0.1-0.5,0.3-0.8,0.4c0-0.9,0.3-2-0.4-3.3c-0.1-0.3,0.3-3.7,0-4.5L128.2,250.4L128.2,250.4z    M125.9,249.4l-1.7-0.1c-0.2,0-0.3,0.1-0.3,0.2c-0.1,0.1-0.1,0.3-0.1,0.3c0,0,0.8,2.6-0.2,4.3c-0.4,0.7-1,1.2-1.9,1.4   c-2.7,0.7-5.7,1-8.7,1c-13,0-25.8-6.3-28.7-8.5c-11.7-9-12.7-14.6-11.5-17.7c1.1-3.1,5.9-4.8,8.3-5.3c0.6-0.1,0.8,0.1,0.8,0.2   c0.1,0.1,0.3,0.1,0.4,0c0.3-0.3,0.4-0.7,0.6-1.2c0.2-0.5,0.3-0.8,0.8-1.4c2.1-1.5,52.6-15.8,56.1-15.8l2.3-0.2   c3,0,20.9,7.3,21.1,7.3c4.7,1.8,17,6.9,17.9,9.7c0,0.1,0,0,0,0c0.1,0.3-0.3,0.5-0.3,0.5c-1.3,1.3-10.6,6.3-12.8,6.3h-0.1   c-0.8-2.1-2.4-2.1-3.4-2.1c-0.2,0-0.4,0-0.6,0c0.1-0.4,0.2-2.3-0.8-2.9c-0.7-0.4-1.8-0.7-3.1-0.7c-0.5,0-0.9,0-1.3,0.1   c-0.2-0.7-0.7-2.3-1.9-2.7c-0.3-0.1-0.8-0.2-1.3-0.2c-1.3,0-2.8,0.3-3.3,0.4c-0.5-0.5-2.3-2.1-3.8-2c-1.3,0.1-3,0.9-3.6,1.3   c-0.6-0.4-2.4-1.6-4.3-1.6c-0.3,0-0.6,0-0.8,0.1c-1.9,0.5-4.3,2.1-4.9,2.6c-0.5-0.2-1.7-0.6-2.9-0.6c-1.1,0-2,0.3-2.7,0.8   c-1.7,1.3-2.1,2.8-2.2,3.6c-0.7-0.1-1.8,0.1-3.8,1.7c-2,1.6-1.5,3.3-1.2,4.4c0.2,0.4,0.3,0.9,0.1,1c-1,0.8-1.7,1.6-2.2,2.4   c-0.9,1.8,0.3,4,1.1,5.4c0.2,0.3,0.3,0.7,0.4,0.8c-0.3,0.8-0.5,3.3,1.2,4.9C123.5,248.4,124.8,249,125.9,249.4L125.9,249.4z    M121.8,241.5c-0.7-1.3-1.8-3.3-1.1-4.7c0.4-0.8,1.1-1.4,1.9-2.2c0.5-0.4,0.3-1.1,0.2-1.8c-0.3-1.1-0.7-2.5,0.9-3.8   c1.7-1.3,2.7-1.6,3.1-1.6l0,0c-0.1,1.3-0.1,2.4-0.1,3.7c0,0.2,0.2,0.5-0.3,0.9c-1.9,1.1-3.1,2.3-3.7,4c-0.6,1.7-0.3,2.3,0.3,3.3   c0.2,0.3,0.3,0.6,0.4,0.9c0.3,1.2,0.3,2.4,0.3,3.8c0,0.3,0,0.5,0,0.8c-0.2,0.4-0.2,0.8,0,1.1c0,0.6,0.1,1.2,0.3,1.7   c-0.3-0.2-0.5-0.3-0.8-0.6c-1.6-1.4-1.2-3.8-1-4.1C122.4,242.7,122.2,242.4,121.8,241.5z M127.8,227.3c0-0.3,0.2-2,1.9-3.4   c0.6-0.4,1.3-0.7,2.2-0.7c1.4,0,2.8,0.6,2.8,0.6c0.2,0.1,0.3,0.1,0.4,0c0,0,2.8-2,4.8-2.6c0.2-0.1,0.4-0.1,0.7-0.1   c1.8,0,3.8,1.4,3.9,1.6c-0.2,0.1-0.3,0.3-0.3,0.4c0.2,0.8,0.2,1.5,0.2,2.3v0.1c-2-0.4-3.6,0.2-5,0.8c-1.3,0.5-2.4,0.9-3.8,0.8   c-0.2,0-0.3,0-0.5,0c-1.3,0-2.8,0-4.1,0.8c-0.8,0.6-1.4,1.3-2.1,2c-0.4,0.5-1.4,1-1.4,1.4l0,0c0-1.3,0-2.3,0.1-3.4   C127.8,227.8,127.9,227.6,127.8,227.3C127.8,227.5,127.8,227.4,127.8,227.3L127.8,227.3z M164.8,242.7l-0.4-0.1   c0-0.5-0.3-0.8-0.5-1.2c-0.6-0.7-2.5-0.8-2.5-0.9c0.1-0.5,0.1-1.2,0.2-1.6c0-0.4,0.1-0.8,0.1-1.3c0-0.3-0.1-0.4-0.3-0.4   c-0.3,0-0.4,0.1-0.4,0.3c-0.1,0.5-0.1,0.9-0.2,1.3c0,0.4,0,1.2,0,1.6c0,0.2-0.3,0.1-0.5,0.1c0.5-1.3,0.1-2.4-0.7-3.1   c-0.8-0.8-1.9-0.9-3-0.3c-0.3-0.6-0.8-1.1-1.4-1.4c-0.9-0.5-2.1-0.7-3-0.5c0-0.8,0-1.6,0.1-2.3c0-0.3-0.1-0.4-0.3-0.4   c-0.3,0-0.4,0.1-0.4,0.3c-0.1,0.5-0.1,1-0.1,1.4c-0.3-0.4-0.8-0.8-1.3-0.9c-1.2-0.4-2.7,0-3.8,0.9c-0.5-0.7-1.3-1-2.3-0.8   c-1.3,0.2-2.4,0.9-3.1,1.8c-0.1-0.5-0.3-1.1-0.3-1.5c0.1,0,0.2,0,0.2-0.1c0.2-0.2,0.2-0.4,0-0.6c-0.3-0.3-0.6-0.3-0.8-0.3   c-0.4,0.3-0.3,1.3,0,2.2c-1.5-0.7-3.5-0.9-5.2-0.4c-1,0.3-1.8,0.8-2.3,1.3c-0.1-0.2-0.2-0.4-0.2-0.8c0-0.3-0.2-0.4-0.4-0.4   c-0.3,0-0.4,0.2-0.4,0.4c0,0.6,0.2,1,0.3,1.2c0,0.1,0.1,0.2,0.2,0.2c-0.2,0.3-0.3,0.4-0.3,0.7c-0.2,0.4-0.1,0.8,0,1.3   c0.1,0.5,0.1,0.7,0,0.8c-0.1,0-0.4,0-0.6,0c-0.4,0-0.9-0.1-1.3,0.1c-1.3,0.4-2.2,1.7-2.2,3.2c-0.8,0.2-2.3,0.8-3.2,1.5   c0-1.3,0-2.5-0.4-3.8c1.2-0.8,3.5-4.2,3.6-4.3c1.1-1.8,1.6-1.9,3.1-2.3c0.3-0.1,0.5-0.1,0.8-0.2c1.3-0.3,2-0.8,2.7-1.4   c0.4-0.3,0.8-0.7,1.3-0.9l0,0c1.1-0.8,2.8-0.7,4.6-0.6c1.2,0.1,2.4,0.1,3.5-0.1c2.7-0.4,4.2,0,6.2,0.6c0.8,0.3,1.5,0.5,2.4,0.7   c0.7,0.2,1.4,0.2,2.1,0.2c1,0,1.9,0,2.8,0.5l0,0c0.9,0.5,1.4,1.3,1.9,2.1c0.5,0.9,1.1,1.8,2.2,2.4c0.4,0.3,0.8,0.3,1.1,0.4   c0.3,0.1,0.7,0.3,1.1,0.5c0.3,0.2,0.4,0.4,0.6,0.7c0.3,0.4,0.8,0.9,1.6,1.2c0.9,0.4,3.3,0.7,4.8,0.2c0,1.8,0.1,3.5,0.2,5.3   c0,0.1-0.2,0.2-0.2,0.3C168.8,243.9,166.2,242.9,164.8,242.7z M169.2,235.3c-0.7-0.2-2,0-2.6,0.1c-0.3,0.1-0.5,0.1-0.8,0.1   c-0.4,0-0.9-0.1-1.3-0.3c-0.3-0.2-0.3-0.3-0.4-0.5c-0.1-0.2-0.1-0.3-0.3-0.4l0,0c-0.1-0.1-0.2-0.2-0.3-0.2c0-0.6,0-1.4-0.1-2.3   c-0.1-0.7-0.1-1.4-0.1-2c0-0.3-0.2-0.4-0.4-0.4c-0.3,0-0.4,0.2-0.4,0.4c0,0.6,0.1,1.3,0.1,2.1c0.1,0.7,0.1,1.4,0.1,1.9   c-0.2-0.1-0.3-0.1-0.6-0.2c-0.5-0.2-1-0.3-1.3-0.5c-0.3-0.3-0.4-0.6-0.6-0.9c-0.2-0.4-0.4-0.8-0.9-1.4c-3.2-2.8-6.7-3.5-10.4-4.2   c-1.3-0.3-2.6-0.5-3.8-0.8c0.1-0.1,0.1-0.2,0.1-0.3c0-0.8,0-1.6-0.2-2.4c0-0.1-0.1-0.2-0.2-0.3c0,0,0,0,0.1,0c0,0,2.1-1.2,3.5-1.3   c1.2-0.1,2.8,1.3,3.3,1.9c0,0.1,0.1,0.1,0.2,0.1c-0.1,0.8-0.1,1.7-0.1,2.6c0,0.3,0.2,0.4,0.4,0.4c0.3,0,0.4-0.2,0.4-0.4   c0-0.8,0-1.8,0.1-2.5c0-0.1,0-0.1,0-0.2c0.7-0.2,1.8-0.3,2.8-0.3c0.5,0,0.8,0.1,1.1,0.2c0.9,0.3,1.4,1.8,1.5,2.4   c0,0.2,0.3,0.3,0.4,0.3c0,0,0.7-0.1,1.5-0.1c1.2,0,2.1,0.2,2.7,0.5c0.5,0.3,0.6,1.8,0.5,2.1c-0.1,0.3,0,0.5,0.1,0.7   c0.3,0.3,0.7,0.3,1.2,0.3c1,0,2.2,0,2.8,1.7c0.1,0.2,0.3,0.4,0.8,0.4c1.9,0,10.6-4.3,13-6.3c0.2,0.7,0.3,1.6,0.3,2.3   c-0.9,0.8-1.8,1.8-2.3,2.4c-0.1,0.1-0.1,0.1-0.1,0.2c-1.5-1.2-3.7-0.7-4.8,0.5c-0.6,0.6-0.8,1.2-0.8,1.8c-0.1,0-0.1,0-0.2,0   C172.1,232.8,170,233.8,169.2,235.3L169.2,235.3z M182.2,239.4c-0.2,1.6-0.6,1.8-1.8,2.3c-0.2,0.1-0.4,0.2-0.6,0.3   c-1.8,0.8-3.5,1.8-5.2,2.8c-0.4,0.2-0.8,0.3-1.3,0.5c-0.8,0.3-1.5,0.6-2.2,1.1c0-0.4-0.1-0.8-0.1-1.3c-0.1-1.8-0.2-3.8-0.2-5.6   c0.1,0,0.1-0.1,0.2-0.1l0.1-0.1c0.2,0,0.3,0.1,0.6,0.1c0.3,0,0.8-0.1,1.1-0.2c1.4-0.5,2.7-1.8,3-3.3c0.2,0.1,0.3,0.2,0.5,0.3   c1.2,0.4,2.7,0,3.5-0.9c0.4-0.5,1-1.4,0.6-2.8c0.5,0.2,1,0.3,1.6,0.3c-0.1,0.1-0.1,0.2-0.1,0.3   C182.2,235.1,182.4,237.4,182.2,239.4L182.2,239.4z" /><path
       id="path4475_1_"
       inkscape:connector-curvature="0"
       class="st9"
       d="M135.9,226.3c0,0.2,0.2,0.3,0.4,0.3h0.1   c0.3,0,0.3-0.3,0.3-0.4l-0.1-0.3c-0.1-0.5-0.2-0.9-0.2-1.4c0-0.3-0.2-0.4-0.4-0.4c-0.3,0-0.4,0.2-0.4,0.4c0,0.6,0.1,1.1,0.3,1.6   C135.8,226,135.9,226.3,135.9,226.3z" /><path
       id="path4477_1_"
       inkscape:connector-curvature="0"
       class="st9"
       d="M111,246.9l-0.2,0.2l0,0c0-0.2-0.2-0.3-0.4-0.3   c-0.2,0-0.3,0.2-0.4,0.3c0,0.1-0.2,0.5,1.1,1.3c0.1,0.1,0.2,0.1,0.3,0.1c0.1,0,0.2,0,0.3-0.1c0.2-0.1,0.2-0.3,0.1-0.5   C111.5,247.4,111.3,247.1,111,246.9z" /><path
       id="path4479_1_"
       inkscape:connector-curvature="0"
       class="st9"
       d="M112.5,244.8c-0.1-0.1-0.1-0.1-0.2-0.2   c-0.1-0.2-0.3-0.3-0.5-0.2c-0.2,0.1-0.3,0.3-0.2,0.5c0.1,0.3,0.3,0.3,0.4,0.4c0.1,0.1,0.1,0.1,0.2,0.2s0.2,0.1,0.3,0.1   c0.1,0,0.2,0,0.3-0.1c0.2-0.2,0.2-0.4,0-0.6C112.7,244.9,112.6,244.9,112.5,244.8z" /><path
       id="path4481_1_"
       inkscape:connector-curvature="0"
       class="st9"
       d="M116.3,245.1c-0.1,0.1-0.3,0.2-0.4,0.5   c0,0.2,0,0.4,0.1,0.6s0.2,0.3,0.3,0.3c0.1,0,0.1,0,0.2,0c0.2-0.1,0.3-0.3,0.2-0.5l0,0c0.2-0.1,0.3-0.3,0.2-0.5   C116.8,245,116.5,244.9,116.3,245.1z" /><path
       id="path4483_1_"
       inkscape:connector-curvature="0"
       class="st9"
       d="M102.9,235.6c-0.3,0.2-0.3,0.6-0.3,0.8   c0,0.3,0.2,0.4,0.4,0.4s0.4-0.2,0.4-0.4c0.1,0,0.3-0.1,0.3-0.2c0.1-0.2,0.1-0.4-0.1-0.5C103.2,235.5,103,235.5,102.9,235.6z" /><path
       id="path4485_1_"
       inkscape:connector-curvature="0"
       class="st9"
       d="M100,240.2c-0.1-0.2-0.3-0.3-0.5-0.2s-0.3,0.3-0.2,0.5   c0.3,0.5,0.4,0.8,0.6,1c0.1,0.1,0.2,0.1,0.3,0.1s0.2,0,0.3-0.1c0.2-0.2,0.2-0.4,0-0.6C100.3,240.9,100.2,240.7,100,240.2z" /><path
       id="path4487_1_"
       inkscape:connector-curvature="0"
       class="st9"
       d="M107.5,225.6c0-0.3-0.2-0.4-0.4-0.4s-0.4,0.2-0.4,0.4   c0,0.2,0,0.4,0.3,0.7c0.1,0.1,0.2,0.1,0.3,0.1c0.1,0,0.2,0,0.3-0.1C107.6,226.1,107.6,225.8,107.5,225.6   C107.5,225.7,107.5,225.6,107.5,225.6z" /><path
       id="path4489_1_"
       inkscape:connector-curvature="0"
       class="st9"
       d="M93.3,224.2l-0.3,0.3c-0.2,0.2-0.2,0.4,0,0.6   c0.1,0.1,0.2,0.1,0.3,0.1c0.1,0,0.2,0,0.3-0.1l0.3-0.3c0.2-0.2,0.2-0.4,0-0.6C93.7,224,93.4,224,93.3,224.2z" /><path
       id="path4491_1_"
       inkscape:connector-curvature="0"
       class="st9"
       d="M93.8,222c-0.3,0-0.4,0.2-0.4,0.4c0,0.3,0.2,0.4,0.4,0.4   s0.4,0.2,0.7,0.4c0.1,0.1,0.2,0.1,0.3,0.1s0.2,0,0.3-0.1c0.2-0.2,0.2-0.4,0-0.6C94.7,222.3,94.4,222,93.8,222z" /><path
       id="path4493_1_"
       inkscape:connector-curvature="0"
       class="st9"
       d="M92.2,223.8h-0.4c-0.3,0-0.4,0.2-0.4,0.4   c0,0.3,0.2,0.4,0.4,0.4h0.4c0.3,0,0.4-0.2,0.4-0.4C92.6,224.1,92.4,223.8,92.2,223.8z" /><path
       id="path4495_1_"
       inkscape:connector-curvature="0"
       class="st9"
       d="M84.1,231c-0.5,0.2-0.8,0.6-0.8,1.2c0,0.3,0.2,0.4,0.4,0.4   s0.4-0.2,0.4-0.4c0-0.3,0.1-0.3,0.3-0.4c0.2-0.1,0.3-0.3,0.3-0.5C84.5,231.1,84.2,230.9,84.1,231z" /><path
       id="path4497_1_"
       inkscape:connector-curvature="0"
       class="st9"
       d="M79.1,232.5c-0.4,0-0.8,0.3-1,0.6c-0.1,0.2,0,0.4,0.2,0.5   c0.1,0,0.1,0,0.2,0c0.2,0,0.3-0.1,0.3-0.3s0.3-0.2,0.3-0.2c0.3,0,0.4-0.2,0.4-0.4C79.6,232.7,79.4,232.5,79.1,232.5z" /><path
       id="path4499_1_"
       inkscape:connector-curvature="0"
       class="st9"
       d="M80.2,227.6c-0.2-0.1-0.4,0-0.5,0.2   c-0.2,0.3-0.2,0.7-0.2,0.9c0,0.3,0.2,0.4,0.4,0.4s0.4-0.2,0.4-0.4c0-0.3,0-0.4,0.1-0.6C80.5,227.9,80.4,227.7,80.2,227.6z" /><path
       id="path4501_1_"
       inkscape:connector-curvature="0"
       class="st9"
       d="M89.8,240.9c0.1-0.2,0.1-0.3-0.1-0.5s-0.4-0.2-0.6,0   c-0.4,0.3,0,1,0.3,1.4c0.1,0.1,0.2,0.2,0.3,0.2c0.1,0,0.2,0,0.3-0.1c0.2-0.1,0.3-0.3,0.1-0.5C89.9,241.3,89.8,241,89.8,240.9z" /><path
       id="path4503_1_"
       inkscape:connector-curvature="0"
       class="st9"
       d="M93.3,233.4c-0.1-0.2-0.3-0.3-0.5-0.3   c-0.2,0.1-0.3,0.3-0.3,0.5c0.2,0.4,0.3,0.7,0.4,0.9c0.1,0.2,0.2,0.3,0.3,0.3c0.1,0,0.1,0,0.2,0c0.2-0.1,0.3-0.3,0.2-0.5   C93.6,234,93.4,233.8,93.3,233.4z" /><path
       id="path4505_1_"
       inkscape:connector-curvature="0"
       class="st9"
       d="M119.9,232.1c-0.2-0.1-0.4-0.3-0.5-0.5   c-0.1-0.2-0.3-0.3-0.5-0.2c-0.2,0.1-0.3,0.3-0.2,0.5c0.2,0.3,0.5,0.7,0.8,0.8c0.1,0,0.1,0,0.2,0c0.2,0,0.3-0.1,0.3-0.3   C120.2,232.4,120.1,232.2,119.9,232.1z" /><path
       id="path4507_1_"
       inkscape:connector-curvature="0"
       class="st9"
       d="M131,215.9c0.1,0,0.2,0,0.3-0.1c0.2-0.2,0.2-0.4,0-0.5   c0.2-0.2,0.2-0.4,0-0.6c-0.2-0.2-0.4-0.2-0.6,0c-0.3,0.3-0.3,0.8,0,1.1C130.9,215.9,130.9,215.9,131,215.9z" /><path
       id="path4509_1_"
       inkscape:connector-curvature="0"
       class="st9"
       d="M130.9,218.3c-0.2,0.2-0.2,0.4,0,0.6   c0.3,0.3,0.4,0.3,0.7,0.5c0.1,0.1,0.2,0.1,0.3,0.2c0.1,0.1,0.2,0.1,0.3,0.1c0.1,0,0.3-0.1,0.3-0.2c0.1-0.2,0.1-0.4-0.1-0.5   c-0.1-0.1-0.2-0.2-0.3-0.2c0,0,0,0-0.1,0c0-0.2-0.2-0.3-0.4-0.3h-0.1l0,0C131.3,218.2,131,218.2,130.9,218.3z" /><path
       id="path4511_1_"
       inkscape:connector-curvature="0"
       class="st9"
       d="M138,210.3c0.1,0.1,0.2,0.2,0.3,0.2h0.1   c0.2-0.1,0.3-0.3,0.3-0.5c-0.2-0.4-0.4-0.7-0.8-0.6c-0.1,0-0.4,0.1-0.4,0.6C137.5,210.2,137.7,210.4,138,210.3z" /><path
       id="path4513_1_"
       inkscape:connector-curvature="0"
       class="st9"
       d="M155,217.2l0.8,0.4c0.1,0,0.1,0,0.2,0   c0.2,0,0.3-0.1,0.3-0.3s0-0.4-0.2-0.5l-0.8-0.3c-0.2-0.1-0.4,0-0.5,0.2C154.7,216.8,154.8,217.1,155,217.2z" /><path
       id="path4515_1_"
       inkscape:connector-curvature="0"
       class="st9"
       d="M155.1,220.7c0.2,0.1,0.3,0.2,0.3,0.3   c0.1,0.2,0.2,0.3,0.3,0.3c0.1,0,0.1,0,0.2,0c0.2-0.1,0.3-0.3,0.2-0.5c-0.1-0.3-0.3-0.4-0.5-0.5c-0.1-0.1-0.2-0.2-0.3-0.3   c-0.2-0.2-0.4-0.2-0.6,0c-0.2,0.2-0.2,0.4,0,0.6C154.8,220.6,155,220.7,155.1,220.7z" /><path
       id="path4517_1_"
       inkscape:connector-curvature="0"
       class="st9"
       d="M163.2,223.9c0.1,0,0.2,0,0.3-0.1c0.2-0.2,0.2-0.3,0.3-0.4   c0-0.1,0.1-0.2,0.1-0.3c0.1-0.2,0-0.4-0.2-0.5c-0.2-0.1-0.4,0-0.5,0.2c-0.1,0.1-0.1,0.2-0.1,0.3s-0.1,0.1-0.1,0.2   c-0.2,0.2-0.2,0.4,0,0.6C162.9,223.8,163.1,223.9,163.2,223.9z" /><rect
       x="62"
       y="481"
       class="st6"
       width="504.2"
       height="60.5"
       id="rect11261" /><text
       transform="matrix(1 0 0 1 59.4746 498.0739)"
       class="st5 st10"
       id="text11263"><tspan
         style="-inkscape-font-specification:'Noto Sans Kannada';font-family:'Noto Sans Kannada';font-weight:normal;font-style:normal;font-stretch:normal;font-variant:normal"
         id="tspan11876">ದಯವಿಟ್ಟು ಆಹಾರದ ಜೆೊತೆ ಪ್ಾಾಸಿುಕ್ ಕವರ್ ಹಾಕಬೆೇಡಿ. </tspan></text>
<text
       transform="matrix(1 0 0 1 59.4746 519.6738)"
       class="st5 st10"
       id="text11265"><tspan
         style="-inkscape-font-specification:'Noto Sans Kannada';font-family:'Noto Sans Kannada';font-weight:normal;font-style:normal;font-stretch:normal;font-variant:normal"
         id="tspan11878">ಕೆೇವಲ ಆಹಾರವನ್ಟು ಮಾತ್ರ ಹಾಕಿ ಹಾಗೊ ಕೆೊಳೆಯಾದ </tspan></text>
<text
       transform="matrix(1 0 0 1 59.4746 541.2738)"
       class="st5 st10"
       id="text11267"><tspan
         style="-inkscape-font-specification:'Noto Sans Kannada';font-family:'Noto Sans Kannada';font-weight:normal;font-style:normal;font-stretch:normal;font-variant:normal"
         id="tspan11880">ಪ್ಾಾಸಿುಕ್ ಕವರ್ ಅನ್ಟು ಬೆೇರೆ ಬಿನ್ ಅಲ್ಲಾಹಾಕಿ.</tspan></text>
<rect
       x="62"
       y="429.3"
       class="st6"
       width="504.2"
       height="39.5"
       id="rect11269" /><text
       transform="matrix(0.9938 0 0 1 59.4745 444.8506)"
       class="st3 st10"
       id="text11271"><tspan
         style="-inkscape-font-specification:'Noto Sans';font-family:'Noto Sans';font-weight:normal;font-style:normal;font-stretch:normal;font-variant:normal"
         id="tspan11872">Please do not dispose of food packaged in plastic covers. </tspan></text>
<text
       transform="matrix(0.9938 0 0 1 59.4745 466.4502)"
       class="st3 st10"
       id="text11273"><tspan
         style="-inkscape-font-specification:'Noto Sans';font-family:'Noto Sans';font-weight:normal;font-style:normal;font-stretch:normal;font-variant:normal"
         id="tspan11874">Only place food in this bin.</tspan></text>
<path
       class="st9"
       d="M365.9,234.2L365.9,234.2L365.9,234.2z"
       id="path11275" /><path
       class="st9"
       d="M127.7,356L127.7,356c0.9-0.3,1.8-0.8,2.7-1.3c0.4-0.3,0.8-0.5,1.2-0.8l0,0l0.6-0.4c0.2-0.2,0.4-0.3,0.6-0.5   c0.8-0.8,1.3-1.7,1.7-2.6c0.2-0.5,0.4-1,0.5-1.4l0,0l0.1-0.4c0-0.1,0.1-0.3,0.1-0.4c0.1-0.3,0.1-0.5,0.1-0.8   c0.1-0.5,0.1-0.9,0.2-1.3s0.2-0.8,0.4-1c0.1-0.1,0.2-0.2,0.3-0.2s0.1,0,0.2,0c0.2,0,0.4,0.1,0.7,0.3c0.5,0.5,0.9,1.3,1.2,2.1   c0.1,0.3,0.2,0.5,0.3,0.8c0,0.2,0.1,0.3,0.1,0.5c0.1,0.2,0.1,0.4,0.1,0.6l0.1,0.7c0.1,0.9,0.1,1.8,0,2.6l0,0   c-0.2,1.7-1.1,3.4-2.1,4.9c-1.1,1.5-2.4,2.8-3.9,3.9c-1.3,1-2.6,1.8-4.1,2.5c-0.9-1.9-1.7-3.8-2.5-5.7c-0.2-0.5-0.4-0.9-0.6-1.4   c0.3-0.1,0.6-0.2,0.9-0.2C127,356.2,127.3,356.1,127.7,356z M116.5,374.9c-0.8,1.1-1.7,2.1-2.7,3c-0.5,0.4-1,0.9-1.6,1.3   c-0.5,0.4-1.1,0.8-1.7,1.1c-1.2,0.7-2.4,1.2-3.7,1.7c-0.7,0.3-1.4,0.5-2.2,0.7c-1.8,0.5-3.7,0.9-5.6,1c-2.6,0.1-5.3-0.3-7.7-1.1   c-0.6-0.2-1.1-0.4-1.7-0.8l0,0c-0.5-0.3-1.1-0.7-1.6-1.1s-1-0.8-1.5-1.2c-0.5-0.4-0.9-0.9-1.2-1.3c-0.1-0.1-0.1-0.2-0.1-0.2v-0.1   l0,0v-0.1l0,0l0,0c0-0.1,0-0.3,0.1-0.4s0.2-0.2,0.4-0.3l0,0c0,0,0.1,0,0.2,0c0.1,0,0.2,0,0.3,0l0,0l0,0c0.5,0.1,1.1,0.4,1.7,0.6   c0.6,0.3,1.2,0.6,1.9,0.9c0.3,0.2,0.7,0.3,1,0.4c0.2,0.1,0.4,0.1,0.6,0.2c0.1,0,0.2,0,0.3,0.1c0.1,0,0.3,0,0.3,0c0.3,0,0.7,0,1.1,0   c0.4,0,0.7,0,1.1,0c1.3,0,2.7-0.2,4-0.6c0.1,0,0.2-0.1,0.3-0.1c1.4-0.4,2.7-1.1,3.9-1.8c1.2-0.8,2.3-1.6,3.4-2.5l0.2-0.2l0,0   l0.2-0.2l0,0c0.1-0.1,0.3-0.3,0.4-0.4c0.3-0.3,0.5-0.6,0.7-1c0.4-0.7,0.7-1.4,0.9-2c0.5-1.4,0.7-2.8,0.9-4.2   c0.1-0.7,0.2-1.4,0.3-2.1s0-1.5,0-2.2c-0.1-1.4-0.4-2.9-0.8-4.2c0-0.1,0-0.1,0-0.2c-0.3-1-0.6-1.9-0.8-2.8c-0.1-0.3-0.2-0.7-0.3-1   l0,0c-0.4-1.3-0.7-2.6-1-3.9s-0.5-2.6-0.7-4c-0.2-1.3-0.2-2.7-0.3-4v-2c0-0.7,0-1.3,0-2c0-0.6,0.1-1.3,0.3-1.9l0,0   c0.1-0.3,0.2-0.6,0.3-1c0.1-0.3,0.2-0.7,0.3-1.1c0.2-0.7,0.3-1.5,0.3-2.2c0-0.8-0.1-1.5-0.2-2.2c-0.1-0.2-0.1-0.5-0.2-0.7   c-0.1-0.5-0.3-0.9-0.5-1.4l0,0l-0.2-0.5c-0.1-0.2-0.2-0.4-0.2-0.5c-0.2-0.3-0.3-0.6-0.5-0.9c-0.3-0.5-0.5-1.1-0.7-1.5v-0.1   c0-0.1,0-0.1,0-0.2v-0.1l0,0l0,0l0,0c0-0.1,0-0.1,0-0.2v-0.1c0-0.2,0.1-0.3,0.3-0.5s0.5-0.4,0.8-0.5c0.1,0,0.3-0.1,0.4-0.1   c0.2,0,0.4,0,0.5,0.1c0.1,0,0.1,0.1,0.2,0.1l0.1,0.1l0,0l0,0l0,0l0.1,0.1c0.2,0.4,0.4,0.9,0.6,1.5c0.1,0.4,0.2,0.8,0.3,1.2   c0.1,0.3,0.2,0.6,0.3,1c0.2,0.7,0.5,1.3,0.8,2s0.8,1.3,1.3,1.9c0.3,0.3,0.6,0.6,0.9,0.8c0.3,0.2,0.5,0.4,0.8,0.6   c0.5,0.4,1,0.8,1.5,1.3c1,0.9,1.8,1.9,2.5,3c1.4,2.2,2.4,4.7,3.4,7.2c1.9,5.1,3.5,10.3,5.6,15.5c1.1,2.5,2.1,5.1,3.5,7.6   c0.7,1.2,1.5,2.4,2.3,3.5l0,0c0.9,1.2,2,2.1,3.3,2.9c1.2,0.8,2.5,1.4,3.9,1.9c1.4,0.4,3,0.6,4.5,0.4l0,0c0.3-0.1,0.6-0.1,1-0.2   s0.8-0.3,1.2-0.4c0.3-0.1,0.7-0.3,1-0.5c0.3-0.2,0.6-0.4,0.9-0.6c1.2-0.8,2.2-1.7,3.3-2.3c0.2-0.1,0.4-0.2,0.6-0.3v0.1   c-0.1,0.2-0.1,0.5-0.3,0.8c-0.1,0.3-0.3,0.6-0.4,0.8c-0.1,0.2-0.1,0.2-0.2,0.3c-0.1,0.1-0.2,0.2-0.3,0.3c-0.4,0.4-0.9,0.8-1.4,1.3   c-2.1,1.7-4.3,3.2-6.7,4.1c-0.3,0.1-0.5,0.2-0.8,0.3c-1,0.3-2,0.4-3,0.5c-1.3,0.1-2.6,0-3.9-0.1c-2.6-0.3-5.2-1.1-7.5-2.3   c-1.2-0.6-2.3-1.3-3.3-2.1c-1-0.8-1.8-1.9-2.5-3c-1.5-2.2-2.7-4.7-3.8-7.2s-2-5.1-2.9-7.6c-0.3-0.8-0.5-1.6-0.7-2.3   c-0.2-0.5-0.3-1.1-0.4-1.6l-1-4l-0.4,0.1l0.8,4l0,0c0.3,1.3,0.6,2.7,1,4c0,0.1,0,0.1,0.1,0.2c0.7,2.6,1.6,5.1,2.6,7.6   c0.9,2.2,1.8,4.3,3,6.3l0,0C117.8,372.6,117.2,373.8,116.5,374.9z M151.8,369.6c-0.1-0.2-0.3-0.4-0.5-0.5c-0.1-0.1-0.2-0.1-0.2-0.1   c-0.1,0-0.2-0.1-0.3-0.1l0,0c-0.4-0.1-0.6,0-0.9,0l0,0c-0.1,0-0.1,0-0.2,0c-0.2,0.1-0.4,0.1-0.5,0.2l0,0c-0.1,0.1-0.3,0.1-0.4,0.2   l0,0c-0.8,0.5-1.5,1-2.2,1.5c-0.4,0.3-0.8,0.6-1.2,0.9l0,0c-0.2,0.1-0.4,0.3-0.6,0.4c-0.6,0.4-1.3,0.7-2,0.9   c-0.2,0.1-0.5,0.1-0.8,0.2c-1.2,0.2-2.4,0.1-3.6-0.3s-2.4-0.9-3.5-1.6s-2-1.6-2.8-2.5c-0.8-1-1.5-2.1-2.2-3.3l0,0   c-0.2-0.4-0.4-0.7-0.6-1.1c0.3-0.1,0.6-0.2,0.9-0.3c0.1,0,0.1,0,0.2-0.1c0.3-0.1,0.7-0.3,1-0.4c0.1,0,0.1-0.1,0.2-0.1   c0.3-0.2,0.7-0.3,1-0.5c0.1,0,0.1-0.1,0.2-0.1c0.3-0.2,0.7-0.4,1-0.6c0.3-0.2,0.5-0.3,0.8-0.5c1.3-0.9,2.5-1.9,3.5-3   c0.1-0.1,0.2-0.2,0.3-0.3l0,0c0.1-0.1,0.2-0.2,0.3-0.4c0.3-0.5,0.7-0.9,1-1.4c0.1-0.3,0.3-0.5,0.4-0.8c0.1-0.2,0.2-0.5,0.3-0.7l0,0   c0.3-0.7,0.5-1.5,0.7-2.3c0.2-1.1,0.1-2.1,0-3.1l0,0l-0.1-0.7c0-0.3-0.1-0.5-0.1-0.8c-0.1-0.2-0.1-0.5-0.2-0.7   c-0.1-0.3-0.2-0.5-0.2-0.7l0,0c-0.2-0.5-0.4-1-0.7-1.4c-0.3-0.5-0.6-0.9-1-1.4c-0.3-0.3-0.7-0.5-1.1-0.7c-0.2-0.1-0.4-0.1-0.6-0.1   c-0.1,0-0.1,0-0.2,0l0,0c-0.1,0-0.1,0-0.2,0c-0.2,0-0.4,0-0.6,0.1c-0.1,0-0.2,0.1-0.3,0.1l0,0c-0.4,0.2-0.7,0.4-0.9,0.7   c-0.4,0.6-0.6,1.2-0.7,1.7l0,0c-0.1,0.4-0.1,0.8-0.2,1.1c0,0.1,0,0.3,0,0.4s0,0.2,0,0.3c0,0.1,0,0.2,0,0.3c0,0.1,0,0.2-0.1,0.3   l-0.1,0.3c-0.1,0.4-0.2,0.9-0.4,1.3c-0.2,0.6-0.5,1.2-0.9,1.8c-0.1,0.2-0.2,0.3-0.4,0.5c0,0.1-0.1,0.1-0.1,0.1   c-0.1,0.1-0.2,0.2-0.3,0.3l-0.5,0.5c-0.4,0.3-0.7,0.6-1.1,0.9c-0.1,0.1-0.3,0.2-0.4,0.3c-0.6,0.4-1.3,0.8-2,1.2c0,0,0,0-0.1,0   c-0.3,0.1-0.5,0.3-0.8,0.4s-0.6,0.3-0.9,0.4c-0.1-0.3-0.2-0.6-0.4-1c-0.1-0.2-0.2-0.4-0.2-0.6c-0.1-0.4-0.3-0.8-0.4-1.2   c-0.1-0.2-0.1-0.4-0.2-0.6c-0.2-0.4-0.3-0.9-0.5-1.3c0-0.1-0.1-0.3-0.1-0.4c-0.5-1.3-0.9-2.7-1.4-4c-0.1-0.2-0.1-0.4-0.2-0.6   c-0.1-0.4-0.3-0.8-0.4-1.2c-0.1-0.2-0.2-0.4-0.2-0.7c-0.2-0.5-0.4-1.1-0.6-1.6c0-0.1-0.1-0.1-0.1-0.2c-0.8-2.2-1.7-4.4-2.9-6.5   c-0.2-0.4-0.4-0.7-0.7-1.1c-0.3-0.5-0.7-0.9-1-1.4c-0.5-0.7-1.1-1.3-1.8-1.9c-0.5-0.5-1.1-1-1.6-1.4c-0.3-0.2-0.6-0.4-0.8-0.6   s-0.4-0.4-0.6-0.6c-0.8-0.8-1.3-2-1.7-3.3l-0.2-0.5c0-0.1-0.1-0.3-0.1-0.4v-0.1l-0.3-1l0,0V324c-0.2-0.6-0.4-1.3-0.8-2l0,0   l-0.1-0.1l0,0l-0.1-0.1l0,0l-0.1-0.1l0,0c-0.1-0.1-0.2-0.2-0.2-0.3l0,0c-0.2-0.2-0.4-0.3-0.6-0.5c-0.5-0.2-1-0.3-1.4-0.3   c-0.3,0-0.6,0.1-0.9,0.1c-0.6,0.2-1.1,0.5-1.6,0.9c-0.3,0.3-0.6,0.8-0.7,1.3l0,0l0,0c0,0.1-0.1,0.3-0.1,0.4s0,0.2,0,0.3v0.1l0,0   l0,0l0,0l0,0v0.1l0,0v0.2l0,0c0,0.1,0,0.2,0.1,0.3c0,0.1,0,0.1,0.1,0.2c0.2,0.7,0.5,1.3,0.8,1.9l0,0c0.2,0.3,0.3,0.6,0.5,0.9   c0.1,0.1,0.1,0.3,0.2,0.4l0.2,0.5c0.2,0.4,0.3,0.8,0.4,1.2c0.1,0.2,0.1,0.4,0.2,0.6c0.3,1.2,0.2,2.4,0,3.7   c-0.1,0.3-0.2,0.6-0.2,0.9c-0.1,0.3-0.2,0.6-0.3,1c-0.2,0.7-0.3,1.5-0.3,2.2c-0.1,0.7-0.1,1.4-0.1,2.1v2.1l0,0   c0,1.4,0.1,2.8,0.3,4.2c0.2,1.4,0.4,2.8,0.7,4.1c0.3,1.4,0.6,2.7,1,4c0.1,0.3,0.2,0.7,0.3,1l0,0c0,0.1,0,0.1,0.1,0.2   c0.3,0.9,0.5,1.8,0.8,2.6c0,0.1,0,0.1,0,0.2c0.4,1.3,0.6,2.6,0.7,3.9c0,0.4,0,0.9,0,1.3c0,0.2,0,0.4,0,0.6c0,0.6-0.2,1.3-0.3,2   c-0.2,1.3-0.4,2.6-0.8,3.8c-0.3,0.8-0.6,1.6-1.1,2.2c-0.2,0.3-0.5,0.6-0.8,0.8c-2,1.7-4.2,3.2-6.7,3.9c-0.1,0-0.2,0.1-0.3,0.1   c-1.1,0.3-2.3,0.5-3.5,0.5c-0.3,0-0.6,0-1,0c-0.3,0-0.6,0-0.9,0h-0.1l0,0l0,0c-0.4,0-1-0.2-1.6-0.5c-0.5-0.2-1-0.5-1.5-0.7   c-0.1-0.1-0.2-0.1-0.4-0.2c-0.6-0.3-1.3-0.6-2.1-0.8l0,0l0,0h-0.1c-0.4-0.1-0.8-0.1-1.3,0l0,0l0,0c-0.1,0-0.1,0-0.2,0.1   c-0.1,0-0.1,0-0.2,0.1c0,0,0,0-0.1,0c-0.3,0.2-0.6,0.4-0.9,0.7l0,0c-0.3,0.4-0.5,1-0.5,1.5l0,0l0,0c0,0.1,0,0.3,0,0.4l0,0v0.2l0,0   v0.1l0,0c0.1,0.3,0.2,0.5,0.3,0.7l0,0c0.5,0.7,1,1.2,1.5,1.7s1.1,0.9,1.7,1.4c0.6,0.4,1.2,0.8,1.8,1.2c0.3,0.2,0.6,0.4,1,0.5   c0.3,0.2,0.7,0.3,1,0.4c1.4,0.5,2.8,0.7,4.2,0.9c1.4,0.1,2.8,0.1,4.3,0c1.6-0.2,3.1-0.5,4.6-0.9c1.2-0.3,2.4-0.8,3.5-1.3   c1.3-0.5,2.5-1.2,3.7-1.9c0.7-0.4,1.3-0.9,1.9-1.4c0.5-0.4,0.9-0.8,1.4-1.3c0.8-0.7,1.5-1.6,2.1-2.4c0.2-0.3,0.4-0.5,0.5-0.8   c0.1-0.1,0.2-0.3,0.3-0.4l0,0l0,0c0.2-0.3,0.3-0.6,0.5-0.9c0.3-0.6,0.5-1.3,0.7-2c0.1,0.2,0.2,0.4,0.3,0.6c0.8,1.2,1.6,2.3,2.7,3.3   l0,0c1.1,0.9,2.2,1.7,3.5,2.4c2.5,1.4,5.2,2.4,8,2.8c1.4,0.2,2.8,0.2,4.3,0.1l0,0c1.1-0.1,2.3-0.3,3.3-0.6l0,0   c0.3-0.1,0.6-0.2,0.9-0.3c2.8-1,5.1-2.7,7.3-4.4c0.4-0.3,0.7-0.6,1.1-0.9c0.2-0.2,0.4-0.4,0.6-0.6c0.1-0.1,0.3-0.3,0.4-0.5l0,0   c0.1-0.1,0.2-0.4,0.3-0.5c0.1-0.2,0.2-0.4,0.3-0.6c0.1-0.1,0.1-0.3,0.2-0.4c0.1-0.3,0.2-0.5,0.3-0.8c0-0.1,0.1-0.2,0.1-0.3   c0-0.2,0.1-0.4,0.1-0.7l0,0c0-0.2,0-0.3-0.1-0.5C152,369.8,151.9,369.7,151.8,369.6z"
       id="path11277" /><line
       class="st11"
       x1="30.6"
       y1="417.3"
       x2="561"
       y2="417.3"
       id="line11279" /><path
       class="st9"
       d="M399,220.7l-0.6-0.1c-2.6-0.3-11.9-2.9-14.3-3.5l0.4-2.1l-0.6-0.2c-13-4-20.1,0.9-22.4,3.1   c-0.2-0.4-0.4-0.9-0.6-1.4l-0.3-0.5l-0.5,0.2c-7.6,2.4-11.7,9.9-13.1,13c-0.3-0.5-0.7-1.1-1.1-1.6l-0.5-0.5l-0.5,0.5   c-2.7,2.9-3.5,7.8-3.7,10l-1.2-0.7l-0.3,0.6c-0.1,0.2-2.6,5.7-0.6,14.1l1.3-0.3c-1.5-6.3-0.3-10.9,0.3-12.6l1.7,1l0.1-1.1   c0-0.1,0.4-6.1,3-9.6c0.6,0.9,1,1.9,1,1.9l0.6,1.7l0.6-1.7c0-0.1,3.7-10.4,12.3-13.4c0.4,0.9,0.6,1.7,0.6,1.7l0.3,1.4l0.9-1.1   c0.1-0.1,6.5-8,21.2-3.7l-0.4,2.1l0.6,0.2c0.5,0.1,10.7,3,14.5,3.7c-0.5,3.6-5.1,9.6-5.1,9.7l-0.6,0.8l3.3,0.8   c-0.8,1.7-2.9,6-5.8,7.6l-1.1,0.6l2.7,1.4c-1.3,1.3-4.6,4.3-7.9,5.2l-1,0.3l0.6,0.8c0.4,0.5,1.7,1.2,2.7,1.8   c-2.9,2.1-12.9,8.5-22.5,6.9l-1.3-0.3l2.3,4.7c-3,0-11.8-0.2-18.3-3.4l-0.6,1.2c6.4,3.2,15,3.5,18.4,3.5c0.9,0,1.4,0,1.5,0h1   l-2.1-4.3c11.4,1.2,22.7-7.6,23.2-8l0.8-0.6L387,250c-0.8-0.4-1.7-0.9-2.3-1.3c4.1-1.6,7.8-5.6,8-5.8l0.6-0.6l-2.2-1.1   c3.4-2.6,5.6-8.1,5.7-8.3l0.3-0.7l-2.9-0.7c1.4-2,4.8-7.1,4.8-10.2V220.7L399,220.7z"
       id="path11281" /><path
       class="st9"
       d="M373.2,247.7l0.7-1.1c-4.3-3-11.1-3.7-15.6-3.4c2.9-1.9,5.8-3.7,8.7-5.3c5.2-0.8,13,1.5,14,2.3l0.8-1   c-1-0.8-6.9-2.6-12.1-2.7c6.7-3.6,13-6.4,18-8.5l2.5-1.1l-0.5-1.2l-2.5,1.1c-3,1.3-6.6,2.9-10.5,4.7c-0.2-2.4,1.3-5.3,2.8-7.2   l-1-0.8c-1.8,2.3-3.5,5.7-3,8.6c-3.7,1.8-7.7,3.9-11.7,6.3c-1.2-3.9,2-9.2,3.8-10.2L367,227c-2.2,1.2-5.9,7.4-4.3,12   c-2.4,1.4-4.8,3-7.2,4.7l0,0c-1,0.7-2,1.4-2.9,2.1c-1.9-6.1,1.1-13.6,5-17.8l-1-0.9c-4.3,4.6-7.5,12.8-5.1,19.6   c-3.7,2.9-7.4,6-10.8,9.6c-3.2,3.3-5.6,4.7-11,4.2l-0.1,1.3c0.8,0.1,1.5,0.1,2.2,0.1c4.4,0,7-1.7,9.8-4.7   c4.5-4.7,9.5-8.8,14.5-12.3C358.9,244.1,368,244.1,373.2,247.7z"
       id="path11283" /><polygon
       class="st12"
       points="337.5,362.1 341.8,362.8 343.9,366.4 342.5,370.6 332.9,376.2 327.9,367.7  "
       id="polygon11285" /><polygon
       class="st12"
       points="351.7,366.4 355.3,353.7 368.9,348.1 380.4,354.5 392.4,383.3 363.7,395.2  "
       id="polygon11287" /><line
       class="st12"
       x1="357.5"
       y1="365.1"
       x2="375.6"
       y2="357.5"
       id="line11289" /><path
       d="M364.3,395.2l29.2-11.5l-7.3-13.4c0,0-5.1-0.4-11.6,1.3c-6.5,1.8-12.5,6.3-16.5,7.6L364.3,395.2z"
       id="path11291" /><path
       class="st12"
       d="M364,356.5c-2-2.7-2.4-7.1-2.3-12.7c0.2-7-2-14.6-8.8-17.8c-9.2-4.4-21.2-0.8-25.3,8.9   c-2.6,6-1,12.4,3.8,15.8c2.5,1.8,5.9,2,8.2,2s4.5-1.4,4.5-3.8c0-2-1.4-3.2-3.1-3.2c-1.8,0-3.8,1.4-3.8,4.6c0,1.8,1,4.2,3.5,6.2   c2.2,1.8,4.6,1.9,5.1,4.2c0.5,2.1-1.3,3-2.8,3.8"
       id="path11293" /><path
       class="st12"
       d="M364.8,356.7c0,1-1.5,1-1.5,0S364.8,355.7,364.8,356.7"
       id="path11295" /><text
       transform="matrix(1 0 0 1 187.0998 266.0001)"
       class="st3 st13"
       id="text11297"><tspan
         style="-inkscape-font-specification:'Noto Sans';font-family:'Noto Sans';font-weight:normal;font-style:normal;font-stretch:normal;font-variant:normal"
         id="tspan11870">Leftover food</tspan></text>
<text
       id="text11299"
       transform="matrix(1 0 0 1 425.9998 266.0002)"><tspan
         x="0"
         y="0"
         class="st3 st13"
         id="tspan11301"
         style="-inkscape-font-specification:'Noto Sans';font-family:'Noto Sans';font-weight:normal;font-style:normal;font-stretch:normal;font-variant:normal">Dry leaves andflowers</tspan></text>
<rect
       x="187.1"
       y="345.9"
       class="st6"
       width="111.4"
       height="30.4"
       id="rect11305" /><text
       transform="matrix(1 0 0 1 187.0994 354.9756)"
       id="text11307"><tspan
         x="0"
         y="0"
         class="st3 st13"
         id="tspan11309"
         style="-inkscape-font-specification:'Noto Sans';font-family:'Noto Sans';font-weight:normal;font-style:normal;font-stretch:normal;font-variant:normal">Fruit and Vegetable peels</tspan></text>
<rect
       x="425.1"
       y="345.9"
       class="st6"
       width="113.5"
       height="27.6"
       id="rect11313" /><text
       transform="matrix(1 0 0 1 425.1338 354.9758)"
       id="text11315"><tspan
         x="0"
         y="0"
         class="st3 st13"
         id="tspan11317"
         style="-inkscape-font-specification:'Noto Sans';font-family:'Noto Sans';font-weight:normal;font-style:normal;font-stretch:normal;font-variant:normal">Teabags and coffee grinds</tspan></text>
</g><g
     id="Layer_2" /><g
     id="Layer_3" /><g
     id="Layer_4" /></svg>