<svg id="Layer_1" data-name="Layer 1" xmlns="http://www.w3.org/2000/svg" viewBox="0 0 550 550"><defs><style>.cls-1,.cls-14,.cls-5{fill:none;}.cls-1,.cls-14,.cls-2{stroke:green;}.cls-1{stroke-width:10px;}.cls-2,.cls-7{fill:green;}.cls-2{stroke-width:10.04px;}.cls-11,.cls-12,.cls-13,.cls-14,.cls-3,.cls-4{isolation:isolate;}.cls-3,.cls-4{font-size:54px;}.cls-3,.cls-4,.cls-6{fill:#fff;}.cls-13,.cls-3{font-family:Noto Sans;}.cls-12,.cls-4{font-family:Noto Sans Kannada;}.cls-8,.cls-9{fill:#904623;}.cls-8{stroke:#fff;stroke-width:5px;}.cls-10{fill:#161616;}.cls-12,.cls-13{font-size:18px;}.cls-14{opacity:0.16;}.cls-15{font-size:12px;font-family:Myriad Pro;}.cls-16{fill-rule:evenodd;}</style></defs><title>wet_waste(non-veg)</title><path id="rect4155" class="cls-1" d="M100.1,33.3h412a64.06,64.06,0,0,1,64,64v412a64.06,64.06,0,0,1-64,64h-412a64.06,64.06,0,0,1-64-64V97.3A64.06,64.06,0,0,1,100.1,33.3Z" transform="translate(-31.1 -28.3)"/><path id="rect4262" class="cls-2" d="M96.3,42.6H513.1A53.86,53.86,0,0,1,567,96.5V184H46V93A50.3,50.3,0,0,1,96.3,42.6Z" transform="translate(-31.1 -28.3)"/><text class="cls-3" transform="translate(191.85 71.03)">W<tspan x="49.7" y="0">et </tspan><tspan x="113.67" y="0">W</tspan><tspan x="163.37" y="0">aste</tspan></text><text class="cls-4" transform="translate(191.85 128.65)">ಹಸಿ ಕಸ</text><path class="cls-5" d="M44.2,185.7V39.1H196.5c0,1.4-.1,2.8-0.1,4.2V185.6H48.3C47,185.6,45.6,185.7,44.2,185.7Zm142.4-75.3c0.1-34.9-27.2-64.6-63.5-65.4S56.8,72.4,56.5,109.9a64.77,64.77,0,0,0,61,65.6C157,177.8,186.8,145.9,186.6,110.4Z" transform="translate(-31.1 -28.3)"/><path class="cls-5" d="M47.2,185.7c1.4,0,2.8-.1,4.2-0.1H199.5V43.3c0-1.4.1-2.8,0.1-4.2a15,15,0,0,1,.6,2.9V186.3H50.1A13.56,13.56,0,0,1,47.2,185.7Z" transform="translate(-31.1 -28.3)"/><path class="cls-6" d="M186.6,110.4c0.2,35.6-29.6,67.4-69.1,65.1a64.71,64.71,0,0,1-61-65.6C56.7,72.4,86.7,44.2,123.1,45S186.7,75.4,186.6,110.4Zm-126.2-.2c0,34,27.5,61.7,61.2,61.6A61.45,61.45,0,1,0,60.4,110.2Z" transform="translate(-31.1 -28.3)"/><path class="cls-7" d="M60.8,110.2A61.25,61.25,0,1,1,122,171.8C88.3,172,60.8,144.3,60.8,110.2Zm52.4,19.1c-0.3-7.5-3.9-13.1-9.5-17.5-6.1-4.8-13.3-7-20.9-8-4.2-.5-4.9,0-3.9,4.1C82,121,99,131.7,113.2,129.3Zm8.7,3.4h0c0-3.5.2-7-.1-10.5a2.65,2.65,0,0,0-1-1.5,1.45,1.45,0,0,0-2.1,0,2.57,2.57,0,0,0-1,1.6q-0.3,10.35,0,20.7a1.42,1.42,0,0,0,.2.6,2.15,2.15,0,0,0,3.7,0,1.42,1.42,0,0,0,.2-0.6C122.1,139.5,121.9,136.1,121.9,132.7Z" transform="translate(-31.1 -28.3)"/><path class="cls-6" d="M115.3,129.3C101.1,131.7,84.1,121,81,108c-0.4-1.8-.8-4.3-0.8-4.3a31.85,31.85,0,0,1,4.7.2c7.6,1,14.8,3.1,20.9,8C111.3,116.2,115,121.7,115.3,129.3Z" transform="translate(-31.1 -28.3)"/><path class="cls-6" d="M121.6,116.4c-11.5-8.6-15.5-28.3-8.3-39.5,1-1.5,2.5-3.5,2.5-3.5a29.57,29.57,0,0,1,3.1,3.5c4.6,6.2,8,12.8,8.7,20.6C128.3,104.5,126.8,111,121.6,116.4Z" transform="translate(-31.1 -28.3)"/><path class="cls-6" d="M164,99.7c-3.3,14-19.8,25.5-33,23.3-1.8-.3-4.2-0.9-4.2-0.9a31.7,31.7,0,0,1,2-4.3c3.9-6.7,8.6-12.4,15.5-16.2C150.4,98.2,156.9,97,164,99.7Z" transform="translate(-31.1 -28.3)"/><path class="cls-6" d="M124,132.7c0,3.4.1,6.8-.1,10.2a1.42,1.42,0,0,1-.2.6,2.08,2.08,0,0,1-3.7,0,1.42,1.42,0,0,1-.2-0.6q-0.3-10.35,0-20.7a1.42,1.42,0,0,1,.2-0.6,2.15,2.15,0,0,1,3.7,0,1.69,1.69,0,0,1,.2.5c0.3,3.6.1,7.1,0.1,10.6h0Z" transform="translate(-31.1 -28.3)"/><rect id="rect4337" class="cls-8" x="496.4" y="106.8" width="27.6" height="27.6"/><rect id="rect4339" class="cls-6" x="499.4" y="109.9" width="21.6" height="21.4"/><circle id="path4341" class="cls-9" cx="510.2" cy="120.6" r="8.3"/><path id="path4475" class="cls-10" d="M160.87,253.33a0.38,0.38,0,0,0,.42.33h0.08a0.37,0.37,0,0,0,.33-0.42l-0.08-.25a8.22,8.22,0,0,1-.17-1.42,0.42,0.42,0,0,0-.83,0,4.86,4.86,0,0,0,.25,1.59C160.79,253,160.87,253.33,160.87,253.33Z" transform="translate(-31.1 -28.3)"/><path id="path4477" class="cls-10" d="M136,273.86l-0.17.17h0a0.38,0.38,0,0,0-.42-0.33,0.55,0.55,0,0,0-.42.33c0,0.08-.17.5,1.08,1.33a0.42,0.42,0,0,0,.5,0,0.38,0.38,0,0,0,.08-0.5A2.33,2.33,0,0,0,136,273.86Z" transform="translate(-31.1 -28.3)"/><path id="path4479" class="cls-10" d="M137.51,271.77l-0.17-.17a0.37,0.37,0,1,0-.67.33,0.69,0.69,0,0,0,.42.42l0.17,0.17a0.42,0.42,0,0,0,.5,0,0.4,0.4,0,0,0,0-.58A0.44,0.44,0,0,1,137.51,271.77Z" transform="translate(-31.1 -28.3)"/><path id="path4481" class="cls-10" d="M141.35,272.11a0.87,0.87,0,0,0-.42.5,1.42,1.42,0,0,0,.08.58,0.35,0.35,0,0,0,.33.25h0.17a0.4,0.4,0,0,0,.17-0.5h0a0.4,0.4,0,0,0,.17-0.5C141.76,272,141.51,271.94,141.35,272.11Z" transform="translate(-31.1 -28.3)"/><path id="path4483" class="cls-10" d="M127.91,262.6a0.85,0.85,0,0,0-.33.83,0.42,0.42,0,1,0,.83,0,0.63,0.63,0,0,0,.33-0.17,0.38,0.38,0,0,0-.08-0.5A0.72,0.72,0,0,0,127.91,262.6Z" transform="translate(-31.1 -28.3)"/><path id="path4485" class="cls-10" d="M125,267.18a0.37,0.37,0,1,0-.67.33,4.47,4.47,0,0,0,.58,1,0.42,0.42,0,0,0,.5,0,0.4,0.4,0,0,0,0-.58A1.24,1.24,0,0,1,125,267.18Z" transform="translate(-31.1 -28.3)"/><path id="path4487" class="cls-10" d="M132.5,252.58a0.42,0.42,0,0,0-.83,0,0.84,0.84,0,0,0,.25.67,0.42,0.42,0,0,0,.5,0,0.4,0.4,0,0,0,0-.58A0.08,0.08,0,0,0,132.5,252.58Z" transform="translate(-31.1 -28.3)"/><path id="path4489" class="cls-10" d="M118.32,251.16l-0.25.25a0.4,0.4,0,0,0,0,.58,0.42,0.42,0,0,0,.5,0l0.25-.25a0.4,0.4,0,0,0,0-.58A0.31,0.31,0,0,0,118.32,251.16Z" transform="translate(-31.1 -28.3)"/><path id="path4491" class="cls-10" d="M118.82,249a0.42,0.42,0,1,0,0,.83,1,1,0,0,1,.67.42,0.42,0.42,0,0,0,.5,0,0.4,0.4,0,0,0,0-.58A1.4,1.4,0,0,0,118.82,249Z" transform="translate(-31.1 -28.3)"/><path id="path4493" class="cls-10" d="M117.15,250.83h-0.42a0.42,0.42,0,0,0,0,.83h0.42a0.39,0.39,0,0,0,.42-0.42A0.45,0.45,0,0,0,117.15,250.83Z" transform="translate(-31.1 -28.3)"/><path id="path4495" class="cls-10" d="M109.06,258a1.11,1.11,0,0,0-.75,1.17,0.42,0.42,0,1,0,.83,0,0.39,0.39,0,0,1,.25-0.42,0.41,0.41,0,0,0,.25-0.5A0.62,0.62,0,0,0,109.06,258Z" transform="translate(-31.1 -28.3)"/><path id="path4497" class="cls-10" d="M104.13,259.51a1.16,1.16,0,0,0-1,.58,0.4,0.4,0,0,0,.17.5h0.17a0.35,0.35,0,0,0,.33-0.25,0.33,0.33,0,0,1,.33-0.17,0.39,0.39,0,0,0,.42-0.42A0.41,0.41,0,0,0,104.13,259.51Z" transform="translate(-31.1 -28.3)"/><path id="path4499" class="cls-10" d="M105.22,254.59a0.4,0.4,0,0,0-.5.17,2,2,0,0,0-.17.92,0.42,0.42,0,1,0,.83,0,1.24,1.24,0,0,1,.08-0.58A0.59,0.59,0,0,0,105.22,254.59Z" transform="translate(-31.1 -28.3)"/><path id="path4501" class="cls-10" d="M114.81,267.94a0.39,0.39,0,0,0-.08-0.5,0.4,0.4,0,0,0-.58,0c-0.42.33,0,1,.25,1.42a0.43,0.43,0,0,0,.33.17,0.31,0.31,0,0,0,.25-0.08,0.31,0.31,0,0,0,.08-0.5A0.92,0.92,0,0,1,114.81,267.94Z" transform="translate(-31.1 -28.3)"/><path id="path4503" class="cls-10" d="M118.32,260.43a0.4,0.4,0,1,0-.75.25,4.86,4.86,0,0,0,.42.92,0.35,0.35,0,0,0,.33.25h0.17a0.4,0.4,0,0,0,.17-0.5C118.57,261,118.4,260.84,118.32,260.43Z" transform="translate(-31.1 -28.3)"/><path id="path4505" class="cls-10" d="M144.85,259.09a1,1,0,0,1-.5-0.5,0.37,0.37,0,1,0-.67.33,2,2,0,0,0,.83.83h0.17a0.35,0.35,0,0,0,.33-0.25C145.19,259.43,145.1,259.17,144.85,259.09Z" transform="translate(-31.1 -28.3)"/><path id="path4507" class="cls-10" d="M156,242.9a0.31,0.31,0,0,0,.25-0.08,0.31,0.31,0,0,0,0-.5,0.41,0.41,0,1,0-.58-0.58,0.88,0.88,0,0,0,0,1.08A0.63,0.63,0,0,0,156,242.9Z" transform="translate(-31.1 -28.3)"/><path id="path4509" class="cls-10" d="M155.95,245.32a0.4,0.4,0,0,0,0,.58,3.48,3.48,0,0,0,.67.5c0.08,0.08.17,0.08,0.25,0.17a0.31,0.31,0,0,0,.25.08,0.63,0.63,0,0,0,.33-0.17,0.38,0.38,0,0,0-.08-0.5,0.44,0.44,0,0,0-.25-0.17H157a0.38,0.38,0,0,0-.42-0.33h-0.08C156.28,245.16,156,245.16,155.95,245.32Z" transform="translate(-31.1 -28.3)"/><path id="path4511" class="cls-10" d="M163,237.31a0.43,0.43,0,0,0,.33.17h0.08a0.41,0.41,0,0,0,.25-0.5,0.69,0.69,0,0,0-.75-0.58,0.5,0.5,0,0,0-.42.58A0.37,0.37,0,0,0,163,237.31Z" transform="translate(-31.1 -28.3)"/><path id="path4513" class="cls-10" d="M180,244.16l0.75,0.42h0.17a0.35,0.35,0,0,0,.33-0.25,0.4,0.4,0,0,0-.17-0.5l-0.75-.33A0.37,0.37,0,1,0,180,244.16Z" transform="translate(-31.1 -28.3)"/><path id="path4515" class="cls-10" d="M180.06,247.66a0.36,0.36,0,0,1,.25.25,0.35,0.35,0,0,0,.33.25h0.17a0.4,0.4,0,0,0,.17-0.5,1,1,0,0,0-.5-0.5l-0.25-.25a0.41,0.41,0,1,0-.58.58A1.41,1.41,0,0,0,180.06,247.66Z" transform="translate(-31.1 -28.3)"/><path id="path4517" class="cls-10" d="M188.16,250.91a0.31,0.31,0,0,0,.25-0.08,1.11,1.11,0,0,0,.25-0.42c0-.08.08-0.17,0.08-0.25a0.37,0.37,0,1,0-.67-0.33,0.31,0.31,0,0,0-.08.25c0,0.08-.08.08-0.08,0.17a0.4,0.4,0,0,0,0,.58A0.84,0.84,0,0,0,188.16,250.91Z" transform="translate(-31.1 -28.3)"/><rect class="cls-5" x="39.9" y="462.7" width="504.2" height="60.5"/><g class="cls-11"><text class="cls-12" transform="translate(37.37 479.77)">ದಯವಿಟ್ಟು ಆಹಾರದ ಜೆೊತೆ ಪ್ಾಾಸಿುಕ್ ಕವರ್ ಹಾಕಬೆೇಡಿ. </text><text class="cls-12" transform="translate(37.37 501.37)">ಕೆೇವಲ ಆಹಾರವನ್ಟು ಮಾತ್ರ ಹಾಕಿ ಹಾಗೊ ಕೆೊಳೆಯಾದ </text><text class="cls-12" transform="translate(37.37 522.97)">ಪ್ಾಾಸಿುಕ್ ಕವರ್ ಅನ್ಟು ಬೆೇರೆ ಬಿನ್ ಅಲ್ಲಾಹಾಕಿ.</text></g><rect class="cls-5" x="39.9" y="411" width="504.2" height="39.5"/><g class="cls-11"><text class="cls-13" transform="translate(37.37 426.55) scale(0.99 1)">Please do not dispose of food packaged in plastic c<tspan x="428.76" y="0">o</tspan><tspan x="439.48" y="0">vers. </tspan></text><text class="cls-13" transform="translate(37.37 448.15) scale(0.99 1)">Only place food in this bin.</text></g><line class="cls-14" x1="8.46" y1="399" x2="538.9" y2="399"/><path d="M129.84,277.73c2.16,3.89,2.88,17.77,2.88,17.77s-3.14-12.35-5.3-16.24c-2-3.55-12-11-12-11S127.67,273.95,129.84,277.73Zm-22.26,9.44a3.68,3.68,0,1,1,5.17.57A3.73,3.73,0,0,1,107.57,287.17Zm53.63-57.66c-5.3,2.14-2.85,17.37-7.81,23-3.14,3.53-14.24,2.32-21.53,4.83-0.46-2.22-5.75-10-7.33-9.35-3.72,1.52-6.6,9.42-7,15.8C109.5,267.87,98.71,289,102.34,297c0.28,0.57,7.2-2.73,7.2-2.73s-5.24,5.08-4.72,5.34c6.92,4.1,24.37,1.08,31.83-3.26,5.91,2,16.17,1.65,17.71-2.23,1-2.31-5.41-6.46-8-8,7.06-8.51,9.23-25.5,12.56-27.49,7.09-3.94,21.43,2.45,23.51-2.69,1.53-3.78-11.73-11.16-11.73-11.16S166.16,228.75,161.2,229.51Z" transform="translate(-31.1 -28.3)"/><path d="M194.64,307.45a1.59,1.59,0,0,0,.5,1.11,5.08,5.08,0,0,0,.79.93,22.07,22.07,0,0,0,1.84,1.57c0.58,0.53,1.26,1,1.84,1.57s1.16,1.06,1.76,1.7l1.76,1.7,0.87,0.8,0.79,0.93,3.33,3.56,0.47,0.56-0.79,0-0.79,0a1.85,1.85,0,0,0-.77.08,7.19,7.19,0,0,0-1.45.47,2.48,2.48,0,0,0-1.11.94,3.09,3.09,0,0,0-.69,1.29l-0.08.13-0.05.24v0.45a1.61,1.61,0,0,0,.08.77,3.62,3.62,0,0,0,.47,1.45,3,3,0,0,0,.94,1.11,3.09,3.09,0,0,0,1.29.69,4,4,0,0,0,3-.27,3.21,3.21,0,0,0,1.25-.86,9.08,9.08,0,0,0,1.06-1.16,10.46,10.46,0,0,0,1.67-6l0.06-.69,0.63,0.29a6,6,0,0,0,1.13.51c0.37,0.13.84,0.24,1.21,0.38a1.55,1.55,0,0,0,.69.06,1.38,1.38,0,0,0,.66,0,5.3,5.3,0,0,0,1.29-.2,3.91,3.91,0,0,0,1.11-.5,1.45,1.45,0,0,0,.45-0.45,1.64,1.64,0,0,0,.32-0.53l0.16-.26,0.05-.24a0.38,0.38,0,0,1,.05-0.24l0-.34c-0.05-.21,0-0.45,0-0.66l-0.16-.63-0.26-.61c0-.11-0.21-0.4-0.26-0.61a3.4,3.4,0,0,0-.79-0.93,3.31,3.31,0,0,0-1.05-.64,5.08,5.08,0,0,0-1.19-.27,5.46,5.46,0,0,0-1.32.1,5.25,5.25,0,0,0-1.27.31,10.73,10.73,0,0,0-2.46.94l-0.11,0-0.13-.08-2.6-1.94c-0.84-.69-1.76-1.25-2.6-1.94l-1.26-1-1.16-1.06-1.08-1.19-1-1.22,1.08,1.19,1.16,1.06,1.26,1,1.26,1a22.74,22.74,0,0,0,2.68,1.81c0.92,0.56,1.76,1.25,2.68,1.81l-0.24-.05a11,11,0,0,1,2.57-1l1.37-.34a6.37,6.37,0,0,1,1.43-.12,6.66,6.66,0,0,1,1.4.22,9.81,9.81,0,0,1,1.29.69,3,3,0,0,1,.94,1.11c0.16,0.19.21,0.4,0.37,0.58l0.26,0.61,0.18,0.74a2.12,2.12,0,0,1,.08.77l0,0.34c0,0.11-.05.24,0,0.34l0,0.34-0.13.37a2.57,2.57,0,0,1-.4.66,1.84,1.84,0,0,1-.56.47,3.35,3.35,0,0,1-1.3.65,6.21,6.21,0,0,1-1.4.23,1.55,1.55,0,0,1-.69-0.06c-0.24-.05-0.45,0-0.69-0.06l-1.42-.32a4.26,4.26,0,0,1-1.26-.59l0.58-.37a15.73,15.73,0,0,1-.41,3.35,10,10,0,0,1-1.36,3.13,11,11,0,0,1-1.14,1.29,7.5,7.5,0,0,1-.77.52,2.56,2.56,0,0,1-.79.42,4.89,4.89,0,0,1-3.51.3,4.64,4.64,0,0,1-1.55-.85,5.52,5.52,0,0,1-1.13-1.41,9.36,9.36,0,0,1-.52-1.67,2.05,2.05,0,0,1,0-.9v-0.45l0.05-.24,0.05-.24a3.46,3.46,0,0,1,.85-1.55,7.5,7.5,0,0,1,1.41-1.13,9.37,9.37,0,0,1,1.67-.52c0.34,0,.55,0,0.9,0l0.92,0.11-0.32.53-3.12-3.61-0.79-.93-0.87-.8L202,314.27c-0.58-.53-1.08-1.19-1.65-1.72a22.07,22.07,0,0,0-1.84-1.57c-0.58-.53-1.16-1.06-1.76-1.7a5.08,5.08,0,0,1-.79-0.93C194.82,308.19,194.61,307.79,194.64,307.45Z" transform="translate(-31.1 -28.3)"/><path d="M189.17,308c0.4-.21,3.65,8.07,3.93,10.58-0.22-3.2.91-6.83,1.74-9.84,2.95,1.52,8.38,3.11,11.27.72a11.73,11.73,0,0,1-7.07-5.11,21.92,21.92,0,0,0,12.79-2.23c-5.1.24-8.55-1-13.16-3.4,2.24-3.68.21-10.59-1.85-14-3.38-5.56-8.33-7.94-14-10.24-9.33-3.77-19.76,2.14-18.42,12.68,1.09,8.59,6.5,14.21,14.24,17.47,2.74,1.12,10.87.48,11.3,4.07" transform="translate(-31.1 -28.3)"/><text class="cls-15" transform="translate(76.26 326.01)">L<tspan x="5.5" y="0">e</tspan><tspan x="11.51" y="0">f</tspan><tspan x="15.14" y="0">t</tspan><tspan x="19.04" y="0">o</tspan><tspan x="25.55" y="0">v</tspan><tspan x="31.2" y="0">er chicken, fish and </tspan><tspan x="14.62" y="14.4">other non</tspan><tspan x="64.22" y="14.4">-</tspan><tspan x="67.85" y="14.4">v</tspan><tspan x="73.5" y="14.4">eg </tspan><tspan x="88.76" y="14.4">f</tspan><tspan x="92.11" y="14.4">ood</tspan></text><text class="cls-15" transform="translate(351.48 322.3)">Chicken/fish bones</text><path d="M447.66,291.82a2.71,2.71,0,0,1,1.27,3.64,2.64,2.64,0,0,1-3.64,1.27A2.72,2.72,0,1,1,447.66,291.82Zm15.24,15.4c0.28-3.24-10.41-18.41-13.7-22.91a1.28,1.28,0,0,0-1.27-.5c-4.43,1.23-8.47,4.52-11.67,9.71l-0.14.28a246.09,246.09,0,0,1-30.21-17.63c1-2.78,3-8.9,3.2-9.51a1.69,1.69,0,0,0-3.2-1.08L403,274c-0.76-.6-1.47-1.06-2.13-1.61,0.95-2.92,2.93-8.47,3.11-9.08a1.67,1.67,0,0,0-1.06-2.14,1.6,1.6,0,0,0-2.14,1.06l-2.71,8c-1-.83-1.94-1.52-2.65-2.22,0.62-3,3.22-14.84,3.49-15.88a1.79,1.79,0,0,0-1-2,1.77,1.77,0,0,0-2.15.59l-8.41,11.64a4.32,4.32,0,0,0-.88.62c-0.92.95-3.33,3-5.46,4.8-1.94,1.62-3.75,3.19-4.82,4.19a2.07,2.07,0,0,0-.72,2,1.49,1.49,0,0,0,1,1.39c0.66,0.32,2,1,15.77-4.24a0.1,0.1,0,0,1,.14,0c1,0.83,2.18,1.75,3.51,2.86l-6.95,5.95a1.72,1.72,0,0,0-.15,2.48,1.57,1.57,0,0,0,.61.41,1.72,1.72,0,0,0,1.87-.26s5.14-4.38,7.55-6.47c0.66,0.56,1.37,1,2.13,1.61l-6.95,5.95a1.72,1.72,0,0,0-.15,2.48,1.57,1.57,0,0,0,.61.41,1.72,1.72,0,0,0,1.87-.26s5.23-4.56,7.6-6.56a269.06,269.06,0,0,0,30.5,17.77,40.21,40.21,0,0,0-3.16,8.94c-1.11,4.7-.4,5.39-0.06,5.67,0.09,0,.24.23,0.33,0.27,1.89,0.91,13.72-.23,14.19-0.24,3.88-.33,13.1-1.35,16.12-3A3.3,3.3,0,0,0,462.9,307.22Z" transform="translate(-31.1 -28.3)"/><path class="cls-16" d="M492.26,284.57a4,4,0,0,1,1.57,0,6.41,6.41,0,0,1,2.81,1.33,3.42,3.42,0,0,1,1.55,2.62,2.71,2.71,0,0,1-.87,2.25,2.89,2.89,0,0,1-.6.4l-1.34.32-1.74.42a6.94,6.94,0,0,0-2.84,1.39,4.2,4.2,0,0,0-1.09,3.18V297a4.19,4.19,0,0,1,.46-1.25,4.33,4.33,0,0,1,1-1.21,6.47,6.47,0,0,1,.58-0.41,18.77,18.77,0,0,0-.3,2.71q-0.06,1.3-.11,2c0,0.3-.06.52-0.08,0.66a2.12,2.12,0,0,1-3,2,6.51,6.51,0,0,1-1.25-.46,7,7,0,0,1-1.34-.83,3.59,3.59,0,0,1-1.55-2.72,6,6,0,0,1,.47-2.1,2.17,2.17,0,0,1,.16-0.42l0.45-1.13a3.52,3.52,0,0,0,.21-0.95,7.18,7.18,0,0,0-1.78-3.67l-0.32-.31q-0.24-.22-3.13-3.17c-1.26-1.28-2.3-2.27-3.12-3q-0.16-.13-2.11-2.23l-1.9-2q-2.33-2.09-6.23-5.52-1.42-1.25-2.63-2.34a4.31,4.31,0,0,0-1-.42,4.17,4.17,0,0,0-1.52,0,13.08,13.08,0,0,0-1.36.41,8.66,8.66,0,0,1-1.37.43,4,4,0,0,1-1.55,0,6.67,6.67,0,0,1-2.84-1.32,3.4,3.4,0,0,1-1.54-2.64,2.71,2.71,0,0,1,.87-2.25,4.88,4.88,0,0,1,.6-0.39q0.55-.15,1.34-0.32c0.81-.18,1.39-0.31,1.74-0.42a6.73,6.73,0,0,0,2.84-1.39,4.1,4.1,0,0,0,1.09-3.18v-0.55a4.4,4.4,0,0,1-.47,1.27,4.51,4.51,0,0,1-1,1.23,4.38,4.38,0,0,1-.58.41,18,18,0,0,0,.31-2.73c0.06-1.41.13-2.29,0.19-2.64a2.72,2.72,0,0,1,.79-1.76,2.63,2.63,0,0,1,2.19-.27,5.32,5.32,0,0,1,1.24.43,6.38,6.38,0,0,1,1.34.86,3.61,3.61,0,0,1,1.57,2.68,7.22,7.22,0,0,1-.66,2.53L466,261.86a3,3,0,0,0-.2,1,7.1,7.1,0,0,0,1.77,3.63l0.32,0.31,3.13,3.17q1.91,1.92,3.12,3,0.16,0.13,2.11,2.23l1.9,2,6.22,5.54q1.44,1.26,2.65,2.35a3.77,3.77,0,0,0,1,.37,4,4,0,0,0,1.5,0c0.31-.08.76-0.22,1.37-0.43A7.79,7.79,0,0,1,492.26,284.57Z" transform="translate(-31.1 -28.3)"/></svg>