<?xml version="1.0" encoding="utf-8"?>
<!-- Generator: Adobe Illustrator 19.2.1, SVG Export Plug-In . SVG Version: 6.00 Build 0)  -->
<svg version="1.1" id="Layer_1" xmlns="http://www.w3.org/2000/svg" xmlns:xlink="http://www.w3.org/1999/xlink" x="0px" y="0px"
	 viewBox="0 0 612 792" style="enable-background:new 0 0 612 792;" xml:space="preserve">
<style type="text/css">
	.st0{fill:none;stroke:#008000;stroke-width:10;}
	.st1{fill:#008000;stroke:#008000;stroke-width:10.0397;}
	.st2{fill:#FFFFFF;}
	.st3{font-family:'NotoSans';}
	.st4{font-size:54px;}
	.st5{font-family:'NotoSansKannada';}
	.st6{fill:none;}
	.st7{fill:#008000;}
	.st8{fill:#904623;stroke:#FFFFFF;stroke-width:5;}
	.st9{fill:#904623;}
	.st10{fill:#161616;}
	.st11{font-size:18px;}
	.st12{opacity:0.16;fill:none;stroke:#008000;enable-background:new    ;}
	.st13{font-size:12px;}
	.st14{fill-rule:evenodd;clip-rule:evenodd;}
</style>
<path id="rect4155_1_" class="st0" d="M100.1,33.3h412c35.3,0,64,28.7,64,64v412c0,35.3-28.7,64-64,64h-412c-35.3,0-64-28.7-64-64
	v-412C36.1,62,64.8,33.3,100.1,33.3z"/>
<path id="rect4262_1_" class="st1" d="M96.3,42.6h416.8c29.8,0,53.9,24.1,53.9,53.9V184H46V93C46,65.1,68.5,42.6,96.3,42.6z"/>
<g>
	<text transform="matrix(1 0 0 1 222.9463 99.3267)" class="st2 st3 st4">Wet Waste</text>
	<text transform="matrix(1 0 0 1 222.9463 156.9541)" class="st2 st5 st4">ಹಸಿ ಕಸ</text>
</g>
<g>
	<path class="st6" d="M44.2,185.7c0-48.8,0-97.6,0-146.6c50.8,0,101.5,0,152.3,0c0,1.4-0.1,2.8-0.1,4.2c0,46.1,0,92.2,0,138.2
		c0,1.3,0,2.5,0,4.1c-1.6,0-2.8,0-4.1,0c-48,0-96,0-144,0C47,185.6,45.6,185.7,44.2,185.7z M186.6,110.4
		c0.1-34.9-27.2-64.6-63.5-65.4c-36.4-0.8-66.3,27.4-66.6,64.9c-0.2,37.2,28.6,63.7,61,65.6C157,177.8,186.8,145.9,186.6,110.4z"/>
	<path class="st6" d="M47.2,185.7c1.4,0,2.8-0.1,4.2-0.1c48,0,96,0,144,0c1.3,0,2.5,0,4.1,0c0-1.6,0-2.8,0-4.1
		c0-46.1,0-92.2,0-138.2c0-1.4,0.1-2.8,0.1-4.2c0.2,1,0.6,1.9,0.6,2.9c0,48.1,0,96.1,0,144.3c-1.7,0-3.3,0-5,0
		c-48.4,0-96.8,0-145.1,0C49.1,186.3,48.1,185.9,47.2,185.7z"/>
	<path class="st2" d="M186.6,110.4c0.2,35.6-29.6,67.4-69.1,65.1c-32.4-1.9-61.2-28.3-61-65.6c0.2-37.5,30.2-65.7,66.6-64.9
		C159.4,45.8,186.7,75.4,186.6,110.4z M60.4,110.2c0,34,27.5,61.7,61.2,61.6c33.9-0.1,61.3-27.6,61.3-61.6s-27.4-61.4-61.4-61.3
		C87.6,49,60.4,76.3,60.4,110.2z"/>
	<path class="st7" d="M60.8,110.2c0-34,27.2-61.3,61.1-61.3c34,0,61.4,27.3,61.4,61.3s-27.4,61.5-61.3,61.6
		C88.3,172,60.8,144.3,60.8,110.2z M113.2,129.3c-0.3-7.5-3.9-13.1-9.5-17.5c-6.1-4.8-13.3-7-20.9-8c-4.2-0.5-4.9,0-3.9,4.1
		C82,121,99,131.7,113.2,129.3z M121.9,132.7L121.9,132.7c0-3.5,0.2-7-0.1-10.5c0-0.5-0.5-1-1-1.5c-0.6-0.6-1.5-0.6-2.1,0
		c-0.5,0.5-1,1-1,1.6c-0.2,6.9-0.2,13.8,0,20.7c0,0.2,0.1,0.4,0.2,0.6c0.8,1.4,3,1.4,3.7,0c0.1-0.2,0.2-0.4,0.2-0.6
		C122.1,139.5,121.9,136.1,121.9,132.7z"/>
	<path class="st2" d="M115.3,129.3C101.1,131.7,84.1,121,81,108c-0.4-1.8-0.8-4.3-0.8-4.3s2.3-0.1,4.7,0.2c7.6,1,14.8,3.1,20.9,8
		C111.3,116.2,115,121.7,115.3,129.3z"/>
	<path class="st2" d="M121.6,116.4c-11.5-8.6-15.5-28.3-8.3-39.5c1-1.5,2.5-3.5,2.5-3.5s1.7,1.6,3.1,3.5c4.6,6.2,8,12.8,8.7,20.6
		C128.3,104.5,126.8,111,121.6,116.4z"/>
	<path class="st2" d="M164,99.7c-3.3,14-19.8,25.5-33,23.3c-1.8-0.3-4.2-0.9-4.2-0.9s0.8-2.2,2-4.3c3.9-6.7,8.6-12.4,15.5-16.2
		C150.4,98.2,156.9,97,164,99.7z"/>
	<path class="st2" d="M124,132.7c0,3.4,0.1,6.8-0.1,10.2c0,0.2-0.1,0.4-0.2,0.6c-0.7,1.5-2.9,1.5-3.7,0c-0.1-0.2-0.2-0.4-0.2-0.6
		c-0.2-6.9-0.2-13.8,0-20.7c0-0.2,0.1-0.4,0.2-0.6c0.8-1.4,3-1.4,3.7,0c0.1,0.2,0.2,0.4,0.2,0.5C124.2,125.7,124,129.2,124,132.7
		L124,132.7z"/>
</g>
<g>
	<rect id="rect4337_1_" x="527.5" y="135.1" class="st8" width="27.6" height="27.6"/>
	<rect id="rect4339_1_" x="530.5" y="138.2" class="st2" width="21.6" height="21.4"/>
	<circle id="path4341_1_" class="st9" cx="541.3" cy="148.9" r="8.3"/>
</g>
<path id="path4475_1_" inkscape:connector-curvature="0" class="st10" d="M160.9,253.3c0,0.2,0.2,0.3,0.4,0.3h0.1
	c0.3,0,0.3-0.3,0.3-0.4l-0.1-0.3c-0.1-0.5-0.2-0.9-0.2-1.4c0-0.3-0.2-0.4-0.4-0.4c-0.3,0-0.4,0.2-0.4,0.4c0,0.6,0.1,1.1,0.3,1.6
	C160.8,253,160.9,253.3,160.9,253.3z"/>
<path id="path4477_1_" inkscape:connector-curvature="0" class="st10" d="M136,273.9l-0.2,0.2l0,0c0-0.2-0.2-0.3-0.4-0.3
	c-0.2,0-0.3,0.2-0.4,0.3c0,0.1-0.2,0.5,1.1,1.3c0.1,0.1,0.2,0.1,0.3,0.1s0.2,0,0.3-0.1c0.2-0.1,0.2-0.3,0.1-0.5
	C136.5,274.4,136.3,274.1,136,273.9z"/>
<path id="path4479_1_" inkscape:connector-curvature="0" class="st10" d="M137.5,271.8c-0.1-0.1-0.1-0.1-0.2-0.2
	c-0.1-0.2-0.3-0.3-0.5-0.2c-0.2,0.1-0.3,0.3-0.2,0.5c0.1,0.3,0.3,0.3,0.4,0.4c0.1,0.1,0.1,0.1,0.2,0.2c0.1,0.1,0.2,0.1,0.3,0.1
	s0.2,0,0.3-0.1c0.2-0.2,0.2-0.4,0-0.6C137.7,271.9,137.6,271.9,137.5,271.8z"/>
<path id="path4481_1_" inkscape:connector-curvature="0" class="st10" d="M141.3,272.1c-0.1,0.1-0.3,0.2-0.4,0.5
	c0,0.2,0,0.4,0.1,0.6c0.1,0.2,0.2,0.3,0.3,0.3c0.1,0,0.1,0,0.2,0c0.2-0.1,0.3-0.3,0.2-0.5l0,0c0.2-0.1,0.3-0.3,0.2-0.5
	C141.8,272,141.5,271.9,141.3,272.1z"/>
<path id="path4483_1_" inkscape:connector-curvature="0" class="st10" d="M127.9,262.6c-0.3,0.2-0.3,0.6-0.3,0.8s0.2,0.4,0.4,0.4
	c0.3,0,0.4-0.2,0.4-0.4c0.1,0,0.3-0.1,0.3-0.2c0.1-0.2,0.1-0.4-0.1-0.5C128.2,262.5,128,262.5,127.9,262.6z"/>
<path id="path4485_1_" inkscape:connector-curvature="0" class="st10" d="M125,267.2c-0.1-0.2-0.3-0.3-0.5-0.2
	c-0.2,0.1-0.3,0.3-0.2,0.5c0.3,0.5,0.4,0.8,0.6,1c0.1,0.1,0.2,0.1,0.3,0.1s0.2,0,0.3-0.1c0.2-0.2,0.2-0.4,0-0.6
	C125.3,267.9,125.2,267.7,125,267.2z"/>
<path id="path4487_1_" inkscape:connector-curvature="0" class="st10" d="M132.5,252.6c0-0.3-0.2-0.4-0.4-0.4
	c-0.3,0-0.4,0.2-0.4,0.4c0,0.2,0,0.4,0.3,0.7c0.1,0.1,0.2,0.1,0.3,0.1c0.1,0,0.2,0,0.3-0.1C132.6,253.1,132.6,252.8,132.5,252.6
	C132.5,252.7,132.5,252.6,132.5,252.6z"/>
<path id="path4489_1_" inkscape:connector-curvature="0" class="st10" d="M118.3,251.2l-0.3,0.3c-0.2,0.2-0.2,0.4,0,0.6
	c0.1,0.1,0.2,0.1,0.3,0.1c0.1,0,0.2,0,0.3-0.1l0.3-0.3c0.2-0.2,0.2-0.4,0-0.6C118.7,251,118.4,251,118.3,251.2z"/>
<path id="path4491_1_" inkscape:connector-curvature="0" class="st10" d="M118.8,249c-0.3,0-0.4,0.2-0.4,0.4c0,0.3,0.2,0.4,0.4,0.4
	s0.4,0.2,0.7,0.4c0.1,0.1,0.2,0.1,0.3,0.1s0.2,0,0.3-0.1c0.2-0.2,0.2-0.4,0-0.6C119.7,249.3,119.4,249,118.8,249z"/>
<path id="path4493_1_" inkscape:connector-curvature="0" class="st10" d="M117.2,250.8h-0.4c-0.3,0-0.4,0.2-0.4,0.4
	c0,0.3,0.2,0.4,0.4,0.4h0.4c0.3,0,0.4-0.2,0.4-0.4C117.6,251.1,117.4,250.8,117.2,250.8z"/>
<path id="path4495_1_" inkscape:connector-curvature="0" class="st10" d="M109.1,258c-0.5,0.2-0.8,0.6-0.8,1.2
	c0,0.3,0.2,0.4,0.4,0.4s0.4-0.2,0.4-0.4c0-0.3,0.1-0.3,0.3-0.4c0.2-0.1,0.3-0.3,0.3-0.5C109.5,258.1,109.2,257.9,109.1,258z"/>
<path id="path4497_1_" inkscape:connector-curvature="0" class="st10" d="M104.1,259.5c-0.4,0-0.8,0.3-1,0.6c-0.1,0.2,0,0.4,0.2,0.5
	c0.1,0,0.1,0,0.2,0c0.2,0,0.3-0.1,0.3-0.3s0.3-0.2,0.3-0.2c0.3,0,0.4-0.2,0.4-0.4C104.6,259.7,104.4,259.5,104.1,259.5z"/>
<path id="path4499_1_" inkscape:connector-curvature="0" class="st10" d="M105.2,254.6c-0.2-0.1-0.4,0-0.5,0.2
	c-0.2,0.3-0.2,0.7-0.2,0.9c0,0.3,0.2,0.4,0.4,0.4s0.4-0.2,0.4-0.4c0-0.3,0-0.4,0.1-0.6C105.5,254.9,105.4,254.7,105.2,254.6z"/>
<path id="path4501_1_" inkscape:connector-curvature="0" class="st10" d="M114.8,267.9c0.1-0.2,0.1-0.3-0.1-0.5s-0.4-0.2-0.6,0
	c-0.4,0.3,0,1,0.3,1.4c0.1,0.1,0.2,0.2,0.3,0.2c0.1,0,0.2,0,0.3-0.1c0.2-0.1,0.3-0.3,0.1-0.5C114.9,268.3,114.8,268,114.8,267.9z"/>
<path id="path4503_1_" inkscape:connector-curvature="0" class="st10" d="M118.3,260.4c-0.1-0.2-0.3-0.3-0.5-0.3
	c-0.2,0.1-0.3,0.3-0.3,0.5c0.2,0.4,0.3,0.7,0.4,0.9c0.1,0.2,0.2,0.3,0.3,0.3c0.1,0,0.1,0,0.2,0c0.2-0.1,0.3-0.3,0.2-0.5
	C118.6,261,118.4,260.8,118.3,260.4z"/>
<path id="path4505_1_" inkscape:connector-curvature="0" class="st10" d="M144.9,259.1c-0.2-0.1-0.4-0.3-0.5-0.5
	c-0.1-0.2-0.3-0.3-0.5-0.2s-0.3,0.3-0.2,0.5c0.2,0.3,0.5,0.7,0.8,0.8c0.1,0,0.1,0,0.2,0c0.2,0,0.3-0.1,0.3-0.3
	C145.2,259.4,145.1,259.2,144.9,259.1z"/>
<path id="path4507_1_" inkscape:connector-curvature="0" class="st10" d="M156,242.9c0.1,0,0.2,0,0.3-0.1c0.2-0.2,0.2-0.4,0-0.5
	c0.2-0.2,0.2-0.4,0-0.6c-0.2-0.2-0.4-0.2-0.6,0c-0.3,0.3-0.3,0.8,0,1.1C155.9,242.9,155.9,242.9,156,242.9z"/>
<path id="path4509_1_" inkscape:connector-curvature="0" class="st10" d="M155.9,245.3c-0.2,0.2-0.2,0.4,0,0.6
	c0.3,0.3,0.4,0.3,0.7,0.5c0.1,0.1,0.2,0.1,0.3,0.2c0.1,0.1,0.2,0.1,0.3,0.1c0.1,0,0.3-0.1,0.3-0.2c0.1-0.2,0.1-0.4-0.1-0.5
	c-0.1-0.1-0.2-0.2-0.3-0.2c0,0,0,0-0.1,0c0-0.2-0.2-0.3-0.4-0.3h-0.1l0,0C156.3,245.2,156,245.2,155.9,245.3z"/>
<path id="path4511_1_" inkscape:connector-curvature="0" class="st10" d="M163,237.3c0.1,0.1,0.2,0.2,0.3,0.2h0.1
	c0.2-0.1,0.3-0.3,0.3-0.5c-0.2-0.4-0.4-0.7-0.8-0.6c-0.1,0-0.4,0.1-0.4,0.6C162.5,237.2,162.7,237.4,163,237.3z"/>
<path id="path4513_1_" inkscape:connector-curvature="0" class="st10" d="M180,244.2l0.8,0.4c0.1,0,0.1,0,0.2,0
	c0.2,0,0.3-0.1,0.3-0.3s0-0.4-0.2-0.5l-0.8-0.3c-0.2-0.1-0.4,0-0.5,0.2C179.7,243.8,179.8,244.1,180,244.2z"/>
<path id="path4515_1_" inkscape:connector-curvature="0" class="st10" d="M180.1,247.7c0.2,0.1,0.3,0.2,0.3,0.3
	c0.1,0.2,0.2,0.3,0.3,0.3c0.1,0,0.1,0,0.2,0c0.2-0.1,0.3-0.3,0.2-0.5c-0.1-0.3-0.3-0.4-0.5-0.5c-0.1-0.1-0.2-0.2-0.3-0.3
	c-0.2-0.2-0.4-0.2-0.6,0c-0.2,0.2-0.2,0.4,0,0.6C179.8,247.6,180,247.7,180.1,247.7z"/>
<path id="path4517_1_" inkscape:connector-curvature="0" class="st10" d="M188.2,250.9c0.1,0,0.2,0,0.3-0.1c0.2-0.2,0.2-0.3,0.3-0.4
	c0-0.1,0.1-0.2,0.1-0.3c0.1-0.2,0-0.4-0.2-0.5c-0.2-0.1-0.4,0-0.5,0.2c-0.1,0.1-0.1,0.2-0.1,0.3s-0.1,0.1-0.1,0.2
	c-0.2,0.2-0.2,0.4,0,0.6C187.9,250.8,188.1,250.9,188.2,250.9z"/>
<rect x="71" y="491" class="st6" width="504.2" height="60.5"/>
<text transform="matrix(1 0 0 1 68.4746 508.0739)" class="st5 st11">ದಯವಿಟ್ಟು ಆಹಾರದ ಜೆೊತೆ ಪ್ಾಾಸಿುಕ್ ಕವರ್ ಹಾಕಬೆೇಡಿ. </text>
<text transform="matrix(1 0 0 1 68.4746 529.6738)" class="st5 st11">ಕೆೇವಲ ಆಹಾರವನ್ಟು ಮಾತ್ರ ಹಾಕಿ ಹಾಗೊ ಕೆೊಳೆಯಾದ </text>
<text transform="matrix(1 0 0 1 68.4746 551.2738)" class="st5 st11">ಪ್ಾಾಸಿುಕ್ ಕವರ್ ಅನ್ಟು ಬೆೇರೆ ಬಿನ್ ಅಲ್ಲಾಹಾಕಿ.</text>
<rect x="71" y="439.3" class="st6" width="504.2" height="39.5"/>
<text transform="matrix(0.9938 0 0 1 68.4745 454.8506)" class="st3 st11">Please do not dispose of food packaged in plastic covers. </text>
<text transform="matrix(0.9938 0 0 1 68.4745 476.4502)" class="st3 st11">Only place food in this bin.</text>
<line class="st12" x1="39.6" y1="427.3" x2="570" y2="427.3"/>
<path d="M129.8,277.7c2.2,3.9,2.9,17.8,2.9,17.8s-3.1-12.4-5.3-16.2c-2-3.5-12-11-12-11S127.7,273.9,129.8,277.7z M107.6,287.2
	c-1.3-1.6-1-3.9,0.6-5.2c1.6-1.3,3.9-1,5.2,0.6c1.3,1.5,1,3.9-0.6,5.2C111.2,289,108.8,288.7,107.6,287.2z M161.2,229.5
	c-5.3,2.1-2.8,17.4-7.8,23c-3.1,3.5-14.2,2.3-21.5,4.8c-0.5-2.2-5.7-10-7.3-9.4c-3.7,1.5-6.6,9.4-7,15.8
	c-8.1,4.1-18.9,25.2-15.2,33.2c0.3,0.6,7.2-2.7,7.2-2.7c0.1,0.1-5.2,5.1-4.7,5.3c6.9,4.1,24.4,1.1,31.8-3.3c5.9,2,16.2,1.7,17.7-2.2
	c1-2.3-5.4-6.5-8-8c7.1-8.5,9.2-25.5,12.6-27.5c7.1-3.9,21.4,2.4,23.5-2.7c1.5-3.8-11.7-11.2-11.7-11.2S166.2,228.8,161.2,229.5z"/>
<path d="M194.6,307.4c0,0.4,0.2,0.7,0.5,1.1c0.2,0.3,0.5,0.7,0.8,0.9c0.6,0.5,1.2,1.1,1.8,1.6c0.6,0.5,1.3,1,1.8,1.6
	c0.6,0.5,1.2,1.1,1.8,1.7l1.8,1.7l0.9,0.8l0.8,0.9l3.3,3.6l0.5,0.6l-0.8,0l-0.8,0c-0.2-0.1-0.6,0-0.8,0.1c-0.5,0.1-1,0.2-1.5,0.5
	s-0.9,0.5-1.1,0.9c-0.3,0.4-0.6,0.8-0.7,1.3l-0.1,0.1l-0.1,0.2l0,0.4c-0.1,0.2,0,0.4,0.1,0.8c0,0.6,0.2,1,0.5,1.5
	c0.2,0.4,0.5,0.9,0.9,1.1c0.4,0.3,0.8,0.6,1.3,0.7c1,0.3,2.1,0.2,3-0.3c0.5-0.2,0.9-0.4,1.2-0.9c0.4-0.3,0.7-0.7,1.1-1.2
	c1.1-1.7,1.7-3.9,1.7-6l0.1-0.7l0.6,0.3c0.4,0.2,0.8,0.4,1.1,0.5c0.4,0.1,0.8,0.2,1.2,0.4c0.2,0.1,0.5,0.1,0.7,0.1
	c0.2,0.1,0.4,0,0.7,0c0.4,0,0.9-0.1,1.3-0.2c0.4-0.1,0.8-0.3,1.1-0.5c0.2-0.2,0.3-0.2,0.5-0.4c0.1-0.1,0.3-0.3,0.3-0.5l0.2-0.3
	l0.1-0.2c0-0.1,0.1-0.2,0.1-0.2l0-0.3c-0.1-0.2,0-0.4,0-0.7c-0.1-0.2-0.1-0.4-0.2-0.6l-0.3-0.6c0-0.1-0.2-0.4-0.3-0.6
	c-0.2-0.4-0.5-0.7-0.8-0.9c-0.3-0.3-0.7-0.5-1.1-0.6s-0.8-0.2-1.2-0.3c-0.4,0-0.9,0-1.3,0.1c-0.4,0.1-0.9,0.1-1.3,0.3
	c-0.8,0.2-1.7,0.5-2.5,0.9l-0.1,0l-0.1-0.1l-2.6-1.9c-0.8-0.7-1.8-1.3-2.6-1.9l-1.3-1l-1.2-1.1l-1.1-1.2l-1-1.2l1.1,1.2l1.2,1.1
	l1.3,1l1.3,1c0.8,0.7,1.8,1.3,2.7,1.8c0.9,0.6,1.8,1.3,2.7,1.8l-0.2-0.1c0.8-0.4,1.6-0.7,2.6-1c0.4-0.1,0.8-0.2,1.4-0.3
	c0.4-0.1,1-0.1,1.4-0.1c0.4,0,0.9,0.1,1.4,0.2c0.5,0.2,0.9,0.5,1.3,0.7c0.4,0.2,0.7,0.7,0.9,1.1c0.2,0.2,0.2,0.4,0.4,0.6l0.3,0.6
	c0.1,0.2,0.1,0.4,0.2,0.7c0.1,0.2,0.1,0.4,0.1,0.8l0,0.3c0,0.1-0.1,0.2,0,0.3l0,0.3l-0.1,0.4c-0.1,0.2-0.2,0.4-0.4,0.7
	c-0.2,0.3-0.4,0.3-0.6,0.5c-0.4,0.3-0.9,0.5-1.3,0.7c-0.4,0.1-1,0.2-1.4,0.2c-0.2,0.1-0.4,0-0.7-0.1c-0.2-0.1-0.4,0-0.7-0.1
	c-0.5-0.1-0.9-0.2-1.4-0.3c-0.5-0.1-0.9-0.3-1.3-0.6l0.6-0.4c-0.1,1.1-0.1,2.3-0.4,3.4c-0.3,1.1-0.7,2.2-1.4,3.1
	c-0.3,0.5-0.8,0.9-1.1,1.3c-0.2,0.2-0.5,0.3-0.8,0.5c-0.3,0.2-0.5,0.3-0.8,0.4c-1.1,0.5-2.3,0.7-3.5,0.3c-0.6-0.2-1.1-0.5-1.6-0.9
	c-0.4-0.5-0.9-0.9-1.1-1.4c-0.2-0.5-0.4-1.1-0.5-1.7c-0.1-0.3,0-0.7,0-0.9l0-0.4l0.1-0.2l0.1-0.2c0.2-0.6,0.4-1.1,0.9-1.6
	c0.3-0.4,0.9-0.8,1.4-1.1c0.5-0.2,1.1-0.4,1.7-0.5c0.3,0,0.6,0,0.9,0l0.9,0.1l-0.3,0.5l-3.1-3.6l-0.8-0.9l-0.9-0.8l-1.7-1.7
	c-0.6-0.5-1.1-1.2-1.7-1.7c-0.6-0.5-1.2-1.1-1.8-1.6c-0.6-0.5-1.2-1.1-1.8-1.7c-0.3-0.3-0.6-0.6-0.8-0.9
	C194.8,308.2,194.6,307.8,194.6,307.4z"/>
<path d="M189.2,308c0.4-0.2,3.7,8.1,3.9,10.6c-0.2-3.2,0.9-6.8,1.7-9.8c2.9,1.5,8.4,3.1,11.3,0.7c-2.8-0.8-5.7-2.5-7.1-5.1
	c4.8,0.5,8.4-0.1,12.8-2.2c-5.1,0.2-8.5-1-13.2-3.4c2.2-3.7,0.2-10.6-1.9-14c-3.4-5.6-8.3-7.9-14-10.2c-9.3-3.8-19.8,2.1-18.4,12.7
	c1.1,8.6,6.5,14.2,14.2,17.5c2.7,1.1,10.9,0.5,11.3,4.1"/>
<rect x="95.5" y="345.8" class="st6" width="128.4" height="44.8"/>
<text transform="matrix(1 0 0 1 100.1649 354.9074)"><tspan x="0" y="0" class="st3 st13">Leftover chicken, fish </tspan><tspan x="7.2" y="14.4" class="st3 st13">and other non-veg </tspan><tspan x="46.5" y="28.8" class="st3 st13">food</tspan></text>
<rect x="389.4" y="342.1" class="st6" width="103.6" height="44.8"/>
<text transform="matrix(1 0 0 1 406.5703 351.1987)"><tspan x="0" y="0" class="st3 st13">Chicken/fish </tspan><tspan x="17.4" y="14.4" class="st3 st13">bones</tspan></text>
<path d="M447.7,291.8c1.3,0.6,2,2.2,1.3,3.6c-0.7,1.4-2.2,2-3.6,1.3c-1.3-0.6-2-2.2-1.3-3.6C444.7,291.7,446.3,291.2,447.7,291.8z
	 M462.9,307.2c0.3-3.2-10.4-18.4-13.7-22.9c-0.3-0.4-0.8-0.6-1.3-0.5c-4.4,1.2-8.5,4.5-11.7,9.7c0,0.1-0.1,0.2-0.1,0.3
	c-13.2-6.6-23.1-12.7-30.2-17.6c1-2.8,3-8.9,3.2-9.5c0.3-0.9-0.1-1.9-1.1-2.1c-0.9-0.3-1.9,0.1-2.1,1.1L403,274
	c-0.8-0.6-1.5-1.1-2.1-1.6c0.9-2.9,2.9-8.5,3.1-9.1c0.3-0.9-0.2-1.8-1.1-2.1s-1.9,0.1-2.1,1.1l-2.7,8c-1-0.8-1.9-1.5-2.7-2.2
	c0.6-3,3.2-14.8,3.5-15.9c0.2-0.8-0.3-1.6-1-2s-1.6-0.1-2.1,0.6l-8.4,11.6c-0.3,0.2-0.6,0.4-0.9,0.6c-0.9,0.9-3.3,3-5.5,4.8
	c-1.9,1.6-3.7,3.2-4.8,4.2c-0.6,0.6-0.9,1.3-0.7,2c0,0.7,0.4,1.1,1,1.4c0.7,0.3,2,1,15.8-4.2c0,0,0-0.1,0.1,0c1,0.8,2.2,1.8,3.5,2.9
	l-6.9,5.9c-0.7,0.6-0.8,1.7-0.2,2.5c0.1,0.2,0.3,0.3,0.6,0.4c0.6,0.3,1.4,0.2,1.9-0.3c0,0,5.1-4.4,7.6-6.5c0.7,0.6,1.4,1,2.1,1.6
	l-6.9,5.9c-0.7,0.6-0.8,1.7-0.2,2.5c0.1,0.2,0.3,0.3,0.6,0.4c0.6,0.3,1.4,0.2,1.9-0.3c0,0,5.2-4.6,7.6-6.6c7.2,5,17.2,11,30.5,17.8
	c-1.9,3.9-2.9,7.3-3.2,8.9c-1.1,4.7-0.4,5.4-0.1,5.7c0.1,0,0.2,0.2,0.3,0.3c1.9,0.9,13.7-0.2,14.2-0.2c3.9-0.3,13.1-1.3,16.1-3
	C462.4,308.5,462.8,307.9,462.9,307.2z"/>
<path class="st14" d="M492.3,284.6c0.5-0.1,1.1-0.1,1.6,0c1,0.2,1.9,0.6,2.8,1.3c1,0.8,1.5,1.7,1.6,2.6c0,1-0.3,1.7-0.9,2.2
	c-0.2,0.1-0.4,0.3-0.6,0.4c-0.4,0.1-0.8,0.2-1.3,0.3c-0.8,0.2-1.4,0.3-1.7,0.4c-1.3,0.4-2.2,0.8-2.8,1.4c-0.8,0.8-1.1,1.8-1.1,3.2
	l0,0.5c0.1-0.4,0.2-0.8,0.5-1.2c0.3-0.5,0.6-0.9,1-1.2c0.2-0.2,0.4-0.3,0.6-0.4c-0.1,0.7-0.2,1.6-0.3,2.7c0,0.9-0.1,1.5-0.1,2
	c0,0.3-0.1,0.5-0.1,0.7c-0.1,0.8-0.4,1.4-0.8,1.7c-0.5,0.4-1.2,0.5-2.2,0.3c-0.4-0.1-0.8-0.2-1.2-0.5c-0.5-0.2-0.9-0.5-1.3-0.8
	c-1-0.8-1.5-1.7-1.6-2.7c0-0.5,0.1-1.2,0.5-2.1c0-0.1,0.1-0.3,0.2-0.4c0.2-0.6,0.4-1,0.4-1.1c0.1-0.4,0.2-0.7,0.2-0.9
	c0-0.9-0.6-2.1-1.8-3.7c-0.1-0.1-0.2-0.2-0.3-0.3c-0.2-0.1-1.2-1.2-3.1-3.2c-1.3-1.3-2.3-2.3-3.1-3c-0.1-0.1-0.8-0.8-2.1-2.2
	c-0.7-0.7-1.3-1.4-1.9-2c-1.6-1.4-3.6-3.2-6.2-5.5c-0.9-0.8-1.8-1.6-2.6-2.3c-0.4-0.2-0.7-0.3-1-0.4c-0.5-0.1-1-0.1-1.5,0
	c-0.3,0.1-0.8,0.2-1.4,0.4c-0.6,0.2-1,0.4-1.4,0.4c-0.5,0.1-1,0.1-1.6,0c-1-0.2-2-0.6-2.8-1.3c-1-0.8-1.5-1.7-1.5-2.6
	c0-1,0.3-1.7,0.9-2.2c0.2-0.1,0.4-0.3,0.6-0.4c0.4-0.1,0.8-0.2,1.3-0.3c0.8-0.2,1.4-0.3,1.7-0.4c1.3-0.4,2.2-0.8,2.8-1.4
	c0.8-0.7,1.1-1.8,1.1-3.2l0-0.5c-0.1,0.4-0.2,0.8-0.5,1.3c-0.3,0.5-0.6,0.9-1,1.2c-0.2,0.1-0.4,0.3-0.6,0.4c0.2-0.7,0.3-1.6,0.3-2.7
	c0.1-1.4,0.1-2.3,0.2-2.6c0.1-0.8,0.4-1.4,0.8-1.8c0.5-0.4,1.2-0.5,2.2-0.3c0.4,0.1,0.8,0.2,1.2,0.4c0.5,0.2,0.9,0.5,1.3,0.9
	c1,0.8,1.5,1.7,1.6,2.7c0,0.6-0.2,1.5-0.7,2.5c-0.2,0.6-0.4,1-0.4,1.1c-0.1,0.4-0.2,0.7-0.2,1c0,0.9,0.6,2.1,1.8,3.6
	c0.1,0.1,0.2,0.2,0.3,0.3c0.2,0.2,1.2,1.2,3.1,3.2c1.3,1.3,2.3,2.3,3.1,3c0.1,0.1,0.8,0.8,2.1,2.2c0.7,0.7,1.3,1.4,1.9,2
	c1.6,1.4,3.6,3.2,6.2,5.5c1,0.8,1.8,1.6,2.6,2.3c0.4,0.2,0.7,0.3,1,0.4c0.5,0.1,1,0.1,1.5,0c0.3-0.1,0.8-0.2,1.4-0.4
	C491.5,284.8,491.9,284.6,492.3,284.6z"/>
</svg>
