<svg id="svg2" xmlns="http://www.w3.org/2000/svg" viewBox="0 0 550 550"><defs><style>.cls-1,.cls-13,.cls-14,.cls-5{fill:none;}.cls-1,.cls-13,.cls-2{stroke:green;}.cls-1{stroke-width:10px;}.cls-2,.cls-7,.cls-8{fill:green;}.cls-2{stroke-width:10.04px;}.cls-10,.cls-11,.cls-12,.cls-13,.cls-3,.cls-4{isolation:isolate;}.cls-3,.cls-4{font-size:54px;}.cls-3,.cls-4,.cls-6{fill:#fff;}.cls-12,.cls-3{font-family:Noto Sans;}.cls-11,.cls-4{font-family:Noto Sans Kannada;}.cls-8{stroke:#fff;stroke-width:5px;}.cls-9{fill:#161616;}.cls-11,.cls-12{font-size:18px;}.cls-13{opacity:0.16;}.cls-14{stroke:#000;stroke-linecap:round;stroke-linejoin:round;stroke-width:1.48px;}.cls-15{font-size:12px;font-family:Myriad Pro;}</style></defs><title>wet_waste</title><path id="rect4155" class="cls-1" d="M91.1,23.3h412a64.06,64.06,0,0,1,64,64v412a64.06,64.06,0,0,1-64,64H91.1a64.06,64.06,0,0,1-64-64V87.3A64.06,64.06,0,0,1,91.1,23.3Z" transform="translate(-22.1 -18.3)"/><path id="rect4262" class="cls-2" d="M87.3,32.6H504.1A53.86,53.86,0,0,1,558,86.5V174H37V83A50.3,50.3,0,0,1,87.3,32.6Z" transform="translate(-22.1 -18.3)"/><text class="cls-3" transform="translate(191.85 71.03)">W<tspan x="49.7" y="0">et </tspan><tspan x="113.67" y="0">W</tspan><tspan x="163.37" y="0">aste</tspan></text><text class="cls-4" transform="translate(191.85 128.65)">ಹಸಿ ಕಸ</text><path class="cls-5" d="M35.2,175.7V29.1H187.5c0,1.4-.1,2.8-0.1,4.2V175.6H39.3C38,175.6,36.6,175.7,35.2,175.7Zm142.4-75.3c0.1-34.9-27.2-64.6-63.5-65.4S47.8,62.4,47.5,99.9a64.77,64.77,0,0,0,61,65.6C148,167.8,177.8,135.9,177.6,100.4Z" transform="translate(-22.1 -18.3)"/><path class="cls-5" d="M38.2,175.7c1.4,0,2.8-.1,4.2-0.1H190.5V33.3c0-1.4.1-2.8,0.1-4.2a15,15,0,0,1,.6,2.9V176.3H41.1A13.56,13.56,0,0,1,38.2,175.7Z" transform="translate(-22.1 -18.3)"/><path class="cls-6" d="M177.6,100.4c0.2,35.6-29.6,67.4-69.1,65.1a64.71,64.71,0,0,1-61-65.6C47.7,62.4,77.7,34.2,114.1,35S177.7,65.4,177.6,100.4Zm-126.2-.2c0,34,27.5,61.7,61.2,61.6A61.45,61.45,0,1,0,51.4,100.2Z" transform="translate(-22.1 -18.3)"/><path class="cls-7" d="M51.8,100.2A61.25,61.25,0,1,1,113,161.8C79.3,162,51.8,134.3,51.8,100.2Zm52.4,19.1c-0.3-7.5-3.9-13.1-9.5-17.5-6.1-4.8-13.3-7-20.9-8-4.2-.5-4.9,0-3.9,4.1C73,111,90,121.7,104.2,119.3Zm8.7,3.4h0c0-3.5.2-7-.1-10.5a2.65,2.65,0,0,0-1-1.5,1.45,1.45,0,0,0-2.1,0,2.57,2.57,0,0,0-1,1.6q-0.3,10.35,0,20.7a1.42,1.42,0,0,0,.2.6,2.15,2.15,0,0,0,3.7,0,1.42,1.42,0,0,0,.2-0.6C113.1,129.5,112.9,126.1,112.9,122.7Z" transform="translate(-22.1 -18.3)"/><path class="cls-6" d="M106.3,119.3C92.1,121.7,75.1,111,72,98c-0.4-1.8-.8-4.3-0.8-4.3a31.85,31.85,0,0,1,4.7.2c7.6,1,14.8,3.1,20.9,8C102.3,106.2,106,111.7,106.3,119.3Z" transform="translate(-22.1 -18.3)"/><path class="cls-6" d="M112.6,106.4c-11.5-8.6-15.5-28.3-8.3-39.5,1-1.5,2.5-3.5,2.5-3.5a29.57,29.57,0,0,1,3.1,3.5c4.6,6.2,8,12.8,8.7,20.6C119.3,94.5,117.8,101,112.6,106.4Z" transform="translate(-22.1 -18.3)"/><path class="cls-6" d="M155,89.7c-3.3,14-19.8,25.5-33,23.3-1.8-.3-4.2-0.9-4.2-0.9a31.7,31.7,0,0,1,2-4.3c3.9-6.7,8.6-12.4,15.5-16.2C141.4,88.2,147.9,87,155,89.7Z" transform="translate(-22.1 -18.3)"/><path class="cls-6" d="M115,122.7c0,3.4.1,6.8-.1,10.2a1.42,1.42,0,0,1-.2.6,2.08,2.08,0,0,1-3.7,0,1.42,1.42,0,0,1-.2-0.6q-0.3-10.35,0-20.7a1.42,1.42,0,0,1,.2-0.6,2.15,2.15,0,0,1,3.7,0,1.69,1.69,0,0,1,.2.5c0.3,3.6.1,7.1,0.1,10.6h0Z" transform="translate(-22.1 -18.3)"/><rect id="rect4337" class="cls-8" x="496.4" y="106.8" width="27.6" height="27.6"/><rect id="rect4339" class="cls-6" x="499.4" y="109.9" width="21.6" height="21.4"/><circle id="path4341" class="cls-7" cx="510.2" cy="120.6" r="8.3"/><path id="path4473" class="cls-9" d="M186.18,228.59c-0.42-1.25-1-2-1.84-2.17a3.4,3.4,0,0,0-2.25.58,19.54,19.54,0,0,0-.42-2.5,1.23,1.23,0,0,0,.08-1.08c-1.08-3.67-16.6-9.68-18.36-10.35-0.75-.33-18.86-7.18-21.94-7.34h-0.08c-1.92,0-16.52,3.84-30.12,7.59-6.42,1.75-27.45,7.68-28.2,8.59a5.8,5.8,0,0,0-.92,2.17,3.48,3.48,0,0,1-.17.5,3.13,3.13,0,0,0-.92-0.08c-2.34,0-7.84,2.09-9.26,6.34a9,9,0,0,0-.33,3.25,28.45,28.45,0,0,0-.42,2.84,11.54,11.54,0,0,0,.33,5.34v0.08c-2-1.08-4.51-2-6.26-1.59a3.07,3.07,0,0,0-2.25,2.34,5,5,0,0,0,2.42,5.59,8.53,8.53,0,0,0,6.17,1.08c0,2.34.17,6.34,1.17,7.51a42,42,0,0,0,29,14.94,45,45,0,0,0,4.67.25c8,0,14.43-1.92,16-3.17a1.47,1.47,0,0,0,.42-0.33h0.08a12.34,12.34,0,0,1,1.84-.08c2.42-.08,5.42-0.25,7-1.67,1.5-1.25,1-4.59.67-5.92a3.91,3.91,0,0,0,2.25-1.17c1-1,1-2.34,0-3.75a3.53,3.53,0,0,0-3.42-1.59H131c-0.08-1.59-1.25-5-2.09-5.17a19.34,19.34,0,0,1-4.09-1.42v-0.25a11.2,11.2,0,0,1-.33-2.92c0.58-1,2.84-1.92,3.67-2a0.37,0.37,0,0,0,.33-0.42,2.51,2.51,0,0,1,1.67-2.67h0.08a1.68,1.68,0,0,1,.92,0,1.66,1.66,0,0,0,1.17-.17,1.49,1.49,0,0,0,.33-1.5,1.5,1.5,0,0,1-.08-0.83,3.65,3.65,0,0,1,2.67-2.17c2-.5,4.42-0.08,5.59,1a0.5,0.5,0,0,0,.33.08,0.27,0.27,0,0,0,.25-0.25,3.36,3.36,0,0,1,2.75-2.09,1.66,1.66,0,0,1,1.84.83,0.44,0.44,0,0,0,.25.17,0.5,0.5,0,0,0,.33-0.08,3.73,3.73,0,0,1,3.42-1,2.14,2.14,0,0,1,1.33,1.84,0.28,0.28,0,0,0,.17.25,0.25,0.25,0,0,0,.33,0,3.82,3.82,0,0,1,3,.25,2,2,0,0,1,1.17,1.42,0.22,0.22,0,0,0,.25.25,0.27,0.27,0,0,0,.33-0.08,1.86,1.86,0,0,1,2.42,0,2.1,2.1,0,0,1,.25,2.67,0.25,0.25,0,0,0,0,.33l0.25,0.25a5.13,5.13,0,0,0,1.17.08c0.92,0.08,2,.08,2.42.58a1.29,1.29,0,0,1,.17,1,0.5,0.5,0,0,0,.08.33,0.43,0.43,0,0,0,.33.17,8,8,0,0,1,6.67,3.25,1.75,1.75,0,0,0,.33.5c0.5,0.5,2.09-.83,2.84-1.17,0.42-.17.83-0.33,1.33-0.58a43.7,43.7,0,0,1,5.09-2.84,4.07,4.07,0,0,0,.58-0.25c1.42-.58,2.09-0.83,2.34-2.92a30.36,30.36,0,0,0-.25-6.67,0.29,0.29,0,0,0-.08-0.17,4.41,4.41,0,0,0,2.84-.83c0.67-.33,1.34-1.33.75-3h0ZM72.13,241.85c-0.75-1.5-.42-3.42-0.33-5.17,0-.5.08-1.08,0.08-1.59,1.25,3.92,5.26,8.51,11.93,13.68,3,2.25,15.94,8.68,29.2,8.68a33.81,33.81,0,0,0,8.84-1.08,3.77,3.77,0,0,0,2-1.25,9.54,9.54,0,0,1,.25,4.26v0.08c-0.08.08,0.25,0.25,0.17,0.33a5.3,5.3,0,0,0-.33,2.17A8.37,8.37,0,0,0,121,263.3a8,8,0,0,1-2.84,1.33c-1,.25-4.34,1-6.17,0h-0.25V264a5.4,5.4,0,0,0-4.76-4.59,4,4,0,0,0-2.75,1.5c-0.58.5-1.08,1-1.5,0.83a0.5,0.5,0,0,0-.33.08,4.32,4.32,0,0,0-3.25-.67,1.55,1.55,0,0,0-1.08,1.17c-4.51-.75-7.68-2.34-12.18-4.76a0.17,0.17,0,0,1-.17-0.08v-0.08a2.47,2.47,0,0,0,.17-2.17c-0.58-1.42-2.42-2.42-3.67-2.84a1.83,1.83,0,0,0-.17-1.84,2.54,2.54,0,0,0-2.34-.92,1.41,1.41,0,0,0-.83.25,2.2,2.2,0,0,0-.58-1.59,1.76,1.76,0,0,0-1.67-.58,4,4,0,0,0-.58-1.92,3.12,3.12,0,0,0-1.67-1l0.08-.08a0.81,0.81,0,0,0-.08-0.75l0.08,0.17A9.46,9.46,0,0,1,72.13,241.85Zm49.64,26.78c-1.42,1.17-9.68,3.75-20.11,2.75a41.35,41.35,0,0,1-28.45-14.6c-0.58-.75-1-3.42-1-7.09v-0.08a1.89,1.89,0,0,1,.33-0.08,1.92,1.92,0,0,0,1.92,2.25h0A4.55,4.55,0,0,0,76,255.2c1.25,1.17,2.92,1.67,3.75,1.25,0.08-.08.17-0.08,0.25-0.17a6,6,0,0,0,3.67,2.59h0.17a2.17,2.17,0,0,0,1.5-.67,0.44,0.44,0,0,0,.17.25c4.67,2.5,7.84,4.09,12.6,4.84a2.51,2.51,0,0,0,1.67,1.5,2.54,2.54,0,0,0,1.92,0,2.75,2.75,0,0,0,1,1.67,7.22,7.22,0,0,0,4.59,1.5,6.1,6.1,0,0,0,2.5-.5,3.28,3.28,0,0,0,1.75-2,6.4,6.4,0,0,0,2.84.58,13.75,13.75,0,0,0,3.84-.58,8.48,8.48,0,0,0,3-1.5,7,7,0,0,1,2.5-1.25,0.29,0.29,0,0,0,.17-0.08C124.19,265.63,124,266.8,121.77,268.64Zm9.68-7.34c0.42,1.67.75,4.34-.33,5.26-1.42,1.17-4.26,1.33-6.51,1.42a4.06,4.06,0,0,0-1,.08c1.25-1.42,1.42-2.75,1.33-5.09a1.68,1.68,0,0,0,.92.25,2.44,2.44,0,0,0,.75-0.17,3.15,3.15,0,0,0,1.92-2.34A4.87,4.87,0,0,0,131.45,261.29Zm-3.25-10.93a10.54,10.54,0,0,1,2.09,4.59,5.61,5.61,0,0,0-3.25,2.75,1.35,1.35,0,0,0-1.08-.17,3.38,3.38,0,0,0-.75.42,6.22,6.22,0,0,0-.42-3.34c-0.08-.25.25-3.67,0-4.51l3.42,0.25h0Zm-2.34-.92-1.67-.08a0.43,0.43,0,0,0-.33.17,0.5,0.5,0,0,0-.08.33s0.83,2.59-.17,4.34a3.11,3.11,0,0,1-1.92,1.42,36.38,36.38,0,0,1-8.68,1c-13,0-25.78-6.34-28.7-8.51-11.68-9-12.68-14.6-11.51-17.69s5.92-4.84,8.34-5.26c0.58-.08.83,0.08,0.83,0.17a0.37,0.37,0,0,0,.42,0,2.21,2.21,0,0,0,.58-1.17,3.92,3.92,0,0,1,.75-1.42c2.09-1.5,52.57-15.77,56.07-15.77l2.25-.17c3,0,20.94,7.26,21.11,7.34,4.67,1.84,17,6.93,17.86,9.68h0a0.56,0.56,0,0,1-.25.5c-1.25,1.25-10.6,6.34-12.77,6.34h-0.08a3.1,3.1,0,0,0-3.42-2.09h-0.58c0.08-.42.17-2.34-0.83-2.92A6.06,6.06,0,0,0,160,225a5.52,5.52,0,0,0-1.25.08c-0.17-.67-0.67-2.25-1.92-2.67a5.23,5.23,0,0,0-1.33-.17,20.89,20.89,0,0,0-3.34.42c-0.5-.5-2.25-2.09-3.75-2a9.89,9.89,0,0,0-3.59,1.25,8.23,8.23,0,0,0-4.26-1.59,2.57,2.57,0,0,0-.83.08,17.43,17.43,0,0,0-4.92,2.59,9.27,9.27,0,0,0-2.92-.58,3.94,3.94,0,0,0-2.67.83,5.14,5.14,0,0,0-2.17,3.59c-0.67-.08-1.84.08-3.84,1.67a3.59,3.59,0,0,0-1.17,4.42,1.09,1.09,0,0,1,.08,1,8.26,8.26,0,0,0-2.17,2.42c-0.92,1.75.33,4,1.08,5.42l0.42,0.83a5,5,0,0,0,1.17,4.92,9.31,9.31,0,0,0,3.25,1.92h0Zm-4.09-7.93c-0.67-1.25-1.84-3.34-1.08-4.67a9,9,0,0,1,1.92-2.17c0.5-.42.33-1.08,0.17-1.84a3,3,0,0,1,.92-3.75c1.67-1.33,2.67-1.59,3.09-1.59h0c-0.08,1.25-.08,2.42-0.08,3.67a0.83,0.83,0,0,1-.33.92,7.1,7.1,0,0,0-3.67,4,3.46,3.46,0,0,0,.25,3.34,9.79,9.79,0,0,1,.42.92,13.7,13.7,0,0,1,.33,3.75v0.75a1.23,1.23,0,0,0,0,1.08,5.38,5.38,0,0,0,.25,1.67,4.58,4.58,0,0,1-.75-0.58,4.12,4.12,0,0,1-1-4.09C122.44,242.69,122.19,242.35,121.77,241.52Zm6-14.18a4.77,4.77,0,0,1,1.92-3.42,3.72,3.72,0,0,1,2.17-.67,9.26,9.26,0,0,1,2.84.58,0.38,0.38,0,0,0,.42,0,19.75,19.75,0,0,1,4.84-2.59,1.63,1.63,0,0,1,.67-0.08,7.63,7.63,0,0,1,3.92,1.59,0.46,0.46,0,0,0-.25.42,10.25,10.25,0,0,1,.17,2.25v0.08a8.1,8.1,0,0,0-5,.75,8.6,8.6,0,0,1-3.84.83h-0.5a7.78,7.78,0,0,0-4.09.75,11.86,11.86,0,0,0-2.09,2c-0.42.5-1.42,1-1.42,1.42h0c0-1.25,0-2.34.08-3.42a0.46,0.46,0,0,0,.25-0.42c-0.08.08-.08,0-0.08-0.08h0Zm37,15.35-0.42-.08a1.87,1.87,0,0,0-.5-1.17c-0.58-.67-2.5-0.75-2.5-0.92,0.08-.5.08-1.17,0.17-1.59s0.08-.83.08-1.25a0.38,0.38,0,0,0-.75-0.08c-0.08.5-.08,0.92-0.17,1.33v1.59c0,0.17-.33.08-0.5,0.08a2.71,2.71,0,0,0-.67-3.09,2.5,2.5,0,0,0-3-.33,2.93,2.93,0,0,0-1.42-1.42,4.81,4.81,0,0,0-3-.5,21.86,21.86,0,0,1,.08-2.34,0.38,0.38,0,1,0-.75-0.08,8.58,8.58,0,0,0-.08,1.42,2.73,2.73,0,0,0-1.25-.92,4.23,4.23,0,0,0-3.84.92,2.32,2.32,0,0,0-2.34-.83,4.73,4.73,0,0,0-3.09,1.84c-0.08-.5-0.25-1.08-0.33-1.5,0.08,0,.17,0,0.17-0.08a0.4,0.4,0,0,0,0-.58,0.64,0.64,0,0,0-.75-0.25c-0.42.25-.25,1.33,0,2.17a7.84,7.84,0,0,0-5.17-.42,4.56,4.56,0,0,0-2.34,1.33,1.67,1.67,0,0,1-.17-0.75,0.42,0.42,0,1,0-.83,0,1.76,1.76,0,0,0,.33,1.17,0.18,0.18,0,0,0,.17.17,2.5,2.5,0,0,0-.33.67,2.13,2.13,0,0,0,0,1.25,1,1,0,0,1,0,.75H131a3.07,3.07,0,0,0-1.25.08,3.19,3.19,0,0,0-2.17,3.17,8.39,8.39,0,0,0-3.17,1.5,11.55,11.55,0,0,0-.42-3.75c1.17-.75,3.5-4.17,3.59-4.34,1.08-1.75,1.59-1.92,3.09-2.25,0.25-.08.5-0.08,0.75-0.17a5.07,5.07,0,0,0,2.67-1.42,5.38,5.38,0,0,1,1.33-.92h0c1.08-.75,2.84-0.67,4.59-0.58a16.28,16.28,0,0,0,3.5-.08,12.24,12.24,0,0,1,6.17.58,16.82,16.82,0,0,0,2.42.67,8.81,8.81,0,0,0,2.09.17,5.09,5.09,0,0,1,2.75.5h0a5.12,5.12,0,0,1,1.92,2.09,6,6,0,0,0,2.17,2.42,3.57,3.57,0,0,0,1.08.42,4.07,4.07,0,0,1,1.08.5,2.25,2.25,0,0,1,.58.67,3,3,0,0,0,1.59,1.17,8.17,8.17,0,0,0,4.76.17c0,1.75.08,3.5,0.17,5.26,0,0.08-.17.17-0.17,0.25A11.75,11.75,0,0,0,164.82,242.69Zm4.42-7.34a8.87,8.87,0,0,0-2.59.08,2.31,2.31,0,0,1-.75.08,2.64,2.64,0,0,1-1.33-.33,0.75,0.75,0,0,1-.42-0.5,0.71,0.71,0,0,0-.25-0.42h0a0.43,0.43,0,0,0-.33-0.17c0-.58,0-1.42-0.08-2.25a16.76,16.76,0,0,1-.08-2,0.42,0.42,0,1,0-.83,0c0,0.58.08,1.33,0.08,2.09a16.1,16.1,0,0,1,.08,1.92,5.31,5.31,0,0,0-.58-0.17,11.5,11.5,0,0,1-1.33-.5,2.16,2.16,0,0,1-.58-0.92,5,5,0,0,0-.92-1.42c-3.17-2.84-6.67-3.5-10.43-4.17-1.25-.25-2.59-0.5-3.84-0.83a0.31,0.31,0,0,0,.08-0.25,12.22,12.22,0,0,0-.17-2.42,0.44,0.44,0,0,0-.17-0.25h0.08a12.48,12.48,0,0,1,3.5-1.33c1.17-.08,2.75,1.33,3.25,1.92,0,0.08.08,0.08,0.17,0.08a25.11,25.11,0,0,0-.08,2.59,0.42,0.42,0,1,0,.83,0,24.26,24.26,0,0,1,.08-2.5V223.5a13.23,13.23,0,0,1,2.84-.33,3.27,3.27,0,0,1,1.08.17c0.92,0.33,1.42,1.84,1.5,2.42a0.45,0.45,0,0,0,.42.33A13.5,13.5,0,0,1,160,226a5.62,5.62,0,0,1,2.67.5,2.8,2.8,0,0,1,.5,2.09,0.89,0.89,0,0,0,.08.67,1.33,1.33,0,0,0,1.17.33c1,0,2.17,0,2.75,1.67a0.74,0.74,0,0,0,.75.42c1.92,0,10.6-4.34,13-6.34a19.67,19.67,0,0,1,.33,2.34,20.65,20.65,0,0,0-2.34,2.42,0.17,0.17,0,0,0-.08.17,3.79,3.79,0,0,0-4.84.5,2.13,2.13,0,0,0-.75,1.84h-0.17a5.92,5.92,0,0,0-3.84,2.75h0Zm12.93,4c-0.17,1.59-.58,1.75-1.84,2.25-0.17.08-.42,0.17-0.58,0.25a38.77,38.77,0,0,0-5.17,2.84c-0.42.17-.75,0.33-1.25,0.5a10.55,10.55,0,0,0-2.17,1.08c0-.42-0.08-0.83-0.08-1.25-0.08-1.84-.17-3.75-0.17-5.59,0.08,0,.08-0.08.17-0.08l0.08-.08c0.17,0,.33.08,0.58,0.08a4.88,4.88,0,0,0,1.08-.17,4.83,4.83,0,0,0,3-3.34l0.5,0.25a3.44,3.44,0,0,0,3.5-.92,2.89,2.89,0,0,0,.58-2.84,8.86,8.86,0,0,0,1.59.33,0.4,0.4,0,0,0-.08.33,27.27,27.27,0,0,1,.25,6.34h0Z" transform="translate(-22.1 -18.3)"/><path id="path4475" class="cls-9" d="M135.87,226.33a0.38,0.38,0,0,0,.42.33h0.08a0.37,0.37,0,0,0,.33-0.42l-0.08-.25a8.22,8.22,0,0,1-.17-1.42,0.42,0.42,0,0,0-.83,0,4.86,4.86,0,0,0,.25,1.59C135.79,226,135.87,226.33,135.87,226.33Z" transform="translate(-22.1 -18.3)"/><path id="path4477" class="cls-9" d="M111,246.86l-0.17.17h0a0.38,0.38,0,0,0-.42-0.33,0.55,0.55,0,0,0-.42.33c0,0.08-.17.5,1.08,1.33a0.42,0.42,0,0,0,.5,0,0.38,0.38,0,0,0,.08-0.5A2.33,2.33,0,0,0,111,246.86Z" transform="translate(-22.1 -18.3)"/><path id="path4479" class="cls-9" d="M112.51,244.77l-0.17-.17a0.37,0.37,0,1,0-.67.33,0.69,0.69,0,0,0,.42.42l0.17,0.17a0.42,0.42,0,0,0,.5,0,0.4,0.4,0,0,0,0-.58A0.44,0.44,0,0,1,112.51,244.77Z" transform="translate(-22.1 -18.3)"/><path id="path4481" class="cls-9" d="M116.35,245.11a0.87,0.87,0,0,0-.42.5,1.42,1.42,0,0,0,.08.58,0.35,0.35,0,0,0,.33.25h0.17a0.4,0.4,0,0,0,.17-0.5h0a0.4,0.4,0,0,0,.17-0.5C116.76,245,116.51,244.94,116.35,245.11Z" transform="translate(-22.1 -18.3)"/><path id="path4483" class="cls-9" d="M102.91,235.6a0.85,0.85,0,0,0-.33.83,0.42,0.42,0,0,0,.83,0,0.63,0.63,0,0,0,.33-0.17,0.38,0.38,0,0,0-.08-0.5A0.72,0.72,0,0,0,102.91,235.6Z" transform="translate(-22.1 -18.3)"/><path id="path4485" class="cls-9" d="M100,240.18a0.37,0.37,0,1,0-.67.33,4.47,4.47,0,0,0,.58,1,0.42,0.42,0,0,0,.5,0,0.4,0.4,0,0,0,0-.58A1.24,1.24,0,0,1,100,240.18Z" transform="translate(-22.1 -18.3)"/><path id="path4487" class="cls-9" d="M107.5,225.58a0.42,0.42,0,1,0-.83,0,0.84,0.84,0,0,0,.25.67,0.42,0.42,0,0,0,.5,0,0.4,0.4,0,0,0,0-.58A0.08,0.08,0,0,0,107.5,225.58Z" transform="translate(-22.1 -18.3)"/><path id="path4489" class="cls-9" d="M93.32,224.16l-0.25.25a0.4,0.4,0,0,0,0,.58,0.42,0.42,0,0,0,.5,0l0.25-.25a0.4,0.4,0,0,0,0-.58A0.31,0.31,0,0,0,93.32,224.16Z" transform="translate(-22.1 -18.3)"/><path id="path4491" class="cls-9" d="M93.82,222a0.42,0.42,0,1,0,0,.83,1,1,0,0,1,.67.42,0.42,0.42,0,0,0,.5,0,0.4,0.4,0,0,0,0-.58A1.4,1.4,0,0,0,93.82,222Z" transform="translate(-22.1 -18.3)"/><path id="path4493" class="cls-9" d="M92.15,223.83H91.73a0.42,0.42,0,0,0,0,.83h0.42a0.39,0.39,0,0,0,.42-0.42A0.45,0.45,0,0,0,92.15,223.83Z" transform="translate(-22.1 -18.3)"/><path id="path4495" class="cls-9" d="M84.06,231a1.11,1.11,0,0,0-.75,1.17,0.42,0.42,0,1,0,.83,0,0.39,0.39,0,0,1,.25-0.42,0.41,0.41,0,0,0,.25-0.5A0.62,0.62,0,0,0,84.06,231Z" transform="translate(-22.1 -18.3)"/><path id="path4497" class="cls-9" d="M79.13,232.51a1.16,1.16,0,0,0-1,.58,0.4,0.4,0,0,0,.17.5h0.17a0.35,0.35,0,0,0,.33-0.25,0.33,0.33,0,0,1,.33-0.17,0.39,0.39,0,0,0,.42-0.42A0.41,0.41,0,0,0,79.13,232.51Z" transform="translate(-22.1 -18.3)"/><path id="path4499" class="cls-9" d="M80.22,227.59a0.4,0.4,0,0,0-.5.17,2,2,0,0,0-.17.92,0.42,0.42,0,1,0,.83,0,1.24,1.24,0,0,1,.08-0.58A0.59,0.59,0,0,0,80.22,227.59Z" transform="translate(-22.1 -18.3)"/><path id="path4501" class="cls-9" d="M89.81,240.94a0.39,0.39,0,0,0-.08-0.5,0.4,0.4,0,0,0-.58,0c-0.42.33,0,1,.25,1.42a0.43,0.43,0,0,0,.33.17,0.31,0.31,0,0,0,.25-0.08,0.31,0.31,0,0,0,.08-0.5A0.92,0.92,0,0,1,89.81,240.94Z" transform="translate(-22.1 -18.3)"/><path id="path4503" class="cls-9" d="M93.32,233.43a0.4,0.4,0,1,0-.75.25,4.86,4.86,0,0,0,.42.92,0.35,0.35,0,0,0,.33.25h0.17a0.4,0.4,0,0,0,.17-0.5C93.57,234,93.4,233.84,93.32,233.43Z" transform="translate(-22.1 -18.3)"/><path id="path4505" class="cls-9" d="M119.85,232.09a1,1,0,0,1-.5-0.5,0.37,0.37,0,1,0-.67.33,2,2,0,0,0,.83.83h0.17a0.35,0.35,0,0,0,.33-0.25C120.19,232.43,120.1,232.17,119.85,232.09Z" transform="translate(-22.1 -18.3)"/><path id="path4507" class="cls-9" d="M131,215.9a0.31,0.31,0,0,0,.25-0.08,0.31,0.31,0,0,0,0-.5,0.41,0.41,0,1,0-.58-0.58,0.88,0.88,0,0,0,0,1.08A0.63,0.63,0,0,0,131,215.9Z" transform="translate(-22.1 -18.3)"/><path id="path4509" class="cls-9" d="M130.95,218.32a0.4,0.4,0,0,0,0,.58,3.48,3.48,0,0,0,.67.5c0.08,0.08.17,0.08,0.25,0.17a0.31,0.31,0,0,0,.25.08,0.63,0.63,0,0,0,.33-0.17,0.38,0.38,0,0,0-.08-0.5,0.44,0.44,0,0,0-.25-0.17H132a0.38,0.38,0,0,0-.42-0.33h-0.08C131.28,218.16,131,218.16,130.95,218.32Z" transform="translate(-22.1 -18.3)"/><path id="path4511" class="cls-9" d="M138,210.31a0.43,0.43,0,0,0,.33.17h0.08a0.41,0.41,0,0,0,.25-0.5,0.69,0.69,0,0,0-.75-0.58,0.5,0.5,0,0,0-.42.58A0.37,0.37,0,0,0,138,210.31Z" transform="translate(-22.1 -18.3)"/><path id="path4513" class="cls-9" d="M155,217.16l0.75,0.42h0.17a0.35,0.35,0,0,0,.33-0.25,0.4,0.4,0,0,0-.17-0.5l-0.75-.33A0.37,0.37,0,1,0,155,217.16Z" transform="translate(-22.1 -18.3)"/><path id="path4515" class="cls-9" d="M155.06,220.66a0.36,0.36,0,0,1,.25.25,0.35,0.35,0,0,0,.33.25h0.17a0.4,0.4,0,0,0,.17-0.5,1,1,0,0,0-.5-0.5l-0.25-.25a0.41,0.41,0,1,0-.58.58A1.41,1.41,0,0,0,155.06,220.66Z" transform="translate(-22.1 -18.3)"/><path id="path4517" class="cls-9" d="M163.16,223.91a0.31,0.31,0,0,0,.25-0.08,1.11,1.11,0,0,0,.25-0.42c0-.08.08-0.17,0.08-0.25a0.37,0.37,0,1,0-.67-0.33,0.31,0.31,0,0,0-.08.25c0,0.08-.08.08-0.08,0.17a0.4,0.4,0,0,0,0,.58A0.84,0.84,0,0,0,163.16,223.91Z" transform="translate(-22.1 -18.3)"/><rect class="cls-5" x="39.9" y="462.7" width="504.2" height="60.5"/><g class="cls-10"><text class="cls-11" transform="translate(37.37 479.77)">ದಯವಿಟ್ಟು ಆಹಾರದ ಜೆೊತೆ ಪ್ಾಾಸಿುಕ್ ಕವರ್ ಹಾಕಬೆೇಡಿ. </text><text class="cls-11" transform="translate(37.37 501.37)">ಕೆೇವಲ ಆಹಾರವನ್ಟು ಮಾತ್ರ ಹಾಕಿ ಹಾಗೊ ಕೆೊಳೆಯಾದ </text><text class="cls-11" transform="translate(37.37 522.97)">ಪ್ಾಾಸಿುಕ್ ಕವರ್ ಅನ್ಟು ಬೆೇರೆ ಬಿನ್ ಅಲ್ಲಾಹಾಕಿ.</text></g><rect class="cls-5" x="39.9" y="411" width="504.2" height="39.5"/><g class="cls-10"><text class="cls-12" transform="translate(37.37 426.55) scale(0.99 1)">Please do not dispose of food packaged in plastic c<tspan x="428.76" y="0">o</tspan><tspan x="439.48" y="0">vers. </tspan></text><text class="cls-12" transform="translate(37.37 448.15) scale(0.99 1)">Only place food in this bin.</text></g><path class="cls-9" d="M365.9,234.21h0Z" transform="translate(-22.1 -18.3)"/><path class="cls-9" d="M127.75,356h0a16.64,16.64,0,0,0,2.7-1.3c0.4-.3.8-0.5,1.2-0.8h0l0.6-.4c0.2-.2.4-0.3,0.6-0.5a8.32,8.32,0,0,0,1.7-2.6,12.13,12.13,0,0,0,.5-1.4h0l0.1-.4c0-.1.1-0.3,0.1-0.4a2.2,2.2,0,0,0,.1-0.8c0.1-.5.1-0.9,0.2-1.3a2.32,2.32,0,0,1,.4-1,0.53,0.53,0,0,1,.3-0.2h0.2a1.33,1.33,0,0,1,.7.3,6.09,6.09,0,0,1,1.2,2.1c0.1,0.3.2,0.5,0.3,0.8s0.1,0.3.1,0.5a1.27,1.27,0,0,1,.1.6l0.1,0.7a11.29,11.29,0,0,1,0,2.6h0a11.79,11.79,0,0,1-2.1,4.9,18,18,0,0,1-3.9,3.9,21.4,21.4,0,0,1-4.1,2.5c-0.9-1.9-1.7-3.8-2.5-5.7-0.2-.5-0.4-0.9-0.6-1.4a2.92,2.92,0,0,1,.9-0.2A2.7,2.7,0,0,1,127.75,356Zm-11.2,18.9a19.28,19.28,0,0,1-2.7,3c-0.5.4-1,.9-1.6,1.3a9.91,9.91,0,0,1-1.7,1.1,24.77,24.77,0,0,1-3.7,1.7,14.16,14.16,0,0,1-2.2.7,26.3,26.3,0,0,1-5.6,1,22.11,22.11,0,0,1-7.7-1.1,6.53,6.53,0,0,1-1.7-.8h0a15.26,15.26,0,0,1-1.6-1.1l-1.5-1.2a7.1,7.1,0,0,1-1.2-1.3,0.31,0.31,0,0,1-.1-0.2v-0.1h0v-0.1h0a0.6,0.6,0,0,1,.1-0.4,1.38,1.38,0,0,1,.4-0.3h0.5a17.71,17.71,0,0,1,1.7.6c0.6,0.3,1.2.6,1.9,0.9a4.18,4.18,0,0,0,1,.4c0.2,0.1.4,0.1,0.6,0.2a0.37,0.37,0,0,1,.3.1h2.5a13.86,13.86,0,0,0,4-.6c0.1,0,.2-0.1.3-0.1a17.33,17.33,0,0,0,3.9-1.8c1.2-.8,2.3-1.6,3.4-2.5l0.2-.2h0l0.2-.2h0l0.4-.4a3.59,3.59,0,0,0,.7-1,11.33,11.33,0,0,0,.9-2,21,21,0,0,0,.9-4.2l0.3-2.1a16.15,16.15,0,0,0,0-2.2,19.5,19.5,0,0,0-.8-4.2v-0.2c-0.3-1-.6-1.9-0.8-2.8-0.1-.3-0.2-0.7-0.3-1h0c-0.4-1.3-.7-2.6-1-3.9s-0.5-2.6-.7-4-0.2-2.7-.3-4v-4a6.28,6.28,0,0,1,.3-1.9h0c0.1-.3.2-0.6,0.3-1s0.2-.7.3-1.1a8.33,8.33,0,0,0,.3-2.2,15,15,0,0,0-.2-2.2c-0.1-.2-0.1-0.5-0.2-0.7a7.84,7.84,0,0,0-.5-1.4h0l-0.2-.5a1.69,1.69,0,0,1-.2-0.5c-0.2-.3-0.3-0.6-0.5-0.9-0.3-.5-0.5-1.1-0.7-1.5v-0.4h0v-0.3a0.68,0.68,0,0,1,.3-0.5,2.18,2.18,0,0,1,.8-0.5c0.1,0,.3-0.1.4-0.1a0.75,0.75,0,0,1,.5.1c0.1,0,.1.1,0.2,0.1l0.1,0.1h0l0.1,0.1a11.64,11.64,0,0,1,.6,1.5l0.3,1.2c0.1,0.3.2,0.6,0.3,1a16.67,16.67,0,0,0,.8,2,8,8,0,0,0,1.3,1.9,6.47,6.47,0,0,0,.9.8c0.3,0.2.5,0.4,0.8,0.6a17.38,17.38,0,0,1,1.5,1.3,14.25,14.25,0,0,1,2.5,3,43.24,43.24,0,0,1,3.4,7.2c1.9,5.1,3.5,10.3,5.6,15.5,1.1,2.5,2.1,5.1,3.5,7.6,0.7,1.2,1.5,2.4,2.3,3.5h0a11.5,11.5,0,0,0,3.3,2.9,17.62,17.62,0,0,0,3.9,1.9,11.33,11.33,0,0,0,4.5.4h0c0.3-.1.6-0.1,1-0.2s0.8-.3,1.2-0.4a4.67,4.67,0,0,0,1-.5l0.9-.6c1.2-.8,2.2-1.7,3.3-2.3l0.6-.3v0.1a4.12,4.12,0,0,1-.3.8,5.94,5.94,0,0,1-.4.8,0.77,0.77,0,0,1-.2.3l-0.3.3c-0.4.4-.9,0.8-1.4,1.3a24.67,24.67,0,0,1-6.7,4.1c-0.3.1-.5,0.2-0.8,0.3a15.67,15.67,0,0,1-3,.5,25.41,25.41,0,0,1-3.9-.1,21.81,21.81,0,0,1-7.5-2.3,18.52,18.52,0,0,1-3.3-2.1,12.11,12.11,0,0,1-2.5-3,44.83,44.83,0,0,1-3.8-7.2c-1.1-2.5-2-5.1-2.9-7.6-0.3-.8-0.5-1.6-0.7-2.3a9.36,9.36,0,0,1-.4-1.6l-1-4-0.4.1,0.8,4h0c0.3,1.3.6,2.7,1,4a0.2,0.2,0,0,0,.1.2,68.07,68.07,0,0,0,2.6,7.6,45.55,45.55,0,0,0,3,6.3h0A10.9,10.9,0,0,1,116.55,374.9Zm35.2-5.3a1.21,1.21,0,0,0-.5-0.5,0.31,0.31,0,0,0-.2-0.1c-0.1,0-.2-0.1-0.3-0.1h0a2.7,2.7,0,0,0-.9,0h-0.2a2.57,2.57,0,0,0-.5.2h0c-0.1.1-.3,0.1-0.4,0.2h0c-0.8.5-1.5,1-2.2,1.5l-1.2.9h0c-0.2.1-.4,0.3-0.6,0.4a7.22,7.22,0,0,1-2,.9c-0.2.1-.5,0.1-0.8,0.2a7.39,7.39,0,0,1-3.6-.3,15.76,15.76,0,0,1-3.5-1.6,13.52,13.52,0,0,1-2.8-2.5,27,27,0,0,1-2.2-3.3h0c-0.2-.4-0.4-0.7-0.6-1.1l0.9-.3a0.2,0.2,0,0,0,.2-0.1c0.3-.1.7-0.3,1-0.4,0.1,0,.1-0.1.2-0.1,0.3-.2.7-0.3,1-0.5,0.1,0,.1-0.1.2-0.1,0.3-.2.7-0.4,1-0.6s0.5-.3.8-0.5a20.47,20.47,0,0,0,3.5-3l0.3-.3h0a1.38,1.38,0,0,0,.3-0.4c0.3-.5.7-0.9,1-1.4,0.1-.3.3-0.5,0.4-0.8s0.2-.5.3-0.7h0a15.46,15.46,0,0,0,.7-2.3,10.73,10.73,0,0,0,0-3.1h0l-0.1-.7c0-.3-0.1-0.5-0.1-0.8s-0.1-.5-0.2-0.7a2.54,2.54,0,0,1-.2-0.7h0a6.11,6.11,0,0,0-.7-1.4,12.13,12.13,0,0,0-1-1.4,4.13,4.13,0,0,0-1.1-.7,1.27,1.27,0,0,0-.6-0.1h-0.4a1.27,1.27,0,0,0-.6.1c-0.1,0-.2.1-0.3,0.1h0a2.18,2.18,0,0,0-.9.7,4.72,4.72,0,0,0-.7,1.7h0c-0.1.4-.1,0.8-0.2,1.1v1a0.37,0.37,0,0,1-.1.3l-0.1.3a6.47,6.47,0,0,1-.4,1.3,7.57,7.57,0,0,1-.9,1.8,1.76,1.76,0,0,1-.4.5,0.1,0.1,0,0,1-.1.1l-0.3.3-0.5.5c-0.4.3-.7,0.6-1.1,0.9-0.1.1-.3,0.2-0.4,0.3-0.6.4-1.3,0.8-2,1.2h-0.1c-0.3.1-.5,0.3-0.8,0.4s-0.6.3-.9,0.4a6.9,6.9,0,0,0-.4-1,1.42,1.42,0,0,1-.2-0.6c-0.1-.4-0.3-0.8-0.4-1.2-0.1-.2-0.1-0.4-0.2-0.6-0.2-.4-0.3-0.9-0.5-1.3,0-.1-0.1-0.3-0.1-0.4-0.5-1.3-.9-2.7-1.4-4-0.1-.2-0.1-0.4-0.2-0.6-0.1-.4-0.3-0.8-0.4-1.2a1.45,1.45,0,0,1-.2-0.7c-0.2-.5-0.4-1.1-0.6-1.6,0-.1-0.1-0.1-0.1-0.2a41.66,41.66,0,0,0-2.9-6.5,6.73,6.73,0,0,0-.7-1.1c-0.3-.5-0.7-0.9-1-1.4a10.71,10.71,0,0,0-1.8-1.9,20,20,0,0,0-1.6-1.4,5.55,5.55,0,0,1-.8-0.6l-0.6-.6a8,8,0,0,1-1.7-3.3l-0.2-.5c0-.1-0.1-0.3-0.1-0.4v-0.1l-0.3-1h0V324a10.4,10.4,0,0,0-.8-2h0l-0.1-.1h0l-0.1-.1h0l-0.1-.1h0a0.53,0.53,0,0,1-.2-0.3h0c-0.2-.2-0.4-0.3-0.6-0.5a3.93,3.93,0,0,0-1.4-.3c-0.3,0-.6.1-0.9,0.1a5.07,5.07,0,0,0-1.6.9,2.73,2.73,0,0,0-.7,1.3h0c0,0.1-.1.3-0.1,0.4v0.4h0v0.1h0V324h0a0.37,0.37,0,0,0,.1.3,0.2,0.2,0,0,0,.1.2,10.84,10.84,0,0,0,.8,1.9h0c0.2,0.3.3,0.6,0.5,0.9,0.1,0.1.1,0.3,0.2,0.4l0.2,0.5a5.64,5.64,0,0,1,.4,1.2c0.1,0.2.1,0.4,0.2,0.6a9.22,9.22,0,0,1,0,3.7,2.92,2.92,0,0,0-.2.9c-0.1.3-.2,0.6-0.3,1a8.33,8.33,0,0,0-.3,2.2,14.77,14.77,0,0,0-.1,2.1V342h0a29.66,29.66,0,0,0,.3,4.2c0.2,1.4.4,2.8,0.7,4.1s0.6,2.7,1,4c0.1,0.3.2,0.7,0.3,1h0a0.2,0.2,0,0,0,.1.2c0.3,0.9.5,1.8,0.8,2.6v0.2a17.78,17.78,0,0,1,.7,3.9v1.9a16.2,16.2,0,0,1-.3,2,23.27,23.27,0,0,1-.8,3.8,7.56,7.56,0,0,1-1.1,2.2,3,3,0,0,1-.8.8,18.16,18.16,0,0,1-6.7,3.9c-0.1,0-.2.1-0.3,0.1a13.45,13.45,0,0,1-3.5.5h-2a4.11,4.11,0,0,1-1.6-.5c-0.5-.2-1-0.5-1.5-0.7a1.47,1.47,0,0,0-.4-0.2,10.23,10.23,0,0,0-2.1-.8h-0.1a2.84,2.84,0,0,0-1.3,0h0a983313130214.89,983313130214.89,0,0,0-.4.2h-0.1a5.49,5.49,0,0,0-.9.7h0a2.69,2.69,0,0,0-.5,1.5h0V378h0v0.2h0v0.1h0a4.88,4.88,0,0,0,.3.7h0a12.94,12.94,0,0,0,1.5,1.7c0.5,0.5,1.1.9,1.7,1.4l1.8,1.2a3.13,3.13,0,0,0,1,.5,4.18,4.18,0,0,0,1,.4,21,21,0,0,0,4.2.9,30.84,30.84,0,0,0,4.3,0,34,34,0,0,0,4.6-.9,20.94,20.94,0,0,0,3.5-1.3,25.83,25.83,0,0,0,3.7-1.9,13.3,13.3,0,0,0,1.9-1.4,16.6,16.6,0,0,0,1.4-1.3,15.71,15.71,0,0,0,2.1-2.4,3.51,3.51,0,0,0,.5-0.8c0.1-.1.2-0.3,0.3-0.4h0c0.2-.3.3-0.6,0.5-0.9a11.76,11.76,0,0,0,.7-2l0.3,0.6a17,17,0,0,0,2.7,3.3h0a21.64,21.64,0,0,0,3.5,2.4,23.16,23.16,0,0,0,8,2.8,20.45,20.45,0,0,0,4.3.1h0a17.51,17.51,0,0,0,3.3-.6h0l0.9-.3a26.8,26.8,0,0,0,7.3-4.4c0.4-.3.7-0.6,1.1-0.9l0.6-.6a2.18,2.18,0,0,0,.4-0.5h0c0.1-.1.2-0.4,0.3-0.5l0.3-.6c0.1-.1.1-0.3,0.2-0.4,0.1-.3.2-0.5,0.3-0.8,0-.1.1-0.2,0.1-0.3s0.1-.4.1-0.7h0a0.9,0.9,0,0,0-.1-0.5A1.2,1.2,0,0,1,151.75,369.6Z" transform="translate(-22.1 -18.3)"/><line class="cls-13" x1="8.46" y1="399" x2="538.9" y2="399"/><path class="cls-9" d="M399,220.71l-0.6-.1c-2.6-.3-11.9-2.9-14.3-3.5l0.4-2.1-0.6-.2c-13-4-20.1.9-22.4,3.1-0.2-.4-0.4-0.9-0.6-1.4l-0.3-.5-0.5.2c-7.6,2.4-11.7,9.9-13.1,13a15.26,15.26,0,0,0-1.1-1.6l-0.5-.5-0.5.5c-2.7,2.9-3.5,7.8-3.7,10l-1.2-.7-0.3.6c-0.1.2-2.6,5.7-.6,14.1l1.3-.3a22.69,22.69,0,0,1,.3-12.6l1.7,1,0.1-1.1c0-.1.4-6.1,3-9.6a11.83,11.83,0,0,1,1,1.9l0.6,1.7,0.6-1.7c0-.1,3.7-10.4,12.3-13.4a11.64,11.64,0,0,1,.6,1.7l0.3,1.4,0.9-1.1c0.1-.1,6.5-8,21.2-3.7l-0.4,2.1,0.6,0.2c0.5,0.1,10.7,3,14.5,3.7-0.5,3.6-5.1,9.6-5.1,9.7l-0.6.8,3.3,0.8c-0.8,1.7-2.9,6-5.8,7.6l-1.1.6,2.7,1.4c-1.3,1.3-4.6,4.3-7.9,5.2l-1,.3,0.6,0.8a13.88,13.88,0,0,0,2.7,1.8c-2.9,2.1-12.9,8.5-22.5,6.9l-1.3-.3,2.3,4.7c-3,0-11.8-.2-18.3-3.4l-0.6,1.2c6.4,3.2,15,3.5,18.4,3.5H366l-2.1-4.3c11.4,1.2,22.7-7.6,23.2-8l0.8-.6L387,250a23.6,23.6,0,0,1-2.3-1.3c4.1-1.6,7.8-5.6,8-5.8l0.6-.6-2.2-1.1c3.4-2.6,5.6-8.1,5.7-8.3l0.3-.7-2.9-.7c1.4-2,4.8-7.1,4.8-10.2v-0.6h0Z" transform="translate(-22.1 -18.3)"/><path class="cls-9" d="M373.2,247.71l0.7-1.1c-4.3-3-11.1-3.7-15.6-3.4,2.9-1.9,5.8-3.7,8.7-5.3,5.2-.8,13,1.5,14,2.3l0.8-1c-1-.8-6.9-2.6-12.1-2.7,6.7-3.6,13-6.4,18-8.5l2.5-1.1-0.5-1.2-2.5,1.1c-3,1.3-6.6,2.9-10.5,4.7-0.2-2.4,1.3-5.3,2.8-7.2l-1-.8c-1.8,2.3-3.5,5.7-3,8.6-3.7,1.8-7.7,3.9-11.7,6.3-1.2-3.9,2-9.2,3.8-10.2L367,227c-2.2,1.2-5.9,7.4-4.3,12-2.4,1.4-4.8,3-7.2,4.7h0c-1,.7-2,1.4-2.9,2.1-1.9-6.1,1.1-13.6,5-17.8l-1-.9c-4.3,4.6-7.5,12.8-5.1,19.6a96.45,96.45,0,0,0-10.8,9.6c-3.2,3.3-5.6,4.7-11,4.2l-0.1,1.3a17,17,0,0,0,2.2.1c4.4,0,7-1.7,9.8-4.7a97.51,97.51,0,0,1,14.5-12.3C358.9,244.11,368,244.11,373.2,247.71Z" transform="translate(-22.1 -18.3)"/><polygon class="cls-14" points="315.37 343.79 319.67 344.49 321.77 348.09 320.37 352.29 310.77 357.89 305.77 349.39 315.37 343.79"/><polygon class="cls-14" points="329.57 348.09 333.17 335.39 346.77 329.79 358.27 336.19 370.27 364.99 341.57 376.89 329.57 348.09"/><line class="cls-14" x1="335.37" y1="346.79" x2="353.47" y2="339.19"/><path d="M364.27,395.19l29.2-11.5-7.3-13.4a38.72,38.72,0,0,0-11.6,1.3c-6.5,1.8-12.5,6.3-16.5,7.6Z" transform="translate(-22.1 -18.3)"/><path class="cls-14" d="M364,356.49c-2-2.7-2.4-7.1-2.3-12.7,0.2-7-2-14.6-8.8-17.8-9.2-4.4-21.2-.8-25.3,8.9-2.6,6-1,12.4,3.8,15.8,2.5,1.8,5.9,2,8.2,2s4.5-1.4,4.5-3.8a3,3,0,0,0-3.1-3.2c-1.8,0-3.8,1.4-3.8,4.6a8.36,8.36,0,0,0,3.5,6.2c2.2,1.8,4.6,1.9,5.1,4.2,0.5,2.1-1.3,3-2.8,3.8" transform="translate(-22.1 -18.3)"/><path class="cls-14" d="M364.77,356.69a0.75,0.75,0,0,1-1.5,0,0.75,0.75,0,0,1,1.5,0" transform="translate(-22.1 -18.3)"/><text class="cls-15" transform="translate(165 247.7)">L<tspan x="5.5" y="0">e</tspan><tspan x="11.51" y="0">f</tspan><tspan x="15.14" y="0">t</tspan><tspan x="19.04" y="0">o</tspan><tspan x="25.55" y="0">v</tspan><tspan x="31.2" y="0">er </tspan><tspan x="43.68" y="0">f</tspan><tspan x="47.03" y="0">ood</tspan></text><text class="cls-15" transform="translate(401.9 247.7)">D<tspan x="7.99" y="0">r</tspan><tspan x="12.22" y="0">y le</tspan><tspan x="29.26" y="0">a</tspan><tspan x="34.94" y="0">v</tspan><tspan x="40.6" y="0">es and fl</tspan><tspan x="81.93" y="0">o</tspan><tspan x="88.44" y="0">w</tspan><tspan x="97.15" y="0">ers</tspan></text><text class="cls-15" transform="translate(165 336.08)">F<tspan x="5.53" y="0">ruit and</tspan><tspan x="44.6" y="0"> </tspan><tspan x="46.72" y="0">V</tspan><tspan x="53.02" y="0">egetable </tspan><tspan x="0" y="14.4">peels</tspan></text><text class="cls-15" transform="translate(403.03 336.08)">T<tspan x="5.11" y="0">eabags and </tspan><tspan x="65.28" y="0">c</tspan><tspan x="70.58" y="0">o</tspan><tspan x="77.17" y="0">ff</tspan><tspan x="84.01" y="0">ee </tspan><tspan x="0" y="14.4">g</tspan><tspan x="6.64" y="14.4">r</tspan><tspan x="10.61" y="14.4">inds</tspan></text></svg>