<svg enable-background="new 0 0 310 310" viewBox="0 0 310 310" xmlns="http://www.w3.org/2000/svg"><path d="m72.16 99.73h-62.233c-2.762 0-5 2.239-5 5v199.928c0 2.762 2.238 5 5 5h62.233c2.762 0 5-2.238 5-5v-199.928c0-2.761-2.238-5-5-5z"/><path d="m41.066.341c-22.644 0-41.066 18.402-41.066 41.021 0 22.629 18.422 41.038 41.066 41.038 22.626 0 41.033-18.41 41.033-41.038.001-22.619-18.407-41.021-41.033-41.021z"/><path d="m230.454 94.761c-24.995 0-43.472 10.745-54.679 22.954v-12.985c0-2.761-2.238-5-5-5h-59.599c-2.762 0-5 2.239-5 5v199.928c0 2.762 2.238 5 5 5h62.097c2.762 0 5-2.238 5-5v-98.918c0-33.333 9.054-46.319 32.29-46.319 25.306 0 27.317 20.818 27.317 48.034v97.204c0 2.762 2.238 5 5 5h62.12c2.762 0 5-2.238 5-5v-109.664c0-49.565-9.451-100.234-79.546-100.234z"/></svg>