<svg enable-background="new 0 0 310 310" viewBox="0 0 310 310" xmlns="http://www.w3.org/2000/svg"><path d="m302.973 57.388c-4.87 2.16-9.877 3.983-14.993 5.463 6.057-6.85 10.675-14.91 13.494-23.73.632-1.977-.023-4.141-1.648-5.434-1.623-1.294-3.878-1.449-5.665-.39-10.865 6.444-22.587 11.075-34.878 13.783-12.381-12.098-29.197-18.983-46.581-18.983-36.695 0-66.549 29.853-66.549 66.547 0 2.89.183 5.764.545 8.598-45.535-3.998-87.868-26.379-116.938-62.038-1.036-1.271-2.632-1.956-4.266-1.825-1.635.128-3.104 1.05-3.93 2.467-5.896 10.117-9.013 21.688-9.013 33.461 0 16.035 5.725 31.249 15.838 43.137-3.075-1.065-6.059-2.396-8.907-3.977-1.529-.851-3.395-.838-4.914.033-1.52.871-2.473 2.473-2.513 4.224-.007.295-.007.59-.007.889 0 23.935 12.882 45.484 32.577 57.229-1.692-.169-3.383-.414-5.063-.735-1.732-.331-3.513.276-4.681 1.597-1.17 1.32-1.557 3.16-1.018 4.84 7.29 22.76 26.059 39.501 48.749 44.605-18.819 11.787-40.34 17.961-62.932 17.961-4.714 0-9.455-.277-14.095-.826-2.305-.274-4.509 1.087-5.294 3.279-.785 2.193.047 4.638 2.008 5.895 29.023 18.609 62.582 28.445 97.047 28.445 67.754 0 110.139-31.95 133.764-58.753 29.46-33.421 46.356-77.658 46.356-121.367 0-1.826-.028-3.67-.084-5.508 11.623-8.757 21.63-19.355 29.773-31.536 1.237-1.85 1.103-4.295-.33-5.998-1.431-1.704-3.816-2.255-5.852-1.353z"/></svg>