<?xml version="1.0" encoding="UTF-8" standalone="no"?>
<!-- Created with Inkscape (http://www.inkscape.org/) -->

<svg
   xmlns:dc="http://purl.org/dc/elements/1.1/"
   xmlns:cc="http://creativecommons.org/ns#"
   xmlns:rdf="http://www.w3.org/1999/02/22-rdf-syntax-ns#"
   xmlns:svg="http://www.w3.org/2000/svg"
   xmlns="http://www.w3.org/2000/svg"
   xmlns:xlink="http://www.w3.org/1999/xlink"
   xmlns:sodipodi="http://sodipodi.sourceforge.net/DTD/sodipodi-0.dtd"
   xmlns:inkscape="http://www.inkscape.org/namespaces/inkscape"
   width="744.09448819"
   height="1052.3622047"
   id="svg2"
   version="1.1"
   inkscape:version="0.91 r13725"
   sodipodi:docname="logo2.svg"
   inkscape:export-filename="/Users/niranjan/Documents/C42/logo/logo_72dpi.png"
   inkscape:export-xdpi="72"
   inkscape:export-ydpi="72">
  <defs
     id="defs4">
    <linearGradient
       inkscape:collect="always"
       id="linearGradient8329">
      <stop
         style="stop-color:#000000;stop-opacity:1;"
         offset="0"
         id="stop8331" />
      <stop
         style="stop-color:#000000;stop-opacity:0;"
         offset="1"
         id="stop8333" />
    </linearGradient>
    <inkscape:perspective
       sodipodi:type="inkscape:persp3d"
       inkscape:vp_x="0 : 526.18109 : 1"
       inkscape:vp_y="0 : 1000 : 0"
       inkscape:vp_z="744.09448 : 526.18109 : 1"
       inkscape:persp3d-origin="372.04724 : 350.78739 : 1"
       id="perspective10" />
    <linearGradient
       inkscape:collect="always"
       xlink:href="#linearGradient8329"
       id="linearGradient8335"
       x1="76.518634"
       y1="359.19448"
       x2="435.28261"
       y2="359.19448"
       gradientUnits="userSpaceOnUse" />
    <clipPath
       clipPathUnits="userSpaceOnUse"
       id="clipPath8337">
      <path
         style="fill:url(#linearGradient8341);fill-opacity:1;stroke:#000000;stroke-width:1.42093349px;stroke-linecap:butt;stroke-linejoin:miter;stroke-opacity:1"
         d="m 643.09717,328.96031 133.27609,0.8942 -224.74006,-177.05173 -276.13409,176.15753 10.45302,257.5298 245.64611,177.94592 245.64611,-173.47492 -131.53391,0 -2.61327,-262.0008 z"
         id="path8339" />
    </clipPath>
    <linearGradient
       inkscape:collect="always"
       xlink:href="#linearGradient8329"
       id="linearGradient8341"
       gradientUnits="userSpaceOnUse"
       x1="76.518634"
       y1="359.19448"
       x2="435.28261"
       y2="359.19448"
       gradientTransform="matrix(1.4024476,0,0,1.4396631,167.4845,-58.499622)" />
    <inkscape:perspective
       id="perspective10-9"
       inkscape:persp3d-origin="372.04724 : 350.78739 : 1"
       sodipodi:type="inkscape:persp3d"
       inkscape:vp_y="0 : 1000 : 0"
       inkscape:vp_x="0 : 526.18109 : 1"
       inkscape:vp_z="744.09448 : 526.18109 : 1" />
    <inkscape:perspective
       id="perspective2824"
       inkscape:persp3d-origin="0.5 : 0.33333333 : 1"
       sodipodi:type="inkscape:persp3d"
       inkscape:vp_y="0 : 1000 : 0"
       inkscape:vp_x="0 : 0.5 : 1"
       inkscape:vp_z="1 : 0.5 : 1" />
    <inkscape:perspective
       id="perspective2840"
       inkscape:persp3d-origin="0.5 : 0.33333333 : 1"
       sodipodi:type="inkscape:persp3d"
       inkscape:vp_y="0 : 1000 : 0"
       inkscape:vp_x="0 : 0.5 : 1"
       inkscape:vp_z="1 : 0.5 : 1" />
    <inkscape:perspective
       id="perspective2856"
       inkscape:persp3d-origin="0.5 : 0.33333333 : 1"
       sodipodi:type="inkscape:persp3d"
       inkscape:vp_y="0 : 1000 : 0"
       inkscape:vp_x="0 : 0.5 : 1"
       inkscape:vp_z="1 : 0.5 : 1" />
    <inkscape:perspective
       id="perspective2872"
       inkscape:persp3d-origin="0.5 : 0.33333333 : 1"
       sodipodi:type="inkscape:persp3d"
       inkscape:vp_y="0 : 1000 : 0"
       inkscape:vp_x="0 : 0.5 : 1"
       inkscape:vp_z="1 : 0.5 : 1" />
    <inkscape:perspective
       id="perspective2888"
       inkscape:persp3d-origin="0.5 : 0.33333333 : 1"
       sodipodi:type="inkscape:persp3d"
       inkscape:vp_y="0 : 1000 : 0"
       inkscape:vp_x="0 : 0.5 : 1"
       inkscape:vp_z="1 : 0.5 : 1" />
    <inkscape:perspective
       id="perspective2904"
       inkscape:persp3d-origin="0.5 : 0.33333333 : 1"
       sodipodi:type="inkscape:persp3d"
       inkscape:vp_y="0 : 1000 : 0"
       inkscape:vp_x="0 : 0.5 : 1"
       inkscape:vp_z="1 : 0.5 : 1" />
    <inkscape:perspective
       id="perspective2920"
       inkscape:persp3d-origin="0.5 : 0.33333333 : 1"
       sodipodi:type="inkscape:persp3d"
       inkscape:vp_y="0 : 1000 : 0"
       inkscape:vp_x="0 : 0.5 : 1"
       inkscape:vp_z="1 : 0.5 : 1" />
    <inkscape:perspective
       id="perspective2936"
       inkscape:persp3d-origin="0.5 : 0.33333333 : 1"
       sodipodi:type="inkscape:persp3d"
       inkscape:vp_y="0 : 1000 : 0"
       inkscape:vp_x="0 : 0.5 : 1"
       inkscape:vp_z="1 : 0.5 : 1" />
    <inkscape:perspective
       id="perspective2952"
       inkscape:persp3d-origin="0.5 : 0.33333333 : 1"
       sodipodi:type="inkscape:persp3d"
       inkscape:vp_y="0 : 1000 : 0"
       inkscape:vp_x="0 : 0.5 : 1"
       inkscape:vp_z="1 : 0.5 : 1" />
    <inkscape:perspective
       id="perspective2968"
       inkscape:persp3d-origin="0.5 : 0.33333333 : 1"
       sodipodi:type="inkscape:persp3d"
       inkscape:vp_y="0 : 1000 : 0"
       inkscape:vp_x="0 : 0.5 : 1"
       inkscape:vp_z="1 : 0.5 : 1" />
    <inkscape:perspective
       id="perspective2984"
       inkscape:persp3d-origin="0.5 : 0.33333333 : 1"
       sodipodi:type="inkscape:persp3d"
       inkscape:vp_y="0 : 1000 : 0"
       inkscape:vp_x="0 : 0.5 : 1"
       inkscape:vp_z="1 : 0.5 : 1" />
    <inkscape:perspective
       id="perspective3000"
       inkscape:persp3d-origin="0.5 : 0.33333333 : 1"
       sodipodi:type="inkscape:persp3d"
       inkscape:vp_y="0 : 1000 : 0"
       inkscape:vp_x="0 : 0.5 : 1"
       inkscape:vp_z="1 : 0.5 : 1" />
    <inkscape:perspective
       id="perspective3016"
       inkscape:persp3d-origin="0.5 : 0.33333333 : 1"
       sodipodi:type="inkscape:persp3d"
       inkscape:vp_y="0 : 1000 : 0"
       inkscape:vp_x="0 : 0.5 : 1"
       inkscape:vp_z="1 : 0.5 : 1" />
    <inkscape:perspective
       id="perspective3032"
       inkscape:persp3d-origin="0.5 : 0.33333333 : 1"
       sodipodi:type="inkscape:persp3d"
       inkscape:vp_y="0 : 1000 : 0"
       inkscape:vp_x="0 : 0.5 : 1"
       inkscape:vp_z="1 : 0.5 : 1" />
    <inkscape:perspective
       id="perspective3048"
       inkscape:persp3d-origin="0.5 : 0.33333333 : 1"
       sodipodi:type="inkscape:persp3d"
       inkscape:vp_y="0 : 1000 : 0"
       inkscape:vp_x="0 : 0.5 : 1"
       inkscape:vp_z="1 : 0.5 : 1" />
    <inkscape:perspective
       id="perspective3062"
       inkscape:persp3d-origin="0.5 : 0.33333333 : 1"
       sodipodi:type="inkscape:persp3d"
       inkscape:vp_y="0 : 1000 : 0"
       inkscape:vp_x="0 : 0.5 : 1"
       inkscape:vp_z="1 : 0.5 : 1" />
    <inkscape:perspective
       id="perspective3078"
       inkscape:persp3d-origin="0.5 : 0.33333333 : 1"
       sodipodi:type="inkscape:persp3d"
       inkscape:vp_y="0 : 1000 : 0"
       inkscape:vp_x="0 : 0.5 : 1"
       inkscape:vp_z="1 : 0.5 : 1" />
    <inkscape:perspective
       id="perspective3094"
       inkscape:persp3d-origin="0.5 : 0.33333333 : 1"
       sodipodi:type="inkscape:persp3d"
       inkscape:vp_y="0 : 1000 : 0"
       inkscape:vp_x="0 : 0.5 : 1"
       inkscape:vp_z="1 : 0.5 : 1" />
    <inkscape:perspective
       id="perspective3110"
       inkscape:persp3d-origin="0.5 : 0.33333333 : 1"
       sodipodi:type="inkscape:persp3d"
       inkscape:vp_y="0 : 1000 : 0"
       inkscape:vp_x="0 : 0.5 : 1"
       inkscape:vp_z="1 : 0.5 : 1" />
    <inkscape:perspective
       id="perspective3126"
       inkscape:persp3d-origin="0.5 : 0.33333333 : 1"
       sodipodi:type="inkscape:persp3d"
       inkscape:vp_y="0 : 1000 : 0"
       inkscape:vp_x="0 : 0.5 : 1"
       inkscape:vp_z="1 : 0.5 : 1" />
    <inkscape:perspective
       id="perspective3142"
       inkscape:persp3d-origin="0.5 : 0.33333333 : 1"
       sodipodi:type="inkscape:persp3d"
       inkscape:vp_y="0 : 1000 : 0"
       inkscape:vp_x="0 : 0.5 : 1"
       inkscape:vp_z="1 : 0.5 : 1" />
    <inkscape:perspective
       id="perspective3158"
       inkscape:persp3d-origin="0.5 : 0.33333333 : 1"
       sodipodi:type="inkscape:persp3d"
       inkscape:vp_y="0 : 1000 : 0"
       inkscape:vp_x="0 : 0.5 : 1"
       inkscape:vp_z="1 : 0.5 : 1" />
    <inkscape:perspective
       id="perspective3174"
       inkscape:persp3d-origin="0.5 : 0.33333333 : 1"
       sodipodi:type="inkscape:persp3d"
       inkscape:vp_y="0 : 1000 : 0"
       inkscape:vp_x="0 : 0.5 : 1"
       inkscape:vp_z="1 : 0.5 : 1" />
    <inkscape:perspective
       id="perspective3190"
       inkscape:persp3d-origin="0.5 : 0.33333333 : 1"
       sodipodi:type="inkscape:persp3d"
       inkscape:vp_y="0 : 1000 : 0"
       inkscape:vp_x="0 : 0.5 : 1"
       inkscape:vp_z="1 : 0.5 : 1" />
  </defs>
  <sodipodi:namedview
     id="base"
     pagecolor="#ffffff"
     bordercolor="#666666"
     borderopacity="1.0"
     inkscape:pageopacity="0.0"
     inkscape:pageshadow="2"
     inkscape:zoom="0.92096235"
     inkscape:cx="82.381213"
     inkscape:cy="708.08775"
     inkscape:document-units="px"
     inkscape:current-layer="layer3"
     showgrid="true"
     inkscape:window-width="1690"
     inkscape:window-height="958"
     inkscape:window-x="95"
     inkscape:window-y="41"
     inkscape:window-maximized="0"
     inkscape:snap-bbox="true"
     inkscape:bbox-nodes="false"
     inkscape:snap-bbox-midpoints="true"
     inkscape:snap-to-guides="true"
     inkscape:snap-grids="true"
     showguides="true"
     inkscape:guide-bbox="true"
     inkscape:snap-global="true"
     inkscape:snap-nodes="false">
    <inkscape:grid
       type="xygrid"
       id="grid4233" />
  </sodipodi:namedview>
  <metadata
     id="metadata7">
    <rdf:RDF>
      <cc:Work
         rdf:about="">
        <dc:format>image/svg+xml</dc:format>
        <dc:type
           rdf:resource="http://purl.org/dc/dcmitype/StillImage" />
        <dc:title />
      </cc:Work>
    </rdf:RDF>
  </metadata>
  <g
     inkscape:groupmode="layer"
     id="layer3"
     inkscape:label="42"
     style="display:inline">
    <ellipse
       style="opacity:0;fill:#ff0000;fill-rule:evenodd;stroke:#000000;stroke-width:6.1915555px;stroke-linecap:butt;stroke-linejoin:miter;stroke-opacity:1"
       id="path3599"
       cx="370"
       cy="382.36218"
       rx="209.50264"
       ry="206.56383" />
    <g
       id="layer1-1"
       inkscape:label="Layer 1"
       transform="matrix(0.6,0,0,0.6,143.46669,76.843701)">
      <g
         transform="matrix(24,0,0,24,-15.421833,116.86161)"
         id="g6534">
        <path
           inkscape:connector-curvature="0"
           d="M 14.748438,3.1238847 C 15.558438,2.7848851 12.292,4.874 13.106,4.538 c 0.253,-0.104 0.599879,-0.1987069 0.836879,-0.3487069 -0.095,0.017 -0.540931,0.1318206 -0.634931,0.1488206 C 13.433946,4.1997424 13.604592,4.1310414 13.758,4.067 13.879,4.017 14.054,4.033 14.044,3.82 14.042,3.793 14.124,3.745 14.172,3.737 14.343,3.71 14.515,3.698 14.686,3.674 14.729,3.668 14.767,3.63 14.81,3.615 14.913,3.581 15.018,3.532 15.123,3.528 15.721,3.507 16.319,3.479 16.918,3.49 c 0.685,0.012 1.352,0.168 2.012,0.351 0.268,0.074 0.546,0.11 0.815,0.179 0.211,0.053 0.423,0.112 0.622,0.198 0.614,0.272 1.234,0.539 1.832,0.847 0.485,0.25 0.944,0.552 1.406,0.845 0.229,0.146 0.434,0.33 0.653,0.493 0.604,0.447 1.096,1.011 1.615,1.545 0.061,0.063 0.106,0.141 0.16,0.213 0.016,0.021 0.027,0.06 0.048,0.065 0.364,0.085 0.377,0.457 0.567,0.685 0.024,0.031 0.042,0.071 0.065,0.102 0.013,0.014 0.033,0.021 0.104,0.061 C 26.767,8.958 26.745,8.884 26.706,8.821 26.285,8.162 25.864,7.503 25.434,6.85 25.35,6.722 25.227,6.616 25.11,6.515 25.022,6.439 24.472017,6.6506718 24.554017,6.4846718 c 0.007,-0.014 -0.646474,-0.2429014 -0.671474,-0.2659014 -0.23,-0.228 -2.992489,-1.9355714 -3.202489,-2.2075714 -0.192,-0.249 1.657636,0.5279167 1.372636,0.3529167 -0.248,-0.154 -0.782287,-0.9412731 -1.021287,-1.1062731 C 20.889403,3.1598426 22.351,4.265 22.225,4.134 22.233,4.13 20.632478,2.4500681 20.649478,2.4610681 c 0.128,0.089 0.823294,0.4110816 0.946294,0.5070816 -0.133721,-0.7677857 1.569981,0.7736054 1.586981,0.7816054 0.244,0.099 0.826623,0.2417704 1.064623,0.3517704 0.17,0.079 0.37877,0.2321803 0.54277,0.3201803 0.212,0.113 0.133558,0.1552296 0.347558,0.2652296 0.059,0.032 0.618934,0.5427534 0.660934,0.5947534 C 25.902638,5.4086888 25.022,5.6 25.168,5.489 c 0.049,0.041 0.099,0.083 0.148,0.124 -0.018,-0.321 -0.322,-0.409 -0.47,-0.632 0.096,0.057 0.189,0.113 0.322,0.194 -0.034,-0.089 -0.053,-0.133 -0.07,-0.178 0.012,-0.011 0.025,-0.022 0.037,-0.034 0.039,0.052 0.117,0.109 0.11,0.154 -0.03,0.203 0.600344,0.2785901 0.729344,0.3425901 C 26.150344,5.5465901 25.849,5.597 26.06,5.687 c -0.008,0.007 0.026,-0.021 0.093,-0.073 0.013,0.028 0.033,0.053 0.035,0.078 0.021,0.289 0.264,0.414 0.43,0.597 0.44,0.484 0.871,0.972 1.191,1.549 0.097,0.177 0.249,0.325 0.345,0.503 0.269,0.494 0.522,0.996 0.779,1.498 0.213,0.416 0.426,0.833 0.551,1.289 0.167,0.615 0.372,1.22 0.512,1.841 0.146,0.652 0.229,1.316 0.34,1.976 0.002,0.006 0.003,0.013 0.003,0.02 0.04,0.631 0.036,1.269 0.129,1.891 0.092,0.614 -0.051,1.198 -0.12,1.79 -0.051,0.431 -0.224,0.846 -0.326,1.271 -0.101,0.417 -0.178,0.841 -0.271,1.263 -0.023,0.107 -0.063,0.213 -0.097,0.318 0.018,0.008 0.035,0.014 0.053,0.021 0.019,-0.036 0.033,-0.073 0.055,-0.107 0.018,-0.032 0.039,-0.061 0.104,-0.073 -0.028,0.092 -0.051,0.187 -0.087,0.274 -0.202,0.483 -0.405,0.964 -0.616,1.442 -0.023,0.056 -0.097,0.089 -0.137,0.14 -0.05,0.063 -0.138,0.175 -0.119,0.198 0.186,0.254 -0.071,0.417 -0.143,0.589 -0.153,0.366 -0.371,0.71 -0.598,1.039 -0.461,0.674 -0.951,1.327 -1.545,1.896 -0.017,0.019 -0.027,0.042 -0.061,0.097 0.084,-0.02 0.135,-0.031 0.239,-0.056 -0.308,0.279 -0.576,0.521 -0.844,0.769 -0.048,0.042 -0.081,0.1 -0.119,0.151 -0.062,0.085 -0.097,0.168 -0.255,0.14 -0.12,-0.021 -0.312,0.013 -0.312,0.235 0,0.036 -0.038,0.084 -0.071,0.109 -0.169,0.129 -0.333,0.263 -0.515,0.371 -0.141,0.086 -0.306,0.13 -0.454,0.205 -0.055,0.029 -0.124,0.096 -0.126,0.145 -0.008,0.209 -0.17,0.227 -0.306,0.267 -0.161,0.049 -0.294,0.102 -0.377,0.275 -0.038,0.081 -0.182,0.125 -0.288,0.159 -0.247,0.083 -0.503,0.145 -0.749,0.231 -0.05,0.018 -0.071,0.107 -0.128,0.12 -0.133,0.06 -0.262,0.129 -0.397,0.18 -0.13,0.051 -0.271,0.073 -0.396,0.129 -0.429,0.189 -0.882,0.287 -1.338,0.383 -0.33,0.071 -0.658,0.146 -1.002,0.179 1.579,-0.495 3.16,-0.974 4.515,-1.966 -0.01,-0.02 -0.019,-0.04 -0.025,-0.06 -0.136,0.062 -0.271,0.127 -0.438,0.205 0.029,-0.069 0.048,-0.109 0.064,-0.149 -0.012,-0.013 -0.023,-0.024 -0.037,-0.036 -0.118,0.164 -0.386,0.133 -0.438,0.392 -0.008,0.04 -0.102,0.072 -0.162,0.093 -0.143,0.05 -0.298,0.073 -0.435,0.136 -0.488,0.223 -0.971,0.459 -1.459,0.685 -0.062,0.029 -0.139,0.027 -0.211,0.04 -0.007,-0.018 -0.013,-0.033 -0.02,-0.051 0.316,-0.165 0.64,-0.319 0.949,-0.496 0.223,-0.129 0.428,-0.284 0.641,-0.429 0.033,-0.023 0.062,-0.067 0.098,-0.073 0.536,-0.098 0.901,-0.498 1.33,-0.775 0.385,-0.25 0.705,-0.604 1.052,-0.913 0.025,-0.023 0.036,-0.063 0.027,-0.127 l -0.657,0.483 c -0.013,-0.015 -0.025,-0.027 -0.039,-0.042 1.127,-0.97 2.253,-1.942 3.038,-3.223 -0.022,-0.021 -0.048,-0.041 -0.071,-0.062 -0.111,0.146 -0.223,0.292 -0.333,0.438 -0.22,0.293 -0.421,0.604 -0.664,0.878 -0.153,0.175 -0.365,0.298 -0.551,0.443 -0.148,0.117 -0.242,0.283 -0.451,0.352 -0.146,0.048 -0.242,0.249 -0.363,0.379 -0.129,0.138 -0.278,0.238 -0.463,0.265 -0.018,-0.021 -0.035,-0.042 -0.054,-0.062 0.123,-0.085 0.245,-0.168 0.368,-0.252 -0.025,-0.029 -0.052,-0.06 -0.076,-0.091 -1.119,0.923 -2.316,1.72 -3.644,2.302 -0.011,-0.018 -0.02,-0.032 -0.028,-0.049 0.251,-0.142 0.502,-0.28 0.754,-0.424 0.268,-0.151 0.544,-0.291 0.795,-0.467 0.234,-0.165 0.544,-0.253 0.648,-0.575 -0.92,0.541 -1.864,1.027 -2.876,1.381 0.356,-0.188 0.711,-0.375 1.068,-0.565 -0.004,-0.013 -0.005,-0.025 -0.007,-0.038 -0.059,0 -0.126,-0.021 -0.175,0.002 -0.26,0.119 -0.511,0.263 -0.773,0.371 -0.401,0.167 -0.812,0.311 -1.223,0.461 -0.032,0.012 -0.078,-0.008 -0.177,-0.018 0.391,-0.183 0.723,-0.338 1.058,-0.493 -0.006,-0.02 -0.013,-0.04 -0.02,-0.059 -0.059,0.006 -0.119,0.014 -0.221,0.024 0.062,-0.045 0.093,-0.073 0.127,-0.092 0.067,-0.034 0.151,-0.048 0.201,-0.097 0.495,-0.476 1.152,-0.698 1.696,-1.096 0.412,-0.302 0.833,-0.596 1.243,-0.9 0.077,-0.057 0.128,-0.146 0.188,-0.224 -0.016,-0.019 -0.029,-0.037 -0.045,-0.055 -0.064,0.034 -0.132,0.063 -0.191,0.105 -0.105,0.073 -0.22,0.144 -0.306,0.237 -0.283,0.315 -0.672,0.463 -1.025,0.665 -0.133,0.076 -0.286,0.114 -0.43,0.172 -0.15,0.061 -0.312,0.107 -0.449,0.19 -0.196,0.119 -0.417,0.035 -0.615,0.109 -0.08,0.029 -0.166,0.047 -0.27,0.035 0.037,-0.031 0.069,-0.071 0.11,-0.096 0.467,-0.281 0.977,-0.509 1.39,-0.854 0.45,-0.374 0.949,-0.675 1.403,-1.034 0.051,-0.04 0.088,-0.096 0.115,-0.161 -1.098,0.621 -2.126,1.358 -3.305,1.835 0.032,-0.029 0.062,-0.069 0.1,-0.087 0.227,-0.105 0.374,-0.31 0.609,-0.43 0.487,-0.251 0.918,-0.617 1.363,-0.951 0.116,-0.087 0.3,-0.146 0.281,-0.384 -0.06,0.042 -0.101,0.063 -0.133,0.096 -0.303,0.296 -0.66,0.457 -1.081,0.534 -0.172,0.031 -0.32,0.203 -0.475,0.319 -0.166,0.125 -0.323,0.259 -0.486,0.391 -0.014,-0.013 -0.027,-0.024 -0.042,-0.036 0.082,-0.09 0.164,-0.181 0.278,-0.304 -0.297,0.145 -0.556,0.271 -0.813,0.396 -0.017,-0.021 -0.03,-0.046 -0.046,-0.069 0.966,-0.495 1.839,-1.117 2.633,-1.846 -0.014,-0.02 -0.026,-0.039 -0.04,-0.058 -0.184,0.11 -0.367,0.225 -0.552,0.336 -0.007,-0.01 -0.014,-0.02 -0.021,-0.029 0.176,-0.125 0.349,-0.249 0.521,-0.375 0.067,-0.054 0.135,-0.109 0.196,-0.169 0.449,-0.429 0.923,-0.835 1.337,-1.297 0.536,-0.597 1.021,-1.235 1.42,-1.942 0.334,-0.592 0.64,-1.193 0.855,-1.832 0.147,-0.441 0.219,-0.91 0.302,-1.371 0.079,-0.441 0.161,-0.887 0.181,-1.333 0.024,-0.62 0.002,-1.245 -0.019,-1.866 -0.011,-0.334 -0.037,-0.669 -0.096,-0.998 -0.073,-0.414 -0.159,-0.831 -0.289,-1.23 -0.247,-0.756 -0.527,-1.5 -0.8,-2.248 -0.037,-0.099 -0.117,-0.183 -0.163,-0.28 C 24.249,10.428 24.232,10.324 24.185,10.236 24.08,10.04 23.976,9.84 23.848,9.659 23.634,9.361 23.416,9.065 23.174,8.791 22.939,8.524 22.672,8.287 22.416,8.04 22.353,7.978 22.285,7.917 22.211,7.87 22.15,7.831 22.107,7.697 21.998,7.814 21.991,7.822 21.938,7.798 21.912,7.779 21.764,7.675 21.611,7.572 21.469,7.457 20.693,6.818 19.758,6.556 18.8,6.36 18.326,6.263 17.843,6.163 17.363,6.167 16.725,6.172 16.087,6.263 15.452,6.347 15.117,6.391 14.785,6.483 14.46,6.581 14.229,6.65 14.012,6.769 13.789,6.864 13.645,6.924 13.497,6.975 13.357,7.045 12.923,7.264 12.496,7.49 12.062,7.704 11.979,7.745 11.879,7.753 11.788,7.778 11.764,7.784 11.736,7.794 11.717,7.81 11.522,7.971 11.328,8.135 11.114,8.313 11.078,8.228 11.056,8.171 11.031,8.115 11.012,8.104 10.994,8.093 10.976,8.082 c 0.006,0.386 -0.307,0.496 -0.521,0.692 -0.141,0.13 -0.283,0.26 -0.413,0.402 -0.306,0.333 -0.605,0.674 -0.91,1.013 0,0 -0.028,-0.046 -0.086,-0.137 -0.083,0.182 -0.146,0.334 -0.221,0.48 -0.03,0.057 -0.096,0.096 -0.13,0.152 -0.091,0.154 -0.185,0.308 -0.255,0.47 -0.081,0.188 -0.137,0.386 -0.205,0.579 -0.07,0.202 -0.134,0.406 -0.216,0.603 -0.045,0.108 -0.143,0.197 -0.18,0.307 -0.072,0.225 -0.108,0.461 -0.18,0.685 C 7.601,13.507 7.512,13.675 7.414,13.899 7.383,13.779 7.363,13.7 7.343,13.621 7.364,13.627 7.387,13.633 7.408,13.639 7.455,13.53 7.514,13.423 7.545,13.309 7.661,12.885 7.624,12.43 7.872,12.025 8.059,11.719 8.096,11.322 8.28,11.015 8.589,10.497 8.934,9.995 9.312,9.524 9.811,8.904 10.402,8.372 11.071,7.933 11.214,7.839 11.361,7.751 11.5,7.652 11.598,7.582 11.687,7.493 11.734,7.674 12.245,7.396 12.737,7.129 13.23,6.861 13.68,6.617 14.123,6.351 14.586,6.133 14.85,6.01 15.15,5.963 15.434,5.889 15.565,5.855 15.701,5.84 15.834,5.812 15.902,5.797 15.97,5.773 16.069,5.743 16.015,5.701 15.994,5.67 15.975,5.671 c -0.23,0.017 -0.463,0.021 -0.689,0.063 -0.237,0.044 -0.16921,0.1867711 -0.40321,0.2467711 -0.097,0.024 -0.141229,0.073804 -0.239229,0.087804 -0.02,0.003 -0.25715,0.067738 -0.26515,0.080738 -0.107,0.174 -0.406575,0.2187384 -0.565575,0.2677384 -0.099,0.03 -3.63297,2.0605625 -3.78397,2.0605625 -0.1069998,-0.196 1.899871,-1.2222064 1.934871,-1.4672064 -0.339,0.123 -1.585108,1.1046643 -1.897108,1.1396643 C 9.6976286,8.189072 12.117,6.362 11.796,6.442 11.782,6.42 11.769,6.396 11.754,6.374 12.018,6.216 12.281,6.058 12.546,5.902 12.592,5.875 12.669,5.87 12.688,5.833 c 0.165,-0.296 0.483,-0.265 0.74,-0.362 0.256,-0.098 0.513,-0.198 0.758,-0.328 -0.299,-0.115 -2.442053,1.1917159 -2.725053,1.1837159 0.089,-0.062 0.38515,-0.3082479 0.47415,-0.3702479 -0.008,-0.014 0.127411,-0.1146402 0.119411,-0.1286402 -0.105,0.035 -0.162196,0.029164 -0.266196,0.064164 -0.011,-0.02 -0.331725,0.1581824 -0.343725,0.1381824 0.108,-0.063 0.158229,-0.2186403 0.268229,-0.2776403 C 11.818816,5.6945334 13.835,4.801 13.945,4.746 13.935,4.722 13.925,4.697 13.916,4.673 13.779,4.711 13.637,4.737 13.504,4.788 13.189,4.907 12.87,5.018 12.569,5.169 12.133,5.386 11.714,5.635 11.286,5.871 11.083,5.983 10.878,6.09 10.677,6.204 10.287,6.419 10,6.741 9.721,7.085 9.458,7.409 9.144,7.688 8.866,7.997 8.634,8.254 10.450661,6.2085167 10.224661,6.4705167 c -0.134,0.154 0.351416,-0.2178743 0.216416,-0.062874 -0.049,0.056 0.180921,-0.1578227 0.140921,-0.093823 0.016,0.012 0.445299,-0.2568554 0.460299,-0.2438554 C 11.139297,5.9589643 7.897,9.252 7.996,9.141 7.703,9.679 11.441831,5.3216874 11.115321,6.2482812 11.628993,5.8722163 11.918881,6.0270932 10.974938,6.6945108 10.998938,6.6405108 7.169,10.661 7.2,10.613 7.407,10.29 7.619,9.97 7.822,9.646 7.947,9.445 8.046,9.229 8.176,9.032 8.303,8.841 9.9677537,6.7478488 10.119754,6.5748488 10.338754,6.3238488 9.043,7.99 9.278,7.754 9.466,7.565 9.674,7.393 9.889,7.198 9.877,7.277 9.869,7.339 9.86,7.401 9.881,7.414 9.903,7.425 9.924,7.439 10.009,7.311 10.095,7.183 10.18,7.055 c -0.041,0.414 1.463445,-1.030548 1.198445,-0.751548 0.011,0.022 0.09589,0.07096 0.105892,0.09296 0.056,-0.02 0.681239,-0.4753599 0.252868,-0.043029 -0.240548,0.4959483 -0.28353,0.1684812 -0.01253,0.1144812 -0.062,0.099 -0.0028,0.4764328 -0.05379,0.5194328 C 11.46888,7.1652974 9.795,8.252 9.743,8.535 9.735,8.571 9.685,8.624 9.654,8.625 9.29,8.634 9.23,8.909 9.156,9.177 8.951,9.138 8.92,9.176 8.926,9.484 8.883,9.453 8.851,9.431 8.818,9.407 8.478,10.032 8.137,10.656 7.776,11.319 7.719,11.203 7.683,11.13 7.63,11.019 7.534,11.253 7.348,11.402 7.38,11.666 7.394,11.773 7.3,11.892 7.248,12.023 7.222,12.004 7.193,11.984 7.147,11.952 7.113,12.056 7.081,12.156 7.049,12.258 7.041,12.249 7.034,12.242 7.027,12.233 6.972,12.285 6.883,12.328 6.869,12.389 6.792,12.72 6.731,13.055 6.669,13.39 6.624,13.643 6.577,13.898 6.545,14.153 6.528,14.297 6.543,14.445 6.543,14.591 6.516,14.593 6.488,14.594 6.462,14.595 6.455,14.496 6.448,14.396 6.442,14.296 6.43,14.295 6.418,14.295 6.404,14.294 c -0.038,0.141 -0.076,0.281 -0.112,0.418 0.081,0.039 0.146,0.07 0.23,0.109 0.037,-0.09 0.073,-0.18 0.108,-0.267 0.186,0.007 -0.092,0.334 0.208,0.252 -0.014,0.098 -0.04,0.192 -0.04,0.285 0.011,0.585 0.052,1.169 0.11,1.753 0.021,0.216 0.046,0.433 0.088,0.645 0.023,0.117 0.099,0.222 0.129,0.339 0.026,0.107 0.022,0.224 0.032,0.337 -0.026,0.003 -0.053,0.007 -0.08,0.012 C 6.934,17.594 6.79,17.014 6.646,16.432 6.626,16.431 6.607,16.431 6.587,16.431 c 0,0.174 -0.022,0.353 0.005,0.523 0.073,0.446 0.133,0.899 0.263,1.329 0.248,0.812 0.558,1.598 1.195,2.202 0.052,0.048 0.207,0.123 0.049,0.238 -0.005,0.004 0.04,0.093 0.074,0.128 0.115,0.115 0.235,0.224 0.354,0.334 -0.02,0.021 -0.038,0.042 -0.057,0.062 -0.072,-0.065 -0.144,-0.131 -0.208,-0.188 -0.35,0.065 -0.477,-0.198 -0.625,-0.43 -0.015,0.01 -0.029,0.019 -0.044,0.028 0.05,0.099 0.089,0.205 0.15,0.295 0.312,0.46 0.711,0.844 1.12,1.216 0.044,0.04 0.108,0.059 0.157,0.097 0.223,0.171 0.444,0.343 0.666,0.514 -0.013,0.02 -0.024,0.038 -0.038,0.056 C 9.416,22.722 9.184,22.605 8.948,22.497 8.857,22.456 8.756,22.439 8.659,22.412 8.246,22.295 8.006,21.973 7.768,21.651 7.498,21.29 7.242,20.922 6.966,20.535 6.722,20.792 7.103,20.876 7.094,21.07 7.045,21.057 7,21.042 6.922,21.018 7.126,21.472 7.424,21.821 7.746,22.155 7.726,22.173 7.708,22.187 7.688,22.204 7.538,22.046 7.367,21.901 7.243,21.725 7.024,21.414 6.839,21.079 6.628,20.763 6.571,20.677 6.471,20.619 6.393,20.546 6.367,20.523 6.337,20.493 6.326,20.461 6.27,20.306 6.22,20.146 6.158,19.963 6.012,20.268 6.665,21.824 7.013,22.015 6.99,21.907 6.971,21.822 6.953,21.737 c 0.014,-0.01 0.028,-0.019 0.042,-0.027 0.334,0.682 0.63,1.391 1.274,1.864 0.022,-0.019 0.062,-0.049 0.112,-0.087 0.076,0.149 0.146,0.285 0.216,0.421 0.481,-0.076 0.816,0.233 1.189,0.444 0.198,0.112 0.397,0.224 0.595,0.335 0.015,-0.02 0.028,-0.04 0.042,-0.059 -0.168,-0.148 -0.338,-0.295 -0.507,-0.44 0.011,-0.01 0.02,-0.019 0.029,-0.03 0.244,0.111 0.491,0.216 0.73,0.337 0.164,0.082 0.288,0.199 0.515,0.175 0.195,-0.023 0.408,0.108 0.673,0.192 -0.059,-0.129 -0.098,-0.212 -0.161,-0.349 0.232,0.134 0.423,0.242 0.614,0.352 0.088,0.05 0.18,0.106 0.195,-0.034 0.187,0.044 0.409,0.048 0.58,0.143 0.265,0.148 0.512,0.341 0.739,0.545 0.391,0.352 0.677,0.784 0.883,1.268 0.013,0.029 0.034,0.058 0.058,0.098 0.041,-0.036 0.071,-0.062 0.109,-0.098 0.058,0.398 0.164,0.777 0.021,1.165 -0.104,0.286 -0.219,0.555 -0.451,0.762 -0.04,0.035 -0.093,0.078 -0.101,0.124 -0.058,0.319 -0.34,0.426 -0.536,0.622 -0.238,0.241 -0.539,0.256 -0.813,0.369 -0.057,0.024 -0.147,-0.019 -0.217,-0.044 -0.055,-0.019 -0.418,0.033 -0.468,0.068 -0.076,0.055 -0.156,0.126 -0.242,0.137 -0.498,0.059 -1.003,0.159 -1.494,-0.013 C 10.281,29.873 9.986,29.735 9.716,29.571 9.278,29.305 8.839,29.033 8.443,28.713 8.09,28.427 7.647,28.257 7.371,27.875 6.852,27.158 6.104,26.68 5.493,26.058 4.97,25.528 4.416,25.026 4.008,24.393 3.734,23.969 3.42,23.569 3.167,23.132 2.925,22.717 2.736,22.268 2.53,21.831 2.415,21.58 2.303,21.33 2.21,21.072 2.054,20.638 1.915,20.198 1.752,19.714 1.848,19.789 1.896,19.827 1.946,19.866 1.961,19.856 1.974,19.848 1.988,19.84 1.905,19.674 1.822,19.507 1.74,19.34 1.718,19.292 1.683,19.243 1.675,19.194 1.495,18.211 1.498,17.217 1.503,16.223 c 0,-0.012 0.011,-0.023 0.036,-0.074 0.03,0.069 0.062,0.115 0.069,0.166 0.086,0.589 0.032,1.189 0.181,1.773 0.069,0.273 0.058,0.567 0.116,0.846 0.081,0.392 0.177,0.784 0.298,1.165 0.067,0.211 0.212,0.397 0.3,0.604 0.068,0.158 0.104,0.33 0.155,0.497 C 2.676,21.198 2.693,21.196 2.71,21.194 2.72,21.161 2.743,21.123 2.736,21.095 2.601,20.603 2.469,20.108 2.325,19.618 2.214,19.241 2.067,18.875 1.975,18.496 1.903,18.192 1.859,17.877 1.858,17.565 c -0.006,-0.875 0,-1.751 0.036,-2.625 0.018,-0.407 0.107,-0.812 0.18,-1.214 0.02,-0.11 0.109,-0.205 0.139,-0.314 0.08,-0.294 0.144,-0.594 0.216,-0.891 0.023,-0.097 0.087,-0.169 0.14,-0.248 C 2.703,12.072 2.855,11.851 2.778,11.565 2.754,11.474 2.804,11.351 2.844,11.253 3.082,10.657 3.324,10.063 3.562,9.47 3.605,9.363 3.64,9.253 3.678,9.144 3.703,9.151 3.73,9.157 3.754,9.164 3.734,9.283 3.73,9.407 3.689,9.517 3.629,9.675 6.1797993,6.0502024 6.1037993,6.2042024 c -0.06,0.121 3.5733759,-3.374597 2.3292388,-1.9166183 C 9.5603263,4.116555 9.8663266,3.1151188 11.462868,2.645598 c 5.053117,-0.3680083 2.525506,0.6394247 3.28557,0.4782867 z M 23.668,6.984 C 23.683,6.969 23.697,6.955 23.712,6.941 23.66,6.867 23.621,6.78 23.556,6.723 23.357,6.553 23.135,6.407 22.947,6.227 22.506,5.811 22.011,5.476 21.463,5.224 21.35,5.172 21.192,5.097 21.105,5.138 20.981,5.197 20.902,5.166 20.806,5.123 20.475,4.976 20.157,4.805 19.816,4.686 19.426,4.549 19.019,4.46 18.623,4.345 18.121,4.199 17.609,4.145 17.088,4.171 16.896,4.18 16.705,4.2 16.514,4.215 c 0.025,0.051 0.053,0.073 0.08,0.075 0.307,0.022 0.616,0.025 0.921,0.065 0.19,0.025 0.411,0.056 0.555,0.168 0.188,0.145 0.378,0.199 0.597,0.219 0.282,0.027 0.583,0.014 0.844,0.106 0.58,0.206 1.211,0.265 1.739,0.624 0.381,0.258 0.789,0.476 1.183,0.714 0.245,0.147 0.489,0.295 0.729,0.449 0.169,0.111 0.336,0.232 0.506,0.349 z M 11.422,5.49 c 0.009,0.024 0.02,0.05 0.028,0.074 0.469,-0.243 0.937,-0.485 1.405,-0.728 -0.553,0.059 -0.991,0.362 -1.433,0.654 z m 10.315,20.133 c 0.231,-0.057 0.981,-0.842 1.015,-1.04 -0.475,0.23 -0.606,0.771 -1.015,1.04 z M 6.487,11.151 c 0.028,0.016 0.056,0.031 0.084,0.046 C 6.778,10.791 7.089,10.444 7.23,10.002 7.21,9.991 7.19,9.981 7.172,9.969 6.943,10.364 6.716,10.757 6.487,11.151 Z M 22.614,7.65 c -0.02,0.022 -0.042,0.044 -0.062,0.067 0.297,0.286 0.594,0.571 0.892,0.857 C 23.46,8.557 23.475,8.541 23.49,8.524 23.223,8.208 22.947,7.9 22.614,7.65 Z M 6.977,19.003 C 6.949,19.016 6.919,19.027 6.89,19.04 6.974,19.241 7.057,19.443 7.141,19.645 7.172,19.631 7.203,19.619 7.234,19.606 7.149,19.405 7.063,19.203 6.977,19.003 Z M 8.095,10.387 C 8.113,10.393 8.13,10.401 8.148,10.408 8.25,10.209 8.353,10.009 8.455,9.81 8.292,9.981 8.098,10.134 8.095,10.387 Z M 23.25,25.142 c 0.021,0.021 0.042,0.042 0.062,0.063 0.156,-0.151 0.314,-0.303 0.471,-0.455 -0.02,-0.02 -0.036,-0.038 -0.055,-0.057 -0.159,0.151 -0.319,0.299 -0.478,0.449 z m 1.186,-1.165 c -0.021,-0.016 -0.039,-0.029 -0.06,-0.045 -0.161,0.212 -0.323,0.425 -0.486,0.636 0.017,0.014 0.031,0.025 0.047,0.038 0.167,-0.21 0.332,-0.42 0.499,-0.629 z M 4.449,13.035 C 4.423,13.023 4.397,13.011 4.371,13 4.323,13.161 4.275,13.323 4.228,13.484 4.253,13.492 4.28,13.5 4.305,13.508 4.353,13.35 4.4,13.192 4.449,13.035 Z m 18.302,12.522 c 0.02,0.022 0.036,0.045 0.054,0.066 0.129,-0.115 0.255,-0.23 0.384,-0.346 -0.014,-0.015 -0.026,-0.03 -0.039,-0.045 -0.134,0.108 -0.266,0.217 -0.399,0.325 z M 24.407,7.479 24.31,7.576 c 0.111,0.089 0.224,0.18 0.335,0.271 C 24.662,7.83 24.68,7.813 24.699,7.797 24.602,7.69 24.505,7.584 24.407,7.479 Z m -0.419,1.687 c 0.028,-0.02 0.058,-0.04 0.086,-0.058 -0.09,-0.118 -0.177,-0.237 -0.266,-0.355 -0.02,0.014 -0.042,0.029 -0.062,0.042 0.081,0.124 0.161,0.247 0.242,0.371 z"
           id="path6536"
           sodipodi:nodetypes="ccccccccccccccccccccccccccccccccccccccccccccccccccccccccccccccccccccccccccccccsccccccccccccccccccccccccccccccccccccccccccccccccccccccccccccccccccccccccccccccccccccccccccccccccccccccccccccccccccccccccccccccccccccccccccccccccccccccccccccccccccccccccccccccccccccccccccccccccccccccccccccccccccccccccccccccccccccccccccccccccccccccccccccccccccccccccccccccccccccccccccccccccccccccccccccccccccccccccccccccccccccccccccccccccccccccccccccccccccccccccccccccccccccccccccccccccccccccccccccccccccccccc" />
        <path
           inkscape:connector-curvature="0"
           d="m 22.806,23.433 c -0.035,-0.032 -0.062,-0.058 -0.123,-0.11 -0.076,0.081 -0.15,0.16 -0.224,0.239 -0.006,-0.006 -0.011,-0.01 -0.016,-0.016 0.098,-0.14 0.185,-0.29 0.298,-0.417 0.643,-0.721 1.106,-1.555 1.513,-2.421 0.165,-0.351 0.332,-0.707 0.426,-1.08 0.327,-1.291 0.504,-2.604 0.352,-3.938 -0.078,-0.677 -0.193,-1.351 -0.29,-2.025 -0.01,-0.067 -0.008,-0.135 -0.012,-0.202 0.018,-0.003 0.033,-0.005 0.05,-0.008 0.033,0.176 0.058,0.354 0.097,0.529 0.043,0.185 0.096,0.368 0.148,0.566 0.042,0.004 0.1,0.011 0.213,0.023 -0.057,0.125 -0.101,0.227 -0.146,0.327 -0.021,-0.007 -0.044,-0.014 -0.065,-0.021 0.056,0.275 0.111,0.552 0.164,0.829 0.009,0.047 0,0.096 0.006,0.143 0.02,0.181 0.053,0.358 0.06,0.54 0.005,0.137 -0.025,0.276 -0.032,0.415 -0.021,0.351 -0.038,0.701 -0.055,1.052 0,0.02 0.018,0.041 0.015,0.059 -0.068,0.338 -0.138,0.678 -0.213,1.016 -0.08,0.364 -0.143,0.732 -0.255,1.086 -0.103,0.328 -0.252,0.643 -0.394,0.956 -0.134,0.295 -0.277,0.586 -0.432,0.87 -0.094,0.172 -0.218,0.326 -0.33,0.489 -0.207,0.304 -0.411,0.608 -0.619,0.914 -0.042,0.059 -0.088,0.118 -0.136,0.185 z"
           id="path6538" />
        <path
           inkscape:connector-curvature="0"
           d="m 13.22198,2.9140964 c 0.345,-0.281 1.590664,-1.3466646 2.852739,-1.2580016 -1.179065,0.449771 0.93436,-0.1836345 1.14136,-0.1426345 -0.270319,0.1023857 0.262841,0.2104644 0.702921,0.1555393 1.000792,-0.023849 -0.03861,0.1353071 0.336395,0.2063071 0.088,0.032 1.193595,-0.013869 2.803991,0.843624 -1.233179,-0.3042422 -1.49258,-0.4370884 -2.175894,-0.391078 -0.46231,0.022615 -2.330449,-0.2874165 -2.736795,-0.2337144 -0.49835,0.057191 0.07345,0.00512 -0.306516,0.058691 C 15.5535,2.2070372 13.40798,2.8910964 13.22198,2.9140964 Z"
           id="path6540"
           sodipodi:nodetypes="cccccccccc" />
        <path
           inkscape:connector-curvature="0"
           d="M 6.619,7.067 C 6.678,6.982 6.737,6.897 6.795,6.812 6.781,6.799 6.766,6.788 6.752,6.775 6.571,6.975 6.391,7.175 6.211,7.376 6.201,7.37 6.19,7.363 6.179,7.357 6.201,7.312 6.213,7.26 6.245,7.225 6.442,7.004 6.642,6.786 6.842,6.57 7.059,6.338 7.275,6.108 7.5,5.884 7.647,5.738 7.812,5.608 7.963,5.465 8.055,5.38 8.132,5.277 8.227,5.195 8.364,5.075 8.504,4.956 8.657,4.856 9.068,4.584 9.485,4.317 9.907,4.06 10.011,3.996 10.143,3.978 10.281,3.97 10.04,4.12 9.794,4.263 9.559,4.421 9.21,4.656 8.853,4.883 8.526,5.15 8.284,5.349 8.086,5.605 7.868,5.836 7.518,6.205 7.169,6.572 6.818,6.939 6.766,6.993 6.705,7.036 6.646,7.083 6.638,7.077 6.628,7.071 6.619,7.067 Z"
           id="path6542" />
        <path
           inkscape:connector-curvature="0"
           d="m 15.44814,3.7556618 c -0.197817,-0.092996 -2.465066,0.7790489 -2.416066,0.8460489 -0.208,-0.05 1.561206,-1.63538 0.24718,-1.6066766 1.846437,-0.8995062 5.13887,-1.5497396 7.483989,-0.2730993 -0.329,0.333 -3.482282,0.1271834 -4.257623,0.7185209 -0.098,-0.33 -0.92048,0.3742067 -1.05748,0.3152061 z"
           id="path6544"
           sodipodi:nodetypes="cccccc" />
        <path
           inkscape:connector-curvature="0"
           d="M 6.142,6.528 C 6.147,6.465 6.153,6.401 6.16,6.326 6.105,6.311 6.058,6.298 5.957,6.271 6.108,6.068 6.243,5.887 6.376,5.706 6.397,5.717 6.417,5.727 6.437,5.739 6.444,5.795 6.451,5.852 6.463,5.962 6.606,5.774 6.725,5.617 6.843,5.462 6.857,5.472 6.869,5.482 6.883,5.492 6.63,5.827 6.64,6.344 6.142,6.528 Z"
           id="path6546" />
        <path
           inkscape:connector-curvature="0"
           d="m 14.730256,3.9196827 c 1.526262,-0.9620653 3.984669,-1.9122621 5.950663,-1.1936318 1.560806,0.5705217 2.679209,2.4731292 3.714104,4.2622723 -2.3633,-0.1910255 -5.858635,-2.0911399 -9.664767,-3.0686405 z"
           id="path6548"
           sodipodi:nodetypes="cscc" />
        <path
           inkscape:connector-curvature="0"
           d="m 25.494,14.793 c 0.037,0.515 0.072,1.028 0.109,1.543 -0.033,0.003 -0.066,0.006 -0.099,0.009 -0.039,-0.513 -0.079,-1.026 -0.117,-1.539 0.036,-0.005 0.072,-0.009 0.107,-0.013 z"
           id="path6550" />
        <path
           inkscape:connector-curvature="0"
           d="m 14.153029,1.9309804 c -0.197534,0.041812 -0.02102,0.396467 -0.262544,0.5677766 -0.502236,0.3562229 -1.318031,0.5999405 -2.831429,0.7477814 0.577372,-0.8016843 1.776353,-1.2695417 3.093973,-1.315558 z"
           id="path6552"
           sodipodi:nodetypes="cscc" />
        <path
           inkscape:connector-curvature="0"
           d="m 24.258,11.893 c 0.162,0.434 0.324,0.869 0.485,1.303 -0.024,0.009 -0.05,0.019 -0.074,0.028 -0.158,-0.436 -0.315,-0.872 -0.473,-1.308 0.021,-0.008 0.041,-0.016 0.062,-0.023 z"
           id="path6554" />
        <path
           inkscape:connector-curvature="0"
           d="m 13.827334,1.8150615 c 0.021,-0.15 0.063,-0.217 0.203,-0.206 0.107,0.008 0.216,-0.029 0.326,-0.035 0.04,-0.001 0.08,0.03 0.12,0.047 -0.021,0.038 -0.042,0.076 -0.065,0.111 -0.007,0.009 -0.024,0.015 -0.037,0.017 -0.175,0.021 -0.351,0.042 -0.547,0.066 z"
           id="path6556" />
        <path
           inkscape:connector-curvature="0"
           d="M 16.923,1.403 C 16.703,1.436 16.482,1.467 16.262,1.5 16.258,1.478 16.254,1.455 16.249,1.433 16.44,1.258 16.689,1.365 16.904,1.3 c 0.008,0.034 0.014,0.068 0.019,0.103 z"
           id="path6558" />
        <path
           inkscape:connector-curvature="0"
           d="M 5.93,7.904 C 5.757,8.161 5.585,8.418 5.413,8.675 5.392,8.661 5.37,8.647 5.351,8.634 5.523,8.376 5.693,8.118 5.866,7.859 5.886,7.874 5.907,7.89 5.93,7.904 Z"
           id="path6560" />
        <path
           inkscape:connector-curvature="0"
           d="m 22.547,23.704 c -0.222,0.194 -0.444,0.389 -0.665,0.583 -0.02,-0.022 -0.038,-0.044 -0.058,-0.066 0.224,-0.194 0.448,-0.389 0.672,-0.582 0.016,0.021 0.033,0.044 0.051,0.065 z"
           id="path6562" />
        <path
           inkscape:connector-curvature="0"
           d="m 20.591,25.704 c -0.236,0.153 -0.474,0.305 -0.71,0.456 -0.015,-0.021 -0.029,-0.044 -0.045,-0.066 0.234,-0.157 0.468,-0.314 0.702,-0.472 0.017,0.027 0.035,0.055 0.053,0.082 z"
           id="path6564" />
        <path
           inkscape:connector-curvature="0"
           d="M 6.936,7.638 C 7.132,7.408 7.328,7.177 7.524,6.946 7.544,6.963 7.565,6.98 7.585,6.998 7.39,7.23 7.194,7.461 6.999,7.693 6.978,7.675 6.957,7.657 6.936,7.638 Z"
           id="path6566" />
        <path
           inkscape:connector-curvature="0"
           d="m 21.979,24.44 c -0.19,0.128 -0.381,0.255 -0.577,0.387 0.055,-0.192 0.153,-0.273 0.537,-0.435 0.015,0.016 0.026,0.033 0.04,0.048 z"
           id="path6568" />
        <path
           inkscape:connector-curvature="0"
           d="M 12.625,6.624 C 12.462,6.726 12.3,6.828 12.137,6.93 12.123,6.921 12.111,6.913 12.097,6.905 c 0.024,-0.082 0.05,-0.164 0.083,-0.276 0.056,0.062 0.081,0.09 0.105,0.117 0.096,-0.066 0.19,-0.133 0.286,-0.2 0.018,0.026 0.036,0.052 0.054,0.078 z"
           id="path6570" />
        <path
           inkscape:connector-curvature="0"
           d="m 15.304,3.227 c 0.252,-0.031 0.503,-0.062 0.756,-0.093 0.003,0.018 0.004,0.037 0.007,0.054 -0.253,0.03 -0.505,0.061 -0.758,0.091 C 15.308,3.262 15.306,3.244 15.304,3.227 Z"
           id="path6572" />
        <path
           inkscape:connector-curvature="0"
           d="m 18.36,28.581 c -0.18,0.067 -0.358,0.137 -0.536,0.204 -0.011,-0.026 -0.021,-0.054 -0.03,-0.08 0.177,-0.064 0.355,-0.13 0.532,-0.193 0.011,0.023 0.022,0.046 0.034,0.069 z"
           id="path6574" />
        <path
           inkscape:connector-curvature="0"
           d="M 8.877,5.714 C 8.732,5.904 8.588,6.095 8.443,6.288 8.418,6.267 8.395,6.248 8.37,6.227 8.506,6.029 8.725,5.902 8.88,5.719 L 8.877,5.714 Z"
           id="path6576" />
        <path
           inkscape:connector-curvature="0"
           d="m 23.923,11.105 c 0.088,0.191 0.177,0.381 0.263,0.572 -0.018,0.008 -0.036,0.018 -0.054,0.026 -0.093,-0.186 -0.184,-0.373 -0.275,-0.56 0.021,-0.013 0.044,-0.026 0.066,-0.038 z"
           id="path6578" />
        <path
           inkscape:connector-curvature="0"
           d="m 24.34,4.621 c 0.144,0.097 0.289,0.192 0.433,0.288 -0.015,0.022 -0.029,0.046 -0.044,0.07 C 24.583,4.883 24.437,4.789 24.291,4.693 24.307,4.668 24.323,4.645 24.34,4.621 Z"
           id="path6580" />
        <path
           inkscape:connector-curvature="0"
           d="M 6.712,9.038 C 6.712,8.782 6.766,8.711 6.998,8.631 6.896,8.775 6.803,8.906 6.712,9.038 Z"
           id="path6582" />
        <path
           inkscape:connector-curvature="0"
           d="M 8.88,5.72 C 9,5.634 9.12,5.55 9.239,5.465 9.11,5.77 9.05,5.802 8.877,5.715 8.877,5.714 8.88,5.72 8.88,5.72 Z"
           id="path6584" />
        <path
           inkscape:connector-curvature="0"
           d="M 5.631,10.276 C 5.549,10.433 5.468,10.591 5.386,10.748 5.362,10.737 5.34,10.726 5.317,10.715 5.398,10.557 5.48,10.399 5.562,10.241 c 0.023,0.013 0.045,0.024 0.069,0.035 z"
           id="path6586" />
        <path
           inkscape:connector-curvature="0"
           d="M 16.861,1.079 C 17.014,1.053 17.167,1.027 17.318,1 17.322,1.022 17.325,1.046 17.329,1.068 17.177,1.091 17.023,1.114 16.872,1.137 16.868,1.118 16.865,1.099 16.861,1.079 Z"
           id="path6588" />
        <path
           inkscape:connector-curvature="0"
           d="m 8.011,20.04 c 0.081,0.127 0.163,0.254 0.245,0.382 -0.021,0.014 -0.043,0.026 -0.064,0.04 C 8.109,20.333 8.027,20.205 7.945,20.076 7.966,20.063 7.988,20.053 8.011,20.04 Z"
           id="path6590" />
        <path
           inkscape:connector-curvature="0"
           d="M 4.845,10.445 C 4.931,10.29 5.017,10.135 5.104,9.982 5.118,9.99 5.132,9.997 5.146,10.003 5.068,10.161 4.99,10.318 4.912,10.476 4.889,10.467 4.867,10.455 4.845,10.445 Z"
           id="path6592" />
        <path
           inkscape:connector-curvature="0"
           d="m 20.43,25.532 c 0.142,-0.103 0.284,-0.207 0.425,-0.31 0.017,0.021 0.03,0.044 0.046,0.063 -0.145,0.099 -0.291,0.194 -0.436,0.293 -0.013,-0.015 -0.024,-0.03 -0.035,-0.046 z"
           id="path6594" />
      </g>
      <g
         transform="matrix(1.342768,-1.2631392,1.342768,1.2631392,-903.21696,309.77278)"
         id="layer1-4"
         inkscape:label="Layer 1">
        <path
           inkscape:connector-curvature="0"
           id="path3196"
           d="m 585.632,594.499 c -0.136,-0.135 -8.444,-0.384 -18.466,-0.553 -10.021,-0.17 -18.668,-0.479 -19.217,-0.686 -0.547,-0.207 -4.729,-0.503 -9.293,-0.657 -31.843,-1.075 -50.995,-1.777 -56.427,-2.069 -7.825,-0.42 -7.791,-0.42 -10.645,0.068 -1.567,0.27 -3.652,-0.056 -6.283,-0.979 -2.165,-0.762 -4.693,-1.424 -5.619,-1.474 -4.163,-0.219 5.839,-1.137 13.917,-1.276 7.811,-0.137 8.366,-0.213 4.315,-0.602 -2.556,-0.244 -5.692,-0.778 -6.971,-1.187 -4.295,-1.373 -15.877,-2.156 -31.724,-2.146 -14.842,0.01 -20.239,0.58 -15.871,1.676 0.985,0.247 1.79,0.682 1.79,0.965 0,0.283 1.718,0.729 3.817,0.987 6.029,0.747 7.256,2.464 2.655,3.718 -2.698,0.736 -85.505,0.493 -129.945,-0.379 -46.414,-0.911 -59.47,-0.993 -62.953,-0.395 -5.808,0.997 -24.263,1.416 -31.112,0.706 -4.956,-0.514 -7.083,-0.434 -10.974,0.417 -6.968,1.523 -61.367,1.546 -73.533,0.028 -4.564,-0.567 -10.837,-1.225 -13.94,-1.458 -3.104,-0.235 -7.734,-1.132 -10.29,-1.994 -2.556,-0.862 -6.656,-1.886 -9.111,-2.271 -2.456,-0.387 -5.293,-1.019 -6.307,-1.404 -1.829,-0.698 -16.919,-4.415 -20.098,-4.952 -0.913,-0.154 -2.706,-0.552 -3.983,-0.887 -4.594,-1.197 0.5,-0.694 9.293,0.918 10.487,1.925 13.641,2.072 14.181,0.664 0.21,-0.547 0.964,-0.996 1.676,-0.996 0.712,0 1.78,-0.187 2.374,-0.414 0.938,-0.359 0.893,-0.545 -0.338,-1.407 -1.185,-0.83 -1.681,-0.854 -3.02,-0.136 -1.347,0.721 -2.447,0.655 -6.91,-0.407 -5.734,-1.367 -7.174,-2.513 -2.321,-1.848 1.761,0.242 2.987,0.146 2.987,-0.231 0,-0.607 -7.72,-2.32 -14.937,-3.313 -2.792,-0.385 -3.056,-0.533 -1.659,-0.931 0.913,-0.261 2.705,-0.529 3.983,-0.597 2.167,-0.115 2.209,-0.158 0.632,-0.637 -0.931,-0.282 -6.606,-1.022 -12.613,-1.644 -17.24,-1.784 -18.293,-1.921 -17.054,-2.206 0.644,-0.149 0.999,-0.547 0.791,-0.884 -0.209,-0.338 0.227,-0.613 0.967,-0.613 0.923,0 1.226,-0.313 0.964,-0.996 -0.438,-1.14 1.417,-1.409 2.1,-0.306 0.273,0.442 2.966,0.577 7.458,0.373 5.575,-0.251 7.156,-0.54 7.635,-1.396 0.332,-0.594 1.25,-1.325 2.041,-1.626 1.246,-0.475 1.083,-0.607 -1.218,-1.005 -3.814,-0.658 -4.451,-0.927 -3.986,-1.678 0.227,-0.368 -0.071,-0.669 -0.661,-0.669 -0.591,0 -0.89,0.299 -0.664,0.664 0.226,0.364 -0.023,0.664 -0.554,0.664 -0.531,0 -1.136,-0.449 -1.346,-0.996 -0.22,-0.571 -1.311,-1.038 -2.561,-1.096 -1.902,-0.088 0.366,-0.39 10.957,-1.464 3.681,-0.373 3.696,-0.935 0.037,-1.41 -1.768,-0.229 -3.96,-0.594 -4.874,-0.811 -1.565,-0.369 -1.528,-0.424 0.664,-0.937 1.278,-0.299 2.712,-0.408 3.188,-0.243 0.476,0.166 0.682,0.008 0.458,-0.354 -0.223,-0.36 -1.358,-0.675 -2.523,-0.698 -2.025,-0.04 -2.048,-0.07 -0.529,-0.679 0.875,-0.349 2.07,-0.486 2.655,-0.303 0.586,0.182 2.41,-0.091 4.053,-0.605 l 2.987,-0.938 -2.49,-0.044 c -2.571,-0.046 -3.375,-1.027 -1.328,-1.618 0.639,-0.186 3.253,-0.521 5.809,-0.743 6.021,-0.526 7.634,-0.882 7.634,-1.679 0,-0.358 -0.709,-0.651 -1.577,-0.651 -3.034,0 -5.891,-0.814 -4.95,-1.412 0.486,-0.307 1.556,-0.563 2.377,-0.569 0.821,-0.005 1.494,-0.274 1.494,-0.599 0,-0.823 -3.67,-1.48 -7.8,-1.397 -5.784,0.116 -3.92,-1.115 2.987,-1.975 3.56,-0.442 7.368,-1.209 8.464,-1.702 1.095,-0.494 3.187,-1.209 4.647,-1.59 3.175,-0.827 5.082,-3.677 2.851,-4.261 -0.708,-0.186 -2.386,-0.183 -3.729,0.005 l -2.441,0.342 1.901,-1.056 c 1.046,-0.58 2.838,-1.059 3.983,-1.063 2.935,-0.013 5.124,-0.692 4.659,-1.445 -0.246,-0.398 0.821,-0.478 2.829,-0.209 1.842,0.246 2.88,0.187 2.421,-0.138 -0.839,-0.594 15.225,-3.818 22.848,-4.587 4.068,-0.409 5.494,-1.235 6.358,-3.68 0.586,-1.66 -0.981,-1.979 -9.814,-1.987 -4.381,-0.005 -9.311,-0.217 -10.954,-0.47 l -2.987,-0.462 5.311,-0.847 c 2.92,-0.467 6.356,-1.12 7.634,-1.452 3.857,-1.004 15.634,-1.651 26.886,-1.479 30.769,0.474 53.567,1.467 71.031,3.095 4.988,0.465 9.75,0.578 11.285,0.268 4.42,-0.894 62.696,-1.395 63.717,-0.548 0.483,0.401 3.521,0.912 6.751,1.136 3.229,0.225 6.471,0.779 7.2,1.232 4.14,2.569 11.227,3.403 25.151,2.955 6.24,-0.199 7.343,-0.075 8.063,0.912 0.889,1.215 1.618,1.27 27.526,2.067 6.024,0.186 15.136,0.581 20.247,0.88 8.44,0.492 20.157,0.552 32.527,0.166 5.011,-0.157 9.631,0.386 12.281,1.441 0.913,0.363 9.258,0.771 18.544,0.906 10.005,0.146 17.047,0.51 17.284,0.895 0.468,0.756 8.781,1.831 20.737,2.68 4.64,0.331 10.765,0.896 13.608,1.26 9.45,1.204 26.877,1.615 29.917,0.705 1.518,-0.455 2.625,-1.047 2.46,-1.313 -0.165,-0.269 -2.321,-0.731 -4.791,-1.028 -4.253,-0.511 -4.351,-0.561 -1.835,-0.925 l 2.655,-0.386 -3.484,-0.878 c -1.915,-0.483 -3.325,-1.132 -3.134,-1.443 0.48,-0.776 -4.053,-1.557 -5.492,-0.945 -1.014,0.432 -0.95,0.57 0.493,1.06 0.993,0.337 -1.539,0.432 -6.307,0.234 -5.877,-0.242 -8.152,-0.579 -8.681,-1.287 -0.441,-0.594 -2.468,-1.111 -5.311,-1.356 -6.734,-0.579 -8.987,-0.994 -8.623,-1.583 0.551,-0.892 8.037,-0.818 23.846,0.236 8.345,0.556 15.441,0.845 15.771,0.642 1.097,-0.678 5.896,-0.454 6.827,0.32 0.509,0.421 3.991,0.88 7.797,1.025 3.782,0.144 8.37,0.565 10.196,0.935 1.825,0.371 5.858,0.704 8.961,0.743 6.971,0.086 23.04,1.584 23.662,2.207 0.252,0.251 -1.907,0.483 -4.797,0.516 -2.892,0.032 -6.797,0.107 -8.678,0.168 -1.883,0.06 -3.3,-0.091 -3.149,-0.335 0.554,-0.895 -6.384,-1.832 -10.627,-1.436 -3.809,0.355 -4.22,0.521 -3.211,1.288 1.719,1.304 0.08,1.133 -4.672,-0.488 -4.593,-1.565 -7.388,-1.734 -8.837,-0.531 -0.644,0.534 -2.455,0.688 -5.431,0.459 l -4.465,-0.342 3.319,0.782 c 3.021,0.714 3.199,0.857 1.991,1.603 -1.068,0.659 1.717,0.764 14.272,0.536 8.581,-0.156 20.081,-0.465 25.558,-0.688 26.737,-1.085 56.57,-0.906 54.722,0.329 -0.613,0.41 5.157,0.573 16.309,0.461 14.269,-0.145 17.52,-0.007 18.754,0.8 2.153,1.404 1.857,2.629 -0.664,2.749 -1.187,0.056 -10.97,0.183 -21.74,0.283 -10.771,0.1 -20.777,0.345 -22.239,0.545 -1.46,0.201 -6.538,0.522 -11.285,0.716 -17.862,0.729 -23.553,1.155 -23.193,1.738 0.203,0.328 1.099,0.598 1.99,0.598 0.891,0 1.62,0.239 1.62,0.53 0,0.292 -1.12,0.428 -2.489,0.301 -2.113,-0.195 -2.303,-0.114 -1.249,0.542 0.901,0.562 4.261,0.636 12.281,0.271 13.717,-0.625 20.358,-0.589 21.469,0.115 0.472,0.298 5.786,0.49 11.811,0.425 9.646,-0.104 10.801,-0.005 9.675,0.833 -1.262,0.938 -1.032,1.875 0.495,2.019 0.431,0.04 2.053,0.118 3.604,0.174 1.863,0.067 2.766,0.384 2.655,0.931 -0.098,0.487 0.383,0.753 1.162,0.645 0.729,-0.103 3.567,-0.229 6.305,-0.282 3.126,-0.063 5.305,-0.426 5.856,-0.977 0.729,-0.729 0.672,-0.889 -0.331,-0.932 -0.703,-0.03 -0.86,-0.192 -0.375,-0.389 1.215,-0.49 0.323,-1.539 -1.371,-1.616 -1.354,-0.062 -1.339,-0.103 0.205,-0.599 4.438,-1.421 10.333,-0.046 8.44,1.969 -0.656,0.699 -0.135,0.784 2.794,0.459 3.685,-0.41 6.344,-1.764 3.463,-1.764 -2.535,0 -0.967,-1.117 2.175,-1.549 1.927,-0.264 3.764,-0.073 5.238,0.543 1.743,0.729 2.853,0.788 4.765,0.261 2.449,-0.676 6.047,-0.53 15.278,0.621 2.556,0.318 3.751,0.635 2.655,0.704 -1.65,0.104 -1.798,0.237 -0.867,0.78 0.74,0.432 2.101,0.431 3.983,-0.004 2.96,-0.684 18.896,-0.879 17.131,-0.21 -0.547,0.206 -1.234,0.78 -1.526,1.274 -0.291,0.494 -1.188,0.903 -1.991,0.909 -0.804,0.005 -1.9,0.287 -2.438,0.627 -1.754,1.11 0.835,1.507 4.721,0.725 1.958,-0.394 4.454,-0.829 5.55,-0.97 8.955,-1.14 14.242,-1.691 15.932,-1.663 1.685,0.027 1.787,0.117 0.664,0.576 -7.617,3.116 -21.704,5.723 -24.771,4.584 -1.915,-0.71 -7.363,-0.673 -11.74,0.08 -2.075,0.358 -4.212,0.315 -5.701,-0.112 -1.89,-0.542 -2.809,-0.463 -4.45,0.387 -1.645,0.851 -3.387,0.998 -8.525,0.726 -3.553,-0.189 -6.602,-0.484 -6.775,-0.658 -0.173,-0.174 -0.642,-0.047 -1.041,0.282 -0.397,0.329 -1.824,0.804 -3.168,1.056 -2.253,0.42 -2.416,0.346 -2.08,-0.937 0.35,-1.339 0.119,-1.396 -5.854,-1.464 -3.42,-0.039 -9.503,-0.188 -13.521,-0.329 -13.061,-0.463 -18.05,-0.47 -18.771,-0.023 -0.39,0.241 -5.512,0.464 -11.381,0.498 -5.869,0.032 -10.673,0.3 -10.673,0.594 0,1.136 16.787,1.59 43.149,1.167 6.024,-0.098 11.999,0.013 13.276,0.245 2.213,0.401 2.231,0.425 0.365,0.498 -1.384,0.054 -1.751,0.284 -1.251,0.783 0.389,0.389 4.044,0.798 8.123,0.91 4.08,0.111 7.605,0.392 7.835,0.621 0.23,0.229 -0.305,0.42 -1.187,0.421 -1.536,0.004 -1.521,0.05 0.387,1.067 1.599,0.853 3.272,0.987 8.487,0.686 4.079,-0.235 6.35,-0.139 6.102,0.261 -0.217,0.352 -1.944,0.643 -3.841,0.648 -3.918,0.012 -6.206,0.936 -4.212,1.702 0.653,0.25 2.775,0.292 4.718,0.091 2.152,-0.222 3.813,-0.082 4.254,0.361 0.517,0.517 1.641,0.526 3.896,0.038 1.742,-0.379 5.382,-0.545 8.088,-0.368 l 4.921,0.318 -2.264,0.952 c -1.244,0.523 -4.746,1.021 -7.783,1.108 -3.035,0.086 -5.726,0.467 -5.976,0.848 -0.642,0.971 -10.149,2.439 -10.905,1.685 -0.363,-0.364 0.349,-0.783 1.787,-1.054 1.315,-0.247 2.26,-0.661 2.099,-0.921 -0.462,-0.748 -11.313,-0.271 -11.573,0.509 -0.127,0.382 0.392,0.694 1.153,0.694 0.76,0 1.382,0.261 1.382,0.58 0,0.317 -5.784,0.583 -12.853,0.59 -12.888,0.01 -18.348,0.456 -18.348,1.496 0,0.749 6.344,1.499 12.548,1.481 12.278,-0.035 23.857,-0.483 23.186,-0.898 -1.07,-0.661 5.917,-1.042 9.407,-0.512 2.596,0.394 11.573,-0.297 23.821,-1.831 2.746,-0.345 3.51,-0.253 3.295,0.395 -0.381,1.142 -6.32,3.335 -9.192,3.393 -1.277,0.026 -2.921,0.304 -3.651,0.617 -1.948,0.838 3.725,0.856 5.926,0.019 0.934,-0.354 2.163,-0.466 2.735,-0.246 0.814,0.313 0.625,0.647 -0.88,1.563 -1.055,0.642 -2.788,1.361 -3.853,1.6 -1.065,0.238 -2.684,1.044 -3.597,1.789 l -1.66,1.356 3.983,-0.379 c 2.191,-0.207 5.179,-0.53 6.639,-0.717 1.618,-0.206 0.926,0.115 -1.771,0.823 -7.72,2.026 -7.041,2.347 4.917,2.323 10.475,-0.021 6.815,0.926 -5.575,1.441 -6.29,0.262 -12.049,0.805 -12.801,1.207 -0.751,0.401 -2.859,0.839 -4.685,0.971 -3.986,0.29 -5.184,0.656 -4.701,1.439 0.547,0.884 -4.391,1.957 -12.839,2.791 -4.171,0.411 -8.054,0.993 -8.63,1.294 -0.576,0.301 -4.31,0.869 -8.297,1.262 -4.775,0.471 -7.638,1.064 -8.386,1.742 -0.755,0.684 -1.725,0.881 -2.888,0.589 -1.659,-0.416 -3.381,0.03 -8.102,2.1 -1.137,0.498 -5.008,1.232 -8.604,1.633 -5.313,0.593 -6.718,0.982 -7.483,2.076 -0.914,1.306 -1.476,1.34 -18.115,1.108 -9.446,-0.131 -17.174,-0.014 -17.174,0.261 0,0.275 0.359,0.499 0.798,0.499 0.493,0 0.557,0.222 0.166,0.582 -0.626,0.585 -8.62,1.493 -9.079,1.034 l 0,0 z M 58.828,561.232 c -0.479,-0.192 -1.052,-0.169 -1.272,0.052 -0.221,0.222 0.171,0.378 0.871,0.349 0.773,-0.032 0.93,-0.19 0.401,-0.401 l 0,0 z m 561.7,-2.166 c 2.938,-0.969 10.957,-1.414 11.439,-0.634 0.409,0.663 10.132,0.68 13.197,0.021 2.404,-0.516 2.612,-1.654 0.369,-2.011 -3.008,-0.479 7.346,-1.951 14.107,-2.007 3.837,-0.031 6.472,-0.323 6.472,-0.716 0,-0.852 -55.036,-0.894 -56.379,-0.043 -0.695,0.439 -0.251,0.72 1.659,1.04 5.295,0.891 4.705,0.946 -13.101,1.242 -5.077,0.084 -6.931,0.676 -5.292,1.687 0.665,0.412 0.588,0.644 -0.332,0.996 -2.687,1.03 0.84,1.379 12.936,1.282 7.357,-0.059 13.596,-0.418 14.925,-0.857 l 0,0 z m -24.131,-1.374 c 1.271,-0.301 2.714,-0.323 3.207,-0.047 0.508,0.284 -0.493,0.522 -2.311,0.549 -3.074,0.047 -3.11,0.025 -0.896,-0.502 l 0,0 z m 30.55,-1.994 c -1.031,-0.337 -0.15,-0.403 2.323,-0.174 2.191,0.204 4.107,0.479 4.261,0.61 0.535,0.465 -4.945,0.102 -6.584,-0.436 z m 44.717,1.673 c 0.319,-0.83 -0.436,-0.996 -4.521,-0.996 -2.696,0 -5.401,0.19 -6.009,0.424 -2.098,0.806 0.477,1.547 5.406,1.558 3.609,0.007 4.834,-0.23 5.124,-0.986 z m -72.143,-13.62 c 5.193,-0.012 7.816,-0.998 4.146,-1.562 -7.044,-1.078 -8.73,-1.096 -8.343,-0.085 0.352,0.914 -0.356,1.314 -1.833,1.038 -0.328,-0.061 -1.067,0.069 -1.642,0.289 -0.883,0.339 -0.898,0.49 -0.103,0.983 0.546,0.337 1.425,0.322 2.096,-0.037 0.634,-0.337 3.19,-0.621 5.679,-0.626 z m 35.724,-0.549 1.991,-0.59 -2.548,-0.506 c -2.792,-0.555 -11.089,-0.143 -12.308,0.61 -0.422,0.26 -0.603,0.736 -0.403,1.06 0.433,0.7 10.426,0.267 13.268,-0.574 l 0,0 z m 4.978,-0.768 c 0,-0.366 -0.43,-0.664 -0.957,-0.664 -0.524,0 -1.141,0.298 -1.366,0.664 -0.226,0.364 0.205,0.664 0.957,0.664 0.752,0 1.366,-0.3 1.366,-0.664 z m -48.46,-0.703 c 0,-0.388 -0.298,-0.519 -0.664,-0.293 -0.364,0.226 -0.663,0.542 -0.663,0.703 0,0.161 0.299,0.293 0.663,0.293 0.366,0 0.664,-0.316 0.664,-0.703 z m 33.41,-1.059 c 1.728,-0.287 2.259,-0.6 1.659,-0.979 -1.764,-1.117 -12.188,-0.359 -11.45,0.834 0.415,0.672 6.093,0.756 9.791,0.145 z m -94.325,-15.967 c -0.825,-0.159 -2.02,-0.152 -2.655,0.014 -0.634,0.166 0.042,0.295 1.502,0.289 1.461,-0.008 1.979,-0.145 1.153,-0.303 z m -24.388,-1.522 c -0.226,-0.366 -1.362,-0.635 -2.528,-0.598 -2.022,0.063 -2.043,0.089 -0.459,0.598 2.385,0.764 3.459,0.764 2.987,0 z M 50.073,577.638 c -1.842,-0.371 -1.367,-0.482 2.295,-0.535 3.054,-0.045 4.291,0.141 3.651,0.545 -1.08,0.684 -2.516,0.682 -5.946,-0.01 z m -25.34,-15.224 c -2.071,-0.223 -3.989,-0.627 -4.262,-0.9 -0.273,-0.273 0.824,-0.354 2.438,-0.18 1.614,0.177 4.844,0.47 7.179,0.651 2.334,0.183 4.4,0.488 4.591,0.681 0.427,0.426 -4.868,0.292 -9.946,-0.252 z m 684.197,-3.46 c 5.556,-1.229 15.51,-2.315 14.844,-1.62 -0.576,0.601 -12.273,2.353 -15.176,2.272 l -2.323,-0.065 2.655,-0.587 0,0 z m 4.495,-6.299 c 0.221,-0.222 0.794,-0.245 1.272,-0.054 0.53,0.213 0.372,0.37 -0.4,0.401 -0.7,0.03 -1.091,-0.127 -0.872,-0.347 l 0,0 z m 4.15,-0.285 c 0.218,-0.354 2.221,-0.642 4.451,-0.642 5.066,0 4.783,0.374 -0.673,0.889 -2.616,0.247 -4.027,0.153 -3.778,-0.247 z m 9.943,-0.642 c 0.226,-0.366 0.915,-0.66 1.532,-0.654 0.969,0.008 0.985,0.099 0.127,0.654 -1.299,0.84 -2.177,0.84 -1.659,0 z m -83.131,-11.022 c 0.22,-0.222 0.793,-0.245 1.271,-0.053 0.53,0.212 0.372,0.369 -0.4,0.4 -0.7,0.03 -1.091,-0.127 -0.871,-0.347 l 0,0 z m -5.159,-2.312 c -1.82,-0.411 -1.85,-0.458 -0.332,-0.534 0.912,-0.047 3.229,-0.272 5.145,-0.503 2.993,-0.359 3.485,-0.261 3.485,0.702 0,0.918 -0.57,1.091 -3.153,0.953 -1.734,-0.092 -4.05,-0.371 -5.145,-0.618 z m 66.896,-0.344 c 0.221,-0.222 0.793,-0.245 1.271,-0.053 0.53,0.212 0.372,0.369 -0.4,0.4 -0.701,0.03 -1.092,-0.126 -0.871,-0.347 l 0,0 z m -24.563,-5.31 c 0.221,-0.222 0.794,-0.245 1.272,-0.054 0.53,0.213 0.372,0.37 -0.4,0.401 -0.7,0.03 -1.092,-0.127 -0.872,-0.347 l 0,0 z m -8.583,-2.746 c -3.459,-0.166 -4.856,-0.499 -5.136,-1.224 -0.313,-0.818 0.045,-0.917 1.989,-0.553 1.36,0.255 5.669,-0.078 10.113,-0.782 5.655,-0.896 7.206,-1.33 5.751,-1.608 -1.51,-0.291 -0.871,-0.494 2.656,-0.845 2.555,-0.254 5.692,-0.455 6.97,-0.445 2.225,0.016 2.268,0.06 0.996,1.038 -0.833,0.641 -2.111,0.9 -3.43,0.694 -1.378,-0.217 -4.352,0.448 -8.63,1.929 -3.59,1.243 -6.528,2.207 -6.528,2.142 0,-0.065 -2.137,-0.222 -4.751,-0.346 l 0,0 z m -185.257,-5.22 c 0.221,-0.222 0.794,-0.245 1.271,-0.054 0.531,0.213 0.373,0.37 -0.4,0.4 -0.7,0.031 -1.092,-0.126 -0.871,-0.346 l 0,0 z m 104.54,-0.732 c 0.822,-0.159 2.167,-0.159 2.987,0 0.822,0.158 0.149,0.286 -1.494,0.286 -1.642,10e-4 -2.313,-0.127 -1.493,-0.286 z m -110.694,-0.806 -2.987,-0.412 3.319,-0.427 c 1.825,-0.236 3.4,-0.207 3.502,0.061 0.1,0.271 1.113,0.354 2.25,0.188 1.434,-0.212 1.927,-0.073 1.605,0.448 -0.488,0.789 -2.694,0.829 -7.689,0.142 l 0,0 z m -45.307,-1.185 c 0.821,-0.16 2.166,-0.16 2.986,0 0.822,0.158 0.149,0.286 -1.493,0.286 -1.642,0 -2.314,-0.128 -1.493,-0.286 z m 122.975,-0.196 c -1.272,-0.823 9.704,-0.823 11.617,0 0.878,0.377 -0.698,0.582 -4.646,0.606 -3.286,0.022 -6.422,-0.252 -6.971,-0.606 z m 86.998,0.035 c -0.759,-0.479 -0.618,-0.674 0.664,-0.925 0.894,-0.174 2.671,-0.245 3.948,-0.16 1.278,0.085 3.219,0.211 4.314,0.281 1.55,0.097 1.771,0.269 0.996,0.769 -1.262,0.815 -8.647,0.843 -9.922,0.035 z m -41.857,-1.108 -4.979,-0.775 6.473,0.008 c 3.561,0.005 6.473,0.237 6.473,0.516 -10e-4,0.937 -2.958,1.031 -7.967,0.251 z m 27.095,-0.355 c -1.069,-0.301 -0.628,-0.438 1.45,-0.451 1.643,-0.01 3.585,0.236 4.314,0.55 1.594,0.682 -3.277,0.599 -5.764,-0.099 z M 440.89,518.5 c 0.667,-2.553 2.521,-3.424 6.609,-3.107 3.972,0.307 8.29,1.662 9.659,3.031 0.928,0.927 0.953,0.923 -9.199,1.132 -6.853,0.142 -7.363,0.065 -7.069,-1.056 z m 79.36,0.963 c 0.22,-0.222 0.793,-0.245 1.271,-0.054 0.53,0.213 0.372,0.369 -0.4,0.4 -0.701,0.031 -1.092,-0.126 -0.871,-0.346 l 0,0 z m 7.62,-0.067 c 0.821,-0.16 2.166,-0.16 2.986,0 0.822,0.158 0.149,0.286 -1.493,0.286 -1.642,0 -2.315,-0.128 -1.493,-0.286 z m -67.546,-0.86 c 0,-0.365 0.765,-0.663 1.698,-0.663 0.965,0 1.522,0.286 1.289,0.663 -0.226,0.364 -0.989,0.664 -1.698,0.664 -0.71,0 -1.289,-0.3 -1.289,-0.664 z m 17.482,-1.003 c -1.133,-0.839 -1.051,-0.973 1.175,-1.909 1.673,-0.705 2.971,-0.835 4.315,-0.433 1.383,0.414 1.551,0.594 0.594,0.643 -1.083,0.055 -1.147,0.181 -0.352,0.685 1.267,0.801 0.883,1.084 -2.081,1.541 -1.544,0.237 -2.875,0.045 -3.651,-0.527 z" />
      </g>
    </g>
  </g>
  <g
     inkscape:groupmode="layer"
     id="layer4"
     inkscape:label="Background"
     style="display:inline" />
  <g
     inkscape:label="C"
     inkscape:groupmode="layer"
     id="layer1"
     style="display:inline" />
</svg>
