<svg width="24" height="24" viewBox="0 0 24 24" fill="none" xmlns="http://www.w3.org/2000/svg">
<path d="M12 24C18.6274 24 24 18.6274 24 12C24 5.37258 18.6274 0 12 0C5.37258 0 0 5.37258 0 12C0 18.6274 5.37258 24 12 24Z" fill="#FF3D84"/>
<path d="M11.3035 5C12.1086 5 12.8115 5.20091 13.4121 5.60272C13.738 5.82955 14.0703 6.16008 14.4089 6.5943V5.28192H16V14.7505C16 16.0726 15.8083 17.116 15.4249 17.8808C14.7093 19.2936 13.3578 20 11.3706 20C10.2652 20 9.33546 19.7472 8.58147 19.2417C7.82748 18.7427 7.40575 17.9585 7.31629 16.8892H9.07029C9.15335 17.3558 9.31949 17.7155 9.56869 17.9682C9.95847 18.3571 10.5719 18.5515 11.4089 18.5515C12.7316 18.5515 13.5974 18.0784 14.0064 17.1322C14.2492 16.5749 14.361 15.58 14.3419 14.1478C13.9968 14.6792 13.5815 15.0745 13.0958 15.3338C12.6102 15.593 11.9681 15.7226 11.1693 15.7226C10.0575 15.7226 9.08307 15.324 8.24601 14.5269C7.41534 13.7233 7 12.3979 7 10.5509C7 8.80752 7.41853 7.44653 8.25559 6.46792C9.09904 5.48931 10.115 5 11.3035 5ZM14.4089 10.3467C14.4089 9.05703 14.147 8.1011 13.623 7.47894C13.099 6.85677 12.4313 6.54569 11.6198 6.54569C10.4058 6.54569 9.57508 7.12249 9.1278 8.27609C8.89137 8.89177 8.77316 9.69864 8.77316 10.6967C8.77316 11.8697 9.00639 12.7641 9.47284 13.3798C9.94569 13.989 10.5783 14.2936 11.3706 14.2936C12.6102 14.2936 13.4824 13.7265 13.9872 12.5924C14.2684 11.9507 14.4089 11.2022 14.4089 10.3467Z" fill="white"/>
</svg>
