<svg width="98" height="29" viewBox="0 0 98 29" fill="none" xmlns="http://www.w3.org/2000/svg">
<g clip-path="url(#clip0_356_4240)">
<path d="M9.74086 28.9998C4.38043 28.9998 0 24.7701 0 18.5559V18.4777C0 12.6933 3.96647 8.03369 9.36491 8.03369C15.1435 8.03369 18.4257 12.8844 18.4257 18.2041C18.4257 19.0205 17.7836 19.6024 17.0655 19.6024H2.94422C3.35819 23.9494 6.34043 26.3943 9.8169 26.3943C12.2331 26.3943 14.0072 25.4259 15.4434 24.0666C15.6716 23.8712 15.9334 23.7192 16.2756 23.7192C16.9937 23.7192 17.5597 24.3011 17.5597 25.0003C17.5597 25.3477 17.4077 25.6995 17.1078 25.9687C15.2576 27.7969 13.0653 28.9998 9.74086 28.9998ZM15.5195 17.392C15.2153 13.7442 13.1793 10.5611 9.28888 10.5611C5.88845 10.5611 3.3244 13.475 2.94422 17.392H15.5195Z" fill="black"/>
<path d="M40.4841 18.5949V18.5168C40.4841 12.8497 44.7885 8.03369 50.6812 8.03369C56.5359 8.03369 60.8403 12.7715 60.8403 18.4386V18.5168C60.8403 24.1839 56.4978 28.9998 50.6052 28.9998C44.7505 28.9998 40.4841 24.2621 40.4841 18.5949ZM57.8538 18.5949V18.5168C57.8538 14.2089 54.7195 10.674 50.6052 10.674C46.3768 10.674 43.4664 14.2046 43.4664 18.4386V18.5168C43.4664 22.8246 46.5627 26.3205 50.677 26.3205C54.9096 26.3205 57.8538 22.829 57.8538 18.5949Z" fill="black"/>
<path d="M63.3325 23.2157V11.1041H61.7442C61.0641 11.1041 60.4601 10.4831 60.4601 9.78397C60.4601 9.04573 61.0641 8.46382 61.7442 8.46382H63.3325V3.72602C63.3325 2.90961 63.9365 2.21045 64.7687 2.21045C65.5628 2.21045 66.2429 2.90961 66.2429 3.72602V8.46382H71.3034C72.0215 8.46382 72.6256 9.08481 72.6256 9.78397C72.6256 10.5222 72.0215 11.1041 71.3034 11.1041H66.2429V22.8292C66.2429 25.2741 67.5651 26.1687 69.5293 26.1687C70.5473 26.1687 71.0753 25.8951 71.3034 25.8951C71.9835 25.8951 72.5496 26.477 72.5496 27.1762C72.5496 27.719 72.2116 28.1489 71.7174 28.34C70.8853 28.6874 69.9813 28.8828 68.8492 28.8828C65.7107 28.8828 63.3325 27.2934 63.3325 23.2157Z" fill="black"/>
<path d="M83.2705 28.9998C77.9058 28.9998 73.5254 24.7701 73.5254 18.5559V18.4777C73.5254 12.6933 77.4919 8.03369 82.8903 8.03369C88.6689 8.03369 91.9511 12.8844 91.9511 18.2041C91.9511 19.0205 91.309 19.6024 90.5909 19.6024H76.4696C76.8836 23.9494 79.8658 26.3943 83.3423 26.3943C85.7585 26.3943 87.5326 25.4259 88.9688 24.0666C89.1969 23.8712 89.4588 23.7192 89.801 23.7192C90.5191 23.7192 91.0851 24.3011 91.0851 25.0003C91.0851 25.3477 90.9331 25.6995 90.6331 25.9687C88.7872 27.7969 86.5949 28.9998 83.2705 28.9998ZM89.0491 17.392C88.7492 13.7442 86.7089 10.5611 82.8185 10.5611C79.4181 10.5611 76.8498 13.475 76.4738 17.392H89.0491Z" fill="black"/>
<path d="M95.0938 1.51557C95.0938 0.699161 95.7358 0 96.53 0C97.3621 0 98.0042 0.699161 98.0042 1.51557V27.2152C98.0042 28.0707 97.4001 28.7308 96.568 28.7308C95.7358 28.7308 95.0938 28.0707 95.0938 27.2152V1.51557Z" fill="black"/>
<path d="M37.1639 28.9782C35.846 28.9869 34.7435 28.0446 34.4731 26.7114C34.2028 25.3782 33.6874 24.1623 32.7962 23.1374C31.0051 21.0747 27.9131 21.0834 26.1305 23.1591C25.273 24.1623 24.7492 25.3391 24.4915 26.6376C24.2254 27.9664 23.1778 28.9522 21.9232 28.9913C20.5377 29.0347 19.4099 28.1792 19.1015 26.8069C18.7424 25.2175 19.7605 23.6933 21.3614 23.3676C22.8272 23.0679 24.1536 22.4252 25.1462 21.2353C26.6331 19.4505 26.405 16.8276 24.6689 15.3033C23.6805 14.4348 22.5315 13.9093 21.2727 13.6444C19.9294 13.3622 19.017 12.207 19.0339 10.7653C19.0508 9.44514 20.0435 8.29434 21.3445 8.08155C22.8356 7.83837 24.1747 8.84585 24.4915 10.3962C24.7872 11.8466 25.3743 13.1624 26.4388 14.2003C28.1623 15.8766 30.8193 15.8548 32.5469 14.1742C32.699 14.0266 32.8933 13.8876 33.0918 13.8268C33.5269 13.6879 33.9789 13.9007 34.1986 14.2915C34.4309 14.704 34.3718 15.1948 34.0254 15.5509C33.5058 16.085 33.1299 16.7103 32.9567 17.4442C32.5385 19.2551 33.0792 20.7446 34.4731 21.9041C35.4278 22.6988 36.5387 23.1548 37.7342 23.4197C39.0521 23.7106 39.973 24.9135 39.9138 26.2815C39.8547 27.6841 38.8536 28.8089 37.5018 28.9869C37.392 28.9913 37.278 28.9782 37.1639 28.9782Z" fill="#4DB961"/>
<path d="M39.9011 10.861C39.9011 12.4417 38.693 13.675 37.147 13.675C35.6305 13.675 34.4308 12.42 34.4351 10.8436C34.4351 9.2933 35.6474 8.05566 37.1681 8.05131C38.6888 8.04263 39.9011 9.2933 39.9011 10.861Z" fill="#4DB961"/>
</g>
<defs>
<clipPath id="clip0_356_4240">
<rect width="98" height="29" fill="white"/>
</clipPath>
</defs>
</svg>
