<svg width="610" height="100" viewBox="0 0 610 100" fill="none" xmlns="http://www.w3.org/2000/svg">
<g clip-path="url(#clip0_313_8)">
<path d="M235.182 49.512C237.992 49.512 240.586 49.1475 242.966 48.4336C245.345 47.716 247.392 46.694 249.118 45.3676C250.847 44.0413 252.203 42.4293 253.174 40.5319C254.152 38.6344 254.632 36.4589 254.632 34.0316V33.8137C254.632 29.1583 252.94 25.5249 249.552 22.8984C246.164 20.2833 241.413 18.9795 235.292 18.9795H211.944V49.5158H235.178L235.182 49.512ZM195.694 5.14856H236.549C242.429 5.14856 247.66 5.99021 252.226 7.64346C256.796 9.32677 260.572 11.6526 263.56 14.6209C265.92 16.973 267.714 19.7235 268.987 22.8834C270.259 26.0321 270.894 29.5039 270.894 33.2914V33.5657C270.894 37.5335 270.259 41.0767 268.987 44.1878C267.714 47.2951 265.943 50.0005 263.628 52.3113C261.316 54.6108 258.59 56.5007 255.421 57.9924C252.249 59.4803 248.819 60.5362 245.107 61.1637L274.338 99.8572H254.28L226.703 63.0686H211.956V99.8572H195.701V5.15607L195.694 5.14856Z" fill="#0445DA"/>
<path d="M315.492 21.2452H286.25V5.14856H360.91V21.2452H331.671V99.8497H315.492V21.2452Z" fill="#0445DA"/>
<path d="M381.168 5.14856H449.978V21.2452H397.347V44.4508H443.856V60.5474H397.347V83.7493H450.657V99.8497H381.168V5.14856Z" fill="#0445DA"/>
<path d="M34.5486 52.2886C37.5963 52.2886 40.3722 51.8903 42.8874 51.1238C45.3988 50.346 47.5591 49.2414 49.3605 47.791C51.1771 46.3444 52.5518 44.6348 53.511 42.6659C54.4665 40.6896 54.9424 38.4765 54.9424 36.0079V35.8012C54.9424 30.5146 53.1183 26.5167 49.4738 23.8076C45.8256 21.0948 40.9877 19.7421 34.9716 19.7421H16.1829V52.2924H34.5486V52.2886ZM0 5.29504H35.5607C40.9009 5.29504 45.7539 5.99766 50.1498 7.39165C54.5383 8.78189 58.2923 10.777 61.4155 13.3471C64.5388 15.9209 66.9445 19.0508 68.61 22.7481C70.2831 26.4528 71.1177 30.6348 71.1177 35.3353V35.6096C71.1177 40.7497 70.1244 45.2247 68.1379 49.0685C66.1476 52.8973 63.4511 56.1174 60.0635 58.7401C56.6683 61.3552 52.7104 63.3165 48.1898 64.6241C43.6654 65.9317 38.8728 66.5855 33.8008 66.5855H16.1829V99.9999H0.00377743V5.29879L0 5.29504Z" fill="#0445DA"/>
<path d="M595.469 35.6736C589.619 41.4937 580.098 41.4937 574.168 35.6736C568.322 29.8534 568.322 20.3697 574.168 14.4631C580.018 8.55651 589.535 8.64293 595.469 14.4631C601.394 20.2833 601.394 29.7669 595.469 35.6736ZM567.031 7.34663C557.192 17.1421 557.192 32.972 567.031 42.6924L584.826 60.3971L602.621 42.6924C612.46 32.9006 612.46 17.067 602.621 7.34663C592.787 -2.44888 576.861 -2.44888 567.027 7.34663" fill="#0445DA"/>
<path d="M511.763 49.2227C514.573 49.2227 517.168 48.8582 519.547 48.1443C521.926 47.4267 523.973 46.4046 525.699 45.0783C527.429 43.7519 528.785 42.14 529.755 40.2425C530.733 38.3451 531.213 36.1695 531.213 33.7423V33.5243C531.213 28.8689 529.521 25.2355 526.133 22.6091C522.746 19.994 517.995 18.6902 511.873 18.6902H488.526V49.2264H511.76L511.763 49.2227ZM472.275 4.85925H513.13C519.011 4.85925 524.241 5.7009 528.807 7.35415C533.377 9.03746 537.154 11.3633 540.141 14.3316C542.501 16.6837 544.295 19.4341 545.568 22.5941C546.841 25.7428 547.475 29.2146 547.475 33.0021V33.2763C547.475 37.2441 546.841 40.7874 545.568 43.8985C544.295 47.0058 542.524 49.7111 540.209 52.0219C537.898 54.3215 535.171 56.2114 532.002 57.7031C528.83 59.191 525.401 60.2469 521.688 60.8743L550.919 99.5679H530.862L503.285 62.7793H488.537V99.5679H472.282V4.86676L472.275 4.85925Z" fill="#0445DA"/>
<path d="M131.03 4.15283C104.469 4.15283 82.9348 25.5737 82.9348 52.0032C82.9348 78.4326 104.465 99.8535 131.03 99.8535C157.595 99.8535 179.125 78.4326 179.125 52.0032C179.125 25.5737 157.595 4.15283 131.03 4.15283ZM131.03 83.7192C113.423 83.7192 99.1516 69.5201 99.1516 52.0032C99.1516 34.4862 113.423 20.2871 131.03 20.2871C148.637 20.2871 162.909 34.4862 162.909 52.0032C162.909 69.5201 148.637 83.7192 131.03 83.7192Z" fill="#0445DA"/>
</g>
<defs>
<clipPath id="clip0_313_8">
<rect width="610" height="100" fill="white"/>
</clipPath>
</defs>
</svg>
